<svg id="BACKGROUND" xmlns="http://www.w3.org/2000/svg" viewBox="0 0 750.00001 500"><defs><style>.cls-1{opacity:0.42;}.cls-2{fill:#fff;}</style></defs><g class="cls-1"><circle class="cls-2" cx="463.21881" cy="97.7484" r="1.1763"/><circle class="cls-2" cx="326.02299" cy="141.1456" r="1.1763"/><circle class="cls-2" cx="481.62511" cy="206.0558" r="1.1763"/><circle class="cls-2" cx="516.10261" cy="262.1731" r="1.1763"/><path class="cls-2" d="M448.01431,181.5665a1.17625,1.17625,0,1,1-1.1763-1.1763A1.17624,1.17624,0,0,1,448.01431,181.5665Z"/><circle class="cls-2" cx="579.21151" cy="171.2813" r="1.1763"/><path class="cls-2" d="M416.88109,65.6301a1.1763,1.1763,0,1,1-1.17628-1.1763A1.17623,1.17623,0,0,1,416.88109,65.6301Z"/><path class="cls-2" d="M341.45669,87.4634a1.1763,1.1763,0,1,1-1.1763-1.1763A1.17628,1.17628,0,0,1,341.45669,87.4634Z"/><circle class="cls-2" cx="302.32969" cy="88.44" r="1.1763"/><path class="cls-2" d="M282.68139,154.4069a1.17629,1.17629,0,1,1-1.1763-1.1763A1.17637,1.17637,0,0,1,282.68139,154.4069Z"/><circle class="cls-2" cx="305.82789" cy="190.6264" r="1.1763"/><path class="cls-2" d="M222.314,277.4854a1.1763,1.1763,0,1,1-1.1763-1.1762A1.1763,1.1763,0,0,1,222.314,277.4854Z"/><path class="cls-2" d="M230.81039,254.5962a1.17629,1.17629,0,1,1-1.1763-1.1763A1.17621,1.17621,0,0,1,230.81039,254.5962Z"/><path class="cls-2" d="M182.9364,383.0179a1.1763,1.1763,0,1,1-1.1763-1.1763A1.17637,1.17637,0,0,1,182.9364,383.0179Z"/><path class="cls-2" d="M201.74709,344.3689a1.1763,1.1763,0,1,1-1.17628-1.1763A1.1763,1.1763,0,0,1,201.74709,344.3689Z"/><circle class="cls-2" cx="213.98259" cy="453.6764" r="1.1763"/><path class="cls-2" d="M172.7207,479.0668a1.17625,1.17625,0,1,1-1.1763-1.1762A1.17624,1.17624,0,0,1,172.7207,479.0668Z"/><path class="cls-2" d="M377.21949,467.1122a1.1763,1.1763,0,1,1-1.1763-1.1762A1.17624,1.17624,0,0,1,377.21949,467.1122Z"/><path class="cls-2" d="M455.60481,457.7505a1.1763,1.1763,0,1,1-1.1763-1.1762A1.17624,1.17624,0,0,1,455.60481,457.7505Z"/><path class="cls-2" d="M473.58571,411.6335a1.1763,1.1763,0,1,1-1.1763-1.1762A1.1763,1.1763,0,0,1,473.58571,411.6335Z"/><path class="cls-2" d="M388.51539,400.4a1.17629,1.17629,0,1,1-1.1763-1.1762A1.1763,1.1763,0,0,1,388.51539,400.4Z"/><path class="cls-2" d="M380.91381,372.8373a1.17631,1.17631,0,1,1-1.17632-1.1762A1.17626,1.17626,0,0,1,380.91381,372.8373Z"/><path class="cls-2" d="M362.76709,373.8069a1.1763,1.1763,0,1,1-1.17628-1.1763A1.1763,1.1763,0,0,1,362.76709,373.8069Z"/><circle class="cls-2" cx="583.85011" cy="387.8862" r="1.1763"/><circle class="cls-2" cx="534.80041" cy="379.49" r="1.1763"/><path class="cls-2" d="M587.95941,341.6051a1.17625,1.17625,0,1,1-1.1762-1.1763A1.17622,1.17622,0,0,1,587.95941,341.6051Z"/><circle class="cls-2" cx="600.14851" cy="285.88" r="1.1763"/><circle class="cls-2" cx="574.68231" cy="267.8766" r="1.1763"/><circle class="cls-2" cx="585.53161" cy="217.6549" r="1.1763"/><circle class="cls-2" cx="592.02491" cy="217.6723" r="1.1763"/><circle class="cls-2" cx="450.81061" cy="127.9877" r="1.1763"/><circle class="cls-2" cx="362.04769" cy="165.8299" r="1.1763"/><circle class="cls-2" cx="423.02629" cy="179.8962" r="1.1763"/><path class="cls-2" d="M214.86339,180.9523a1.17629,1.17629,0,1,1-1.1763-1.1763A1.1763,1.1763,0,0,1,214.86339,180.9523Z"/><circle class="cls-2" cx="177.8026" cy="233.8368" r="1.1763"/><path class="cls-2" d="M164.84381,273.5873a1.17631,1.17631,0,1,1-1.17631-1.1763A1.17625,1.17625,0,0,1,164.84381,273.5873Z"/><path class="cls-2" d="M173.40181,156.4628a1.17631,1.17631,0,1,1-1.17631-1.1763A1.17625,1.17625,0,0,1,173.40181,156.4628Z"/><path class="cls-2" d="M180.1054,65.0462a1.1763,1.1763,0,1,1-1.1763-1.1762A1.1763,1.1763,0,0,1,180.1054,65.0462Z"/><circle class="cls-2" cx="211.09869" cy="57.4213" r="1.1763"/><path class="cls-2" d="M364.10489,51.5061a1.17625,1.17625,0,1,1-1.1762-1.1763A1.17628,1.17628,0,0,1,364.10489,51.5061Z"/><path class="cls-2" d="M316.81869,63.746a1.1763,1.1763,0,1,1-1.1763-1.1762A1.17624,1.17624,0,0,1,316.81869,63.746Z"/><circle class="cls-2" cx="452.69871" cy="49.5757" r="1.1763"/><path class="cls-2" d="M441.51071,86.4084a1.1763,1.1763,0,1,1-1.1763-1.1762A1.17624,1.17624,0,0,1,441.51071,86.4084Z"/><circle class="cls-2" cx="418.48829" cy="125.1554" r="1.1763"/><path class="cls-2" d="M338.60969,170.5768a1.1763,1.1763,0,1,1-1.1763-1.1762A1.17624,1.17624,0,0,1,338.60969,170.5768Z"/><circle class="cls-2" cx="310.37169" cy="187.2697" r="1.1763"/><circle class="cls-2" cx="269.29669" cy="238.574" r="1.1763"/><circle class="cls-2" cx="261.80989" cy="263.2804" r="1.1763"/><circle class="cls-2" cx="269.36939" cy="302.9987" r="1.1763"/><path class="cls-2" d="M282.85869,333.2434a1.1763,1.1763,0,1,1-1.1763-1.1763A1.17628,1.17628,0,0,1,282.85869,333.2434Z"/><circle class="cls-2" cx="346.57789" cy="350.9484" r="1.1763"/><circle class="cls-2" cx="397.63859" cy="358.5196" r="1.1763"/><path class="cls-2" d="M417.877,363.4631a1.1763,1.1763,0,1,1-1.1763-1.1763A1.17628,1.17628,0,0,1,417.877,363.4631Z"/><circle class="cls-2" cx="475.28601" cy="345.6158" r="1.1763"/><path class="cls-2" d="M480.18661,309.7468a1.1763,1.1763,0,1,1-1.1763-1.1762A1.1763,1.1763,0,0,1,480.18661,309.7468Z"/><circle class="cls-2" cx="466.39121" cy="241.5428" r="1.1763"/><path class="cls-2" d="M451.40731,228.1827a1.17625,1.17625,0,1,1-1.1762-1.1763A1.17622,1.17622,0,0,1,451.40731,228.1827Z"/><circle class="cls-2" cx="450.48051" cy="199.7302" r="1.1763"/><path class="cls-2" d="M299.80939,210.3431a1.17629,1.17629,0,1,1-1.1763-1.1763A1.17629,1.17629,0,0,1,299.80939,210.3431Z"/><path class="cls-2" d="M294.24019,230.2456a1.1763,1.1763,0,1,1-1.1763-1.1762A1.1763,1.1763,0,0,1,294.24019,230.2456Z"/><path class="cls-2" d="M295.26419,280.2812a1.17625,1.17625,0,1,1-1.1763-1.1763A1.1763,1.1763,0,0,1,295.26419,280.2812Z"/><circle class="cls-2" cx="436.19541" cy="332.2864" r="1.1763"/><path class="cls-2" d="M449.636,318.9718a1.1763,1.1763,0,1,1-1.1763-1.1763A1.17628,1.17628,0,0,1,449.636,318.9718Z"/><circle class="cls-2" cx="460.85601" cy="310.3882" r="1.1763"/><path class="cls-2" d="M487.73021,297.2433a1.17625,1.17625,0,1,1-1.1762-1.1763A1.17628,1.17628,0,0,1,487.73021,297.2433Z"/><path class="cls-2" d="M503.60211,272.6917a1.17625,1.17625,0,1,1-1.1763-1.1763A1.1763,1.1763,0,0,1,503.60211,272.6917Z"/><circle class="cls-2" cx="508.38261" cy="247.9041" r="1.1763"/><path class="cls-2" d="M511.692,233.4926a1.17625,1.17625,0,1,1-1.1763-1.1763A1.17624,1.17624,0,0,1,511.692,233.4926Z"/><path class="cls-2" d="M485.74351,232.8426a1.17625,1.17625,0,1,1-1.1763-1.1763A1.17622,1.17622,0,0,1,485.74351,232.8426Z"/><circle class="cls-2" cx="495.84161" cy="205.6691" r="1.1763"/><path class="cls-2" d="M500.81351,208.2303a1.17625,1.17625,0,1,1-1.1762-1.1763A1.17628,1.17628,0,0,1,500.81351,208.2303Z"/><path class="cls-2" d="M532.76071,262.1504a1.1763,1.1763,0,1,1-1.1763-1.1762A1.1763,1.1763,0,0,1,532.76071,262.1504Z"/><circle class="cls-2" cx="518.13171" cy="287.8888" r="1.1763"/><path class="cls-2" d="M517.25271,286.4192a1.1763,1.1763,0,1,1-1.1763-1.1763A1.17628,1.17628,0,0,1,517.25271,286.4192Z"/><circle class="cls-2" cx="480.96881" cy="371.1436" r="1.1763"/></g><circle class="cls-2" cx="306.29599" cy="130.9889" r="1.1763"/><path class="cls-2" d="M372.72881,152.896a1.17631,1.17631,0,1,1-1.17632-1.1762A1.17626,1.17626,0,0,1,372.72881,152.896Z"/><circle class="cls-2" cx="297.81819" cy="179.2875" r="1.1763"/><path class="cls-2" d="M310.40049,159.3972a1.1763,1.1763,0,1,1-1.1763-1.1763A1.17622,1.17622,0,0,1,310.40049,159.3972Z"/><path class="cls-2" d="M440.57011,189.5978a1.1763,1.1763,0,1,1-1.1763-1.1763A1.17628,1.17628,0,0,1,440.57011,189.5978Z"/><circle class="cls-2" cx="294.13899" cy="217.8769" r="1.1763"/><path class="cls-2" d="M290.64939,260.1858a1.17625,1.17625,0,1,1-1.1763-1.1763A1.17629,1.17629,0,0,1,290.64939,260.1858Z"/><path class="cls-2" d="M457.49931,246.216a1.17625,1.17625,0,1,1-1.1763-1.1763A1.1763,1.1763,0,0,1,457.49931,246.216Z"/><circle class="cls-2" cx="468.69731" cy="213.131" r="1.1763"/><path class="cls-2" d="M419.84889,154.6934a1.17625,1.17625,0,1,1-1.1762-1.1763A1.1762,1.1762,0,0,1,419.84889,154.6934Z"/><circle class="cls-2" cx="440.40161" cy="120.6773" r="1.1763"/><circle class="cls-2" cx="352.64099" cy="107.3331" r="1.1763"/><path class="cls-2" d="M353.808,129.2343a1.17625,1.17625,0,1,1-1.1763-1.1763A1.1763,1.1763,0,0,1,353.808,129.2343Z"/><circle class="cls-2" cx="511.99131" cy="278.1629" r="1.1763"/><path class="cls-2" d="M494.28771,342.2152a1.17625,1.17625,0,1,1-1.1762-1.1763A1.17622,1.17622,0,0,1,494.28771,342.2152Z"/><circle class="cls-2" cx="495.00581" cy="390.3398" r="1.1763"/><path class="cls-2" d="M411.44749,430.039a1.17625,1.17625,0,1,1-1.1763-1.1763A1.1763,1.1763,0,0,1,411.44749,430.039Z"/><circle class="cls-2" cx="374.23019" cy="434.8102" r="1.1763"/><circle class="cls-2" cx="357.13059" cy="403.5929" r="1.1763"/><circle class="cls-2" cx="397.09219" cy="397.9104" r="1.1763"/><path class="cls-2" d="M390.72569,375.9588a1.1763,1.1763,0,1,1-1.1763-1.1762A1.1763,1.1763,0,0,1,390.72569,375.9588Z"/><circle class="cls-2" cx="372.25499" cy="379.8259" r="1.1763"/><circle class="cls-2" cx="212.10359" cy="339.417" r="1.1763"/><circle class="cls-2" cx="238.57759" cy="365.8962" r="1.1763"/><path class="cls-2" d="M319.83739,339.4216a1.17625,1.17625,0,1,1-1.1762-1.1762A1.17621,1.17621,0,0,1,319.83739,339.4216Z"/><circle class="cls-2" cx="287.57469" cy="280.1935" r="1.1763"/><path class="cls-2" d="M233.04189,278.145a1.17625,1.17625,0,1,1-1.1762-1.1763A1.17622,1.17622,0,0,1,233.04189,278.145Z"/><path class="cls-2" d="M138.2994,47.7923a1.1763,1.1763,0,1,1-1.1763-1.1763A1.17637,1.17637,0,0,1,138.2994,47.7923Z"/><path class="cls-2" d="M203.55581,69.6995a1.17626,1.17626,0,1,1-1.17622-1.1763A1.17621,1.17621,0,0,1,203.55581,69.6995Z"/><circle class="cls-2" cx="128.6453" cy="96.0909" r="1.1763"/><circle class="cls-2" cx="140.0513" cy="76.2006" r="1.1763"/><path class="cls-2" d="M271.39709,106.4012a1.1763,1.1763,0,1,1-1.17628-1.1763A1.1763,1.1763,0,0,1,271.39709,106.4012Z"/><circle class="cls-2" cx="124.9661" cy="134.6803" r="1.17629"/><circle class="cls-2" cx="120.3002" cy="176.9892" r="1.1763"/><path class="cls-2" d="M288.32639,163.0194a1.17629,1.17629,0,1,1-1.1763-1.1763A1.17637,1.17637,0,0,1,288.32639,163.0194Z"/><path class="cls-2" d="M300.70059,129.9344a1.17625,1.17625,0,1,1-1.1762-1.1763A1.17628,1.17628,0,0,1,300.70059,129.9344Z"/><path class="cls-2" d="M250.676,71.4968a1.1763,1.1763,0,1,1-1.1763-1.1763A1.17628,1.17628,0,0,1,250.676,71.4968Z"/><path class="cls-2" d="M272.40489,37.4807a1.17625,1.17625,0,1,1-1.1763-1.1763A1.1763,1.1763,0,0,1,272.40489,37.4807Z"/><path class="cls-2" d="M184.6443,24.1365a1.1763,1.1763,0,1,1-1.1763-1.1762A1.17624,1.17624,0,0,1,184.6443,24.1365Z"/><path class="cls-2" d="M184.6351,46.0377a1.1763,1.1763,0,1,1-1.17629-1.1763A1.17637,1.17637,0,0,1,184.6351,46.0377Z"/><circle class="cls-2" cx="342.81829" cy="194.9663" r="1.1763"/><path class="cls-2" d="M325.11481,259.0186a1.17631,1.17631,0,1,1-1.17632-1.1762A1.17632,1.17632,0,0,1,325.11481,259.0186Z"/><path class="cls-2" d="M327.00909,307.1432a1.17625,1.17625,0,1,1-1.17628-1.1763A1.1763,1.1763,0,0,1,327.00909,307.1432Z"/><circle class="cls-2" cx="241.09829" cy="346.8424" r="1.1763"/><circle class="cls-2" cx="205.05729" cy="351.6136" r="1.1763"/><path class="cls-2" d="M189.1339,320.3963a1.17625,1.17625,0,1,1-1.1762-1.1763A1.17628,1.17628,0,0,1,189.1339,320.3963Z"/><path class="cls-2" d="M229.09549,314.7138a1.17625,1.17625,0,1,1-1.1763-1.1763A1.1763,1.1763,0,0,1,229.09549,314.7138Z"/><path class="cls-2" d="M221.55269,292.7622a1.17625,1.17625,0,1,1-1.1763-1.1762A1.17624,1.17624,0,0,1,221.55269,292.7622Z"/><path class="cls-2" d="M204.25829,296.6293a1.17624,1.17624,0,1,1-1.1762-1.1763A1.17622,1.17622,0,0,1,204.25829,296.6293Z"/><path class="cls-2" d="M44.1069,256.2204a1.17625,1.17625,0,1,1-1.1763-1.1763A1.17624,1.17624,0,0,1,44.1069,256.2204Z"/><circle class="cls-2" cx="69.4047" cy="282.6996" r="1.1763"/><path class="cls-2" d="M150.6645,256.225a1.1763,1.1763,0,1,1-1.1763-1.1762A1.1763,1.1763,0,0,1,150.6645,256.225Z"/><circle class="cls-2" cx="118.4017" cy="196.9969" r="1.1763"/><path class="cls-2" d="M63.869,194.9484a1.1763,1.1763,0,1,1-1.1763-1.1762A1.1763,1.1763,0,0,1,63.869,194.9484Z"/><path class="cls-2" d="M487.48241,163.052a1.17625,1.17625,0,1,1-1.1762-1.1763A1.17628,1.17628,0,0,1,487.48241,163.052Z"/><path class="cls-2" d="M552.73891,184.9592a1.1763,1.1763,0,1,1-1.1763-1.1763A1.17622,1.17622,0,0,1,552.73891,184.9592Z"/><path class="cls-2" d="M479.00461,211.3506a1.17625,1.17625,0,1,1-1.1763-1.1762A1.17624,1.17624,0,0,1,479.00461,211.3506Z"/><path class="cls-2" d="M490.41061,191.4603a1.17625,1.17625,0,1,1-1.1763-1.1763A1.1763,1.1763,0,0,1,490.41061,191.4603Z"/><circle class="cls-2" cx="619.40391" cy="221.6609" r="1.1763"/><path class="cls-2" d="M475.32541,249.94a1.17625,1.17625,0,1,1-1.1763-1.1763A1.17624,1.17624,0,0,1,475.32541,249.94Z"/><path class="cls-2" d="M470.65951,292.2489a1.17625,1.17625,0,1,1-1.1762-1.1763A1.17628,1.17628,0,0,1,470.65951,292.2489Z"/><path class="cls-2" d="M637.50941,278.2791a1.17625,1.17625,0,1,1-1.1762-1.1763A1.17628,1.17628,0,0,1,637.50941,278.2791Z"/><circle class="cls-2" cx="648.70741" cy="245.1941" r="1.1763"/><circle class="cls-2" cx="598.68281" cy="186.7565" r="1.1763"/><circle class="cls-2" cx="620.41171" cy="152.7404" r="1.1763"/><path class="cls-2" d="M533.82741,139.3963a1.1763,1.1763,0,1,1-1.1763-1.1763A1.17628,1.17628,0,0,1,533.82741,139.3963Z"/><path class="cls-2" d="M533.81811,161.2974a1.17625,1.17625,0,1,1-1.1762-1.1763A1.17628,1.17628,0,0,1,533.81811,161.2974Z"/><circle class="cls-2" cx="692.00141" cy="310.226" r="1.1763"/><path class="cls-2" d="M674.29791,374.2783a1.1763,1.1763,0,1,1-1.1763-1.1762A1.1763,1.1763,0,0,1,674.29791,374.2783Z"/><circle class="cls-2" cx="675.01591" cy="422.4029" r="1.1763"/><path class="cls-2" d="M591.45761,462.1021a1.17625,1.17625,0,1,1-1.1762-1.1763A1.17628,1.17628,0,0,1,591.45761,462.1021Z"/><path class="cls-2" d="M555.41661,466.8733a1.17625,1.17625,0,1,1-1.1763-1.1763A1.17624,1.17624,0,0,1,555.41661,466.8733Z"/><circle class="cls-2" cx="537.14071" cy="435.656" r="1.1763"/><circle class="cls-2" cx="577.10231" cy="429.9735" r="1.1763"/><path class="cls-2" d="M570.73581,408.022a1.1763,1.1763,0,1,1-1.1763-1.1763A1.17622,1.17622,0,0,1,570.73581,408.022Z"/><circle class="cls-2" cx="552.26511" cy="411.889" r="1.1763"/><circle class="cls-2" cx="392.11369" cy="371.4801" r="1.1763"/><path class="cls-2" d="M419.764,397.9593a1.17625,1.17625,0,1,1-1.1763-1.1762A1.17624,1.17624,0,0,1,419.764,397.9593Z"/><path class="cls-2" d="M499.84761,371.4848a1.1763,1.1763,0,1,1-1.1763-1.1763A1.17628,1.17628,0,0,1,499.84761,371.4848Z"/><circle class="cls-2" cx="467.58481" cy="312.2566" r="1.1763"/><path class="cls-2" d="M413.05209,310.2081a1.1763,1.1763,0,1,1-1.17628-1.1762A1.1763,1.1763,0,0,1,413.05209,310.2081Z"/><path class="cls-2" d="M319.70839,176.8213a1.17629,1.17629,0,1,1-1.1763-1.1763A1.1763,1.1763,0,0,1,319.70839,176.8213Z"/><path class="cls-2" d="M344.53739,154.7832a1.17629,1.17629,0,1,1-1.1763-1.1763A1.1763,1.1763,0,0,1,344.53739,154.7832Z"/><circle class="cls-2" cx="326.32869" cy="168.0177" r="1.1763"/><path class="cls-2" d="M384.07669,147.254a1.17625,1.17625,0,1,1-1.1763-1.1763A1.1763,1.1763,0,0,1,384.07669,147.254Z"/><path class="cls-2" d="M409.55389,169.0569a1.1763,1.1763,0,1,1-1.1763-1.1763A1.17628,1.17628,0,0,1,409.55389,169.0569Z"/><path class="cls-2" d="M316.10359,117.972a1.17625,1.17625,0,1,1-1.1762-1.1763A1.17622,1.17622,0,0,1,316.10359,117.972Z"/><circle class="cls-2" cx="260.23419" cy="163.3579" r="1.1763"/><path class="cls-2" d="M482.77581,431.5951a1.1763,1.1763,0,1,1-1.1763-1.1762A1.1763,1.1763,0,0,1,482.77581,431.5951Z"/></svg>