<?xml version="1.0" encoding="utf-8"?>
<!-- Generator: Adobe Illustrator 24.3.0, SVG Export Plug-In . SVG Version: 6.00 Build 0)  -->
<svg version="1.1" id="Layer_1" xmlns="http://www.w3.org/2000/svg" xmlns:xlink="http://www.w3.org/1999/xlink" x="0px" y="0px"
	 viewBox="0 0 325 347" style="enable-background:new 0 0 325 347;" xml:space="preserve">
<style type="text/css">
	.st0{fill:#FF6C00;}
</style>
<g>
	<g>
		<path class="st0" d="M6.52,347c5.96-6.47,11.92-12.93,17.88-19.41c9.55-10.39,19.09-20.79,28.64-31.19
			c10.44-11.37,20.88-22.74,31.32-34.1c10.41-11.34,20.84-22.67,31.25-34c11.25-12.25,22.5-24.51,33.75-36.76
			c10.41-11.34,20.84-22.67,31.25-34c10.36-11.28,20.71-22.56,31.07-33.84c9.49-10.34,19-20.66,28.49-31
			c9.41-10.25,18.81-20.5,28.23-30.75c8.55-9.31,17.1-18.6,25.65-27.91c9.38-10.22,18.76-20.45,28.14-30.67
			c0.92-1,1.88-1.95,2.82-2.93c0,68.4,0,136.8,0,205.2c-0.33,0.25-0.71,0.47-1,0.77c-13.8,14.7-27.62,29.38-41.36,44.12
			c-11.41,12.24-22.67,24.61-34.1,36.83c-18.3,19.57-36.69,39.07-55.04,58.6c-0.29,0.31-0.5,0.69-0.74,1.04
			C130.68,347,68.6,347,6.52,347z"/>
	</g>
</g>
</svg>
