<svg xmlns="http://www.w3.org/2000/svg" xmlns:xlink="http://www.w3.org/1999/xlink" viewBox="0 0 229.45055 169.31868"><defs><style>.cls-1{fill:none;}.cls-2{isolation:isolate;}.cls-3{clip-path:url(#clip-path);}.cls-4{fill:url(#Degradado_sin_nombre_17);}.cls-5{fill:#904bb0;}.cls-6{fill:url(#Degradado_sin_nombre_18);}.cls-7{fill:#fff;}.cls-8{clip-path:url(#clip-path-2);}.cls-9{fill:#ff9000;}.cls-10{fill:#ffd500;}.cls-11{fill:url(#Degradado_sin_nombre_94);}.cls-12{fill:url(#linear-gradient);}.cls-13{fill:url(#linear-gradient-2);}.cls-14{fill:url(#linear-gradient-3);}.cls-15{fill:url(#linear-gradient-4);}.cls-16{fill:url(#linear-gradient-5);}.cls-17{fill:url(#linear-gradient-6);}.cls-18{fill:url(#linear-gradient-7);}.cls-19{fill:url(#linear-gradient-8);}.cls-20{fill:url(#linear-gradient-9);}.cls-21{fill:url(#Degradado_sin_nombre_341);}.cls-22{fill:#49484b;}.cls-23{fill:#242025;}.cls-24{fill:url(#Degradado_sin_nombre_133);}.cls-25{fill:#ff0054;}.cls-26{fill:url(#Degradado_sin_nombre_133-2);}.cls-27{fill:url(#Degradado_sin_nombre_341-2);}.cls-28{fill:#afafaf;}.cls-28,.cls-31{mix-blend-mode:color-burn;opacity:0.8;}.cls-29{fill:#b5b8ba;}.cls-30{clip-path:url(#clip-path-3);}.cls-31{fill:#363538;}.cls-32{fill:url(#Degradado_sin_nombre_21);}.cls-33,.cls-36,.cls-37,.cls-55,.cls-58{mix-blend-mode:multiply;}.cls-33,.cls-55,.cls-58{opacity:0.55;}.cls-33{fill:url(#Degradado_sin_nombre_20);}.cls-34{fill:#f9fbf9;}.cls-35,.cls-36,.cls-41{fill:#e1eddd;}.cls-35{opacity:0.85;}.cls-37{opacity:0.7;}.cls-38{fill:url(#Degradado_sin_nombre_19);}.cls-39{fill:url(#Degradado_sin_nombre_19-2);}.cls-40{fill:url(#Degradado_sin_nombre_19-3);}.cls-41{opacity:0.25;}.cls-42{fill:url(#Degradado_sin_nombre_16);}.cls-43{clip-path:url(#clip-path-4);}.cls-44{fill:url(#Degradado_sin_nombre_15);}.cls-45{fill:url(#Degradado_sin_nombre_15-2);}.cls-46{fill:url(#Degradado_sin_nombre_15-3);}.cls-47{fill:url(#Degradado_sin_nombre_15-4);}.cls-48{fill:url(#Degradado_sin_nombre_15-5);}.cls-49{fill:url(#Degradado_sin_nombre_15-6);}.cls-50{fill:url(#Degradado_sin_nombre_15-7);}.cls-51{fill:url(#Degradado_sin_nombre_15-8);}.cls-52{fill:url(#Degradado_sin_nombre_15-9);}.cls-53{fill:url(#Degradado_sin_nombre_15-10);}.cls-54{fill:url(#Degradado_sin_nombre_14);}.cls-55{fill:url(#Degradado_sin_nombre_13);}.cls-56{fill:url(#Degradado_sin_nombre_22);}.cls-57{opacity:0.2;fill:url(#Degradado_sin_nombre_11);}.cls-58{fill:#b07aeb;}.cls-59{fill:url(#Degradado_sin_nombre_8);}</style><clipPath id="clip-path"><rect class="cls-1" width="229.45055" height="169.31868"/></clipPath><linearGradient id="Degradado_sin_nombre_17" x1="292.90595" y1="199.09407" x2="-13.72457" y2="-15.45786" gradientUnits="userSpaceOnUse"><stop offset="0.22782" stop-color="#6e1796"/><stop offset="1" stop-color="#2d0053"/></linearGradient><radialGradient id="Degradado_sin_nombre_18" cx="-329.65682" cy="153.26748" r="18.17695" gradientTransform="translate(54.42983 -330.72454) rotate(-78.98927)" gradientUnits="userSpaceOnUse"><stop offset="0" stop-color="#abf4ff"/><stop offset="0.37279" stop-color="#78eaff"/><stop offset="0.7934" stop-color="#45e1ff"/><stop offset="1" stop-color="#31ddff"/></radialGradient><clipPath id="clip-path-2"><path class="cls-1" d="M182.89835,86.84851c0-37.6517-30.52282-78.94492-68.17462-78.94492S45.5314,54.85528,45.5314,92.507c0,37.6518,29.32941,81.559,66.9812,81.559S182.89835,124.50031,182.89835,86.84851Z"/></clipPath><linearGradient id="Degradado_sin_nombre_94" x1="114.58679" y1="167.30135" x2="114.58679" y2="218.15389" gradientTransform="translate(229.35312 220.10699) rotate(180)" gradientUnits="userSpaceOnUse"><stop offset="0.00202" stop-color="#ff69d6"/><stop offset="0.13531" stop-color="#ff69d6" stop-opacity="0.84325"/><stop offset="0.45551" stop-color="#ff69d6" stop-opacity="0.4865"/><stop offset="0.71606" stop-color="#ff69d6" stop-opacity="0.22429"/><stop offset="0.90373" stop-color="#ff69d6" stop-opacity="0.06197"/><stop offset="1" stop-color="#ff69d6" stop-opacity="0"/></linearGradient><linearGradient id="linear-gradient" x1="152.86272" y1="188.48705" x2="152.86272" y2="120.48381" gradientTransform="translate(229.35312 220.10699) rotate(180)" gradientUnits="userSpaceOnUse"><stop offset="0.04487" stop-color="#a10038"/><stop offset="1" stop-color="#ff5800"/></linearGradient><linearGradient id="linear-gradient-2" x1="144.51519" y1="139.65372" x2="144.51519" y2="109.90562" xlink:href="#linear-gradient"/><linearGradient id="linear-gradient-3" x1="141.28889" y1="164.15371" x2="141.28889" y2="131.93005" xlink:href="#linear-gradient"/><linearGradient id="linear-gradient-4" x1="155.42558" y1="158.48705" x2="155.42558" y2="105.6054" gradientTransform="translate(229.35312 220.10699) rotate(180)" gradientUnits="userSpaceOnUse"><stop offset="0.01496" stop-color="#ff520d"/><stop offset="0.80983" stop-color="#ff5278"/><stop offset="1" stop-color="#ff6d96"/></linearGradient><linearGradient id="linear-gradient-5" x1="76.63774" y1="188.48698" x2="76.63774" y2="120.48358" xlink:href="#linear-gradient"/><linearGradient id="linear-gradient-6" x1="85.06754" y1="139.65369" x2="85.06754" y2="109.90562" xlink:href="#linear-gradient"/><linearGradient id="linear-gradient-7" x1="88.16095" y1="164.1537" x2="88.16095" y2="131.93004" xlink:href="#linear-gradient"/><linearGradient id="linear-gradient-8" x1="74.09192" y1="158.48705" x2="74.09192" y2="105.60537" xlink:href="#linear-gradient-4"/><linearGradient id="linear-gradient-9" x1="114.75998" y1="148.82037" x2="114.75998" y2="56.1515" gradientTransform="translate(229.35312 220.10699) rotate(180)" gradientUnits="userSpaceOnUse"><stop offset="0.01496" stop-color="#ff7f02"/><stop offset="0.80983" stop-color="#ff5278"/><stop offset="1" stop-color="#ff6d96"/></linearGradient><linearGradient id="Degradado_sin_nombre_341" x1="114.8371" y1="86.00034" x2="114.8371" y2="57.88767" gradientTransform="translate(229.35312 220.10699) rotate(180)" gradientUnits="userSpaceOnUse"><stop offset="0" stop-color="#908f91"/><stop offset="1" stop-color="#cdcfd1"/></linearGradient><linearGradient id="Degradado_sin_nombre_133" x1="114.6898" y1="170.32036" x2="114.6898" y2="116.39399" gradientTransform="translate(229.35312 220.10699) rotate(180)" gradientUnits="userSpaceOnUse"><stop offset="0.01496" stop-color="#ff1857"/><stop offset="0.80983" stop-color="#ff5278"/><stop offset="1" stop-color="#ff6d96"/></linearGradient><linearGradient id="Degradado_sin_nombre_133-2" x1="114.80854" y1="87.32039" x2="114.80854" y2="121.69406" xlink:href="#Degradado_sin_nombre_133"/><linearGradient id="Degradado_sin_nombre_341-2" x1="114.80859" y1="112.72942" x2="114.80859" y2="87.06256" xlink:href="#Degradado_sin_nombre_341"/><clipPath id="clip-path-3"><path class="cls-1" d="M106.51482,120.165a8.02971,8.02971,0,1,0,8.0436-8.0158A8.02968,8.02968,0,0,0,106.51482,120.165Z"/></clipPath><radialGradient id="Degradado_sin_nombre_21" cx="39.92578" cy="117.9414" r="15.84063" gradientTransform="translate(-8.76054 10.00047) rotate(-7.53624)" gradientUnits="userSpaceOnUse"><stop offset="0" stop-color="#fedf06"/><stop offset="0.1311" stop-color="#fcd309"/><stop offset="0.71407" stop-color="#f59f17"/><stop offset="1" stop-color="#f28b1c"/></radialGradient><radialGradient id="Degradado_sin_nombre_20" cx="39.30693" cy="122.20493" r="12.04478" gradientTransform="translate(-64.02935 61.81771) rotate(-42.63415)" gradientUnits="userSpaceOnUse"><stop offset="0.05847" stop-color="#f28b1c"/><stop offset="1" stop-color="#f28b1c"/></radialGradient><radialGradient id="Degradado_sin_nombre_19" cx="46.2472" cy="111.00812" r="7.98645" gradientTransform="translate(-64.02935 61.81771) rotate(-42.63415)" gradientUnits="userSpaceOnUse"><stop offset="0" stop-color="#e9541c"/><stop offset="1" stop-color="#ea5f0c"/></radialGradient><radialGradient id="Degradado_sin_nombre_19-2" cx="40.14767" cy="117.09252" r="12.85198" xlink:href="#Degradado_sin_nombre_19"/><radialGradient id="Degradado_sin_nombre_19-3" cx="32.5642" cy="131.11282" r="6.0873" xlink:href="#Degradado_sin_nombre_19"/><radialGradient id="Degradado_sin_nombre_16" cx="168.61415" cy="200.81361" r="23.76101" gradientTransform="matrix(0.69427, 0.71968, -0.71968, 0.69427, 235.73551, -215.3602)" gradientUnits="userSpaceOnUse"><stop offset="0" stop-color="#5920a1"/><stop offset="0.20498" stop-color="#4c1a8c"/><stop offset="0.73833" stop-color="#2c0a58"/><stop offset="1" stop-color="#200444"/></radialGradient><clipPath id="clip-path-4"><circle class="cls-1" cx="207.36029" cy="52.20307" r="19.68845" transform="translate(90.95759 231.57381) rotate(-71.14904)"/></clipPath><radialGradient id="Degradado_sin_nombre_15" cx="173.24078" cy="206.21341" r="24.03557" gradientTransform="matrix(0.9054, -0.4245, 0.4245, 0.9054, -36.68323, -61.1019)" gradientUnits="userSpaceOnUse"><stop offset="0" stop-color="#d2f1e7"/><stop offset="0.09879" stop-color="#b3ede2"/><stop offset="0.25084" stop-color="#89e8db"/><stop offset="0.3991" stop-color="#68e3d5"/><stop offset="0.54045" stop-color="#50e0d1"/><stop offset="0.67207" stop-color="#42dfcf"/><stop offset="0.78427" stop-color="#3ddece"/></radialGradient><radialGradient id="Degradado_sin_nombre_15-2" cx="173.24078" cy="206.21404" r="24.03619" xlink:href="#Degradado_sin_nombre_15"/><radialGradient id="Degradado_sin_nombre_15-3" cx="173.24089" cy="206.21326" r="24.03514" xlink:href="#Degradado_sin_nombre_15"/><radialGradient id="Degradado_sin_nombre_15-4" cx="173.24092" cy="206.21317" r="24.03506" xlink:href="#Degradado_sin_nombre_15"/><radialGradient id="Degradado_sin_nombre_15-5" cx="173.24094" cy="206.21309" r="24.03505" xlink:href="#Degradado_sin_nombre_15"/><radialGradient id="Degradado_sin_nombre_15-6" cx="173.24103" cy="206.21286" r="24.03504" xlink:href="#Degradado_sin_nombre_15"/><radialGradient id="Degradado_sin_nombre_15-7" cx="173.24106" cy="206.21276" r="24.0351" xlink:href="#Degradado_sin_nombre_15"/><radialGradient id="Degradado_sin_nombre_15-8" cx="173.24106" cy="206.21271" r="24.03515" xlink:href="#Degradado_sin_nombre_15"/><radialGradient id="Degradado_sin_nombre_15-9" cx="173.24114" cy="206.21255" r="24.03519" xlink:href="#Degradado_sin_nombre_15"/><radialGradient id="Degradado_sin_nombre_15-10" cx="173.24123" cy="206.21223" r="24.03561" xlink:href="#Degradado_sin_nombre_15"/><linearGradient id="Degradado_sin_nombre_14" x1="157.76105" y1="193.28691" x2="177.40304" y2="210.17649" gradientTransform="matrix(0.9054, -0.4245, 0.4245, 0.9054, -36.68323, -61.1019)" gradientUnits="userSpaceOnUse"><stop offset="0.05847" stop-color="#3ddece" stop-opacity="0"/><stop offset="1" stop-color="#3ddece"/></linearGradient><radialGradient id="Degradado_sin_nombre_13" cx="177.42488" cy="211.20026" r="20.5111" gradientTransform="matrix(0.9054, -0.4245, 0.4245, 0.9054, -36.68323, -61.1019)" gradientUnits="userSpaceOnUse"><stop offset="0.34154" stop-color="#4d1497"/><stop offset="0.5091" stop-color="#431183"/><stop offset="0.8506" stop-color="#280850"/><stop offset="0.97588" stop-color="#1e053b"/></radialGradient><radialGradient id="Degradado_sin_nombre_22" cx="30.88819" cy="74.06195" r="15.89751" gradientTransform="translate(17.47618 -4.43877) rotate(24.01194)" gradientUnits="userSpaceOnUse"><stop offset="0" stop-color="#d2a6ff"/><stop offset="1" stop-color="#cc96ff"/></radialGradient><linearGradient id="Degradado_sin_nombre_11" x1="23.62688" y1="69.02604" x2="36.76789" y2="80.32562" gradientTransform="translate(17.47618 -4.43877) rotate(24.01194)" gradientUnits="userSpaceOnUse"><stop offset="0.05847" stop-color="#e6f1ff" stop-opacity="0"/><stop offset="1" stop-color="#e6f1ff"/></linearGradient><radialGradient id="Degradado_sin_nombre_8" cx="-308.59346" cy="320.95954" r="10.76243" gradientTransform="matrix(-0.4417, 0.8971, -0.8971, -0.4417, 208.79363, 441.78712)" gradientUnits="userSpaceOnUse"><stop offset="0" stop-color="#ff61c6"/><stop offset="0.57299" stop-color="#ff40c8"/><stop offset="1" stop-color="#ff2cca"/></radialGradient></defs><g class="cls-2"><g id="OBJECTS"><g class="cls-3"><rect class="cls-4" x="-35.34066" y="-63.95604" width="298.68132" height="275.73626"/><path class="cls-5" d="M61.19876,60.31147a1.13812,1.13812,0,1,0-.21907,1.59469A1.138,1.138,0,0,0,61.19876,60.31147Z"/><path class="cls-5" d="M134.14544,116.3098a1.13812,1.13812,0,1,0-.21919,1.59462A1.13834,1.13834,0,0,0,134.14544,116.3098Z"/><path class="cls-5" d="M159.30878,34.55482a1.13807,1.13807,0,1,0-1.59449-.21889A1.13793,1.13793,0,0,0,159.30878,34.55482Z"/><path class="cls-5" d="M77.80476,32.96046a1.1381,1.1381,0,1,0-.21908,1.5945A1.138,1.138,0,0,0,77.80476,32.96046Z"/><path class="cls-5" d="M22.11213,113.242a.73766.73766,0,1,0-.14207,1.0335A.73773.73773,0,0,0,22.11213,113.242Z"/><path class="cls-5" d="M65.1808,71.81638a.73774.73774,0,1,0,.14207-1.03362A.73793.73793,0,0,0,65.1808,71.81638Z"/><path class="cls-5" d="M115.9382,76.49333a.73766.73766,0,1,0-.142,1.03349A.73751.73751,0,0,0,115.9382,76.49333Z"/><path class="cls-5" d="M147.91951,45.9339a.73772.73772,0,1,0-.14207,1.03368A.73773.73773,0,0,0,147.91951,45.9339Z"/><path class="cls-5" d="M187.81722,71.55463a.73767.73767,0,1,0,.14194-1.03349A.73749.73749,0,0,0,187.81722,71.55463Z"/><path class="cls-5" d="M216.09505,62.58583a.73763.73763,0,1,0-.14194,1.0335A.73748.73748,0,0,0,216.09505,62.58583Z"/><path class="cls-5" d="M115.97633,85.68369a1.92765,1.92765,0,1,0-.3711,2.70059A1.92763,1.92763,0,0,0,115.97633,85.68369Z"/><path class="cls-5" d="M141.47819,127.82654a1.79974,1.79974,0,1,0-.34653,2.52138A1.79941,1.79941,0,0,0,141.47819,127.82654Z"/><path class="cls-5" d="M84.40768,122.60607a1.13814,1.13814,0,1,0-.21908,1.59443A1.138,1.138,0,0,0,84.40768,122.60607Z"/><path class="cls-6" d="M161.49626,21.74761l-26.759-11.33839a15.061,15.061,0,1,0,26.62013,12.18936C161.41263,22.31448,161.45756,22.03086,161.49626,21.74761Z"/><path class="cls-7" d="M-40.28-66.97562V223.65023H269.78666V-66.97562ZM114.72373,144.25265a68.17453,68.17453,0,1,1,68.17462-68.17456A68.17453,68.17453,0,0,1,114.72373,144.25265Z"/><g class="cls-8"><path class="cls-9" d="M114.76632,42.237l4.9951-.0001a14.40948,14.40948,0,0,0-1.7927-7.7958l-3.2024-5.7594-3.20241,5.7594a14.40956,14.40956,0,0,0-1.79269,7.7958Zm-1.6882-6.954,1.6882-3.0363,1.6882,3.0363a12.62409,12.62409,0,0,1,1.5748,6.9539h-6.526A12.624,12.624,0,0,1,113.07812,35.283Z"/><path class="cls-10" d="M114.76632,42.2369h3.263a12.62409,12.62409,0,0,0-1.5748-6.9539l-1.6882-3.0363-1.6882,3.0363a12.624,12.624,0,0,0-1.5748,6.9539Z"/><polygon class="cls-11" points="114.766 42.229 124.156 42.237 114.766 -71.51 105.377 42.237 114.766 42.229"/><path class="cls-12" d="M64.50453,64.1668a41.94982,41.94982,0,0,0,17.831,34.3931,34.23563,34.23563,0,0,0,4.47569-9.5185c.09869-.3444.1916-.6915.2818-1.0399a76.19876,76.19876,0,0,1,1.3833-11.4859,30.23652,30.23652,0,0,0-.9319-6.6514,33.371,33.371,0,0,0-6.51089-13.0076c-8.3072-1.8864-13.44-4.5519-16.5094-6.769l.00478.0046Z"/><path class="cls-13" d="M87.093,88.0015c-.0902.3484-.18311.6955-.2818,1.0399a34.23563,34.23563,0,0,1-4.47569,9.5185,41.84247,41.84247,0,0,0,5.00479,3.0187c-.2288-3.0788-.3521-6.2607-.3465-9.5518C86.99622,90.6434,87.03191,89.3041,87.093,88.0015Z"/><path class="cls-14" d="M88.47632,76.5156A54.5052,54.5052,0,0,1,95.095,58.8817q-.65-.04935-1.2854-.1039c-.10671-.0092-.2135-.0183-.3195-.0278q-.6927-.0615-1.3679-.1294c-.0805-.0081-.1595-.0167-.2396-.025q-.5994-.0618-1.1841-.1287c-.0894-.0102-.1798-.0201-.2687-.0305q-.6408-.07485-1.2636-.1556c-.1072-.0138-.21331-.028-.3197-.0421q-.56835-.0753-1.1233-.1549c-.053-.0077-.1072-.015-.1601-.0226-.3961-.0578-.7849-.118-1.1701-.1791q-.17594-.0279-.35069-.0563c-.3722-.0606-.7406-.1223-1.1025-.1858-.0944-.0166-.1866-.0338-.2803-.0505q-.44343-.0795-.8764-.1617c-.113-.0215-.2267-.0428-.3386-.0645q-.50535-.0981-.9964-.2001c-.1185-.0245-.2353-.0495-.3526-.0744q-.396-.084-.7829-.1703c-.0924-.0206-.1864-.0408-.2781-.0616l-.0011-.0003h.0001a33.371,33.371,0,0,1,6.51089,13.0076A30.23652,30.23652,0,0,1,88.47632,76.5156Z"/><path class="cls-15" d="M60.37853,54.0116l-.01762,10.148a41.9554,41.9554,0,0,0,22.22142,37.095c.0599.0319.1205.0629.18058.0945q.29178.1536.58632.3033c.0824.0418.1654.0828.2483.124q.26385.1314.53.2597.1398.0672.2805.1333.25455.12.5111.2367.14715.06705.29478.1332.25683.1146.516.2254c.09742.0418.19442.0842.29222.1253.185.0779.37119.1537.55769.2291.0852.0344.1699.0698.2555.1037.2185.0867.4385.1706.6589.2538q-.08446-.94155-.1539-1.898A41.94457,41.94457,0,0,1,64.50453,64.1668l.02438-14.0746-.00478-.0046c-2.2266-2.2301-3.7716-.8771-3.9895.5378A30.275,30.275,0,0,0,60.37853,54.0116Z"/><path class="cls-16" d="M141.643,69.9282a30.09282,30.09282,0,0,0-.9439,6.3502,76.1806,76.1806,0,0,1,1.4203,12.1242c.0621.2357.1243.4714.1904.7052a34.238,34.238,0,0,0,4.4428,9.5339,41.9497,41.9497,0,0,0,17.9498-34.3311l.0244-14.0746.0048-.0046c-3.0772,2.2066-8.2195,4.8543-16.5338,6.712l.0008-.0001A33.37254,33.37254,0,0,0,141.643,69.9282Z"/><path class="cls-17" d="M142.30982,89.1078c-.0661-.2338-.1283-.4695-.1904-.7052.0482,1.207.0753,2.444.073,3.7197-.0056,3.2653-.138,6.4227-.3739,9.4782a41.85826,41.85826,0,0,0,4.9341-2.9588A34.238,34.238,0,0,1,142.30982,89.1078Z"/><path class="cls-18" d="M140.69912,76.2784a30.09282,30.09282,0,0,1,.9439-6.3502,33.37024,33.37024,0,0,1,6.55589-12.985l-.00109.0002c-.0917.0205-.1857.0404-.2782.0607q-.38715.08505-.7835.1676c-.1174.0245-.2343.049-.3529.0732q-.49155.1002-.997.1966c-.112.0214-.2258.0422-.3388.0633q-.4335.0807-.877.1587c-.0937.0164-.1861.0332-.28051.0495-.36209.0623-.73069.1228-1.10309.1821-.1164.0185-.2336.0368-.35091.055-.38549.0598-.77439.1186-1.17079.175-.0528.0075-.1071.0146-.16021.022q-.55423.078-1.12379.1511c-.1064.0137-.2126.0276-.3198.041q-.6237.07845-1.2641.1512c-.089.0101-.1794.0197-.2689.0296q-.585.0648-1.1845.1246c-.0801.008-.1591.0164-.2397.0242q-.6744.06585-1.3683.1247c-.1061.009-.21291.0178-.3196.0266-.40531.0336-.8165.065-1.2308.0952l.0109.0176A54.29622,54.29622,0,0,1,140.69912,76.2784Z"/><path class="cls-19" d="M164.70242,64.3106a41.93,41.93,0,0,1-22.8839,37.2899q-.0741.96075-.1607,1.9092c.1934-.0728.3869-.1453.5788-.2207.0857-.0336.1705-.0687.2559-.1028.1868-.0748.3732-.1499.5585-.2272.09789-.0408.1951-.0828.2926-.1243q.2592-.1104.5168-.2235.14805-.0654.2952-.1322.25693-.11595.512-.235.1407-.0657.2809-.1323.2667-.127.531-.2579c.0829-.0409.166-.0816.2487-.1231q.2952-.1482.5873-.3012c.0602-.0315.1209-.0623.1809-.094A41.9552,41.9552,0,0,0,168.846,64.3177l.0176-10.148a30.27237,30.27237,0,0,0-.1444-3.3868c-.213-1.4156-1.75331-2.7739-3.9876-.5515l-.0048.0046Z"/><path class="cls-20" d="M87.49412,103.4766l.00279.0317a114.1683,114.1683,0,0,0,8.01331,33.2147h38.0393a114.19062,114.19062,0,0,0,8.1002-33.121l.0081-.0923q.08775-.9471.1607-1.9092c.2359-3.0555.3683-6.2128.3739-9.4782.0023-1.2756-.0248-2.5127-.073-3.7197a76.182,76.182,0,0,0-1.4203-12.1242,54.29622,54.29622,0,0,0-6.5028-17.3455l-.0109-.0176a28.85182,28.85182,0,0,0-5.3434-6.7925l-28.3594-.049a28.86237,28.86237,0,0,0-5.37771,6.7914l-.00989.0165a54.50613,54.50613,0,0,0-6.6187,17.6339,76.1744,76.1744,0,0,0-1.3833,11.486c-.0612,1.3025-.0967,2.6418-.09911,4.0252-.00579,3.291.11761,6.473.34641,9.5518Q87.41112,102.5335,87.49412,103.4766Z"/><path class="cls-21" d="M95.46991,136.5771c8.07121,19.7412,18.99451,29.9408,18.99451,29.9408s10.9582-10.1616,19.0977-29.8745Z"/><polygon class="cls-22" points="102.04 41.836 100.534 52.074 128.692 52.123 127.218 41.879 102.04 41.836"/><polygon class="cls-23" points="123.825 43.197 124.573 50.461 126.549 50.464 125.651 43.2 123.825 43.197"/><polygon class="cls-23" points="119.781 43.197 120.195 50.462 122.171 50.465 121.607 43.201 119.781 43.197"/><polygon class="cls-23" points="115.737 43.197 115.816 50.462 117.793 50.466 117.563 43.201 115.737 43.197"/><polygon class="cls-23" points="111.692 43.198 111.437 50.463 113.413 50.467 113.518 43.201 111.692 43.198"/><polygon class="cls-23" points="107.646 43.198 107.056 50.464 109.033 50.467 109.472 43.201 107.646 43.198"/><polygon class="cls-23" points="103.599 43.198 102.675 50.465 104.652 50.468 105.426 43.201 103.599 43.198"/><path class="cls-24" d="M114.70342,103.2882a.93151.93151,0,0,0,.9327-.9023l1.5957-50.7973a2.56909,2.56909,0,1,0-5.1372-.0089l1.6794,50.8077a.9315.9315,0,0,0,.9294.9008Z"/><path class="cls-25" d="M115.80812,96.9081l1.42379-45.3195a2.563,2.563,0,0,0-1.34129-2.3047Z"/><path class="cls-25" d="M113.61852,96.9913l.0828-47.8381a2.56846,2.56846,0,0,0-1.6067,2.4265l1.5009,45.4116Z"/><path class="cls-26" d="M100.08632,120.1539a14.45827,14.45827,0,1,0,14.4832-14.4333A14.45815,14.45815,0,0,0,100.08632,120.1539Z"/><path class="cls-27" d="M102.49222,120.158a12.05232,12.05232,0,1,0,12.0732-12.0314A12.05247,12.05247,0,0,0,102.49222,120.158Z"/><path class="cls-22" d="M106.51482,120.165a8.02971,8.02971,0,1,0,8.0436-8.0158A8.02968,8.02968,0,0,0,106.51482,120.165Z"/><path class="cls-28" d="M109.817,127.0475a8.37093,8.37093,0,0,1-.7346-.575A8.38581,8.38581,0,0,0,109.817,127.0475Z"/><path class="cls-28" d="M108.39532,125.7993q.25815.2823.5409.5397Q108.65362,126.08145,108.39532,125.7993Z"/><path class="cls-28" d="M108.25932,125.6492a8.34167,8.34167,0,0,1-.5429-.69A8.37765,8.37765,0,0,0,108.25932,125.6492Z"/><path class="cls-28" d="M122.88832,120.1934a8.33847,8.33847,0,0,0-.0792-1.1001A8.33847,8.33847,0,0,1,122.88832,120.1934Z"/><path class="cls-28" d="M106.31022,121.4675a8.28114,8.28114,0,0,0,.1881.8892A8.169,8.169,0,0,1,106.31022,121.4675Z"/><path class="cls-28" d="M122.74091,121.7094q-.06088.3177-.14559.6265C122.65072,122.1295,122.70132,121.9216,122.74091,121.7094Z"/><path class="cls-28" d="M122.57912,122.3985q-.0951.3384-.2156.6655Q122.48457,122.737,122.57912,122.3985Z"/><path class="cls-28" d="M122.84722,120.9781c-.0164.1642-.0426.3256-.0685.4871C122.80391,121.3034,122.83152,121.1427,122.84722,120.9781Z"/><path class="cls-29" d="M125.77232,140.0722a1.3804,1.3804,0,1,0,1.3828-1.378A1.38036,1.38036,0,0,0,125.77232,140.0722Z"/><path class="cls-29" d="M112.93812,140.05a1.3804,1.3804,0,1,0,1.38279-1.378A1.38037,1.38037,0,0,0,112.93812,140.05Z"/><path class="cls-29" d="M100.10391,140.0278a1.38041,1.38041,0,1,0,1.38281-1.378A1.38038,1.38038,0,0,0,100.10391,140.0278Z"/><g class="cls-30"><path class="cls-31" d="M109.81752,127.048a8.32446,8.32446,0,0,0,12.5457-3.9833Z"/><path class="cls-31" d="M122.80912,119.0931a8.26905,8.26905,0,0,0-.7961-2.6125,8.52974,8.52974,0,0,1,.35889.8364l-15.87349,5.0399a8.30554,8.30554,0,0,0,1.1846,2.5576,8.40323,8.40323,0,0,1-.5193-.854Z"/><path class="cls-31" d="M106.30782,121.4517a8.42549,8.42549,0,0,1-.0896-.9209l15.3323-4.8681a8.11534,8.11534,0,0,1,.4498.7915,8.32471,8.32471,0,0,0-15.6925,4.9975Z"/></g></g><circle class="cls-32" cx="45.53255" cy="123.2938" r="15.83729" transform="translate(-62.61175 48.59853) rotate(-35.09791)"/><path class="cls-33" d="M48.28393,125.83c-1.50368.27078-15.95635,4.01833-17.09963,4.16372a15.78329,15.78329,0,0,0,5.85494,6.667A41.49628,41.49628,0,0,1,51.03229,130.269a38.00289,38.00289,0,0,1,9.29871-1.33868,15.767,15.767,0,0,0,.9882-6.89488A57.284,57.284,0,0,1,48.28393,125.83Z"/><path class="cls-34" d="M46.387,126.40257c-16.734,4.59912-31.2688,7.33187-36.82749,7.10527,1.987,1.63606,18.02306-1.05266,37.05351-6.28289,19.03041-5.23029,34.1882-11.11475,35.05995-13.53645C77.01086,116.72409,63.12093,121.8035,46.387,126.40257Z"/><path class="cls-1" d="M71.47165,116.02836a.48655.48655,0,0,0-.1199-.08121c-.02322-.0115-.055-.02028-.08217-.03055a1.09914,1.09914,0,0,0-.10723-.03826c-.03433-.00943-.07652-.01646-.11526-.02459-.04335-.009-.08449-.01873-.1332-.02613-.04457-.00675-.096-.01138-.145-.01678-.05249-.00572-.10357-.01189-.16111-.0161-.05425-.00392-.1143-.0061-.173-.00862-.06171-.00265-.12287-.00553-.1894-.00669-.06345-.00114-.13172-.0007-.19949-.00043-.07093.00024-.14212.00061-.21767.00243-.07262.0017-.14905.00463-.22593.00767-.07907.00317-.15924.00669-.24277.0113-.082.00452-.16688.00992-.253.0158-.08765.006-.17694.01253-.26884.01991q-.13488.01089-.27581.02367c-.097.00885-.19647.01854-.29769.0288-.0971.00979-.19524.02-.29614.03108-.10584.01166-.21483.02442-.32482.03743-.10452.01245-.20929.02494-.31757.03856-.1146.01451-.23306.03029-.35173.04616-.11125.01484-.22195.02955-.33666.04568-.12422.01737-.25265.03625-.38083.05509-.11658.0171-.23192.0338-.35172.052-.13353.02035-.27193.04242-.40944.06415-.12217.01938-.24247.03809-.36775.05845-.14545.02381-.29632.04948-.44589.0747-.12376.02085-.24492.04082-.37139.06265-.17216.02979-.35044.06179-.52767.09339-.10981.0196-.21641.038-.32818.0583q-.43556.07912-.88965.16523c-.07846.01486-.16053.03115-.23976.04633-.22857.04382-.4578.08786-.6929.13419-.12606.02486-.25639.05137-.38426.07695-.195.039-.38917.0777-.58839.11833-.14025.02863-.28433.05878-.4266.08821l-.06546.01362a15.96723,15.96723,0,0,1,.63621,1.84767l.00767.03093-30.54054,8.39364-.00922-.03055a15.97519,15.97519,0,0,1-.39748-1.91328c-.06412.02218-.12938.04436-.19306.06641q-.20757.07185-.41171.14319-.2636.09206-.521.18312c-.1312.04642-.2623.09273-.39115.1387-.17168.06115-.33972.12182-.50731.18236-.12466.04505-.25042.09025-.37279.1349-.17114.06246-.33758.124-.50413.18561-.11035.04089-.22294.08213-.33129.12251-.21223.07932-.41843.15754-.6226.23532-.05668.0216-.116.04367-.17213.0651q-.38323.14692-.746.28981c-.08944.03523-.174.06952-.26159.10433-.15236.06067-.30477.12129-.4514.18076-.099.04023-.19364.07949-.29.11913-.128.05263-.25564.10522-.37885.15691-.09835.04124-.1932.08183-.28845.12241-.11484.049-.22863.09773-.339.14574-.09207.04012-.18179.07969-.27071.11909q-.15975.07084-.31258.14026c-.085.03857-.169.0769-.2506.11482-.09762.04523-.19159.08976-.28438.13395-.07744.03691-.15523.07386-.22928.11-.0909.04437-.17677.08761-.26253.13085-.06728.03392-.13636.06826-.20039.10146-.08886.04609-.17091.09058-.25337.13514-.05267.02854-.10877.05778-.15884.08563-.12321.0687-.23884.13564-.346.20055-.03435.02089-.0634.04051-.09609.06092-.07534.04713-.14984.09406-.216.13905-.03939.02676-.07228.05191-.10841.07787-.04944.03554-.09934.07122-.14259.10534-.03374.0265-.06208.05184-.092.07746-.04819.04133-.098.083-.1362.122l-.00114.00124a1.101,1.101,0,0,0-.12284.14824c-.00706.01049-.01321.02166-.0197.03257a.486.486,0,0,0-.04777.10164.36482.36482,0,0,0-.01106.043.247.247,0,0,0-.001.10863c.35127,1.278,12.28313-.887,26.65048-4.83564s25.7297-8.18576,25.37843-9.46372a.24542.24542,0,0,0-.06084-.10034Z"/><path class="cls-35" d="M26.63155,126.73433c-.21223.07932-.41839.1575-.6226.23532C26.21312,126.89187,26.41932,126.81365,26.63155,126.73433Z"/><path class="cls-35" d="M25.83682,127.03475q-.38323.14692-.746.28981Q25.454,127.18155,25.83682,127.03475Z"/><path class="cls-35" d="M71.547,116.14414a.42571.42571,0,0,0-.03862-.07682.26269.26269,0,0,0-.02222-.02352A.24542.24542,0,0,1,71.547,116.14414Z"/><path class="cls-35" d="M19.72157,130.00822c.03816-.03893.088-.08064.1362-.122-.02527.02165-.05525.0445-.07782.06547C19.76816,129.96276,19.74692,129.98241,19.72157,130.00822Z"/><path class="cls-35" d="M29.864,125.57753l0-.00064c-.06533.02252-.12821.04461-.193.067C29.73465,125.62189,29.79991,125.59971,29.864,125.57753Z"/><path class="cls-35" d="M29.25926,125.78713c-.17584.06138-.34909.12237-.521.18312Q28.99615,125.87912,29.25926,125.78713Z"/><path class="cls-35" d="M59.39055,115.62849c.2212.40059.42862.81131.6164,1.23535,6.69351-1.37559,11.013-1.75313,11.50141-.79652a.2272.2272,0,0,1,.03862.07682c.35127,1.278-11.011,5.515-25.37843,9.46372s-26.29921,6.1136-26.65048,4.83564a.247.247,0,0,1,.001-.10863l-.00337.01308c-.25414-.92483,3.68227-2.84283,10.29356-5.154-.05737-.47029-.09082-.93924-.10574-1.40644-12.40071,4.07056-20.77334,7.84931-20.33467,9.44539.59663,2.17106,17.27145-.51876,37.24414-6.00795,19.97265-5.48924,35.68-11.69918,35.08328-13.87025C81.25759,111.75862,72.1298,112.78967,59.39055,115.62849Z"/><path class="cls-35" d="M27.467,126.42621c-.17114.06246-.33758.124-.50413.18561C27.12939,126.55025,27.29583,126.48867,27.467,126.42621Z"/><path class="cls-35" d="M28.34707,126.109c-.17163.06121-.33972.12182-.50731.18236C28.00735,126.23077,28.17539,126.1701,28.34707,126.109Z"/><path class="cls-35" d="M24.08781,127.72878c-.128.05263-.25564.10522-.37885.15691C23.83217,127.834,23.95986,127.78141,24.08781,127.72878Z"/><path class="cls-35" d="M20.09234,129.70345c-.04944.03554-.09934.07122-.14259.10534C19.993,129.77467,20.0429,129.739,20.09234,129.70345Z"/><path class="cls-35" d="M21.734,128.772c-.0909.04437-.17677.08761-.26253.13085C21.55722,128.85959,21.64309,128.81635,21.734,128.772Z"/><path class="cls-35" d="M22.24765,128.528c-.09762.04523-.19159.08976-.28438.13395C22.05606,128.61777,22.15,128.57324,22.24765,128.528Z"/><path class="cls-35" d="M20.85886,129.22506c-.12321.0687-.23884.13564-.346.20055C20.62,129.3607,20.73565,129.29376,20.85886,129.22506Z"/><path class="cls-35" d="M24.82925,127.42889c-.15236.06067-.30477.12129-.4514.18076C24.52448,127.55018,24.67689,127.48956,24.82925,127.42889Z"/><path class="cls-35" d="M21.27107,129.00429c-.08886.04609-.17086.09053-.25337.13514C21.10016,129.09487,21.18221,129.05038,21.27107,129.00429Z"/><path class="cls-35" d="M19.57789,130.19027a.50841.50841,0,0,0-.04777.10164A.486.486,0,0,1,19.57789,130.19027Z"/><path class="cls-35" d="M20.41679,129.48653c-.07534.04713-.14984.09406-.216.13905C20.267,129.58059,20.34145,129.53366,20.41679,129.48653Z"/><path class="cls-35" d="M19.72043,130.00946a1.06612,1.06612,0,0,0-.12284.14824A1.101,1.101,0,0,1,19.72043,130.00946Z"/><path class="cls-35" d="M23.42051,128.0081c-.11494.049-.22863.09773-.339.14574C23.19188,128.10583,23.30567,128.05711,23.42051,128.0081Z"/><path class="cls-35" d="M22.81083,128.27293q-.15984.07092-.31258.14026Q22.651,128.34383,22.81083,128.27293Z"/><path class="cls-35" d="M67.64324,115.95709c.11-.013.219-.02577.32482-.03743C67.86222,115.93132,67.75328,115.944,67.64324,115.95709Z"/><path class="cls-35" d="M61.6321,116.952c.2351-.04633.46433-.09037.6929-.13419C62.09643,116.86164,61.8673,116.90569,61.6321,116.952Z"/><path class="cls-35" d="M68.8377,115.83611c.0919-.00738.18119-.01388.26884-.01991C69.01889,115.82223,68.9296,115.82873,68.8377,115.83611Z"/><path class="cls-35" d="M70.60778,115.79474c.05754.00421.10862.01038.16111.0161C70.7164,115.80512,70.66532,115.799,70.60778,115.79474Z"/><path class="cls-35" d="M69.35957,115.8004c.08353-.00461.1637-.00813.24277-.0113C69.52321,115.79232,69.4431,115.79579,69.35957,115.8004Z"/><path class="cls-35" d="M64.68165,116.39192c.14957-.02522.30044-.05089.44589-.0747C64.982,116.341,64.83122,116.3667,64.68165,116.39192Z"/><path class="cls-35" d="M62.56476,116.77149q.45417-.08613.88965-.16523Q63.01886,116.68539,62.56476,116.77149Z"/><path class="cls-35" d="M69.82827,115.78143c.07555-.00182.14674-.00219.21767-.00243C69.975,115.77924,69.90387,115.77966,69.82827,115.78143Z"/><path class="cls-35" d="M70.24543,115.77943c.06653.00116.12769.004.1894.00669C70.37312,115.78347,70.312,115.78059,70.24543,115.77943Z"/><path class="cls-35" d="M63.78259,116.548c.17723-.0316.35551-.0636.52767-.09339C64.1381,116.48436,63.95978,116.5164,63.78259,116.548Z"/><path class="cls-35" d="M68.2642,115.88858c.10122-.01026.20068-.02.29769-.0288C68.46488,115.86863,68.36542,115.87832,68.2642,115.88858Z"/><path class="cls-35" d="M66.97394,116.04181c.11867-.01587.23713-.03165.35173-.04616C67.211,116.01021,67.09261,116.02594,66.97394,116.04181Z"/><path class="cls-35" d="M60.65945,117.14729c.19922-.04063.3934-.0793.58839-.11833C61.05285,117.068,60.85867,117.10666,60.65945,117.14729Z"/><path class="cls-35" d="M66.25645,116.14258c.12818-.01884.25661-.03772.38083-.05509C66.51306,116.10486,66.38463,116.12374,66.25645,116.14258Z"/><path class="cls-35" d="M71.354,115.948l-.0022-.00082a.48655.48655,0,0,1,.1199.08121A.63322.63322,0,0,0,71.354,115.948Z"/><path class="cls-35" d="M60.16735,117.24907l0,.00005.06546-.01362Z"/><path class="cls-35" d="M70.91389,115.82762c.04871.0074.08985.01712.1332.02613C71.00374,115.84474,70.9626,115.835,70.91389,115.82762Z"/><path class="cls-35" d="M65.49529,116.25877c.13751-.02173.27591-.0438.40944-.06415C65.7712,116.215,65.6328,116.237,65.49529,116.25877Z"/><path class="cls-35" d="M71.16235,115.87834a1.09914,1.09914,0,0,1,.10723.03826A1.09914,1.09914,0,0,0,71.16235,115.87834Z"/><path class="cls-36" d="M27.83976,126.29131c-.12476.045-.25042.09025-.37279.1349C27.58934,126.38156,27.7151,126.33636,27.83976,126.29131Z"/><path class="cls-36" d="M28.73822,125.97025c-.1312.04642-.26224.09268-.39115.1387C28.47592,126.063,28.607,126.01667,28.73822,125.97025Z"/><path class="cls-36" d="M24.37785,127.60965c-.09908.04022-.19364.07949-.29.11913C24.18421,127.68914,24.27886,127.64988,24.37785,127.60965Z"/><path class="cls-36" d="M25.09084,127.32456c-.08944.03523-.174.06947-.26159.10433C24.9168,127.39408,25.0014,127.35979,25.09084,127.32456Z"/><path class="cls-36" d="M26.009,126.96965c-.05668.0216-.116.04367-.17213.0651C25.8929,127.01332,25.95227,126.99125,26.009,126.96965Z"/><path class="cls-36" d="M70.76889,115.81084c.049.0054.10043.01.145.01678C70.86932,115.82087,70.81792,115.81624,70.76889,115.81084Z"/><path class="cls-36" d="M29.671,125.64394q-.20757.07185-.41171.14319Q29.4634,125.71588,29.671,125.64394Z"/><path class="cls-36" d="M23.709,127.88569c-.09835.04124-.19314.08178-.28845.12241C23.51576,127.96752,23.61061,127.92693,23.709,127.88569Z"/><path class="cls-36" d="M71.04709,115.85375c.03874.00813.08093.01516.11526.02459C71.128,115.86891,71.08583,115.86188,71.04709,115.85375Z"/><path class="cls-36" d="M71.47165,116.02836l.01449.01544Z"/><path class="cls-36" d="M71.26958,115.9166c.02712.01027.05895.019.08217.03055C71.32848,115.9357,71.2967,115.92687,71.26958,115.9166Z"/><path class="cls-36" d="M26.96284,126.61182c-.1104.04084-.223.08208-.33129.12251C26.7399,126.694,26.85249,126.65271,26.96284,126.61182Z"/><path class="cls-36" d="M19.94975,129.80879c-.03369.02655-.06208.05184-.092.07746C19.88767,129.86063,19.916,129.83529,19.94975,129.80879Z"/><path class="cls-36" d="M70.43483,115.78612c.05865.00252.1187.0047.173.00862C70.55353,115.79082,70.49348,115.78864,70.43483,115.78612Z"/><path class="cls-36" d="M23.08154,128.15384c-.09207.04012-.18179.07969-.27071.11909C22.89975,128.23353,22.98947,128.194,23.08154,128.15384Z"/><path class="cls-36" d="M20.20075,129.62558c-.03933.02671-.07228.05191-.10841.07787C20.12847,129.67749,20.16136,129.65234,20.20075,129.62558Z"/><path class="cls-36" d="M19.59759,130.1577c-.00763.01111-.01311.02167-.0197.03257C19.58438,130.17936,19.59053,130.16819,19.59759,130.1577Z"/><path class="cls-36" d="M19.51906,130.33487a.36482.36482,0,0,1,.01106-.043A.32041.32041,0,0,0,19.51906,130.33487Z"/><path class="cls-36" d="M22.49825,128.41319c-.085.03857-.16891.077-.2506.11482C22.32929,128.49009,22.41322,128.45176,22.49825,128.41319Z"/><path class="cls-36" d="M20.51288,129.42561c-.03439.02084-.06334.04046-.09609.06092C20.44948,129.46612,20.47853,129.4465,20.51288,129.42561Z"/><path class="cls-36" d="M21.96327,128.662c-.07749.037-.15523.07386-.22928.11C21.808,128.73582,21.88583,128.69887,21.96327,128.662Z"/><path class="cls-36" d="M21.47146,128.90283c-.06724.034-.13636.06826-.20039.10146C21.3351,128.97109,21.40418,128.93675,21.47146,128.90283Z"/><path class="cls-36" d="M21.0177,129.13943c-.05267.02854-.10877.05778-.15884.08563C20.90893,129.19721,20.965,129.168,21.0177,129.13943Z"/><path class="cls-36" d="M19.72043,130.00946l.00114-.00124Z"/><path class="cls-36" d="M66.63728,116.08749c.11471-.01613.22541-.03084.33666-.04568C66.86269,116.05665,66.752,116.07136,66.63728,116.08749Z"/><path class="cls-36" d="M65.90473,116.19462c.1198-.01824.23514-.03494.35172-.052C66.13987,116.15968,66.02453,116.17638,65.90473,116.19462Z"/><path class="cls-36" d="M63.45441,116.60626c.11177-.02026.21837-.0387.32818-.0583C63.67273,116.56761,63.56618,116.586,63.45441,116.60626Z"/><path class="cls-36" d="M64.31026,116.45457c.12647-.02183.24763-.0418.37139-.06265C64.55789,116.41277,64.43673,116.43274,64.31026,116.45457Z"/><path class="cls-36" d="M62.325,116.81782c.07923-.01518.1613-.03147.23976-.04633C62.4863,116.78635,62.40423,116.80264,62.325,116.81782Z"/><path class="cls-36" d="M60.23285,117.2355c.14227-.02943.28635-.05958.4266-.08821C60.5192,117.17592,60.37516,117.20612,60.23285,117.2355Z"/><path class="cls-36" d="M61.24784,117.029c.12787-.02558.2582-.05209.38426-.07695C61.506,116.97687,61.37571,117.00338,61.24784,117.029Z"/><path class="cls-36" d="M65.12754,116.31722c.12528-.02036.24558-.03907.36775-.05845C65.37312,116.27815,65.25286,116.29682,65.12754,116.31722Z"/><path class="cls-36" d="M69.60234,115.7891c.07688-.003.15331-.006.22593-.00767C69.75565,115.78313,69.67922,115.78606,69.60234,115.7891Z"/><path class="cls-36" d="M67.32567,115.99565c.10828-.01362.213-.02611.31757-.03856C67.53872,115.96954,67.434,115.982,67.32567,115.99565Z"/><path class="cls-36" d="M70.04594,115.779c.06777-.00027.136-.00071.19949.00043C70.182,115.77829,70.11376,115.77869,70.04594,115.779Z"/><path class="cls-36" d="M69.10654,115.8162c.08615-.00588.171-.01128.253-.0158C69.27753,115.80487,69.19273,115.81037,69.10654,115.8162Z"/><path class="cls-36" d="M68.56189,115.85978q.141-.0128.27581-.02367Q68.70276,115.84693,68.56189,115.85978Z"/><path class="cls-36" d="M67.96806,115.91966c.1009-.01111.199-.02129.29614-.03108C68.1671,115.89837,68.069,115.9086,67.96806,115.91966Z"/><path class="cls-35" d="M60.23285,117.2355c.14231-.02938.28635-.05958.4266-.08821.19922-.04063.3934-.0793.58839-.11833.12787-.02558.2582-.05209.38426-.07695.2352-.04632.46433-.09037.6929-.13419.07923-.01518.1613-.03147.23976-.04633q.45417-.08613.88965-.16523c.11177-.02026.21832-.03865.32818-.0583.17719-.03156.35551-.0636.52767-.09339.12647-.02183.24763-.0418.37139-.06265.14957-.02522.30039-.05094.44589-.0747.12532-.0204.24558-.03907.36775-.05845.13751-.02173.27591-.0438.40944-.06415.1198-.01824.23514-.03494.35172-.052.12818-.01884.25661-.03772.38083-.05509.11471-.01613.22541-.03084.33666-.04568.11867-.01587.23708-.0316.35173-.04616.10828-.01362.213-.02611.31757-.03856.11-.01306.219-.02577.32482-.03743.101-.01106.199-.02129.29614-.03108.10122-.01026.20068-.02.29769-.0288q.141-.01287.27581-.02367c.0919-.00738.18119-.01388.26884-.01991.08619-.00583.171-.01133.253-.0158.08353-.00461.16364-.00808.24277-.0113.07688-.003.15331-.006.22593-.00767.0756-.00177.14674-.00219.21767-.00243.06782-.00031.136-.00071.19949.00043.06653.00116.12769.004.1894.00669.05865.00252.1187.0047.173.00862.05754.00421.10862.01038.16111.0161.049.0054.10043.01.145.01678.04871.0074.08985.01712.1332.02613.03874.00813.08093.01516.11526.02459a1.09914,1.09914,0,0,1,.10723.03826c.02712.01027.0589.0191.08217.03055l.0022.00082a.63322.63322,0,0,1,.1177.08039l.01449.01544a.26269.26269,0,0,1,.02222.02352c-.48839-.95661-4.8079-.57907-11.50141.79652.056.1267.10741.25648.1604.38523Z"/><path class="cls-36" d="M60.23285,117.2355c.14231-.02938.28635-.05958.4266-.08821.19922-.04063.3934-.0793.58839-.11833.12787-.02558.2582-.05209.38426-.07695.2352-.04632.46433-.09037.6929-.13419.07923-.01518.1613-.03147.23976-.04633q.45417-.08613.88965-.16523c.11177-.02026.21832-.03865.32818-.0583.17719-.03156.35551-.0636.52767-.09339.12647-.02183.24763-.0418.37139-.06265.14957-.02522.30039-.05094.44589-.0747.12532-.0204.24558-.03907.36775-.05845.13751-.02173.27591-.0438.40944-.06415.1198-.01824.23514-.03494.35172-.052.12818-.01884.25661-.03772.38083-.05509.11471-.01613.22541-.03084.33666-.04568.11867-.01587.23708-.0316.35173-.04616.10828-.01362.213-.02611.31757-.03856.11-.01306.219-.02577.32482-.03743.101-.01106.199-.02129.29614-.03108.10122-.01026.20068-.02.29769-.0288q.141-.01287.27581-.02367c.0919-.00738.18119-.01388.26884-.01991.08619-.00583.171-.01133.253-.0158.08353-.00461.16364-.00808.24277-.0113.07688-.003.15331-.006.22593-.00767.0756-.00177.14674-.00219.21767-.00243.06782-.00031.136-.00071.19949.00043.06653.00116.12769.004.1894.00669.05865.00252.1187.0047.173.00862.05754.00421.10862.01038.16111.0161.049.0054.10043.01.145.01678.04871.0074.08985.01712.1332.02613.03874.00813.08093.01516.11526.02459a1.09914,1.09914,0,0,1,.10723.03826c.02712.01027.0589.0191.08217.03055l.0022.00082a.63322.63322,0,0,1,.1177.08039l.01449.01544a.26269.26269,0,0,1,.02222.02352c-.48839-.95661-4.8079-.57907-11.50141.79652.056.1267.10741.25648.1604.38523Z"/><path class="cls-35" d="M71.50836,116.06732a.42571.42571,0,0,1,.03862.07682A.2272.2272,0,0,0,71.50836,116.06732Z"/><path class="cls-36" d="M71.50836,116.06732a.42571.42571,0,0,1,.03862.07682A.2272.2272,0,0,0,71.50836,116.06732Z"/><path class="cls-35" d="M19.53012,130.29191a.50841.50841,0,0,1,.04777-.10164c.00659-.0109.01207-.02146.0197-.03257a1.06612,1.06612,0,0,1,.12284-.14824l.00114-.00124c.02535-.02581.04659-.04546.05838-.0565.02257-.021.05255-.04382.07782-.06547.0299-.02562.05829-.05091.092-.07746.04325-.03412.09315-.0698.14259-.10534.03613-.026.06908-.05116.10841-.07787.0662-.045.1407-.09192.216-.13905.03275-.02046.0617-.04008.09609-.06092.10714-.06491.22277-.13185.346-.20055.05007-.02785.10617-.05709.15884-.08563.08251-.04461.16451-.08905.25337-.13514.064-.0332.13315-.06749.20039-.10146.08576-.04324.17163-.08648.26253-.13085.074-.03616.15179-.07306.22928-.11.09279-.04419.18676-.08872.28438-.13395.08169-.03787.16557-.07625.2506-.11482q.15281-.06943.31258-.14026c.08892-.0394.17864-.079.27071-.11909.11034-.048.224-.09673.339-.14574.09531-.04063.1901-.08117.28845-.12241.12321-.05169.2509-.10428.37885-.15691.0964-.03964.191-.07891.29-.11913.14663-.05947.299-.12009.4514-.18076.0876-.03486.17215-.0691.26159-.10433q.36319-.143.746-.28981c.05608-.02143.11545-.0435.17213-.0651.20421-.07782.41037-.156.6226-.23532.10831-.04043.22089-.08167.33129-.12251.16655-.06157.333-.12315.50413-.18561.12237-.04465.248-.08986.37279-.1349.16759-.06054.33568-.12115.50731-.18236.12891-.046.25995-.09228.39115-.1387.172-.06075.3452-.12174.521-.18312q.20421-.07133.41171-.14319c.06483-.02244.12771-.04453.193-.067-.01881-.12764-.03916-.25539-.05476-.38294-6.61129,2.31117-10.5477,4.22917-10.29356,5.154l.00337-.01308A.32041.32041,0,0,1,19.53012,130.29191Z"/><path class="cls-36" d="M19.53012,130.29191a.50841.50841,0,0,1,.04777-.10164c.00659-.0109.01207-.02146.0197-.03257a1.06612,1.06612,0,0,1,.12284-.14824l.00114-.00124c.02535-.02581.04659-.04546.05838-.0565.02257-.021.05255-.04382.07782-.06547.0299-.02562.05829-.05091.092-.07746.04325-.03412.09315-.0698.14259-.10534.03613-.026.06908-.05116.10841-.07787.0662-.045.1407-.09192.216-.13905.03275-.02046.0617-.04008.09609-.06092.10714-.06491.22277-.13185.346-.20055.05007-.02785.10617-.05709.15884-.08563.08251-.04461.16451-.08905.25337-.13514.064-.0332.13315-.06749.20039-.10146.08576-.04324.17163-.08648.26253-.13085.074-.03616.15179-.07306.22928-.11.09279-.04419.18676-.08872.28438-.13395.08169-.03787.16557-.07625.2506-.11482q.15281-.06943.31258-.14026c.08892-.0394.17864-.079.27071-.11909.11034-.048.224-.09673.339-.14574.09531-.04063.1901-.08117.28845-.12241.12321-.05169.2509-.10428.37885-.15691.0964-.03964.191-.07891.29-.11913.14663-.05947.299-.12009.4514-.18076.0876-.03486.17215-.0691.26159-.10433q.36319-.143.746-.28981c.05608-.02143.11545-.0435.17213-.0651.20421-.07782.41037-.156.6226-.23532.10831-.04043.22089-.08167.33129-.12251.16655-.06157.333-.12315.50413-.18561.12237-.04465.248-.08986.37279-.1349.16759-.06054.33568-.12115.50731-.18236.12891-.046.25995-.09228.39115-.1387.172-.06075.3452-.12174.521-.18312q.20421-.07133.41171-.14319c.06483-.02244.12771-.04453.193-.067-.01881-.12764-.03916-.25539-.05476-.38294-6.61129,2.31117-10.5477,4.22917-10.29356,5.154l.00337-.01308A.32041.32041,0,0,1,19.53012,130.29191Z"/><g class="cls-37"><path class="cls-38" d="M56.46069,111.83951l.01113.00115a15.89706,15.89706,0,0,0-3.02889-2.26488c-5.45585,1.4751-8.93755-2.98582-16.54566.4396a15.75632,15.75632,0,0,0-2.97152,2.50432A40.81668,40.81668,0,0,1,49.68568,110.72C52.17023,110.91524,54.85572,112.37975,56.46069,111.83951Z"/><path class="cls-39" d="M60.8036,119.09679a15.81216,15.81216,0,0,0-2.09-4.58221c-9.57631,4.07855-18.3955-1.01047-28.488,4.72134a15.73057,15.73057,0,0,0-.30868,6.70158,48.75347,48.75347,0,0,1,19.53647-6.25264c3.88288-.28514,7.54947,2.03269,11.70205,1.00654A16.02481,16.02481,0,0,0,60.8036,119.09679Z"/><path class="cls-40" d="M40.37019,138.26525a15.83083,15.83083,0,0,0,1.93526.5322c.66848-.35469,5.45681-4.42175,9.613-5.01218a5.12221,5.12221,0,0,1,4.09,1.22911.43972.43972,0,0,0,.09424.07263c.33529-.301.6588-.61336.96578-.94025C51.11288,130.78314,40.75491,138.06684,40.37019,138.26525Z"/></g><path class="cls-41" d="M45.71676,112.3417c-.96393.018-2.42484.27114-2.8914,1.43183-.67791,1.68639,2.28,5.21075,5.2135,4.73063s3.27415-2.563,2.20391-4.08406A5.77017,5.77017,0,0,0,45.71676,112.3417Z"/><circle class="cls-42" cx="207.36029" cy="52.20307" r="19.68845" transform="translate(90.95759 231.57381) rotate(-71.14904)"/><g class="cls-43"><path class="cls-44" d="M192.49256,37.96119a32.4731,32.4731,0,0,0,4.61752-2.04248c1.48129-.95678,2.9372-1.97005,4.3631-3.00687.4246-.30882.89086-.63142,1.33736-.985a19.6482,19.6482,0,0,0-11.13,6.41065C191.948,38.21075,192.21729,38.08465,192.49256,37.96119Z"/><path class="cls-45" d="M193.92646,40.14621c1.83385-.87425,3.76032-1.55217,5.58738-2.44838a26.30223,26.30223,0,0,0,5.82182-3.62168,24.62978,24.62978,0,0,0,2.39222-2.48148,20.48936,20.48936,0,0,0-2.91982.05119c-1.44852,1.83682-3.9594,3.13524-5.65677,4.291a24.00417,24.00417,0,0,1-5.49662,2.80838c-1.11317.40922-2.04016,1.10258-3.11991,1.57347-.16356.07138-.33038.13466-.49687.1987a19.93454,19.93454,0,0,0-1.31226,2.36553A43.78659,43.78659,0,0,1,193.92646,40.14621Z"/><path class="cls-46" d="M210.41275,33.66942c-1.25632,1.02082-2.63952,1.85508-3.95355,2.7941-1.79782,1.2849-2.43558,2.89367-3.59007,4.67417a10.71576,10.71576,0,0,1-2.99325,2.75344,11.72687,11.72687,0,0,1-3.54346,2.12743c-1.41873.38765-2.9538.09869-4.37142.47266-1.38387.365-2.3946,1.4644-3.78,1.83936-.39521.10691-.79041.156-1.182.22921a20.99463,20.99463,0,0,0-.23345,3.049,6.71127,6.71127,0,0,1,1.52414-.95826,28.89888,28.89888,0,0,1,3.9919-.98817c1.7907-.52534,3.31574-1.94683,4.98624-2.76034,1.46849-.71521,3.01641-1.26482,4.47177-2.00673,3.28694-1.67591,6.0774-4.332,8.84237-6.7091,1.2427-1.06843,2.63859-1.79848,3.49768-3.26636.30638-.52352.47221-1.12978.78256-1.6475a21.11589,21.11589,0,0,0-3.0868-1.05552A7.67594,7.67594,0,0,1,210.41275,33.66942Z"/><path class="cls-47" d="M215.51782,34.60943a8.84214,8.84214,0,0,1-.79746,1.4334,14.61788,14.61788,0,0,1-3.13933,2.82008c-1.23,1.00135-2.25442,2.17824-3.55322,3.1022-1.3875.98723-2.73055,2.05274-4.14133,3.00516a28.94121,28.94121,0,0,1-4.70231,2.32431,36.44425,36.44425,0,0,0-4.46383,2.44535,9.97116,9.97116,0,0,1-3.833,1.36522A6.98283,6.98283,0,0,0,186.8198,53.177a21.28506,21.28506,0,0,0,.37093,2.73375,32.03882,32.03882,0,0,0,3.67535-1.45789,37.616,37.616,0,0,1,4.731-1.84825,31.65673,31.65673,0,0,0,5.75843-2.83144c1.57281-1.06077,3.12118-2.15667,4.6835-3.23261a28.15555,28.15555,0,0,0,4.82615-3.89855,28.8387,28.8387,0,0,1,2.99391-3.4243,8.76457,8.76457,0,0,0,2.92969-4.55634q.06686-.18735.138-.36542c-.30556-.17305-.61575-.33523-.9281-.49223A4.18686,4.18686,0,0,0,215.51782,34.60943Z"/><path class="cls-48" d="M216.99905,37.40523c-.79857,1.56189-2.11833,2.21576-3.27122,3.43424-1.1626,1.22874-1.96508,2.65486-3.25726,3.79721a41.83893,41.83893,0,0,1-4.06979,3.05978c-1.65732,1.13948-3.28893,2.31808-4.97063,3.42209a30.10831,30.10831,0,0,1-4.923,2.34925,42.52261,42.52261,0,0,0-5.04052,1.97684c-1.2646.743-2.71648.99109-4.00988,1.61263.08755.33524.1805.6697.285,1.00229,2.51568-1.526,5.75441-1.848,8.4101-3.09855a66.8022,66.8022,0,0,0,8.78931-5.5059,53.281,53.281,0,0,0,4.89952-3.56949c1.3693-1.17446,2.60422-2.49836,3.93165-3.71905a19.97992,19.97992,0,0,0,3.45051-3.79336c.59848-.9143,1.15493-1.84857,1.76726-2.74743-.37269-.27179-.7541-.52754-1.14048-.77291C217.50982,35.71327,217.32182,36.774,216.99905,37.40523Z"/><path class="cls-49" d="M222.13832,41.56086c-.91237,1.642-1.428,3.30007-2.91376,4.482a6.81971,6.81971,0,0,0-1.69212,2.20025c-.525.76056-1.45768,1.01012-2.10206,1.64584a22.70692,22.70692,0,0,1-1.74961,1.95637,16.89919,16.89919,0,0,1-2.38858,1.34338c-1.89916,1.03461-3.79032,2.09014-5.78651,2.93532a24.73984,24.73984,0,0,0-5.731,2.94172,31.97711,31.97711,0,0,1-4.80083,3.56767,16.66111,16.66111,0,0,1-4.22645,1.49144l.02438.036a21.44479,21.44479,0,0,0,1.48206,1.85106,5.569,5.569,0,0,0,2.58227-1.638c1.40714-1.27855,2.71146-2.67008,4.22485-3.82645a9.71045,9.71045,0,0,1,2.31775-1.403c.8267-.32211,1.71017-.42935,2.52738-.79145a45.0735,45.0735,0,0,0,4.73226-2.53742c3.42822-2.04452,7.03319-4.67506,9.27266-8.0453,1.03914-1.56386,2.49257-2.676,3.57628-4.21481a15.98572,15.98572,0,0,1,2.50614-2.825c-.03553-.05108-.06884-.10294-.105-.15369q-.29913-.42-.61492-.82035C222.89281,40.40968,222.43339,41.02979,222.13832,41.56086Z"/><path class="cls-50" d="M221.26445,45.75857a18.86557,18.86557,0,0,0-2.20886,2.34412,13.57515,13.57515,0,0,1-1.3282,1.86667,38.17835,38.17835,0,0,1-8.72173,6.97593,38.97211,38.97211,0,0,1-4.97322,2.61415c-.82868.33634-1.74332.41456-2.55628.794a12.7687,12.7687,0,0,0-2.88286,2.0743c-1.40588,1.23614-2.66016,2.65211-4.14674,3.79474a4.606,4.606,0,0,1-1.32159.71q.70046.69657,1.45012,1.31938a70.4545,70.4545,0,0,1,7.73119-4.82864c3.34994-1.78745,6.14189-4.29193,9.18279-6.55027,1.47605-1.09607,2.83669-2.35626,4.365-3.37945,1.55394-1.04041,3.21754-1.71933,4.45942-3.18131a13.84243,13.84243,0,0,0,1.416-2.03288,11.30723,11.30723,0,0,1,1.42436-4.122c.32509-.54547.96859-1.39071,1.4355-2.27765.02091-.04838.04231-.09632.06333-.14453l-.01313-.02058C223.35371,42.94533,222.48928,44.43153,221.26445,45.75857Z"/><path class="cls-51" d="M222.78672,48.71519a5.50591,5.50591,0,0,1-1.47952,3.55443c-.885.758-2.017,1.00869-2.86691,1.85167a12.38411,12.38411,0,0,0-1.94854,2.29342,8.02263,8.02263,0,0,1-3.774,3.73256,59.7069,59.7069,0,0,0-6.34539,3.35447c-1.93221,1.23183-3.31321,3.01244-5.357,4.10156-.99446.53-2.03945.93786-3.0002,1.52762a11.31959,11.31959,0,0,1-1.27138.7097c.28321.18061.56869.3567.85858.52313.96831-.40265,1.88079-.91883,2.91028-1.28584a13.04647,13.04647,0,0,0,2.67991-1.15681,15.39012,15.39012,0,0,1,2.04816-1.23039c3.13364-1.36026,6.39879-2.46532,9.15-4.50647,2.99992-2.2258,5.85222-4.31285,7.52493-7.76357a32.70744,32.70744,0,0,1,2.41721-4.07437c.8091-1.19818,1.81669-2.19573,2.68526-3.33764a21.68786,21.68786,0,0,0-1.65092-4.03448A55.93567,55.93567,0,0,1,222.78672,48.71519Z"/><path class="cls-52" d="M226.13711,50.46149c-1.22086,1.60744-1.21363,3.15907-1.5359,5.07323a4.963,4.963,0,0,1-1.81542,3.20927c-1.74829,1.45321-2.47122,3.18919-3.76815,5.00053-1.13347,1.58306-2.9244,2.40728-4.63363,3.22676a18.87357,18.87357,0,0,1-5.22422,1.781c-.91386.15689-1.7966.18188-2.71256.29337a10.12468,10.12468,0,0,0-2.69613.98988c-1.34536.565-2.75576.85814-4.08981,1.37278a21.05862,21.05862,0,0,0,4.963,1.4804,10.7092,10.7092,0,0,1,2.43145-1.63718,38.39936,38.39936,0,0,0,4.22237-1.79937c1.12178-.63037,2.12627-1.401,3.30641-1.932a23.14466,23.14466,0,0,0,3.91218-1.923,26.87594,26.87594,0,0,0,6.74-6.27318,29.88846,29.88846,0,0,1,2.48766-3.54583,21.14325,21.14325,0,0,0-.23158-6.88711C227.02923,49.40425,226.55614,49.90962,226.13711,50.46149Z"/><path class="cls-53" d="M224.52133,63.09743a31.48438,31.48438,0,0,0-3.78392,2.33789,21.23736,21.23736,0,0,1-3.47385,2.90239c-1.37862.80519-2.89113,1.33427-4.25878,2.13984-1.37862.812-2.60885,1.81333-3.91262,2.67031a19.94443,19.94443,0,0,0,4.31268-.7c1.03495-.81424,1.862-1.861,2.91662-2.64615,1.03511-.77054,2.14453-1.42579,3.18417-2.205a26.36893,26.36893,0,0,1,4.45213-2.4101,19.81257,19.81257,0,0,0,1.81581-2.9784C225.36077,62.51142,224.94555,62.81163,224.52133,63.09743Z"/></g><path class="cls-54" d="M210.40012,32.75147a19.68587,19.68587,0,0,0-8.7198,38.299c.26921.0812-10.47939-15.52019,2.24908-25.03563,5.94919-4.44744.22132-7.08631,1.33752-11.00478C205.94308,32.63623,209.10457,32.55867,210.40012,32.75147Z"/><path class="cls-55" d="M211.03424,32.864a21.40244,21.40244,0,0,1,8.04519,9.11533,20.54128,20.54128,0,0,1-8.95381,27.045,19.10483,19.10483,0,0,1-7.50115,2.28652A19.68555,19.68555,0,1,0,211.03424,32.864Z"/><path class="cls-56" d="M28.72065,85.58394A13.17218,13.17218,0,1,0,11.328,92.25547,13.17212,13.17212,0,0,0,28.72065,85.58394Z"/><path class="cls-57" d="M27.86083,73.2466A13.17046,13.17046,0,0,0,4.66641,85.59978c.07681.17178,3.26516-12.09584,13.65136-9.82114,4.8543,1.06322,3.68217-2.98991,6.15333-4.14042C25.96809,70.94117,27.39124,72.50674,27.86083,73.2466Z"/><path class="cls-58" d="M28.08146,73.61678a14.31837,14.31837,0,0,1-1.09024,8.06057A13.7427,13.7427,0,0,1,9.38833,88.9858a12.782,12.782,0,0,1-4.44038-2.79428A13.17023,13.17023,0,1,0,28.08146,73.61678Z"/><path class="cls-59" d="M50.19045,31.83253a8.9175,8.9175,0,1,0-4.06116-11.93946A8.91747,8.91747,0,0,0,50.19045,31.83253Z"/></g></g></g></svg>