<?xml version="1.0" encoding="utf-8"?>
<!-- Generator: Adobe Illustrator 24.3.0, SVG Export Plug-In . SVG Version: 6.00 Build 0)  -->
<svg version="1.1" id="Layer_1" xmlns="http://www.w3.org/2000/svg" xmlns:xlink="http://www.w3.org/1999/xlink" x="0px" y="0px"
	 viewBox="0 0 207 136" style="enable-background:new 0 0 207 136;" xml:space="preserve">
<style type="text/css">
	.st0{fill:#F77219;}
</style>
<path class="st0" d="M206.28,78.26c-5.88-1.36-28.22-6.1-35.44-7.71c-21.66-4.83-39.28-11.76-63.03-21.63
	C67.64,32.23,26.78,8.53,0.19,0.37v128.61c10.89-9.81,23.03-18,36.68-24.26c15.41-7.06,33.3-14.58,49.84-18.47
	c6.42-1.51,12.94-2.62,19.45-3.7c4.59-0.76,9.23-1.24,13.87-1.71c4.32-0.44,8.66-0.73,13-1.02c5.5-0.36,11-0.67,16.5-0.93
	c3.23-0.16,6.47-0.18,9.71-0.28c14.16-0.4,28.31-0.34,42.46,0.23c1.7,0.07,3.41,0.01,5.11,0.01c0.02-0.08,0.04-0.16,0.06-0.24
	C206.68,78.51,206.51,78.31,206.28,78.26z"/>
</svg>
