<?xml version="1.0" encoding="utf-8"?>
<!-- Generator: Adobe Illustrator 24.3.0, SVG Export Plug-In . SVG Version: 6.00 Build 0)  -->
<svg version="1.1" id="Layer_1" xmlns="http://www.w3.org/2000/svg" xmlns:xlink="http://www.w3.org/1999/xlink" x="0px" y="0px"
	 viewBox="0 0 85 278" style="enable-background:new 0 0 85 278;" xml:space="preserve">
<style type="text/css">
	.st0{fill:#F77219;}
</style>
<g>
	<path class="st0" d="M1062.79-199.97c-15.37,11.8-31.46,22.13-48.74,30.07c-12.35,5.68-25.16,9.56-38.28,12.09
		c-7.08,1.36-14.24,2.27-21.37,3.25c-4.12,0.56-8.26,0.94-12.4,1.26c-8.01,0.63-16.03,1.35-24.05,1.7
		c-6.75,0.29-13.52,0.15-20.28,0.15c-5.37,0-10.75,0.08-16.11-0.18c-6.79-0.33-13.57-0.81-20.36-1.27v53.66
		c2.82,2.05,5.63,4.13,8.41,6.25c18.58,14.17,36.77,28.98,55.07,43.59c15.9,12.69,31.79,25.39,48.46,36.81
		c24.08,16.5,49.81,29.02,76.54,39.05c6.73,2.53,13.58,4.69,20.37,7.02c0-79.73,0-159.46,0-239.18
		C1067.62-203.79,1065.23-201.84,1062.79-199.97z"/>
	<path class="st0" d="M84.82,13.59c-14.25-5.47-28.9-9.61-43.79-11.9c-6.39-0.98-13.69-1.24-16.28-1.21
		C19.12,0.55,13.67,0.55,8.1,1.5C4.1,2.19,3.06,2.72-0.29,3.8c0,91.95,2.59,181.88,2.59,273.83c0.62-0.55,1.37-1,1.85-1.68
		c4.26-5.98,8.42-12.05,12.71-18.01c2.25-3.13,4.65-6.14,7.03-9.15c3.18-4.03,6.34-8.09,9.64-11.99c3.42-4.05,6.76-8.22,10.54-11.82
		c5.91-5.64,12.07-10.98,18.27-16.23c7.37-6.24,14.85-12.31,22.49-18.11V13.59z"/>
</g>
</svg>
