<?xml version="1.0" encoding="utf-8"?>
<!-- Generator: Adobe Illustrator 24.3.0, SVG Export Plug-In . SVG Version: 6.00 Build 0)  -->
<svg version="1.1" id="Layer_1" xmlns="http://www.w3.org/2000/svg" xmlns:xlink="http://www.w3.org/1999/xlink" x="0px" y="0px"
	 viewBox="0 0 415 177" style="enable-background:new 0 0 415 177;" xml:space="preserve">
<style type="text/css">
	.st0{fill:#FF6C00;}
</style>
<path class="st0" d="M341.61,135.62c-17.19,4.63-33.92,6.11-51.49,6.51c-9.9,0.22-19.81,0.31-29.65-1.22
	c-5.94-0.93-11.91-1.67-17.8-2.91c-11.6-2.43-22.6-6.98-33.35-12.3c-17.05-8.44-33.27-18.63-48.9-29.92
	c-21.69-15.67-36.49-24.43-64.68-41.7C78.11,43.31,62.45,32.64,44.87,22.14C30.56,13.59,15.52,6.02,0,0.05v176.82
	c9.75-7.39,19.76-14.34,30.2-20.55c9.89-5.89,20.04-11.1,30.89-14.46c8.39-2.6,17.02-3.39,25.62-4.06
	c9.38-0.73,18.79-1.15,28.2-1.13c12.38,0.03,24.76,0.65,37.09,2.2c6.06,0.76,12.15,1.22,18.2,2.11c8.42,1.24,16.84,3.59,25.21,5.18
	c11.92,2.26,23.84,4.57,35.7,7.23c12.61,2.83,25.32,3.31,38.16,3.5c3.61,0.05,7.23-0.13,10.83-0.41c5.65-0.44,11.36-0.6,16.96-1.52
	c8.3-1.37,16.61-2.89,24.8-4.91c7.02-1.73,13.88-4.23,20.8-6.46c0.99-0.32,71.96-25.92,72.4-27.31
	C413.34,115.51,405.15,118.51,341.61,135.62z"/>
</svg>
