<?xml version="1.0" encoding="utf-8"?>
<!-- Generator: Adobe Illustrator 24.3.0, SVG Export Plug-In . SVG Version: 6.00 Build 0)  -->
<svg version="1.1" id="Layer_1" xmlns="http://www.w3.org/2000/svg" xmlns:xlink="http://www.w3.org/1999/xlink" x="0px" y="0px"
	 viewBox="0 0 381 253" style="enable-background:new 0 0 381 253;" xml:space="preserve">
<style type="text/css">
	.st0{fill:#67218E;}
</style>
<g>
	<g>
		<path class="st0" d="M-0.43,6.92c2.29,2.87,4.58,5.74,6.87,8.61C18.9,31.16,32.15,46.05,46.97,59.5
			c14.33,13,29.77,24.44,47.07,33.25c13.39,6.82,27.42,11.81,42.28,14.18c5.99,0.95,12.05,1.5,18.1,2
			c7.17,0.59,14.35,1.09,21.53,1.35c6.99,0.26,13.99,0.26,20.99,0.2c5.35-0.05,10.71-0.27,16.06-0.59
			c5.54-0.33,11.08-0.78,16.6-1.36c6.71-0.71,13.4-1.55,20.09-2.48c6.44-0.9,12.85-1.99,19.28-2.98c7.1-1.09,14.18-2.24,21.29-3.22
			c5.89-0.81,11.8-1.52,17.72-2.09c5.05-0.48,10.12-0.85,15.19-0.99c10.47-0.28,20.95-0.52,31.42-0.49
			c8.75,0.02,17.49,0.45,26.12,2.1c0.07,0.01,0.16-0.02,0.23-0.04c0,0.08,0,0.16,0,0.24c-0.44,1.04-0.87,2.09-1.32,3.15
			c-0.33-0.04-0.61-0.05-0.88-0.11c-7.56-1.65-15.24-2.25-22.96-2.35c-6.88-0.09-13.73,0.34-20.57,1.15
			c-8.93,1.05-17.71,2.82-26.38,5.2c-15.6,4.29-30.35,10.76-44.85,17.81c-19.67,9.57-38.1,21.2-56.01,33.69
			c-19.51,13.6-38.92,27.34-58.44,40.93c-16.84,11.72-34.64,21.73-53.58,29.64c-25.1,10.49-51.01,17.52-78.41,18.06
			c-0.23,0-0.46,0.11-0.69,0.16c-0.48,0-0.96,0-1.44,0c-0.39-0.06-0.78-0.15-1.17-0.17c-2.35-0.12-4.71-0.17-7.06-0.34
			c-2.54-0.18-5.08-0.46-7.62-0.69C-0.43,165.47-0.43,86.19-0.43,6.92z"/>
		<path class="st0" d="M-0.43,244.74c2.54,0.24,5.07,0.51,7.62,0.69c2.35,0.17,4.7,0.22,7.06,0.34c0.39,0.02,0.78,0.11,1.17,0.17
			c-5.28,0-10.56,0-15.84,0C-0.43,245.54-0.43,245.14-0.43,244.74z"/>
	</g>
</g>
</svg>
