<?xml version="1.0" encoding="utf-8"?>
<!-- Generator: Adobe Illustrator 24.3.0, SVG Export Plug-In . SVG Version: 6.00 Build 0)  -->
<svg version="1.1" id="Layer_1" xmlns="http://www.w3.org/2000/svg" xmlns:xlink="http://www.w3.org/1999/xlink" x="0px" y="0px"
	 viewBox="0 0 477 401" style="enable-background:new 0 0 477 401;" xml:space="preserve">
<style type="text/css">
	.st0{fill:#67218E;}
</style>
<g>
	<g>
		<g>
			<path class="st0" d="M5.74,6.4c2.21,4.02,4.45,8.02,6.64,12.05c15.34,28.3,30.84,56.52,47.19,84.26
				c6.66,11.29,13.17,22.71,21.03,33.21c15.12,20.2,30.36,40.32,48,58.46c14.74,15.17,30.64,28.92,48.72,40.03
				c15.4,9.46,31.74,16.67,49.52,20.23c5.98,1.2,12.06,1.93,18.13,2.55c7.11,0.73,14.25,1.31,21.39,1.59
				c8.87,0.35,17.74,0.43,26.62,0.44c5.31,0,10.63-0.26,15.94-0.58c5.54-0.33,11.08-0.78,16.6-1.36c6.71-0.71,13.4-1.55,20.09-2.48
				c6.4-0.89,12.78-1.96,19.17-2.94c7.17-1.1,14.34-2.29,21.53-3.26c6.8-0.91,13.62-1.73,20.46-2.32
				c6.09-0.53,12.21-0.83,18.32-0.99c8.15-0.22,16.32-0.33,24.47-0.27c9.07,0.07,18.13,0.42,27.08,2.13
				c0.07,0.01,0.16-0.02,0.23-0.04c0,0.08,0,0.16,0,0.24c-0.44,1.04-0.87,2.09-1.32,3.15c-0.33-0.04-0.61-0.05-0.88-0.11
				c-7.56-1.65-15.24-2.25-22.96-2.35c-6.88-0.09-13.73,0.34-20.57,1.15c-8.93,1.05-17.71,2.82-26.38,5.2
				c-15.6,4.29-30.35,10.76-44.85,17.81c-19.67,9.57-38.1,21.21-56.01,33.69c-19.51,13.6-38.92,27.34-58.44,40.93
				c-16.84,11.72-34.64,21.73-53.58,29.65c-25.1,10.49-51.01,17.52-78.41,18.06c-0.23,0-0.46,0.11-0.69,0.16c-0.48,0-0.96,0-1.44,0
				c-0.31-0.06-0.62-0.17-0.93-0.17c-9.68,0.01-19.17-1.58-28.59-3.55c-23.67-4.95-46.77-11.85-69.39-20.36
				c-2.23-0.84-4.46-1.71-6.69-2.56C5.74,247.52,5.74,126.96,5.74,6.4z"/>
		</g>
	</g>
</g>
</svg>
