<?xml version="1.0" encoding="utf-8"?>
<!-- Generator: Adobe Illustrator 24.3.0, SVG Export Plug-In . SVG Version: 6.00 Build 0)  -->
<svg version="1.1" id="Layer_1" xmlns="http://www.w3.org/2000/svg" xmlns:xlink="http://www.w3.org/1999/xlink" x="0px" y="0px"
	 viewBox="0 0 294 310" style="enable-background:new 0 0 294 310;" xml:space="preserve">
<style type="text/css">
	.st0{fill:#F77219;}
</style>
<path class="st0" d="M293.09,86.22c-5.88-1.36-28.22-6.1-35.44-7.71c-21.66-4.83-39.28-11.76-63.03-21.63
	C153.92,39.98,112.51,15.86,85.95,8C39.01-5.89,0.2,3.47,0.12,3.08c0,0,0.19-0.09,0,0l0.5,307.28c0.27-0.89,0.54-1.78,0.82-2.67
	c0.56-1.78,1.18-3.55,1.77-5.32c0.78-2.33,4.23-18.34,11.68-40c23.34-67.94,53.8-124.51,108.79-149.7
	c15.41-7.06,33.3-14.58,49.84-18.47c6.42-1.51,12.94-2.62,19.45-3.7c4.59-0.76,9.23-1.24,13.87-1.71c4.32-0.44,8.66-0.73,13-1.02
	c5.5-0.36,11-0.67,16.5-0.93c3.23-0.16,6.47-0.18,9.71-0.28c14.16-0.4,28.31-0.34,42.46,0.23c1.7,0.07,3.41,0.01,5.11,0.01
	c0.02-0.08,0.04-0.16,0.06-0.24C293.48,86.46,293.31,86.27,293.09,86.22z"/>
</svg>
