<?xml version="1.0" encoding="utf-8"?>
<!-- Generator: Adobe Illustrator 24.3.0, SVG Export Plug-In . SVG Version: 6.00 Build 0)  -->
<svg version="1.1" id="Layer_1" xmlns="http://www.w3.org/2000/svg" xmlns:xlink="http://www.w3.org/1999/xlink" x="0px" y="0px"
	 viewBox="0 0 409.27 277.37" style="enable-background:new 0 0 409.27 277.37;" xml:space="preserve">
<style type="text/css">
	.st0{fill:#FF6C00;}
</style>
<g>
	<path class="st0" d="M863.04-154.82c-4.12,0.56-8.26,0.94-12.4,1.26c-8.01,0.63-16.03,1.35-24.05,1.7
		c-6.75,0.29-13.52,0.15-20.28,0.15c-5.37,0-10.75,0.08-16.11-0.18c-8.77-0.43-17.52-1.1-26.28-1.67c-3.6-0.24-7.19-0.47-10.79-0.75
		c-2.12-0.17-4.23-0.37-6.34-0.66c-6.95-0.95-13.93-1.77-20.84-2.99c-7.83-1.38-15.62-3.02-23.39-4.74
		c-9.04-2.01-18-4.53-27.08-6.26c-7.99-1.53-16.08-2.49-24.16-3.31c-8.27-0.84-16.58-1.42-24.88-1.73
		c-9.34-0.35-18.68,0.15-27.99,1.08c-6.52,0.65-13.08,1.07-19.56,2.06c-10.69,1.64-21.3,3.79-31.78,6.7
		c-9.68,2.7-19.25,5.8-28.55,9.88c-0.87,0.38-1.71,0.87-2.56,1.3c0.08,0.26,0.16,0.51,0.24,0.77c0.83-0.16,1.68-0.25,2.49-0.5
		c15.75-4.9,31.69-8.75,47.97-10.65c7.43-0.87,14.87-2.02,22.32-2.24c9.61-0.29,19.24,0.17,28.86,0.41
		c8.41,0.21,16.72,1.55,25.01,3.07c14.17,2.6,27.94,6.8,41.24,12.83c33.12,15,64.6,33.52,94.12,56.02
		c18.58,14.17,36.77,28.98,55.07,43.59c12.7,10.14,25.4,20.27,38.49,29.76v-136.12C868.89-155.61,865.96-155.22,863.04-154.82z"/>
	<path class="st0" d="M338.27,150.97c-17.1,4.97-33.15,7.4-50.71,8.23c-19.73,0.93-29.83-0.13-47.24-4.85
		c-11.43-3.1-22.6-6.98-33.35-12.3c-17.05-8.44-42.64-22.99-70.88-43.34C114.38,83.07,47.46,34.37-2.34,13.4
		c-25.18-10.61-59.65-16-80.92-12.15c-4,0.72-5.04,1.22-8.39,2.3c0,91.95,2.59,181.88,2.58,273.83c0.62-0.55,1.37-1,1.85-1.68
		c4.26-5.98,20.44-36.59,48.53-66.37c21.89-23.21,65.01-47.14,97.43-54.11c29.84-6.41,64.7-5.69,86.91-2.97
		c18.9,2.32,59.43,10.05,83.11,14.5c7.67,1.44,15.27,2.55,22.97,3c3.76,0.28,7.52,0.46,11.3,0.51c1.09,0.02,2.18,0,3.27-0.03
		c0.21,0,0.41,0.01,0.62,0.01c3.61,0.05,7.23-0.13,10.83-0.41c5.65-0.44,11.36-0.6,16.96-1.52c8.3-1.37,16.61-2.89,24.8-4.91
		c7.02-1.73,13.88-4.23,20.8-6.46c0.99-0.32,71.96-25.92,72.41-27.31C411,128.86,412.73,129.35,338.27,150.97z"/>
</g>
</svg>
