<?xml version="1.0" encoding="utf-8"?>
<!-- Generator: Adobe Illustrator 24.3.0, SVG Export Plug-In . SVG Version: 6.00 Build 0)  -->
<svg version="1.1" id="Layer_1" xmlns="http://www.w3.org/2000/svg" xmlns:xlink="http://www.w3.org/1999/xlink" x="0px" y="0px"
	 viewBox="0 0 503 277.49" style="enable-background:new 0 0 503 277.49;" xml:space="preserve">
<style type="text/css">
	.st0{fill:#FF6C00;}
</style>
<g>
	<path class="st0" d="M954.5-154.7c-4.12,0.56-8.26,0.94-12.4,1.26c-8.01,0.63-16.03,1.35-24.05,1.7
		c-6.75,0.29-13.52,0.15-20.28,0.15c-5.37,0-10.75,0.08-16.11-0.18c-8.77-0.43-17.52-1.1-26.28-1.67c-3.6-0.24-7.19-0.47-10.79-0.75
		c-2.12-0.17-4.23-0.37-6.34-0.66c-6.95-0.95-13.93-1.77-20.84-2.99c-7.83-1.38-15.62-3.02-23.39-4.74
		c-9.04-2.01-18-4.53-27.08-6.26c-7.99-1.53-16.08-2.49-24.16-3.31c-8.27-0.84-16.58-1.42-24.88-1.73
		c-9.34-0.35-18.68,0.15-27.99,1.08c-6.52,0.65-13.08,1.07-19.56,2.06c-10.69,1.64-21.3,3.79-31.78,6.7
		c-9.68,2.7-19.25,5.8-28.55,9.88c-0.87,0.38-1.71,0.87-2.56,1.3c0.08,0.26,0.16,0.51,0.24,0.77c0.83-0.16,1.68-0.25,2.49-0.5
		c15.75-4.9,31.69-8.75,47.97-10.65c7.43-0.87,14.87-2.02,22.32-2.24c9.61-0.29,19.24,0.17,28.86,0.41
		c8.41,0.21,16.72,1.55,25.01,3.07c14.17,2.6,27.94,6.8,41.24,12.83c33.12,15,64.6,33.52,94.12,56.02
		c18.58,14.17,36.77,28.98,55.07,43.59c12.7,10.14,25.4,20.27,38.49,29.76v-136.1C960.35-155.49,957.43-155.1,954.5-154.7z"/>
	<path class="st0" d="M430.74,149.1c-17.19,4.63-33.93,6.11-51.49,6.51c-9.9,0.22-19.81,0.31-29.65-1.22
		c-5.94-0.93-11.91-1.67-17.8-2.91c-11.6-2.43-22.6-6.98-33.35-12.3c-17.05-8.44-33.27-18.63-48.9-29.92
		c-21.69-15.67-36.49-24.43-64.68-41.7C167.26,56.78,151.6,46.1,134.03,35.6c-14.32-8.55-29.35-16.12-44.87-22.09l0,0
		C73.57,7.22,57.5,4.07,41.15,1.56c-6.39-0.98-13.69-1.24-16.28-1.21c-5.64,0.07-11.1,0.07-16.66,1.02C4.2,2.06,3.17,2.59-0.18,3.67
		c0,91.95,2.59,181.88,2.58,273.83c0.62-0.55,1.37-1,1.85-1.68c4.26-5.98,8.42-12.05,12.71-18.01c2.25-3.13,4.65-6.14,7.03-9.15
		c3.18-4.03,6.34-8.09,9.64-11.99c3.42-4.05,6.76-8.22,10.54-11.82c5.91-5.64,12.07-10.98,18.27-16.23
		c8.72-7.38,17.58-11.54,26.68-18.26l0,0c9.75-7.39,19.76-14.34,30.2-20.55c9.89-5.89,20.04-11.1,30.89-14.46
		c8.39-2.6,17.02-3.39,25.62-4.06c8.55-0.66,17.12-1.06,25.69-1.1c11.88,0.08,23.77,0.7,35.6,2.19c6.06,0.76,12.15,1.22,18.2,2.11
		c6.83,1,13.65,2.09,20.46,3.31c2.92,0.66,5.84,1.3,8.76,1.86c11.92,2.26,23.84,4.57,35.7,7.23c7.62,1.71,15.27,2.55,22.97,3
		c3.76,0.28,7.52,0.46,11.3,0.51c1.09,0.02,2.18,0,3.27-0.03c0.21,0,0.41,0.01,0.62,0.01c3.61,0.05,7.23-0.13,10.83-0.41
		c5.65-0.44,11.36-0.6,16.96-1.52c8.3-1.37,16.61-2.89,24.8-4.91c7.02-1.73,13.88-4.23,20.8-6.46c0.99-0.32,71.96-25.92,72.41-27.31
		C502.47,128.98,494.28,131.98,430.74,149.1z"/>
</g>
</svg>
