<svg id="Layer_1" data-name="Layer 1" xmlns="http://www.w3.org/2000/svg" viewBox="0 0 1652.01091 1785.7522"><defs><style>.cls-1,.cls-5,.cls-6,.cls-7{fill:#a331d3;}.cls-2,.cls-9{fill:none;stroke-miterlimit:10;}.cls-2{stroke:#fff;stroke-width:1.5px;}.cls-3{opacity:0.74;}.cls-4{fill:#fff;}.cls-5{font-size:143.2233px;}.cls-5,.cls-6,.cls-7{font-family:MSReferenceSansSerif, MS Reference Sans Serif;}.cls-6{font-size:79.1787px;}.cls-7{font-size:72.98539px;}.cls-8{fill:#d37505;}.cls-9{stroke:#a331d3;}</style></defs><path class="cls-1" d="M883.00987,817.92975s.478-.14877,1.33387-.41379c174.81892-11.48334,313.06783-156.89353,313.06783-334.61771,0-185.222-150.15208-335.37382-335.374-335.37382-.19335,0-.37337.00437-.56506.00479l-.00166-.00479H427.19107s154.94784,18.87722,169.2729,25.0657c34.71359,14.99533,68.56044,28.92682,102.21019,42.54056,56.46808,22.845,74.65984,41.884,133.17145,66.45,13.99253,5.87429,22.81689,14.04609,30.44028,28.3651,8.53429,16.02994,16.81612,24.07469,23.80551,41.19918,8.43828,20.67606,20.64356,33.68475,43.62566,40.78186,68.49419,21.15464,68.11874,31.36975,118.20791,100.554-16.92572-11.01517-30.84908-18.145-42.406-28.03673-18.96465-16.23024-29.63972-19.89453-52.32221-23.42839-4.15038-.64736-14.383-.51064-18.27028,1.16252-5.00762,2.15537-10.286,3.03572-12.8469-1.77713q-2.43912-4.58391-4.87776-9.16815c-5.908-11.11039-19.7419-15.26391-25.74454-26.32263-10.77015-19.84265-10.8114-19.82078-28.05132-13.30414,7.539,9.79965,18.71088,19.52116,23.683,31.76208,11.1131,27.35771,25.748,47.26251,55.36131,59.355,12.643,5.16273,22.11746,10.95616,34.04312,16.01063,33.91607,14.37471,50.10584,34.33148,54.69792,68.53482.85317,6.359,2.21779,12.64908,3.65012,18.997a4.942,4.942,0,0,1-9.09787,3.56474c-5.99162-10.35249-12.11678-20.61349-18.85322-30.45555-5.57885-8.15158-14.05-15.78915-22.94544-19.94724-34.76776-16.25628-70.05766-31.45121-105.51965-46.1486-14.45633-5.99034-23.9972-14.29589-27.45127-30.33465-2.579-11.97151-8.17491-23.29234-16.194-33.82622,3.73076,18.95944,6.87521,38.06744,11.61106,56.77207,1.19428,4.71626,6.851,9.23709,11.54981,11.97026,21.13069,12.28821,42.65641,23.90156,64.82427,36.19185-7.06815,23.8849-16.40609,45.3571-39.967,58.1366-41.29587,22.39913-99.2095,66.54669-138.82271,91.874-12.65241,8.08678-21.11943,8.08907-33.25929-.77528-29.48187-21.53239-31.12619-21.15006-21.97993-55.963,6.77937-25.8009,23.55674-68.93443,7.679-91.92529-11.69569-16.934-15.09608-23.41956-15.04068-38.868.02651-7.39206-10.3153-9.2279-12.70685-2.23335q-.06093.17822-.12127.35662c-4.06287,12.01506-11.58491,30.16265-23.408,32.65977C588.7287,539.22843,552.199,534.28,526.4665,496.333c-4.32254-6.37433-6.279-7.34726-9.674-4.46626-.83634.70972-4.21412,9.72023-3.9335,11.97427,2.10609,16.91659-2.7061,26.49284,17.37516,44.16737,3.29991,2.90442,9.8059,3.18946,14.90845,3.476,19.17884,1.07718,51.401,2.45585,70.57985,2.14165,12.66116-.20752,19.77681,4.78711,27.51877,14.6953,11.83817,15.147,11.526,27.71462,3.60908,44.80806-13.73584,29.6548-26.68994,59.67943-39.3486,89.83156q-11.00852,26.22365-21.81367,52.52856c-4.0812,9.88611-8.82539,14.83386-19.84264,15.076-10.5218.23148-21.4103,1.36033-31.37288,4.50875-10.21593,3.22738-22.67976,6.92705-28.61095,14.70947-3.2601,4.27763,2.34286,9.42286,4.6921,11.16123,269.70522,199.5737,828.01169,576.7156,828.01169,576.7156Z"/><ellipse class="cls-2" cx="855.04308" cy="482.48713" rx="342.86157" ry="335.72003"/><ellipse class="cls-2" cx="667.77496" cy="1074.41317" rx="324.67707" ry="332.46134"/><circle class="cls-2" cx="1048.92012" cy="870.19868" r="324.67707"/><circle class="cls-2" cx="862.04785" cy="219.05822" r="70.46809"/><circle class="cls-2" cx="963.42824" cy="1033.44171" r="70.46809"/><circle class="cls-2" cx="1061.92012" cy="655.91522" r="70.46809"/><ellipse class="cls-2" cx="751.35223" cy="817.07707" rx="129.00177" ry="126.01768"/><ellipse class="cls-2" cx="1041.01005" cy="386.39667" rx="131.35977" ry="128.32112"/><ellipse class="cls-2" cx="715.03802" cy="370.31532" rx="129.00177" ry="126.01768"/><circle class="cls-2" cx="427.19107" cy="1076.779" r="84.99045"/><circle class="cls-2" cx="1274.13868" cy="1332.21695" r="77.02699"/><circle class="cls-2" cx="787.57977" cy="550.94516" r="84.99045"/><circle class="cls-2" cx="596.46397" cy="448.11584" r="84.99045"/><circle class="cls-2" cx="469.87764" cy="1081.83782" r="41.89076"/><circle class="cls-2" cx="608.68029" cy="595.69619" r="41.89076"/><circle class="cls-2" cx="726.73761" cy="644.21534" r="41.89076"/><circle class="cls-2" cx="554.66201" cy="510.5682" r="41.89076"/><circle class="cls-2" cx="469.58277" cy="155.00831" r="41.89076"/><line class="cls-2" x1="427.19107" y1="30.06593" x2="427.19107" y2="1546.82418"/><line class="cls-2" x1="342.20062" y1="30.06593" x2="342.20062" y2="1546.82418"/><line class="cls-2" x1="1197.90465" y1="30.06593" x2="1197.90465" y2="1546.82418"/><line class="cls-2" x1="1352.09257" y1="30.06593" x2="1352.09257" y2="1546.82418"/><line class="cls-2" x1="242.07685" y1="146.7671" x2="1483.48344" y2="146.7671"/><line class="cls-2" x1="242.07685" y1="113.11755" x2="1483.48344" y2="113.11755"/><line class="cls-2" x1="242.07685" y1="1378.41779" x2="1483.48344" y2="1378.41779"/><line class="cls-2" x1="242.07685" y1="1410.87451" x2="1483.48344" y2="1410.87451"/><g class="cls-3"><circle class="cls-4" cx="94.37491" cy="768.58293" r="5.99048"/><circle class="cls-4" cx="125.03428" cy="768.58293" r="5.99048"/><circle class="cls-4" cx="155.69366" cy="768.58293" r="5.99048"/><circle class="cls-4" cx="186.35304" cy="768.58293" r="5.99048"/><circle class="cls-4" cx="217.01242" cy="768.58293" r="5.99048"/><circle class="cls-4" cx="247.6718" cy="768.58293" r="5.99048"/><circle class="cls-4" cx="278.33118" cy="768.58293" r="5.99048"/><circle class="cls-4" cx="308.99056" cy="768.58293" r="5.99048"/><circle class="cls-4" cx="94.37491" cy="798.74084" r="5.99048"/><circle class="cls-4" cx="125.03428" cy="798.74084" r="5.99048"/><circle class="cls-4" cx="155.69366" cy="798.74084" r="5.99048"/><circle class="cls-4" cx="186.35304" cy="798.74084" r="5.99048"/><circle class="cls-4" cx="217.01242" cy="798.74084" r="5.99048"/><circle class="cls-4" cx="247.6718" cy="798.74084" r="5.99048"/><circle class="cls-4" cx="278.33118" cy="798.74084" r="5.99048"/><circle class="cls-4" cx="308.99056" cy="798.74084" r="5.99048"/><circle class="cls-4" cx="94.37491" cy="828.89875" r="5.99048"/><circle class="cls-4" cx="125.03428" cy="828.89875" r="5.99048"/><circle class="cls-4" cx="155.69366" cy="828.89875" r="5.99048"/><circle class="cls-4" cx="186.35304" cy="828.89875" r="5.99048"/><circle class="cls-4" cx="217.01242" cy="828.89875" r="5.99048"/><circle class="cls-4" cx="247.6718" cy="828.89875" r="5.99048"/><circle class="cls-4" cx="278.33118" cy="828.89875" r="5.99048"/><circle class="cls-4" cx="308.99056" cy="828.89875" r="5.99048"/><circle class="cls-4" cx="94.37491" cy="859.05667" r="5.99048"/><circle class="cls-4" cx="125.03428" cy="859.05667" r="5.99048"/><circle class="cls-4" cx="155.69366" cy="859.05667" r="5.99048"/><circle class="cls-4" cx="186.35304" cy="859.05667" r="5.99048"/><circle class="cls-4" cx="217.01242" cy="859.05667" r="5.99048"/><circle class="cls-4" cx="247.6718" cy="859.05667" r="5.99048"/><circle class="cls-4" cx="278.33118" cy="859.05667" r="5.99048"/><circle class="cls-4" cx="308.99056" cy="859.05667" r="5.99048"/><circle class="cls-4" cx="94.37491" cy="889.21458" r="5.99048"/><circle class="cls-4" cx="125.03428" cy="889.21458" r="5.99048"/><circle class="cls-4" cx="155.69366" cy="889.21458" r="5.99048"/><circle class="cls-4" cx="186.35304" cy="889.21458" r="5.99048"/><circle class="cls-4" cx="217.01242" cy="889.21458" r="5.99048"/><circle class="cls-4" cx="247.6718" cy="889.21458" r="5.99048"/><circle class="cls-4" cx="278.33118" cy="889.21458" r="5.99048"/><circle class="cls-4" cx="308.99056" cy="889.21458" r="5.99048"/><circle class="cls-4" cx="94.37491" cy="919.37249" r="5.99048"/><circle class="cls-4" cx="125.03428" cy="919.37249" r="5.99048"/><circle class="cls-4" cx="155.69366" cy="919.37249" r="5.99048"/><circle class="cls-4" cx="186.35304" cy="919.37249" r="5.99048"/><circle class="cls-4" cx="217.01242" cy="919.37249" r="5.99048"/><circle class="cls-4" cx="247.6718" cy="919.37249" r="5.99048"/><circle class="cls-4" cx="278.33118" cy="919.37249" r="5.99048"/><circle class="cls-4" cx="308.99056" cy="919.37249" r="5.99048"/></g><g class="cls-3"><circle class="cls-4" cx="1376.17561" cy="1142.41352" r="5.99048"/><circle class="cls-4" cx="1406.83499" cy="1142.41352" r="5.99048"/><circle class="cls-4" cx="1437.49437" cy="1142.41352" r="5.99048"/><circle class="cls-4" cx="1468.15375" cy="1142.41352" r="5.99048"/><circle class="cls-4" cx="1498.81313" cy="1142.41352" r="5.99048"/><circle class="cls-4" cx="1529.47251" cy="1142.41352" r="5.99048"/><circle class="cls-4" cx="1560.13189" cy="1142.41352" r="5.99048"/><circle class="cls-4" cx="1590.79127" cy="1142.41352" r="5.99048"/><circle class="cls-4" cx="1376.17561" cy="1172.57143" r="5.99048"/><circle class="cls-4" cx="1406.83499" cy="1172.57143" r="5.99048"/><circle class="cls-4" cx="1437.49437" cy="1172.57143" r="5.99048"/><circle class="cls-4" cx="1468.15375" cy="1172.57143" r="5.99048"/><circle class="cls-4" cx="1498.81313" cy="1172.57143" r="5.99048"/><circle class="cls-4" cx="1529.47251" cy="1172.57143" r="5.99048"/><circle class="cls-4" cx="1560.13189" cy="1172.57143" r="5.99048"/><circle class="cls-4" cx="1590.79127" cy="1172.57143" r="5.99048"/><circle class="cls-4" cx="1376.17561" cy="1202.72934" r="5.99048"/><circle class="cls-4" cx="1406.83499" cy="1202.72934" r="5.99048"/><circle class="cls-4" cx="1437.49437" cy="1202.72934" r="5.99048"/><circle class="cls-4" cx="1468.15375" cy="1202.72934" r="5.99048"/><circle class="cls-4" cx="1498.81313" cy="1202.72934" r="5.99048"/><circle class="cls-4" cx="1529.47251" cy="1202.72934" r="5.99048"/><circle class="cls-4" cx="1560.13189" cy="1202.72934" r="5.99048"/><circle class="cls-4" cx="1590.79127" cy="1202.72934" r="5.99048"/><circle class="cls-4" cx="1376.17561" cy="1232.88726" r="5.99048"/><circle class="cls-4" cx="1406.83499" cy="1232.88726" r="5.99048"/><circle class="cls-4" cx="1437.49437" cy="1232.88726" r="5.99048"/><circle class="cls-4" cx="1468.15375" cy="1232.88726" r="5.99048"/><circle class="cls-4" cx="1498.81313" cy="1232.88726" r="5.99048"/><circle class="cls-4" cx="1529.47251" cy="1232.88726" r="5.99048"/><circle class="cls-4" cx="1560.13189" cy="1232.88726" r="5.99048"/><circle class="cls-4" cx="1590.79127" cy="1232.88726" r="5.99048"/></g><path class="cls-1" d="M692.109,1556.1404H680.4152c.52541-9.82981-6.26473-15.20831-12.71757-21.205,3.00759-1.22518,5.56955-2.394,8.23061-3.25734.60091-.195,1.72134.49864,2.3043,1.08157,2.88775,2.88753,5.57434,5.98082,8.523,8.80178C690.84551,1545.47433,690.6409,1550.74922,692.109,1556.1404Z"/><path class="cls-1" d="M604.51146,1556.26161c-2.41447,0-5.17973.01914-7.94443-.01218-.78336-.00888-1.565-.165-3.39457-.37223,1.64031-5.936,3.14814-11.53988,4.78339-17.1063a2.826,2.826,0,0,1,1.6718-1.51984c3.81254-1.25078,7.66811-2.37041,11.67463-3.58476-2.25138,3.34956-5.37772,6.45759-6.54586,10.18014C603.62614,1547.4483,604.51146,1551.68269,604.51146,1556.26161Z"/><path class="cls-1" d="M736.33068,1523.49531c2.03975-4.6362,5.14043-6.42819,10.22212-6.06809,3.72027.26363,7.56223-1.18971,11.242-1.85815C756.5274,1523.77444,743.83563,1528.0696,736.33068,1523.49531Z"/><path class="cls-1" d="M752.71089,1502.54038c-10.47609-.79519-19.12029-5.5975-26.64309-12.78753-6.81339-6.512-14.63773-10.84528-24.50131-10.18566a8.00142,8.00142,0,0,1-2.25526-.5232c4.61655-3.07064,9.56559-3.975,15.3695-3.03968a22.18851,22.18851,0,0,0-1.65178-2.236c-5.9899-6.0583-13.55328-7.5302-21.60985-6.97919-11.794.80667-22.863,4.713-33.54895,9.33982-19.6663,8.51516-39.75963,15.63945-60.74241,19.97836-4.91076,1.01547-10.19947.702-15.26254.31779-3.77995-.28678-6.31685-3.105-7.34911-6.71192-.968-3.38256,1.543-5.39827,3.78333-7.31485a8.20826,8.20826,0,0,1,2.93036-1.86548c5.60922-1.49854,11.30548-2.68177,16.88571-4.275,4.45642-1.27239,7.73512-.20841,10.93685,3.21091,3.71042,3.96255,8.68764,5.21453,14.46144,4.729-1.95829-2.22862-3.83717-3.896-5.12977-5.93507-2.75906-4.35238-6.55048-6.07226-11.57413-5.51249-6.15874.68621-12.42017.84547-18.45708,2.0997a43.26708,43.26708,0,0,0-12.84471,5.06392c-4.50477,2.6433-6.30359,7.31366-5.20424,12.47032,1.02255,4.79645,4.34385,7.76015,8.99881,9.45454,5.993,2.18146,11.89482.86847,17.63469-.48885a446.34892,446.34892,0,0,0,67.48495-21.954c3.68535-1.51987,7.40715-2.95133,11.11209-4.42366a2.15238,2.15238,0,0,1-1.11291,1.90094c-13.20455,6.13883-26.2406,12.69147-39.69594,18.22354-11.20542,4.60708-22.9023,8.02055-34.38921,11.94009-4.4289,1.51119-7.74843,4.0144-9.34139,8.71184-2.1943,6.47074-5.91963,11.89351-11.86821,15.61087a5.0926,5.0926,0,0,0-2.07473,2.633c-2.04139,7.14-3.92511,14.325-6.07937,22.31255,3.66686,0,6.41105-.12723,9.138.03545,2.77514.16556,3.55026-.61961,2.59743-3.421-2.52746-7.431.19365-14.09724,7.27137-17.54046a33.44179,33.44179,0,0,1,8.3251-2.5586c8.80709-1.67891,12.29287-4.996,14.01286-13.78355.22785-1.16409.46731-2.32593.85929-4.27319,3.41443,3.67756,2.83221,7.40829,2.552,10.51767H635.001c-.10319-1.39993-.166-2.25136-.23323-3.164a4.373,4.373,0,0,1,1.25745.0201,5.99268,5.99268,0,0,1,1.53759.8227c5.42259,4.23357,11.736,6.14792,18.42292,7.018a25.10964,25.10964,0,0,0,15.0065-2.28393,3.45,3.45,0,0,0,1.518-2.86627c-.95936-4.35167.49157-8.09758,2.53138-11.70238a14.14991,14.14991,0,0,1,2.64122-2.66981l.59408.48558a41.5835,41.5835,0,0,0-.76766,4.711c-.373,7.25611,3.23991,12.66766,8.12808,17.54792,6.3642,6.35391,12.13,13.09,12.09125,22.81035h12.46665c-.915-6.39789-2.18229-12.19975-6.519-16.91794a24.50654,24.50654,0,0,1-4.24258-5.55231,12.16087,12.16087,0,0,1-1.04994-5.92688,96.1552,96.1552,0,0,1,1.58691-9.85669,18.02777,18.02777,0,0,1,.9698-4.44331c1.19292-2.56756,2.51385-5.23323,5.58809-5.21755-.70219,3.2598-2.09372,6.40124-1.84934,9.40981.31857,3.9222-.67924,7.33332-1.75807,10.89747-.3748,1.23828-.6622,2.90557-.13737,3.94779a9.7543,9.7543,0,0,0,16.24069,2.04836c.47145-.52011.99654-.99178,1.46461-1.51466,5.20324-5.81274,10.40016-11.63111,15.32545-17.14218-1.26476-2.52977-2.24487-4.49019-3.225-6.45058l.81657-.87616a19.11973,19.11973,0,0,0,16.5732,3.23741c5.68294-1.34514,10.382-4.52312,14.31141-9.80661C759.85268,1502.14309,756.24633,1502.80873,752.71089,1502.54038Zm-31.946,22.49145-.75881-.4539,5.03943-9.09395c.99742.68442,2.08791,1.43272,2.661,1.826C725.27083,1520.01937,723.01786,1522.52558,720.76488,1525.03183Z"/><text class="cls-5" transform="translate(955.51959 1556.36144)">R</text><text class="cls-6" transform="translate(576.40142 1685.36112)">Bull</text><text class="cls-7" transform="translate(895.98841 1685.36129)">Rastad</text><path class="cls-8" d="M898.41028,1518.49605H867.64466v30.76563h-9.3711v-30.76563H827.507v-9.03223h30.7666v-30.7666h9.3711v30.7666h30.76562Z"/><rect class="cls-9" x="552.16787" y="1603.38462" width="199.97491" height="103.25275"/><rect class="cls-9" x="885.00304" y="1609.18681" width="273.82106" height="103.25275"/></svg>