<svg id="Layer_1" data-name="Layer 1" xmlns="http://www.w3.org/2000/svg" viewBox="0 0 1008.79121 1297.59341"><defs><style>.cls-1{fill:#ef693a;}</style></defs><path class="cls-1" d="M525.41654,714.2814s.478-.14877,1.33388-.41379C701.56933,702.38426,839.81824,556.97408,839.81824,379.2499c0-185.222-150.15208-335.37383-335.374-335.37383-.19335,0-.37337.00438-.565.0048l-.00167-.0048H69.59774S224.54558,62.7533,238.87064,68.94178c34.71359,14.99533,68.56044,28.92682,102.21019,42.54056,56.46808,22.845,74.65984,41.884,133.17145,66.45,13.99253,5.87429,22.81689,14.04609,30.44028,28.3651,8.53429,16.02993,16.81613,24.07469,23.80552,41.19918,8.43827,20.67606,20.64355,33.68475,43.62566,40.78185,68.49418,21.15465,68.11873,31.36976,118.2079,100.554-16.92572-11.01518-30.84908-18.145-42.406-28.03673-18.96465-16.23024-29.63972-19.89453-52.32221-23.4284-4.15038-.64735-14.383-.51063-18.27028,1.16253-5.00762,2.15537-10.286,3.03572-12.8469-1.77713q-2.43912-4.58391-4.87776-9.16815c-5.908-11.11039-19.7419-15.26392-25.74454-26.32264-10.77015-19.84265-10.8114-19.82077-28.05131-13.30413,7.539,9.79965,18.71087,19.52116,23.683,31.76207,11.1131,27.35772,25.748,47.26252,55.36131,59.355,12.643,5.16273,22.11746,10.95616,34.04312,16.01063,33.91608,14.37471,50.10584,34.33148,54.69792,68.53482.85317,6.359,2.21779,12.64908,3.65012,18.997a4.942,4.942,0,0,1-9.09787,3.56474c-5.99162-10.35249-12.11678-20.61349-18.85322-30.45555-5.57885-8.15158-14.05-15.78915-22.94543-19.94724C591.58385,419.523,556.294,404.328,520.832,389.63064c-14.45633-5.99034-23.9972-14.29589-27.45127-30.33465-2.579-11.97152-8.17491-23.29234-16.194-33.82622,3.73076,18.95944,6.87521,38.06744,11.61106,56.77207,1.19428,4.71626,6.851,9.23709,11.54981,11.97026,21.13069,12.28821,42.65641,23.90156,64.82427,36.19185-7.06815,23.8849-16.40609,45.3571-39.967,58.1366-41.29587,22.39913-99.2095,66.54669-138.82271,91.874-12.65241,8.08678-21.11943,8.08907-33.25929-.77528-29.48187-21.53239-31.12619-21.15006-21.97993-55.963,6.77937-25.8009,23.55674-68.93443,7.679-91.92529-11.69569-16.934-15.09608-23.41957-15.04068-38.868.02651-7.39206-10.3153-9.22791-12.70685-2.23335q-.06093.1782-.12127.35662c-4.06287,12.01506-11.58491,30.16265-23.408,32.65976-56.40981,11.91414-92.93955,6.96567-118.672-30.9813-4.32254-6.37433-6.279-7.34726-9.674-4.46626-.83635.70972-4.21413,9.72023-3.93351,11.97427,2.10609,16.91659-2.7061,26.49284,17.37516,44.16737,3.29991,2.90442,9.8059,3.18946,14.90845,3.47595,19.17884,1.07718,51.401,2.45585,70.57985,2.14165,12.66116-.20752,19.77681,4.7871,27.51877,14.6953,11.83817,15.147,11.52606,27.71462,3.60908,44.80806-13.73584,29.6548-26.68994,59.67942-39.3486,89.83156q-11.00851,26.22365-21.81366,52.52856c-4.08121,9.88611-8.8254,14.83385-19.84265,15.076-10.5218.23148-21.4103,1.36033-31.37288,4.50875-10.21593,3.22737-22.67976,6.92705-28.61095,14.70947-3.2601,4.27763,2.34286,9.42286,4.6921,11.16123,269.70522,199.5737,828.01169,576.7156,828.01169,576.7156Z"/></svg>