<svg id="Layer_1" data-name="Layer 1" xmlns="http://www.w3.org/2000/svg" viewBox="0 0 4841.40867 1230.13603"><defs><style>.cls-1{fill:#ef693a;}</style></defs><path class="cls-1" d="M1365.64746,1070.13183H1263.169V415.70067h301.03222c167.59571,0,307.43653,15.5166,307.43653,179.80909,0,133.25927-71.52149,176.15771-187.87793,188.02343L1917.54,1070.13183H1790.50879l-227.375-281.12256H1440.37207V712.33983h161.19141c115.28808,0,164.39257-15.5166,164.39257-115.91748,0-93.09912-59.77929-104.05175-162.25781-104.05175H1365.64746Z" transform="translate(-322.35598 -76.55131)"/><path class="cls-1" d="M2401.10059,799.96239c-40.56446-99.48828-85.39942-197.15088-133.43653-296.63916-95.00683,181.63428-176.13574,369.65772-238.0498,566.8086h-106.749a5350.38834,5350.38834,0,0,1,290.35743-654.43116h114.2207q169.73145,327.21608,289.29,654.43116H2503.5791c-22.417-63.89161-45.90137-128.69581-71.52148-193.5H2172.65723l27.75488-76.66944Z" transform="translate(-322.35598 -76.55131)"/><path class="cls-1" d="M3132.3252,604.6372c-8.54-109.52832-70.45411-125.04493-192.14844-125.04493-90.73633,0-167.59571,7.30176-167.59571,105.87745,0,56.58935,34.16016,70.28027,92.87207,83.05859l208.16016,43.81152c123.8291,25.55664,181.47363,76.66944,181.47363,176.15772,0,152.42724-132.36914,196.23828-298.89746,196.23828-178.2705,0-308.50488-50.20068-311.707-225.4458h102.47949c5.33692,125.04492,80.06153,146.95019,217.76758,146.95019,115.28906,0,187.87793-14.60351,187.87793-116.83007,0-52.93848-18.14746-75.75684-129.166-98.5752l-190.0127-39.24756C2725.61133,728.769,2670.10254,684.95751,2670.10254,588.208c0-109.52832,71.52148-187.11084,276.47949-187.11084,239.11817,0,285.01953,104.96435,288.22266,203.54Z" transform="translate(-322.35598 -76.55131)"/><path class="cls-1" d="M3270.03809,415.70067h617.00879v78.49561H3270.03809Zm257.26464,654.43116V558.08739h102.4795v512.04444Z" transform="translate(-322.35598 -76.55131)"/><path class="cls-1" d="M4253.2002,799.96239c-40.56446-99.48828-85.39942-197.15088-133.43653-296.63916-95.00683,181.63428-176.13574,369.65772-238.0498,566.8086h-106.749a5350.38834,5350.38834,0,0,1,290.35743-654.43116H4179.543q169.73145,327.21608,289.29,654.43116h-113.1543c-22.417-63.89161-45.90137-128.69581-71.52148-193.5H4024.75684l27.75488-76.66944Z" transform="translate(-322.35598 -76.55131)"/><path class="cls-1" d="M4634.28906,1070.13183H4531.81055V415.70067H4826.4375c238.0498,0,337.32715,91.27393,337.32715,324.93409,0,195.32519-69.3877,329.49707-336.25977,329.49707H4709.01367V993.4619H4822.167c180.40625,0,235.916-62.97851,235.916-251.00195,0-195.32519-59.7793-250.08935-241.25293-250.08935h-182.541Z" transform="translate(-322.35598 -76.55131)"/><path class="cls-1" d="M778.17479,746.95663s.478-.14876,1.33387-.41378c174.81892-11.48335,313.06782-156.89353,313.06782-334.61771,0-185.222-150.15208-335.37383-335.374-335.37383-.19335,0-.37337.00438-.56505.0048l-.00167-.0048H322.356S477.30382,95.42854,491.62888,101.617c34.7136,14.99533,68.56044,28.92682,102.21019,42.54056,56.46809,22.845,74.65984,41.884,133.17145,66.45,13.99253,5.87429,22.81689,14.04609,30.44028,28.3651,8.53429,16.02993,16.81613,24.07469,23.80552,41.19918,8.43827,20.67606,20.64355,33.68475,43.62566,40.78185,68.49418,21.15465,68.11873,31.36976,118.2079,100.554-16.92572-11.01518-30.84907-18.145-42.406-28.03673-18.96466-16.23024-29.63973-19.89453-52.32222-23.4284-4.15038-.64735-14.383-.51064-18.27028,1.16253-5.00762,2.15537-10.286,3.03572-12.8469-1.77713q-2.43912-4.58391-4.87775-9.16815c-5.908-11.11039-19.74191-15.26392-25.74455-26.32264-10.77015-19.84265-10.8114-19.82077-28.05131-13.30413,7.539,9.79965,18.71088,19.52116,23.683,31.76207,11.1131,27.35772,25.748,47.26252,55.36132,59.355,12.643,5.16273,22.11745,10.95616,34.04311,16.01063,33.91608,14.37471,50.10584,34.33148,54.69792,68.53482.85317,6.359,2.21779,12.64908,3.65012,18.997a4.942,4.942,0,0,1-9.09787,3.56474c-5.99162-10.35249-12.11678-20.61349-18.85322-30.45555-5.57884-8.15158-14.05-15.78915-22.94543-19.94724-34.76777-16.25628-70.05767-31.45122-105.51966-46.1486-14.45632-5.99034-23.9972-14.29589-27.45126-30.33465-2.579-11.97152-8.17492-23.29234-16.194-33.82623,3.73076,18.95945,6.87522,38.06745,11.61107,56.77208,1.19427,4.71626,6.851,9.23709,11.5498,11.97026,21.13069,12.28821,42.65641,23.90156,64.82427,36.19185-7.06815,23.8849-16.40608,45.3571-39.967,58.1366-41.29586,22.39913-99.2095,66.54669-138.82271,91.874-12.65241,8.08678-21.11943,8.08907-33.25929-.77528-29.48187-21.53239-31.12618-21.15006-21.97993-55.963,6.77937-25.8009,23.55674-68.93443,7.679-91.92529-11.6957-16.934-15.09609-23.41957-15.04068-38.868.02651-7.39206-10.31531-9.22791-12.70686-2.23335q-.06093.1782-.12126.35662c-4.06288,12.01506-11.58492,30.16265-23.408,32.65976-56.40981,11.91414-92.93955,6.96567-118.672-30.9813-4.32254-6.37433-6.279-7.34726-9.674-4.46626-.83635.70972-4.21413,9.72023-3.93351,11.97427,2.10609,16.91659-2.7061,26.49284,17.37516,44.16737,3.29992,2.90442,9.8059,3.18946,14.90845,3.47594,19.17884,1.07719,51.401,2.45585,70.57985,2.14166,12.66116-.20752,19.77681,4.7871,27.51877,14.6953,11.83817,15.147,11.52606,27.71462,3.60908,44.80806-13.73584,29.6548-26.68994,59.67942-39.3486,89.83156q-11.0085,26.22364-21.81366,52.52856c-4.08121,9.88611-8.82539,14.83385-19.84265,15.076-10.5218.23148-21.4103,1.36033-31.37287,4.50875-10.21594,3.22737-22.67977,6.92705-28.611,14.70947-3.26009,4.27763,2.34286,9.42286,4.6921,11.16123,269.70522,199.5737,828.01169,576.7156,828.01169,576.7156Z" transform="translate(-322.35598 -76.55131)"/></svg>