<svg id="Layer_1" data-name="Layer 1" xmlns="http://www.w3.org/2000/svg" viewBox="0 0 339.42857 339.42857"><defs><style>.cls-1{fill:#fff;}.cls-2{fill:#1b0b38;}</style></defs><circle class="cls-1" cx="169.71429" cy="169.71429" r="169.71429"/><path class="cls-2" d="M265.15048,296.43149q-5.26163-3.64518-10.52282-7.29092Q235.083,275.56824,215.54262,261.99q-18.64818-12.97206-37.28026-25.96728-19.192-13.34251-38.40674-26.65227-15.31-10.63421-30.60421-21.29132c-6.36389-4.42621-12.747-8.82518-19.07514-13.30193a5.94346,5.94346,0,0,1-1.583-2.17247c-.125-.24237.2122-.9839.5215-1.14583a28.03112,28.03112,0,0,1,5.06358-2.34856,26.35118,26.35118,0,0,1,6.24558-.98479,4.75326,4.75326,0,0,0,4.70074-3.33076c1.95655-4.84542,3.987-9.66191,6.05276-14.462,2.25506-5.24,4.42226-10.52719,6.92414-15.649,2.74656-5.62271-2.456-12.19724-7.832-11.7654-4.14819.33321-8.37015-.24041-12.55822-.43458a1.96428,1.96428,0,0,1-1.12907-.33564c-1.86616-1.61114-3.59607-3.32595-3.56116-6.0625a15.61822,15.61822,0,0,0,.00491-2.27666,1.57382,1.57382,0,0,1,1.14019-1.74149c.32682-.13235,1.01309.26353,1.36267.60079,5.15276,4.97117,11.38554,7.05459,18.4385,6.95255a12.78111,12.78111,0,0,0,3.21021-.3108,3.42355,3.42355,0,0,0,1.99451-1.34129c1.03175-1.91817,1.856-3.9519,2.699-5.96659.99108-2.36854,1.917-4.76435,2.87118-7.14831l.36093.08209a4.13344,4.13344,0,0,1,.10319.71905c-.06958,2.39387-.32989,4.79982-.16315,7.17618a7.40083,7.40083,0,0,0,1.40551,3.98074c3.63167,4.42889,3.25825,9.29865,1.96629,14.326-.85317,3.31994-1.78886,6.61869-2.691,9.926-.70435,2.5822-.38092,4.81839,2.02006,6.449,1.2541.85171,2.42761,1.82114,3.65426,2.71441a4.9235,4.9235,0,0,0,6.12825.091c3.408-2.30673,6.8219-4.60637,10.18386-6.9791,6.397-4.51473,12.69537-9.17337,19.55077-12.999,4.04731-2.25856,6.64412-6.70548,7.6173-11.36633-3.21545-1.7779-6.458-3.56758-9.69705-5.36361-1.01263-.56151-1.98292-1.21106-3.0302-1.69593a6.013,6.013,0,0,1-3.53038-4.88964c-.46951-2.82663-1.11327-5.62424-1.67433-8.43586a2.82461,2.82461,0,0,1-.00451-.54254l.38783-.15325c.728,1.50208,1.4665,2.99921,2.17632,4.50984a4.50147,4.50147,0,0,1,.34972,1.1445c.66647,3.89782,3.20037,5.95857,6.70705,7.4072,6.96942,2.87908,13.84447,5.98724,20.74835,9.02385a13.31284,13.31284,0,0,1,5.959,5.55832c1.744,2.865,3.4154,5.77409,5.12454,8.66036a2.17054,2.17054,0,0,0,.97751.94462c-.1666-.76868-.33507-1.537-.49947-2.30611-.83234-3.89409-1.46854-7.84328-2.54447-11.66882-1.35874-4.83109-4.78742-7.76716-9.52794-9.28093a41.28735,41.28735,0,0,1-3.96234-1.66374c-1.639-.71954-3.23882-1.53714-4.9063-2.181a15.06932,15.06932,0,0,1-8.33051-7.72225c-1.853-3.81568-3.60582-7.65261-6.85216-10.58287,2.57829-1.54164,3.812-1.06845,4.83666.91155,2.03648,3.935,4.16216,7.82378,6.25128,11.73151.20081.37561.4037.75015.71962,1.337.31409-.51451.53877-.82358.70326-1.16192a3.91217,3.91217,0,0,1,4.42067-2.24064,64.16446,64.16446,0,0,1,7.56886,1.6776,26.20182,26.20182,0,0,1,5.20491,2.854c1.62679,1.00832,3.15623,2.17236,4.7516,3.23318,1.01859.67731,2.07928,1.29131,3.21093,1.98909,0-.22525.04315-.36076-.00618-.42334-2.91569-3.6979-5.7143-7.49814-8.79932-11.04954-2.68351-3.08918-6.52871-4.34257-10.29354-5.60836-2.37876-.79979-4.79556-1.50932-7.11655-2.453-3.61843-1.47115-5.54312-4.50257-7.02871-7.945-1.07341-2.48735-2.36645-4.87952-3.54509-7.322-.41573-.86148-.81862-1.73251-1.16505-2.6234a9.16394,9.16394,0,0,0-4.98334-5.2588c-4.09206-1.79242-8.22749-3.48791-12.36572-5.17243-8.46333-3.44511-16.95-6.833-25.40915-10.28827-6.71986-2.74483-13.37144-5.66258-20.14026-8.27863a41.74994,41.74994,0,0,0-7.68151-1.7803c-5.143-.92374-10.30548-1.74-15.464-2.57557-.79009-.128-1.60187-.122-2.40362-.178l-.00063-.307c.60558-.03947,1.21117-.11373,1.81674-.11342,29.51762.01515,59.03631-.10346,88.55235.12274,12.81059.09817,24.6429,4.009,35.46513,10.93309a69.89707,69.89707,0,0,1,17.67062,16.21562,69.08553,69.08553,0,0,1,14.22475,46.03542,89.38153,89.38153,0,0,1-1.84841,12.52974,63.37473,63.37473,0,0,1-11.55485,25.01806,69.60892,69.60892,0,0,1-27.23624,22.33669,68.57067,68.57067,0,0,1-17.53253,5.08461c-2.15632.345-4.32144.63491-6.71206.98346.97605,1.15627,1.8036,2.15889,2.6546,3.14117Q178.19,191.105,186.87354,201.11233c6.02176,6.94636,12.0717,13.86861,18.05466,20.84826,7.6218,8.89156,15.24483,17.78318,22.76427,26.76108q12.35723,14.754,24.506,29.68207c3.95245,4.866,7.65675,9.93447,11.43814,14.93789a33.46648,33.46648,0,0,1,1.77765,2.90174Z"/><path class="cls-2" d="M119.29626,218.06819c-5.04631,4.16465-9.82014,8.10424-14.59374,12.04415-1.4175,1.16991-2.84993,2.32249-4.24384,3.51991a1.08826,1.08826,0,0,1-1.58295.06123c-1.05468-.78929-2.13014-1.55833-3.24931-2.25118a1.25659,1.25659,0,0,1-.57055-1.71665c2.4954-7.19125,4.92615-14.40557,7.497-21.56966,1.0759-2.99825,2.42933-5.89786,3.68482-8.83022.54961-1.28373,1.166-1.44668,2.3195-.67065.92768.62417,1.79921,1.34048,2.763,1.89987.97837.56786,1.02522,1.16437.58,2.159q-3.3229,7.42283-6.49936,14.91083a43.79877,43.79877,0,0,0-2.07862,6.27q2.56251-2.11611,5.12443-4.23294c4.30456-3.57288,8.61753-7.13586,12.89754-10.73794a1.29194,1.29194,0,0,1,1.89056-.04333,32.49212,32.49212,0,0,0,3.14964,2.18215c.9566.56209,1.04542,1.178.68235,2.17231-2.50257,6.85358-4.95143,13.72676-7.417,20.59387a2.43787,2.43787,0,0,0-.18635,1.25183c1.39068-1.16444,2.83477-2.27136,4.16214-3.504q6.3249-5.87354,12.55959-11.84346c.8177-.7868,1.40766-.98637,2.32068-.21812.82135.69106,1.77122,1.2276,2.64957,1.85315,1.15083.81958,1.20977,1.52862.18987,2.51927a226.91689,226.91689,0,0,1-20.113,17.40921c-1.49037,1.14161-3.03287,2.21654-4.49946,3.38725a1.47316,1.47316,0,0,1-2.12113-.01064,24.53221,24.53221,0,0,0-2.65735-1.84166c-.90088-.53818-.9756-1.16769-.64128-2.106,2.59615-7.286,5.15027-14.587,7.71727-21.88335C119.08061,218.69907,119.12905,218.555,119.29626,218.06819Z"/><path class="cls-2" d="M176.5892,252.42017a15.98977,15.98977,0,0,1-1.73176,7.0223,28.20464,28.20464,0,0,1-8.11115,10.38058,12.99021,12.99021,0,0,1-13.0916,2.0267,22.62246,22.62246,0,0,1-10.08753-7.24261,12.83781,12.83781,0,0,1-2.15353-12.65156,27.2988,27.2988,0,0,1,9.05211-12.977,12.63072,12.63072,0,0,1,12.51109-2.25484,22.13358,22.13358,0,0,1,11.434,8.48035A12.00642,12.00642,0,0,1,176.5892,252.42017Zm-6.05981-.36516a7.78291,7.78291,0,0,0-1.57362-4.28134,16.05941,16.05941,0,0,0-6.38839-4.90067,7.14621,7.14621,0,0,0-8.05489,1.04294,23.6423,23.6423,0,0,0-7.11952,10.182c-.99962,2.70385-.71055,5.39864,1.4018,7.44814a27.1966,27.1966,0,0,0,5.60052,4.19385c3.18521,1.77991,6.24775,1.12392,8.91247-1.31109a25.11463,25.11463,0,0,0,6.22636-8.83728A27.89673,27.89673,0,0,0,170.52939,252.055Z"/><path class="cls-2" d="M181.522,285.556a43.91873,43.91873,0,0,1,1.57072-5.71906,29.33418,29.33418,0,0,1,9.5935-12.62958,12.09789,12.09789,0,0,1,12.47336-1.44478,21.91376,21.91376,0,0,1,9.44252,7.14253c2.85479,3.835,3.00426,7.94964.99018,12.20051a1.2664,1.2664,0,0,1-2.13387.599,30.1835,30.1835,0,0,1-3.01966-2.1571,1.53224,1.53224,0,0,1-.37149-1.37212c1.54928-3.68251.31175-6.09169-2.26275-7.98084a30.87227,30.87227,0,0,0-4.36011-2.7044,6.05925,6.05925,0,0,0-6.95687.77924,26.82578,26.82578,0,0,0-8.05071,11.28354,6.052,6.052,0,0,0,1.11406,6.40618,15.69587,15.69587,0,0,0,6.05077,4.39589,4.9611,4.9611,0,0,0,4.39668-.18542,13.54663,13.54663,0,0,0,2.28939-1.51445c2.06345-1.72764,2.04458-1.75025,4.28075-.155.29253.20872.582.42179.877.62693,1.71534,1.19271,1.76136,1.641.2434,3.13668a14.13333,14.13333,0,0,1-8.54231,4.43253,11.73581,11.73581,0,0,1-5.96032-.98765,22.10042,22.10042,0,0,1-9.01535-6.93977A13.47867,13.47867,0,0,1,181.522,285.556Z"/><path class="cls-2" d="M134.088,251.15246c0,1.91517-1.93162,4.08818-3.638,4.09258-1.87795.00483-4.14722-1.94963-4.17848-3.59878-.03508-1.85139,2.05616-4.17748,3.74387-4.16429C131.92558,247.49691,134.088,249.44583,134.088,251.15246Z"/><path class="cls-2" d="M171.17977,283.80521c-1.88709-.03014-4.1339-2.03722-4.10772-3.66938.03047-1.90023,2.12114-4.144,3.814-4.09334,1.93841.058,4.03993,2.02228,4.00192,3.74058C174.84517,281.71889,172.89639,283.83264,171.17977,283.80521Z"/><path class="cls-1" d="M170.52939,252.055a27.89673,27.89673,0,0,1-.99527,3.53658,25.11463,25.11463,0,0,1-6.22636,8.83728c-2.66472,2.435-5.72726,3.091-8.91247,1.31109a27.1966,27.1966,0,0,1-5.60052-4.19385c-2.11235-2.0495-2.40142-4.74429-1.4018-7.44814a23.6423,23.6423,0,0,1,7.11952-10.182,7.14621,7.14621,0,0,1,8.05489-1.04294,16.05941,16.05941,0,0,1,6.38839,4.90067A7.78291,7.78291,0,0,1,170.52939,252.055Z"/></svg>