<?xml version="1.0" encoding="utf-8"?>
<!-- Generator: Adobe Illustrator 25.3.1, SVG Export Plug-In . SVG Version: 6.00 Build 0)  -->
<svg version="1.1" id="Layer_1" xmlns="http://www.w3.org/2000/svg" xmlns:xlink="http://www.w3.org/1999/xlink" x="0px" y="0px"
	 viewBox="0 0 339.4 339.4" style="enable-background:new 0 0 339.4 339.4;" xml:space="preserve">
<style type="text/css">
	.st0{fill:#270E41;}
	.st1{fill:#FF7032;}
</style>
<circle class="st0" cx="169.7" cy="169.7" r="169.7"/>
<path class="st1" d="M265.2,298.6c-3.5-2.4-7-4.9-10.5-7.3c-13-9-26.1-18.1-39.1-27.2c-12.4-8.6-24.9-17.3-37.3-26
	c-12.8-8.9-25.6-17.8-38.4-26.7c-10.2-7.1-20.4-14.2-30.6-21.3c-6.4-4.4-12.7-8.8-19.1-13.3c-0.7-0.6-1.2-1.3-1.6-2.2
	c-0.1-0.2,0.2-1,0.5-1.1c1.6-0.9,3.3-1.7,5.1-2.3c2-0.6,4.1-0.9,6.2-1c2.1,0.1,4.1-1.3,4.7-3.3c2-4.8,4-9.7,6.1-14.5
	c2.3-5.2,4.4-10.5,6.9-15.6c2.7-5.6-2.5-12.2-7.8-11.8c-4.1,0.3-8.4-0.2-12.6-0.4c-0.4,0-0.8-0.1-1.1-0.3c-1.9-1.6-3.6-3.3-3.6-6.1
	c0.1-0.8,0.1-1.5,0-2.3c-0.1-0.8,0.4-1.5,1.1-1.7c0.3-0.1,1,0.3,1.4,0.6c5.2,5,11.4,7.1,18.4,7c1.1,0,2.2-0.1,3.2-0.3
	c0.8-0.2,1.5-0.7,2-1.3c1-1.9,1.9-4,2.7-6c1-2.4,1.9-4.8,2.9-7.1l0.4,0.1c0.1,0.2,0.1,0.5,0.1,0.7c-0.1,2.4-0.3,4.8-0.2,7.2
	c0.1,1.4,0.6,2.8,1.4,4c3.6,4.4,3.3,9.3,2,14.3c-0.9,3.3-1.8,6.6-2.7,9.9c-0.7,2.6-0.4,4.8,2,6.4c1.3,0.9,2.4,1.8,3.7,2.7
	c1.8,1.5,4.3,1.5,6.1,0.1c3.4-2.3,6.8-4.6,10.2-7c6.4-4.5,12.7-9.2,19.6-13c4-2.3,6.6-6.7,7.6-11.4c-3.2-1.8-6.5-3.6-9.7-5.4
	c-1-0.6-2-1.2-3-1.7c-2-0.9-3.3-2.7-3.5-4.9c-0.5-2.8-1.1-5.6-1.7-8.4c0-0.2,0-0.4,0-0.5l0.4-0.2c0.7,1.5,1.5,3,2.2,4.5
	c0.2,0.4,0.3,0.7,0.3,1.1c0.7,3.9,3.2,6,6.7,7.4c7,2.9,13.8,6,20.7,9c2.5,1.2,4.6,3.1,6,5.6c1.7,2.9,3.4,5.8,5.1,8.7
	c0.2,0.4,0.6,0.7,1,0.9c-0.2-0.8-0.3-1.5-0.5-2.3c-0.8-3.9-1.5-7.8-2.5-11.7c-1.4-4.8-4.8-7.8-9.5-9.3c-1.3-0.5-2.7-1-4-1.7
	c-1.6-0.7-3.2-1.5-4.9-2.2c-3.7-1.4-6.7-4.2-8.3-7.7c-1.9-3.8-3.6-7.7-6.9-10.6c2.6-1.5,3.8-1.1,4.8,0.9c2,3.9,4.2,7.8,6.3,11.7
	c0.2,0.4,0.4,0.8,0.7,1.3c0.3-0.5,0.5-0.8,0.7-1.2c0.8-1.7,2.6-2.6,4.4-2.2c2.6,0.4,5.1,1,7.6,1.7c1.8,0.8,3.6,1.7,5.2,2.9
	c1.6,1,3.2,2.2,4.8,3.2c1,0.7,2.1,1.3,3.2,2c0-0.2,0-0.4,0-0.4c-2.9-3.7-5.7-7.5-8.8-11c-2.7-3.1-6.5-4.3-10.3-5.6
	c-2.4-0.8-4.8-1.5-7.1-2.5c-3.6-1.5-5.5-4.5-7-7.9c-1.1-2.5-2.4-4.9-3.5-7.3c-0.4-0.9-0.8-1.7-1.2-2.6c-0.9-2.4-2.7-4.3-5-5.3
	c-4.1-1.8-8.2-3.5-12.4-5.2c-8.5-3.4-16.9-6.8-25.4-10.3c-6.7-2.7-13.4-5.7-20.1-8.3c-2.5-0.8-5.1-1.4-7.7-1.8
	c-5.1-0.9-10.3-1.7-15.5-2.6c-0.8-0.1-1.6-0.1-2.4-0.2l0-0.3c0.6,0,1.2-0.1,1.8-0.1c29.5,0,59-0.1,88.6,0.1
	c12.8,0.1,24.6,4,35.5,10.9c6.8,4.3,12.8,9.8,17.7,16.2c10.1,13.1,15.2,29.5,14.2,46c-0.3,4.2-0.9,8.4-1.8,12.5
	c-2,9.1-5.9,17.6-11.6,25c-7,9.7-16.4,17.3-27.2,22.3c-5.6,2.5-11.5,4.2-17.5,5.1c-2.2,0.3-4.3,0.6-6.7,1c1,1.2,1.8,2.2,2.7,3.1
	c5.8,6.7,11.6,13.3,17.4,20c6,6.9,12.1,13.9,18.1,20.8c7.6,8.9,15.2,17.8,22.8,26.8c8.2,9.8,16.4,19.7,24.5,29.7
	c4,4.9,7.7,9.9,11.4,14.9c0.6,0.9,1.2,1.9,1.8,2.9L265.2,298.6z"/>
</svg>
