<svg xmlns="http://www.w3.org/2000/svg" width="566.024" height="463.046" viewBox="0 0 566.024 463.046">
  <path id="Path_3468" data-name="Path 3468" d="M566.026,463.048a665.469,665.469,0,0,0-36.936-58.666,515.128,515.128,0,0,0-49.075-60.4,290.744,290.744,0,0,0-42.77-37.376A287.12,287.12,0,0,0,300.261,254.4a275.828,275.828,0,0,0-27.817-1.613c-12.868,0-25.745.669-38.605,1.209-4.435.185-8.869.714-13.3,1.262q-10.232,1.262-20.447,2.778c-6.257.919-12.5,1.887-18.75,3.012-6.829,1.209-13.63,2.685-20.456,3.959-7.8,1.459-15.614,2.822-23.423,4.233-8.353,1.488-16.7,3.024-25.068,4.406-8.208,1.359-16.428,2.56-24.644,3.81-8.063,1.209-16.126,2.5-24.189,3.6-7.966,1.093-15.952,1.923-23.915,3a104.382,104.382,0,0,1-27.978-.044c-1.068-.137-6.007-1.52-8.821-1.947-2.31-.343-2.983-.762-2.822-1.443.327-1.5.367-1.258,1.516-1.185.71.044,2.5.294,3.2.423a48.065,48.065,0,0,0,7.962.883,156.89,156.89,0,0,0,20.927,0,185.2,185.2,0,0,0,25.213-4.2,255.887,255.887,0,0,0,52.034-19.444,568.434,568.434,0,0,0,103.435-66.741c24.809-19.649,48.535-41.242,72.28-62.806,20.762-18.855,41.524-37.73,63.241-54.856a347.165,347.165,0,0,1,73.776-46.051A233.661,233.661,0,0,1,471.4,11.191c7.132-1.451,14.243-3.016,21.367-4.386q8.522-1.641,17.089-2.927,8.325-1.254,16.686-2.153c5.85-.633,11.691-1.3,17.577-1.52A72.707,72.707,0,0,1,566,1.879Z" transform="translate(566.024 463.046) rotate(-180)" fill="#f77219"/>
</svg>
