<svg xmlns="http://www.w3.org/2000/svg" width="847.403" height="377.007" viewBox="0 0 847.403 377.007">
  <path id="Path_3468" data-name="Path 3468" d="M847.407,0a639.376,639.376,0,0,1-55.3,47.767,619.469,619.469,0,0,1-73.469,49.175,463.287,463.287,0,0,1-64.028,30.432C590.1,151.8,520.554,166.217,449.547,169.886c-13.852.768-27.777,1.313-41.669,1.313-19.262,0-38.541-.545-57.795-.985-6.648-.151-13.3-.581-19.915-1.027q-15.32-1.027-30.607-2.262c-9.365-.748-18.734-1.536-28.067-2.452-10.224-.985-20.4-2.186-30.639-3.223-11.691-1.188-23.382-2.3-35.074-3.447-12.5-1.211-25-2.462-37.525-3.588-12.284-1.106-24.592-2.084-36.892-3.1-12.062-.985-24.112-2.035-36.195-2.931-11.921-.89-23.878-1.566-35.8-2.446a286.377,286.377,0,0,0-41.887.036c-1.613.111-8.99,1.237-13.2,1.585-3.459.279-4.467.62-4.249,1.175.488,1.224.548,1.024,2.266.965,1.06-.036,3.733-.24,4.789-.345q5.931-.632,11.921-.719,15.654-.564,31.328,0,19.021.985,37.787,3.41a613.977,613.977,0,0,1,77.9,15.831,1103.236,1103.236,0,0,1,154.836,54.328c37.138,16,72.654,33.58,108.2,51.139,31.078,15.352,62.149,30.721,94.67,44.665a685.622,685.622,0,0,0,110.462,37.5A578.7,578.7,0,0,0,705.721,367.9c10.675,1.181,21.326,2.455,32.014,3.571q12.759,1.336,25.583,2.383,12.465,1.021,25,1.753c8.76.515,17.529,1.057,26.313,1.238a198.088,198.088,0,0,0,32.735-1.366Z" transform="translate(0)" fill="#f77219"/>
</svg>
