<svg xmlns="http://www.w3.org/2000/svg" xmlns:xlink="http://www.w3.org/1999/xlink" viewBox="0 0 1384.4632 1031.46053"><defs><style>.cls-1{fill:url(#linear-gradient);}.cls-2{fill:url(#linear-gradient-2);}.cls-3{fill:url(#linear-gradient-3);}.cls-4{fill:url(#linear-gradient-4);}.cls-5{fill:url(#linear-gradient-5);}.cls-6{fill:url(#linear-gradient-6);}.cls-7{fill:url(#linear-gradient-7);}.cls-8{isolation:isolate;}.cls-9{mix-blend-mode:screen;}.cls-10{fill:#c334f7;}.cls-11{fill:url(#linear-gradient-8);}.cls-12,.cls-13,.cls-14,.cls-15,.cls-16{fill:#7c1dc9;}.cls-12,.cls-13,.cls-14,.cls-15,.cls-16,.cls-31,.cls-39,.cls-50,.cls-55,.cls-60,.cls-65,.cls-70{mix-blend-mode:color-dodge;}.cls-12{opacity:0.8;}.cls-13{opacity:0.6;}.cls-14{opacity:0.4;}.cls-15{opacity:0.25;}.cls-16{opacity:0.15;}.cls-17{fill:url(#linear-gradient-9);}.cls-18{fill:url(#linear-gradient-10);}.cls-19{fill:url(#linear-gradient-11);}.cls-20{fill:url(#linear-gradient-12);}.cls-21{opacity:0.3;fill:url(#linear-gradient-13);}.cls-22{fill:url(#linear-gradient-14);}.cls-23{fill:none;stroke-linecap:round;stroke-linejoin:round;stroke-width:3px;stroke:url(#linear-gradient-15);}.cls-24{fill:url(#linear-gradient-16);}.cls-25{fill:url(#linear-gradient-17);}.cls-26{mask:url(#mask);}.cls-27{opacity:0.95;}.cls-28{fill:url(#linear-gradient-18);}.cls-29{fill:url(#linear-gradient-19);}.cls-30{fill:url(#linear-gradient-20);}.cls-31{fill:url(#Radial_Gradient_1);}.cls-32,.cls-40,.cls-74,.cls-75{opacity:0.5;}.cls-32{fill:url(#linear-gradient-21);}.cls-33{fill:url(#linear-gradient-22);}.cls-34{fill:url(#linear-gradient-23);}.cls-35{mask:url(#mask-2);}.cls-36{fill:url(#linear-gradient-24);}.cls-37{fill:url(#linear-gradient-25);}.cls-38{fill:url(#linear-gradient-26);}.cls-39{fill:url(#Radial_Gradient_1-2);}.cls-40{fill:url(#linear-gradient-27);}.cls-41,.cls-42,.cls-43,.cls-44,.cls-45{stroke:#ffb43c;stroke-miterlimit:10;}.cls-41{fill:url(#linear-gradient-28);}.cls-42{fill:url(#linear-gradient-29);}.cls-43{fill:url(#linear-gradient-30);}.cls-44{fill:url(#linear-gradient-31);}.cls-45{fill:url(#linear-gradient-32);}.cls-46{mask:url(#mask-3);}.cls-47{fill:url(#linear-gradient-33);}.cls-48{fill:url(#linear-gradient-34);}.cls-49{fill:url(#linear-gradient-35);}.cls-50{fill:url(#Radial_Gradient_1-3);}.cls-51{mask:url(#mask-4);}.cls-52{fill:url(#linear-gradient-36);}.cls-53{fill:url(#linear-gradient-37);}.cls-54{fill:url(#linear-gradient-38);}.cls-55{fill:url(#Radial_Gradient_1-4);}.cls-56{mask:url(#mask-5);}.cls-57{fill:url(#linear-gradient-39);}.Graphic-Style-4{fill:url(#linear-gradient-40);}.cls-58{fill:url(#linear-gradient-41);}.cls-59{fill:url(#linear-gradient-42);}.cls-60{fill:url(#Radial_Gradient_1-5);}.cls-61{mask:url(#mask-6);}.cls-62{fill:url(#linear-gradient-43);}.cls-63{fill:url(#linear-gradient-44);}.cls-64{fill:url(#linear-gradient-45);}.cls-65{fill:url(#Radial_Gradient_1-6);}.cls-66{mask:url(#mask-7);}.cls-67{fill:url(#linear-gradient-46);}.cls-68{fill:url(#linear-gradient-47);}.cls-69{fill:url(#linear-gradient-48);}.cls-70{fill:url(#Radial_Gradient_1-7);}.cls-71,.cls-72,.cls-73,.cls-78,.cls-79,.cls-80{fill-opacity:0.81;}.cls-71{fill:url(#linear-gradient-49);}.cls-72{fill:url(#linear-gradient-50);}.cls-73{fill:url(#linear-gradient-51);}.cls-74{fill:url(#linear-gradient-52);}.cls-75{fill:url(#linear-gradient-53);}.cls-76{fill:url(#linear-gradient-54);}.cls-77{fill:url(#linear-gradient-55);}.cls-78{fill:url(#linear-gradient-56);}.cls-79{fill:url(#linear-gradient-57);}.cls-80{fill:url(#linear-gradient-58);}</style><linearGradient id="linear-gradient" x1="8053.69161" y1="2980.69081" x2="8053.69161" y2="2482.68528" gradientTransform="translate(-7156.88322 -1962.55584)" gradientUnits="userSpaceOnUse"><stop offset="0.56061" stop-color="#fff"/><stop offset="0.6076" stop-color="#f5f4f5"/><stop offset="0.68899" stop-color="#d8d8d9"/><stop offset="0.79505" stop-color="#abaaab"/><stop offset="0.92024" stop-color="#6c6c6d"/><stop offset="1" stop-color="#414042"/></linearGradient><linearGradient id="linear-gradient-2" x1="7964.37121" y1="3059.27617" x2="7964.37121" y2="2561.27065" gradientTransform="translate(-6978.24241 -2119.72656)" xlink:href="#linear-gradient"/><linearGradient id="linear-gradient-3" x1="7537.37439" y1="3229.45681" x2="7537.37439" y2="2731.45128" gradientTransform="translate(-6124.24878 -2460.08783)" xlink:href="#linear-gradient"/><linearGradient id="linear-gradient-4" x1="7626.00911" y1="3178.45027" x2="7626.00911" y2="2680.44474" gradientTransform="translate(-6301.51822 -2358.07476)" xlink:href="#linear-gradient"/><linearGradient id="linear-gradient-5" x1="7705.57138" y1="3245.78064" x2="7705.57138" y2="2621.10733" gradientTransform="translate(-6460.64277 -2363.69711)" xlink:href="#linear-gradient"/><linearGradient id="linear-gradient-6" x1="7799.93397" y1="3129.56284" x2="7799.93397" y2="2583.7624" gradientTransform="translate(-6649.36794 -2211.61049)" xlink:href="#linear-gradient"/><linearGradient id="linear-gradient-7" x1="7888.56897" y1="3027.93807" x2="7888.56897" y2="2529.93254" gradientTransform="translate(-6826.63794 -2057.05035)" xlink:href="#linear-gradient"/><linearGradient id="linear-gradient-8" x1="358.61426" y1="1050.73482" x2="358.61426" y2="698.06502" gradientUnits="userSpaceOnUse"><stop offset="0.03535" stop-color="#43e8e1"/><stop offset="0.09666" stop-color="#47d9df"/><stop offset="0.21554" stop-color="#53b0da"/><stop offset="0.38006" stop-color="#656fd3"/><stop offset="0.56566" stop-color="#7c1dc9"/><stop offset="0.98485" stop-color="#ad00bd"/></linearGradient><linearGradient id="linear-gradient-9" x1="1400.30759" y1="1224.05992" x2="485.81233" y2="408.54961" gradientUnits="userSpaceOnUse"><stop offset="0" stop-color="#f60"/><stop offset="1" stop-color="#f90"/></linearGradient><linearGradient id="linear-gradient-10" x1="502.31361" y1="-289.72523" x2="785.92864" y2="686.65582" gradientTransform="matrix(0.8638, -0.5038, 0.0051, 1.1547, 111.2359, 355.0242)" gradientUnits="userSpaceOnUse"><stop offset="0" stop-color="#6318ff"/><stop offset="1" stop-color="#13ffe2"/></linearGradient><linearGradient id="linear-gradient-11" x1="514.30047" y1="552.74882" x2="1052.66114" y2="552.74882" gradientUnits="userSpaceOnUse"><stop offset="0.00378" stop-color="#eda221"/><stop offset="0.25538" stop-color="#ed9e1e"/><stop offset="0.52792" stop-color="#eb9117"/><stop offset="0.80927" stop-color="#e97b0b"/><stop offset="1" stop-color="#e76800"/></linearGradient><linearGradient id="linear-gradient-12" x1="532.30051" y1="-186.49151" x2="815.91553" y2="789.88954" gradientTransform="matrix(0.8638, -0.5038, 0.0051, 1.1547, 111.2359, 355.0242)" gradientUnits="userSpaceOnUse"><stop offset="0.42574" stop-color="#3c0099"/><stop offset="0.66259" stop-color="#ac00ff" stop-opacity="0.9"/></linearGradient><linearGradient id="linear-gradient-13" x1="583.97178" y1="-218.28619" x2="867.58667" y2="758.09441" xlink:href="#linear-gradient-10"/><linearGradient id="linear-gradient-14" x1="562.97746" y1="581.97118" x2="1129.80644" y2="581.97118" gradientUnits="userSpaceOnUse"><stop offset="0" stop-color="#2d008b"/><stop offset="1" stop-color="#9d00ff"/></linearGradient><linearGradient id="linear-gradient-15" x1="-2379.40871" y1="2952.78582" x2="-1913.96629" y2="2952.78582" gradientTransform="matrix(0.8866, -0.46254, 0.47822, 0.87842, 1083.75215, -3120.51896)" xlink:href="#linear-gradient-11"/><linearGradient id="linear-gradient-16" x1="1543.59569" y1="639.24029" x2="1543.59569" y2="813.36564" xlink:href="#linear-gradient-8"/><linearGradient id="linear-gradient-17" x1="506.10302" y1="412.94616" x2="606.65981" y2="412.94616" xlink:href="#linear-gradient-11"/><mask id="mask" x="582.60937" y="474.17776" width="176.02657" height="547.50971" maskUnits="userSpaceOnUse"><g transform="translate(-226.18573 -16.53947)"><rect class="cls-1" x="808.7951" y="490.71722" width="176.02657" height="547.50971" transform="translate(1793.61678 1528.94416) rotate(180)"/></g></mask><linearGradient id="linear-gradient-18" x1="704.63052" y1="652.66182" x2="663.51658" y2="723.87327" gradientUnits="userSpaceOnUse"><stop offset="0" stop-color="#5513ab"/><stop offset="1" stop-color="#be3bff"/></linearGradient><linearGradient id="linear-gradient-19" x1="682.89793" y1="828.36417" x2="987.48633" y2="805.00613" xlink:href="#linear-gradient-18"/><linearGradient id="linear-gradient-20" x1="565.78038" y1="812.32077" x2="733.21924" y2="840.37335" xlink:href="#linear-gradient-18"/><radialGradient id="Radial_Gradient_1" cx="636.49877" cy="762.38971" r="97.99574" gradientUnits="userSpaceOnUse"><stop offset="0" stop-color="#fff"/><stop offset="1"/></radialGradient><linearGradient id="linear-gradient-21" x1="751.57215" y1="747.19322" x2="752.00127" y2="644.15492" gradientTransform="matrix(-0.99996, -0.00866, 0.0044, -0.50765, 1426.33383, 1338.09452)" gradientUnits="userSpaceOnUse"><stop offset="0.04662" stop-color="#1f1357"/><stop offset="0.50116" stop-color="#be3bff"/></linearGradient><linearGradient id="linear-gradient-22" x1="887.63201" y1="706.04601" x2="917.98397" y2="699.5945" gradientTransform="matrix(1, 0, -0.00001, 1.8754, 0.71965, -709.21676)" xlink:href="#linear-gradient-18"/><linearGradient id="linear-gradient-23" x1="977.88911" y1="547.18165" x2="1008.00509" y2="540.7803" gradientTransform="translate(-0.42341 480.60125) scale(1 0.47872)" xlink:href="#linear-gradient-18"/><mask id="mask-2" x="671.9295" y="395.5924" width="176.02713" height="547.50971" maskUnits="userSpaceOnUse"><g transform="translate(-226.18573 -16.53947)"><rect class="cls-2" x="898.11523" y="412.13186" width="176.02713" height="547.50971" transform="translate(1972.25759 1371.77344) rotate(180)"/></g></mask><linearGradient id="linear-gradient-24" x1="793.95114" y1="707.79769" x2="752.83655" y2="779.01024" xlink:href="#linear-gradient-18"/><linearGradient id="linear-gradient-25" x1="775.35093" y1="810.18422" x2="1030.27306" y2="790.63496" xlink:href="#linear-gradient-18"/><linearGradient id="linear-gradient-26" x1="678.33148" y1="798.24749" x2="801.12138" y2="818.81962" xlink:href="#linear-gradient-18"/><radialGradient id="Radial_Gradient_1-2" cx="725.81944" cy="780.79225" r="56.36614" xlink:href="#Radial_Gradient_1"/><linearGradient id="linear-gradient-27" x1="663.23047" y1="931.405" x2="663.46489" y2="875.11807" gradientTransform="matrix(-0.99996, -0.00866, 0.0044, -0.50765, 1426.33383, 1338.09452)" gradientUnits="userSpaceOnUse"><stop offset="0.02335" stop-color="#1f1357"/><stop offset="0.58855" stop-color="#be3bff"/></linearGradient><linearGradient id="linear-gradient-28" x1="393.11835" y1="302.13393" x2="411.34326" y2="302.13393" xlink:href="#linear-gradient-18"/><linearGradient id="linear-gradient-29" x1="462.70856" y1="719.62483" x2="479.68457" y2="719.62483" xlink:href="#linear-gradient-18"/><linearGradient id="linear-gradient-30" x1="598.51659" y1="438.3082" x2="615.4926" y2="438.3082" xlink:href="#linear-gradient-18"/><linearGradient id="linear-gradient-31" x1="727.04919" y1="595.94252" x2="744.0252" y2="595.94252" xlink:href="#linear-gradient-18"/><linearGradient id="linear-gradient-32" x1="841.03093" y1="471.04764" x2="855.58179" y2="471.04764" xlink:href="#linear-gradient-18"/><mask id="mask-3" x="1098.92659" y="225.41176" width="176.02657" height="547.50971" maskUnits="userSpaceOnUse"><g transform="translate(-226.18573 -16.53947)"><rect class="cls-3" x="1325.11232" y="241.95123" width="176.02657" height="547.50971" transform="translate(2826.25122 1031.41217) rotate(180)"/></g></mask><linearGradient id="linear-gradient-33" x1="1220.94759" y1="429.50252" x2="1179.83324" y2="500.71467" xlink:href="#linear-gradient-18"/><linearGradient id="linear-gradient-34" x1="1199.53441" y1="597.73084" x2="1499.05699" y2="574.7613" xlink:href="#linear-gradient-18"/><linearGradient id="linear-gradient-35" x1="1084.51393" y1="581.9629" x2="1247.30865" y2="609.2374" xlink:href="#linear-gradient-18"/><radialGradient id="Radial_Gradient_1-3" cx="1152.81594" cy="535.3063" r="92.99914" xlink:href="#Radial_Gradient_1"/><mask id="mask-4" x="1010.29187" y="276.4183" width="176.02657" height="547.50971" maskUnits="userSpaceOnUse"><g transform="translate(-226.18573 -16.53947)"><rect class="cls-4" x="1236.4776" y="292.95776" width="176.02657" height="547.50971" transform="translate(2648.98178 1133.42524) rotate(180)"/></g></mask><linearGradient id="linear-gradient-36" x1="1132.31281" y1="345.88492" x2="1091.19863" y2="417.09677" xlink:href="#linear-gradient-18"/><linearGradient id="linear-gradient-37" x1="1110.04307" y1="534.1604" x2="1423.14637" y2="510.14938" xlink:href="#linear-gradient-18"/><linearGradient id="linear-gradient-38" x1="989.48876" y1="517.38435" x2="1164.56581" y2="546.71663" xlink:href="#linear-gradient-18"/><radialGradient id="Radial_Gradient_1-4" cx="1064.18122" cy="462.26176" r="106.58579" xlink:href="#Radial_Gradient_1"/><mask id="mask-5" x="953.06432" y="203.97753" width="131.35712" height="686.76889" maskUnits="userSpaceOnUse"><g transform="translate(-226.18573 -16.53947)"><rect class="cls-5" x="1179.25005" y="220.517" width="131.35712" height="686.76889" transform="translate(2489.85723 1127.80289) rotate(180)"/></g></mask><linearGradient id="linear-gradient-39" x1="1005.50159" y1="262.8316" x2="1203.57507" y2="25.88375" xlink:href="#linear-gradient-11"/><linearGradient id="linear-gradient-40" x1="1268.36432" y1="178.09843" x2="1268.36432" y2="1000.87481" gradientUnits="userSpaceOnUse"><stop offset="0.00505" stop-color="#ffe4a7"/><stop offset="0.09979" stop-color="#fac098"/><stop offset="0.20202" stop-color="#f49587"/><stop offset="0.46383" stop-color="#a142b5"/><stop offset="0.59596" stop-color="#7c1dc9"/><stop offset="0.6916" stop-color="#741bc0"/><stop offset="0.84631" stop-color="#5f16a8"/><stop offset="1" stop-color="#45108a"/></linearGradient><linearGradient id="linear-gradient-41" x1="1016.6973" y1="505.15631" x2="1076.68336" y2="498.90776" xlink:href="#linear-gradient-11"/><linearGradient id="linear-gradient-42" x1="992.96613" y1="214.12387" x2="992.96613" y2="957.65916" xlink:href="#linear-gradient-11"/><radialGradient id="Radial_Gradient_1-5" cx="976.56667" cy="374.17841" r="182.7174" xlink:href="#Radial_Gradient_1"/><mask id="mask-6" x="836.36673" y="323.37745" width="176.02713" height="600.05567" maskUnits="userSpaceOnUse"><g transform="translate(-226.18573 -16.53947)"><rect class="cls-6" x="1062.55246" y="339.91692" width="176.02713" height="600.05567" transform="translate(2301.13206 1279.88951) rotate(180)"/></g></mask><linearGradient id="linear-gradient-43" x1="882.04692" y1="380.31011" x2="980.43911" y2="380.31011" xlink:href="#linear-gradient-11"/><linearGradient id="linear-gradient-44" x1="931.25393" y1="635.4002" x2="1321.47144" y2="605.47551" xlink:href="#linear-gradient-11"/><linearGradient id="linear-gradient-45" x1="779.51001" y1="612.21068" x2="1023.88205" y2="653.15259" xlink:href="#linear-gradient-11"/><radialGradient id="Radial_Gradient_1-6" cx="890.25668" cy="505.08833" r="181.36045" xlink:href="#Radial_Gradient_1"/><mask id="mask-7" x="747.73201" y="426.9305" width="176.02657" height="547.50971" maskUnits="userSpaceOnUse"><g transform="translate(-226.18573 -16.53947)"><rect class="cls-7" x="973.91774" y="443.46997" width="176.02657" height="547.50971" transform="translate(2123.86206 1434.44965) rotate(180)"/></g></mask><linearGradient id="linear-gradient-46" x1="869.75316" y1="535.61782" x2="828.63921" y2="606.82927" xlink:href="#linear-gradient-11"/><linearGradient id="linear-gradient-47" x1="847.77761" y1="717.00585" x2="1156.21763" y2="693.35245" xlink:href="#linear-gradient-11"/><linearGradient id="linear-gradient-48" x1="729.11031" y1="700.61783" x2="899.99473" y2="729.24768" xlink:href="#linear-gradient-11"/><radialGradient id="Radial_Gradient_1-7" cx="801.6214" cy="648.27933" r="101.76827" xlink:href="#Radial_Gradient_1"/><linearGradient id="linear-gradient-49" x1="586.91715" y1="812.02395" x2="587.98543" y2="929.0835" gradientTransform="matrix(-0.99996, -0.00866, 0.0044, -0.50765, 1426.33383, 1338.09452)" gradientUnits="userSpaceOnUse"><stop offset="0.05421" stop-color="#ffe4a7"/><stop offset="0.50914" stop-color="#fac098"/><stop offset="1" stop-color="#f49587"/></linearGradient><linearGradient id="linear-gradient-50" x1="500.3027" y1="761.69678" x2="497.76548" y2="860.1136" xlink:href="#linear-gradient-49"/><linearGradient id="linear-gradient-51" x1="413.4816" y1="1033.46635" x2="413.88212" y2="1150.53039" xlink:href="#linear-gradient-49"/><linearGradient id="linear-gradient-52" x1="326.25171" y1="1309.33882" x2="327.03131" y2="1122.14805" gradientTransform="matrix(-0.99996, -0.00866, 0.0044, -0.50765, 1426.33383, 1338.09452)" gradientUnits="userSpaceOnUse"><stop offset="0.05452" stop-color="#1f1357"/><stop offset="0.28494" stop-color="#be3bff"/></linearGradient><linearGradient id="linear-gradient-53" x1="237.49687" y1="1225.33749" x2="237.88705" y2="1131.64947" gradientTransform="matrix(-0.99996, -0.00866, 0.0044, -0.50765, 1426.33383, 1338.09452)" gradientUnits="userSpaceOnUse"><stop offset="0" stop-color="#1f1357"/><stop offset="0.35046" stop-color="#be3bff"/></linearGradient><linearGradient id="linear-gradient-54" x1="1403.21305" y1="432.52998" x2="1433.48417" y2="426.09566" gradientTransform="translate(2.2557 3.95009)" xlink:href="#linear-gradient-18"/><linearGradient id="linear-gradient-55" x1="1313.37757" y1="251.69295" x2="1343.59076" y2="245.27094" gradientTransform="translate(2.80604 188.18452) scale(1 0.72925)" xlink:href="#linear-gradient-18"/><linearGradient id="linear-gradient-56" x1="1227.94705" y1="-184.72674" x2="1252.40545" y2="-180.90312" gradientTransform="translate(3.98277 324.63121) scale(1 0.50009)" xlink:href="#linear-gradient-49"/><linearGradient id="linear-gradient-57" x1="1139.62995" y1="343.19064" x2="1169.90106" y2="336.75632" gradientTransform="translate(3.03898 1.67178)" xlink:href="#linear-gradient-49"/><linearGradient id="linear-gradient-58" x1="1052.15875" y1="544.06905" x2="1082.42986" y2="537.63473" gradientTransform="translate(1.30534 0.90084)" xlink:href="#linear-gradient-49"/></defs><g class="cls-8"><g id="Layer_1" data-name="Layer 1"><g class="cls-9"><path class="cls-10" d="M1172.72711,553.70177a2.73944,2.73944,0,0,1-1.41285-.39041l-4.77544-2.83117a2.77461,2.77461,0,1,1,2.83116-4.77267l4.77489,2.83117a2.77529,2.77529,0,0,1-1.41776,5.16308Z" transform="translate(-226.18573 -16.53947)"/><path class="cls-10" d="M1222.01646,582.92809a2.74837,2.74837,0,0,1-1.415-.39041l-9.85965-5.84671a2.77423,2.77423,0,0,1,2.83061-4.77211l9.85965,5.84615a2.77619,2.77619,0,0,1-1.41558,5.16308Zm-24.64359-14.61066a2.74316,2.74316,0,0,1-1.415-.39041l-9.85966-5.84616a2.77447,2.77447,0,1,1,2.83061-4.77266l9.85966,5.84615a2.77619,2.77619,0,0,1-1.41559,5.16308Z" transform="translate(-226.18573 -16.53947)"/><path class="cls-10" d="M1241.57861,594.52876a2.747,2.747,0,0,1-1.41554-.391l-4.77771-2.83061a2.77447,2.77447,0,0,1,2.83062-4.77267l4.77821,2.83117a2.77629,2.77629,0,0,1-1.41558,5.16307Z" transform="translate(-226.18573 -16.53947)"/><path class="cls-10" d="M1053.597,622.145a2.73931,2.73931,0,0,1-1.41284-.39041l-4.77544-2.83117a2.77461,2.77461,0,1,1,2.83117-4.77266l4.77488,2.83117a2.77529,2.77529,0,0,1-1.41777,5.16307Z" transform="translate(-226.18573 -16.53947)"/><path class="cls-10" d="M1102.88505,651.37136a2.7485,2.7485,0,0,1-1.41465-.39041l-9.8592-5.84578a2.77429,2.77429,0,1,1,2.83071-4.7722l9.85919,5.84532a2.77607,2.77607,0,0,1-1.416,5.16307Zm-24.64312-14.61066a2.74214,2.74214,0,0,1-1.41466-.39041l-9.85919-5.84615a2.77447,2.77447,0,1,1,2.83061-4.77267l9.85919,5.84616a2.776,2.776,0,0,1-1.416,5.16307Z" transform="translate(-226.18573 -16.53947)"/><path class="cls-10" d="M1122.44757,662.972a2.74644,2.74644,0,0,1-1.41507-.39088l-4.77771-2.83061a2.77449,2.77449,0,1,1,2.8307-4.77266l4.77813,2.83116a2.77608,2.77608,0,0,1-1.41605,5.163Z" transform="translate(-226.18573 -16.53947)"/><path class="cls-10" d="M934.46688,690.58831a2.73928,2.73928,0,0,1-1.41284-.39041l-4.77544-2.83116a2.77461,2.77461,0,1,1,2.83117-4.77267l4.77488,2.83117a2.77528,2.77528,0,0,1-1.41777,5.16307Z" transform="translate(-226.18573 -16.53947)"/><path class="cls-10" d="M983.75365,719.81464a2.7488,2.7488,0,0,1-1.41429-.39041l-9.85873-5.84486a2.77436,2.77436,0,1,1,2.83081-4.7723l9.85872,5.84449a2.776,2.776,0,0,1-1.41651,5.16308ZM959.111,705.204a2.741,2.741,0,0,1-1.41429-.39041l-9.85873-5.84615a2.77447,2.77447,0,1,1,2.83061-4.77266l9.85873,5.84615A2.77588,2.77588,0,0,1,959.111,705.204Z" transform="translate(-226.18573 -16.53947)"/><path class="cls-10" d="M1003.31654,731.41512a2.74588,2.74588,0,0,1-1.41462-.39078l-4.7777-2.83061a2.77451,2.77451,0,1,1,2.8308-4.77266l4.778,2.83117a2.77585,2.77585,0,0,1-1.41651,5.16288Z" transform="translate(-226.18573 -16.53947)"/><path class="cls-10" d="M815.33676,759.03158a2.73927,2.73927,0,0,1-1.41283-.39041L809.14849,755.81a2.77462,2.77462,0,1,1,2.83118-4.77267l4.77487,2.83117a2.77528,2.77528,0,0,1-1.41778,5.16307Z" transform="translate(-226.18573 -16.53947)"/><path class="cls-10" d="M864.62225,788.25791a2.74894,2.74894,0,0,1-1.41392-.39041l-9.85827-5.84393a2.77443,2.77443,0,1,1,2.83091-4.77239l9.85825,5.84365a2.77583,2.77583,0,0,1-1.417,5.16308Zm-24.6422-14.61067a2.73991,2.73991,0,0,1-1.41392-.39041l-9.85827-5.84615a2.77447,2.77447,0,1,1,2.83061-4.77266l9.85827,5.84615a2.77573,2.77573,0,0,1-1.41669,5.16307Z" transform="translate(-226.18573 -16.53947)"/><path class="cls-10" d="M884.18551,799.8583a2.74545,2.74545,0,0,1-1.41416-.39068l-4.7777-2.83061a2.77454,2.77454,0,1,1,2.83089-4.77267l4.77794,2.83117a2.77563,2.77563,0,0,1-1.417,5.16279Z" transform="translate(-226.18573 -16.53947)"/><path class="cls-10" d="M696.20665,827.47486a2.73928,2.73928,0,0,1-1.41282-.39041l-4.77545-2.83117a2.77462,2.77462,0,1,1,2.83119-4.77267l4.77487,2.83117a2.77529,2.77529,0,0,1-1.41779,5.16308Z" transform="translate(-226.18573 -16.53947)"/><path class="cls-10" d="M745.49084,856.70118a2.749,2.749,0,0,1-1.41354-.39041l-9.85781-5.843a2.77449,2.77449,0,1,1,2.831-4.77248l9.85779,5.84282a2.77571,2.77571,0,0,1-1.41744,5.16308Zm-24.64173-14.61066a2.739,2.739,0,0,1-1.41355-.39041l-9.8578-5.84616a2.77447,2.77447,0,1,1,2.83061-4.77266l9.8578,5.84615a2.77559,2.77559,0,0,1-1.41706,5.16308Z" transform="translate(-226.18573 -16.53947)"/><path class="cls-10" d="M765.05447,868.30148a2.7449,2.7449,0,0,1-1.41369-.39059l-4.7777-2.83061a2.77456,2.77456,0,1,1,2.831-4.77267l4.77785,2.83117a2.77542,2.77542,0,0,1-1.41744,5.1627Z" transform="translate(-226.18573 -16.53947)"/><path class="cls-10" d="M577.07653,895.91813a2.7393,2.7393,0,0,1-1.41281-.39041l-4.77544-2.83117a2.77461,2.77461,0,1,1,2.83119-4.77266l4.77486,2.83116a2.77529,2.77529,0,0,1-1.4178,5.16308Z" transform="translate(-226.18573 -16.53947)"/><path class="cls-10" d="M626.35944,925.14445a2.74913,2.74913,0,0,1-1.41317-.39041l-9.85735-5.84208a2.77455,2.77455,0,1,1,2.8311-4.77257l9.85732,5.842a2.77559,2.77559,0,0,1-1.4179,5.16307Zm-24.64127-14.61066a2.73788,2.73788,0,0,1-1.41318-.39041l-9.85734-5.84615a2.77447,2.77447,0,1,1,2.83061-4.77267l9.85734,5.84615a2.77544,2.77544,0,0,1-1.41743,5.16308Z" transform="translate(-226.18573 -16.53947)"/><path class="cls-10" d="M645.92344,936.74466a2.74439,2.74439,0,0,1-1.41323-.3905l-4.7777-2.83061a2.77459,2.77459,0,1,1,2.83107-4.77267l4.77776,2.83117a2.7752,2.7752,0,0,1-1.4179,5.16261Z" transform="translate(-226.18573 -16.53947)"/><path class="cls-10" d="M457.94641,964.3614a2.73917,2.73917,0,0,1-1.4128-.39041l-4.77544-2.83116a2.77462,2.77462,0,1,1,2.83119-4.77267l4.77486,2.83117a2.77529,2.77529,0,0,1-1.41781,5.16307Z" transform="translate(-226.18573 -16.53947)"/><path class="cls-10" d="M507.228,993.58773a2.74937,2.74937,0,0,1-1.4128-.39041l-9.85688-5.84116a2.77461,2.77461,0,1,1,2.83119-4.77266l9.85685,5.84115a2.77547,2.77547,0,0,1-1.41836,5.16308Zm-24.64081-14.61067a2.73669,2.73669,0,0,1-1.4128-.39041l-9.85688-5.84615a2.77447,2.77447,0,1,1,2.83061-4.77266L484.005,973.814a2.77529,2.77529,0,0,1-1.41781,5.16307Z" transform="translate(-226.18573 -16.53947)"/><path class="cls-10" d="M526.7924,1005.18784a2.74378,2.74378,0,0,1-1.41277-.39041l-4.77769-2.83061a2.77461,2.77461,0,1,1,2.83116-4.77266l4.77766,2.83117a2.775,2.775,0,0,1-1.41836,5.16251Z" transform="translate(-226.18573 -16.53947)"/></g><g class="cls-9"><path class="cls-10" d="M1259.93676,608.69959q16.12315-9.30652,29.34017-1.67049a19.66393,19.66393,0,0,1,3.19936,2.21307l-3.682,2.12587a13.61821,13.61821,0,0,0-2.9178-2.15864,17.21712,17.21712,0,0,0-9.04107-2.48407,22.1585,22.1585,0,0,0-10.01127,2.98333l.2277.13a14.5891,14.5891,0,0,1,4.85374.07608,14.431,14.431,0,0,1,4.6155,1.7027c2.51078,1.45335,3.69862,3.01554,3.56867,4.70769-.13046,1.69159-1.50772,3.28655-4.12179,4.80487a18.61194,18.61194,0,0,1-9.25211,2.538,17.58525,17.58525,0,0,1-9.13826-2.37523,7.95067,7.95067,0,0,1-3.74744-3.80747,4.59251,4.59251,0,0,1,.76467-4.32783A16.2423,16.2423,0,0,1,1259.93676,608.69959Zm1.209,10.44555a8.92832,8.92832,0,0,0,4.9898,1.18234,11.93379,11.93379,0,0,0,5.43409-1.70326c1.5783-.91077,2.42409-1.84375,2.5546-2.82006.1244-.96519-.58589-1.89818-2.137-2.78729a10.48543,10.48543,0,0,0-3.25379-1.18234,11.74253,11.74253,0,0,0-3.58528-.13051,7.57534,7.57534,0,0,0-2.869.84636q-2.6515,1.52943-3.02054,3.40595Q1258.90048,617.84312,1261.14576,619.14514Z" transform="translate(-226.18573 -16.53947)"/><path class="cls-10" d="M1303.69211,631.61882q-7.15067,4.13262-12.94573,4.80488a16.72012,16.72012,0,0,1-10.55379-2.08256q-4.62086-2.65234-3.411-6.10661,1.212-3.44955,8.13475-7.45167,7.27311-4.1976,13.03791-4.84875a16.76638,16.76638,0,0,1,10.51053,2.08256c3.09107,1.78989,4.22453,3.82913,3.40539,6.13938Q1310.6423,627.6056,1303.69211,631.61882Zm-14.27412-8.233q-5.61373,3.238-6.85522,5.30413c-.82414,1.36672-.396,2.549,1.31229,3.52535a8.571,8.571,0,0,0,6.17159.74861,32.27255,32.27255,0,0,0,9.16547-3.92686q5.53209-3.18882,6.8119-5.293,1.29369-2.115-1.25842-3.59033a8.55807,8.55807,0,0,0-6.13882-.7375A32.47349,32.47349,0,0,0,1289.418,623.38578Z" transform="translate(-226.18573 -16.53947)"/><path class="cls-10" d="M1155.92278,679.50652q4.17343,2.40826,4.42006,5.087.22734,2.66817-3.55761,4.87041a17.80368,17.80368,0,0,1-9.643,2.36467,22.011,22.011,0,0,1-10.33675-3.12384c-3.09107-1.77933-5.022-3.47092-5.79228-5.05478l3.9974-2.31025a9.58133,9.58133,0,0,0,2.18534,2.7984,17.20723,17.20723,0,0,0,3.216,2.39689,13.04835,13.04835,0,0,0,5.91169,1.87652,9.78983,9.78983,0,0,0,5.47185-1.3556q4.9215-2.83144-1.39393-6.48647a23.319,23.319,0,0,0-2.36967-1.16068c-.99241-.43373-1.88763-.80248-2.69011-1.09515l-.82413-1.81155,14.4746-7.13734,14.36631,8.298-3.92632,2.26693-10.45054-6.04163-7.43,3.56867c.51477.21658,1.144.477,1.88148.78082A23.62136,23.62136,0,0,1,1155.92278,679.50652Z" transform="translate(-226.18573 -16.53947)"/><path class="cls-10" d="M1184.92141,700.191q-7.159,4.13262-12.94573,4.80543a16.72753,16.72753,0,0,1-10.55384-2.08256q-4.62078-2.65234-3.41095-6.10717,1.20372-3.44871,8.13474-7.45166,7.27229-4.1976,13.03792-4.84819a16.76382,16.76382,0,0,1,10.51,2.08255c3.08607,1.78989,4.22509,3.82913,3.406,6.13938Q1191.87166,696.17752,1184.92141,700.191Zm-14.27468-8.23249q-5.61291,3.238-6.85467,5.30413c-.82469,1.36672-.396,2.54905,1.31229,3.5248a8.56534,8.56534,0,0,0,6.17159.74861,32.3507,32.3507,0,0,0,9.16547-3.92631q5.52378-3.18882,6.8119-5.293,1.29376-2.11587-1.25842-3.59033a8.55919,8.55919,0,0,0-6.13937-.7375A32.48664,32.48664,0,0,0,1170.64673,691.95854Z" transform="translate(-226.18573 -16.53947)"/><path class="cls-10" d="M1036.32738,760.48743l-3.72024-2.14753-5.99281,3.46037-4.33338-2.50573,5.99277-3.45982-12.6253-7.28895,3.4004-1.96371,30.77186-3.18881,4.33338,2.50573-17.8861,10.32615,3.72028,2.14753Zm-4.39281-6.768,6.89854-3.98074q3.677-2.115,6.22046-3.37319l-.15161-.08719a44.3736,44.3736,0,0,1-4.66988.78138l-16.7849,1.75712Z" transform="translate(-226.18573 -16.53947)"/><path class="cls-10" d="M1066.15019,768.76379q-7.15822,4.13262-12.95073,4.80487a16.73509,16.73509,0,0,1-10.55388-2.08255q-4.62078-2.65152-3.411-6.10662,1.212-3.44954,8.1403-7.45166,7.27229-4.1976,13.03236-4.84819a16.76649,16.76649,0,0,1,10.51552,2.08255c3.08607,1.78934,4.21954,3.82858,3.406,6.13883Q1073.09255,764.75056,1066.15019,768.76379ZM1051.876,760.5313q-5.62123,3.23713-6.85466,5.30358c-.83025,1.36671-.40152,2.549,1.31229,3.52535a8.56,8.56,0,0,0,6.17163.74861,32.33885,32.33885,0,0,0,9.16542-3.92687q5.52378-3.1888,6.812-5.293,1.28529-2.115-1.25846-3.59033a8.56736,8.56736,0,0,0-6.13938-.7375A32.40893,32.40893,0,0,0,1051.876,760.5313Z" transform="translate(-226.18573 -16.53947)"/><path class="cls-10" d="M930.69177,819.13556a12.393,12.393,0,0,1-5.87891,1.62717,16.86475,16.86475,0,0,1-6.64864-1.139l-.15216.08664q2.91225,2.16419,2.93946,4.07847c.0111,1.269-.89467,2.42965-2.70622,3.48148a15.145,15.145,0,0,1-8.93222,1.89818,24.04148,24.04148,0,0,1-10.174-3.38373q-4.58823-2.65234-6.26378-5.3369l3.92632-2.26693a13.3333,13.3333,0,0,0,2.39188,2.9289,18.08641,18.08641,0,0,0,3.31321,2.45131,14.6696,14.6696,0,0,0,5.98777,2.09311,8.83445,8.83445,0,0,0,5.24971-1.204c1.46445-.84579,1.9576-1.80044,1.46945-2.885-.4826-1.06294-1.97926-2.33191-4.485-3.7747l-2.39688-1.38838,3.58477-2.07145,2.43521,1.41q6.62175,3.80692,11.17194,1.19289c1.17123-.68308,1.69715-1.43169,1.56723-2.24527-.13554-.80248-.94913-1.64883-2.44579-2.51628a17.56321,17.56321,0,0,0-3.46593-1.48612,31.32119,31.32119,0,0,0-5.16252-.998l.90522-3.0372a28.07962,28.07962,0,0,1,11.61178,3.49259c2.78729,1.61662,4.36559,3.211,4.7399,4.80543Q933.82671,817.32374,930.69177,819.13556Z" transform="translate(-226.18573 -16.53947)"/><path class="cls-10" d="M947.37944,837.336q-7.159,4.13263-12.95073,4.80543a16.735,16.735,0,0,1-10.55384-2.08255q-4.62078-2.65234-3.4115-6.10661,1.212-3.44955,8.14085-7.45167,7.27228-4.1976,13.03181-4.84875a16.77484,16.77484,0,0,1,10.51607,2.08256c3.08608,1.78989,4.21954,3.82913,3.406,6.13938Q954.321,833.32249,947.37944,837.336Zm-14.27408-8.23248q-5.62129,3.238-6.85526,5.30413c-.82969,1.36671-.401,2.549,1.30733,3.52535a8.57813,8.57813,0,0,0,6.1771.74806A32.3998,32.3998,0,0,0,942.9,834.75473q5.52377-3.1888,6.81135-5.293,1.28535-2.115-1.26342-3.59033a8.54821,8.54821,0,0,0-6.13382-.7375A32.34785,32.34785,0,0,0,933.10536,829.10351Z" transform="translate(-226.18573 -16.53947)"/><path class="cls-10" d="M791.80579,900.52854l-18.73745-10.81375,3.34653-1.93094h14.25246c4.24064-.02166,7.15844-.09774,8.73674-.21659a25.22157,25.22157,0,0,0,4.03516-.58589,11.42694,11.42694,0,0,0,3.00444-1.19344q1.86269-1.07377,1.806-2.34246c-.03277-.84635-.71584-1.64883-2.03924-2.408a13.96005,13.96005,0,0,0-3.6553-1.4428,33.06972,33.06972,0,0,0-5.53183-.75916l.50981-3.06941a35.943,35.943,0,0,1,7.224.9974,22.46339,22.46339,0,0,1,5.44464,2.21307q3.85611,2.22916,4.17622,4.71824.32571,2.50573-3.05886,4.45778a16.1718,16.1718,0,0,1-4.20288,1.64883,33.80868,33.80868,0,0,1-5.51016.80248q-3.15633.21159-9.42034.09774l-9.42041-.09774-.18993.10885,13.119,7.57051Z" transform="translate(-226.18573 -16.53947)"/><path class="cls-10" d="M828.60873,905.91931q-7.159,4.13262-12.95072,4.79432a16.72265,16.72265,0,0,1-10.55384-2.07145q-4.62078-2.66817-3.41706-6.11772c.81358-2.29914,3.5198-4.78321,8.14585-7.45166q7.26479-4.1976,13.03236-4.8482a16.70282,16.70282,0,0,1,10.51612,2.09311q4.62072,2.66817,3.40036,6.12827Q835.55309,901.89553,828.60873,905.91931Zm-14.27412-8.243q-5.62123,3.23712-6.86077,5.30358-1.24454,2.05006,1.31284,3.53646a8.6255,8.6255,0,0,0,6.17159.7375,32.4326,32.4326,0,0,0,9.17106-3.92687q5.51539-3.18881,6.81131-5.293,1.28535-2.115-1.26338-3.57922a8.50471,8.50471,0,0,0-6.13941-.74861A32.70844,32.70844,0,0,0,814.33461,897.67627Z" transform="translate(-226.18573 -16.53947)"/><path class="cls-10" d="M667.3461,965.81475l-4.44168-2.5596,17.7345-10.23952q3.17214-1.83847,5.18473-2.82006c-.59145,0-1.28008-.0111-2.06645-.04331-.78079-.03277-3.35708-.19549-7.69546-.45539l.56923-2.90725,14.4746,1.03073,3.70973,2.13642Z" transform="translate(-226.18573 -16.53947)"/><path class="cls-10" d="M709.83247,974.49207q-7.15066,4.13262-12.94517,4.79432a16.71557,16.71557,0,0,1-10.55384-2.072q-4.62078-2.66817-3.41706-6.11717,1.22039-3.44953,8.14033-7.45166,7.27308-4.1976,13.03233-4.84875a16.70648,16.70648,0,0,1,10.51608,2.09366q4.62828,2.66818,3.40595,6.12827Q716.78238,970.46829,709.83247,974.49207Zm-14.27412-8.24359q-5.61289,3.238-6.85522,5.30413-1.24454,2.05007,1.31229,3.5359a8.62443,8.62443,0,0,0,6.17214.73751,32.34767,32.34767,0,0,0,9.16547-3.92632q5.52378-3.18881,6.81135-5.293,1.29369-2.115-1.25786-3.57978a8.505,8.505,0,0,0-6.13938-.748A32.8012,32.8012,0,0,0,695.55835,966.24848Z" transform="translate(-226.18573 -16.53947)"/><path class="cls-10" d="M591.06732,1043.06483a34.667,34.667,0,0,1-12.95128,4.80488,16.72775,16.72775,0,0,1-10.55384-2.08256q-4.61994-2.66817-3.41095-6.11772,1.20376-3.44871,8.1403-7.44056,7.27311-4.1976,13.03239-4.8593a16.70822,16.70822,0,0,1,10.51549,2.09311c3.08607,1.77878,4.21954,3.82913,3.40595,6.12883Q598.00919,1039.05689,591.06732,1043.06483Zm-14.27412-8.24359q-5.622,3.238-6.85522,5.30413c-.83524,1.37727-.40152,2.5485,1.30674,3.5359a8.68825,8.68825,0,0,0,6.17714.74806,32.39607,32.39607,0,0,0,9.15991-3.93687q5.52378-3.18964,6.81746-5.29358,1.28535-2.115-1.25842-3.57922a8.51161,8.51161,0,0,0-6.13882-.74861A33.055,33.055,0,0,0,576.7932,1034.82124Z" transform="translate(-226.18573 -16.53947)"/></g><g class="cls-9"><path class="cls-10" d="M680.544,794.60582a2.7749,2.7749,0,0,1-2.77675-2.77674v-11.107a2.77675,2.77675,0,1,1,5.55349,0v11.107A2.77529,2.77529,0,0,1,680.544,794.60582Zm0-27.76742a2.7749,2.7749,0,0,1-2.77675-2.77675v-11.107a2.77675,2.77675,0,0,1,5.55349,0v11.107A2.77529,2.77529,0,0,1,680.544,766.8384Zm0-27.76743a2.7749,2.7749,0,0,1-2.77675-2.77674v-11.107a2.77675,2.77675,0,0,1,5.55349,0v11.107A2.77529,2.77529,0,0,1,680.544,739.071Zm0-27.76742a2.7749,2.7749,0,0,1-2.77675-2.77674v-11.107a2.77675,2.77675,0,0,1,5.55349,0v11.107A2.77529,2.77529,0,0,1,680.544,711.30355Zm0-27.76742a2.7749,2.7749,0,0,1-2.77675-2.77675v-11.107a2.77675,2.77675,0,1,1,5.55349,0v11.107A2.77529,2.77529,0,0,1,680.544,683.53613Zm0-27.76743a2.7749,2.7749,0,0,1-2.77675-2.77674V641.885a2.77675,2.77675,0,0,1,5.55349,0v11.107A2.77529,2.77529,0,0,1,680.544,655.7687Zm0-27.76742a2.7749,2.7749,0,0,1-2.77675-2.77674v-11.107a2.77675,2.77675,0,0,1,5.55349,0v11.107A2.77529,2.77529,0,0,1,680.544,628.00128Zm0-27.76742a2.7749,2.7749,0,0,1-2.77675-2.77674v-11.107a2.77675,2.77675,0,1,1,5.55349,0v11.107A2.77529,2.77529,0,0,1,680.544,600.23386Zm0-27.76743a2.77489,2.77489,0,0,1-2.77675-2.77674v-11.107a2.77675,2.77675,0,0,1,5.55349,0v11.107A2.77528,2.77528,0,0,1,680.544,572.46643Zm0-27.76742a2.7749,2.7749,0,0,1-2.77675-2.77674v-11.107a2.77675,2.77675,0,0,1,5.55349,0v11.107A2.77529,2.77529,0,0,1,680.544,544.699Zm0-27.76742a2.7749,2.7749,0,0,1-2.77675-2.77674v-11.107a2.77675,2.77675,0,0,1,5.55349,0v11.107A2.77529,2.77529,0,0,1,680.544,516.93159Zm0-27.76742a2.7749,2.7749,0,0,1-2.77675-2.77675v-11.107a2.77675,2.77675,0,0,1,5.55349,0v11.107A2.77529,2.77529,0,0,1,680.544,489.16417Zm0-27.76743a2.7749,2.7749,0,0,1-2.77675-2.77674V447.513a2.77675,2.77675,0,0,1,5.55349,0V458.62A2.77529,2.77529,0,0,1,680.544,461.39674Zm0-27.76742a2.7749,2.7749,0,0,1-2.77675-2.77674v-11.107a2.77675,2.77675,0,0,1,5.55349,0v11.107A2.77529,2.77529,0,0,1,680.544,433.62932Zm0-27.76742a2.7749,2.7749,0,0,1-2.77675-2.77674v-11.107a2.77675,2.77675,0,1,1,5.55349,0v11.107A2.77529,2.77529,0,0,1,680.544,405.8619Z" transform="translate(-226.18573 -16.53947)"/></g><g class="cls-9"><path class="cls-10" d="M443.6423,931.62583a2.77491,2.77491,0,0,1-2.77674-2.77674v-11.107a2.77674,2.77674,0,0,1,5.55349,0v11.107A2.77527,2.77527,0,0,1,443.6423,931.62583Zm0-27.76742a2.77491,2.77491,0,0,1-2.77674-2.77674v-11.107a2.77674,2.77674,0,0,1,5.55349,0v11.107A2.77527,2.77527,0,0,1,443.6423,903.85841Zm0-27.76742a2.77491,2.77491,0,0,1-2.77674-2.77675v-11.107a2.77675,2.77675,0,1,1,5.55349,0v11.107A2.77527,2.77527,0,0,1,443.6423,876.091Zm0-27.76743a2.77491,2.77491,0,0,1-2.77674-2.77674v-11.107a2.77674,2.77674,0,0,1,5.55349,0v11.107A2.77527,2.77527,0,0,1,443.6423,848.32356Zm0-27.76742a2.77491,2.77491,0,0,1-2.77674-2.77674v-11.107a2.77674,2.77674,0,0,1,5.55349,0v11.107A2.77527,2.77527,0,0,1,443.6423,820.55614Zm0-27.76742a2.77491,2.77491,0,0,1-2.77674-2.77674V778.905a2.77675,2.77675,0,1,1,5.55349,0v11.107A2.77527,2.77527,0,0,1,443.6423,792.78872Zm0-27.76742a2.77491,2.77491,0,0,1-2.77674-2.77675v-11.107a2.77675,2.77675,0,0,1,5.55349,0v11.107A2.77527,2.77527,0,0,1,443.6423,765.0213Zm0-27.76743a2.77491,2.77491,0,0,1-2.77674-2.77674v-11.107a2.77674,2.77674,0,0,1,5.55349,0v11.107A2.77527,2.77527,0,0,1,443.6423,737.25387Zm0-27.76742a2.77491,2.77491,0,0,1-2.77674-2.77674v-11.107a2.77675,2.77675,0,0,1,5.55349,0v11.107A2.77527,2.77527,0,0,1,443.6423,709.48645Zm0-27.76742a2.77491,2.77491,0,0,1-2.77674-2.77675v-11.107a2.77675,2.77675,0,0,1,5.55349,0v11.107A2.77527,2.77527,0,0,1,443.6423,681.719Z" transform="translate(-226.18573 -16.53947)"/></g><g class="cls-9"><path class="cls-10" d="M561.73771,860.64564a2.77492,2.77492,0,0,1-2.77675-2.77675v-11.107a2.77675,2.77675,0,0,1,5.55349,0v11.107A2.77491,2.77491,0,0,1,561.73771,860.64564Zm0-27.76743a2.77491,2.77491,0,0,1-2.77675-2.77674v-11.107a2.77675,2.77675,0,0,1,5.55349,0v11.107A2.77491,2.77491,0,0,1,561.73771,832.87821Zm0-27.76742a2.77491,2.77491,0,0,1-2.77675-2.77674v-11.107a2.77675,2.77675,0,0,1,5.55349,0v11.107A2.77491,2.77491,0,0,1,561.73771,805.11079Zm0-27.76742a2.77492,2.77492,0,0,1-2.77675-2.77675v-11.107a2.77675,2.77675,0,1,1,5.55349,0v11.107A2.77491,2.77491,0,0,1,561.73771,777.34337Zm0-27.76743a2.77491,2.77491,0,0,1-2.77675-2.77674v-11.107a2.77675,2.77675,0,0,1,5.55349,0v11.107A2.77491,2.77491,0,0,1,561.73771,749.57594Zm0-27.76742a2.77491,2.77491,0,0,1-2.77675-2.77674v-11.107a2.77675,2.77675,0,0,1,5.55349,0v11.107A2.77491,2.77491,0,0,1,561.73771,721.80852Zm0-27.76742a2.77491,2.77491,0,0,1-2.77675-2.77674v-11.107a2.77675,2.77675,0,1,1,5.55349,0v11.107A2.77491,2.77491,0,0,1,561.73771,694.0411Zm0-27.76742a2.77492,2.77492,0,0,1-2.77675-2.77675V652.39a2.77675,2.77675,0,0,1,5.55349,0v11.107A2.77491,2.77491,0,0,1,561.73771,666.27368Zm0-27.76743a2.77491,2.77491,0,0,1-2.77675-2.77674v-11.107a2.77675,2.77675,0,0,1,5.55349,0v11.107A2.77491,2.77491,0,0,1,561.73771,638.50625Zm0-27.76742a2.77491,2.77491,0,0,1-2.77675-2.77674v-11.107a2.77675,2.77675,0,0,1,5.55349,0v11.107A2.77491,2.77491,0,0,1,561.73771,610.73883Zm0-27.76742a2.77492,2.77492,0,0,1-2.77675-2.77675v-11.107a2.77675,2.77675,0,0,1,5.55349,0v11.107A2.77491,2.77491,0,0,1,561.73771,582.97141Zm0-27.76743a2.77491,2.77491,0,0,1-2.77675-2.77674v-11.107a2.77675,2.77675,0,0,1,5.55349,0v11.107A2.77491,2.77491,0,0,1,561.73771,555.204Zm0-27.76742a2.77491,2.77491,0,0,1-2.77675-2.77674v-11.107a2.77675,2.77675,0,0,1,5.55349,0v11.107A2.77491,2.77491,0,0,1,561.73771,527.43656Zm0-27.76742a2.77491,2.77491,0,0,1-2.77675-2.77674v-11.107a2.77675,2.77675,0,1,1,5.55349,0v11.107A2.77491,2.77491,0,0,1,561.73771,499.66914Z" transform="translate(-226.18573 -16.53947)"/></g><g class="cls-9"><path class="cls-10" d="M798.63936,727.44864a2.77527,2.77527,0,0,1-2.77675-2.77674v-11.107a2.77675,2.77675,0,0,1,5.55349,0v11.107A2.77491,2.77491,0,0,1,798.63936,727.44864Zm0-27.76742a2.77527,2.77527,0,0,1-2.77675-2.77675v-11.107a2.77675,2.77675,0,1,1,5.55349,0v11.107A2.77491,2.77491,0,0,1,798.63936,699.68122Zm0-27.76743a2.77527,2.77527,0,0,1-2.77675-2.77674v-11.107a2.77675,2.77675,0,0,1,5.55349,0v11.107A2.77491,2.77491,0,0,1,798.63936,671.91379Zm0-27.76742a2.77527,2.77527,0,0,1-2.77675-2.77674v-11.107a2.77675,2.77675,0,0,1,5.55349,0v11.107A2.77491,2.77491,0,0,1,798.63936,644.14637Zm0-27.76742a2.77527,2.77527,0,0,1-2.77675-2.77674v-11.107a2.77675,2.77675,0,1,1,5.55349,0v11.107A2.77491,2.77491,0,0,1,798.63936,616.379Zm0-27.76742a2.77527,2.77527,0,0,1-2.77675-2.77675v-11.107a2.77675,2.77675,0,0,1,5.55349,0v11.107A2.77491,2.77491,0,0,1,798.63936,588.61153Zm0-27.76743a2.77527,2.77527,0,0,1-2.77675-2.77674v-11.107a2.77675,2.77675,0,0,1,5.55349,0v11.107A2.77491,2.77491,0,0,1,798.63936,560.8441Zm0-27.76742a2.77527,2.77527,0,0,1-2.77675-2.77674V519.193a2.77675,2.77675,0,0,1,5.55349,0v11.107A2.77491,2.77491,0,0,1,798.63936,533.07668Zm0-27.76742a2.77527,2.77527,0,0,1-2.77675-2.77675v-11.107a2.77675,2.77675,0,1,1,5.55349,0v11.107A2.77491,2.77491,0,0,1,798.63936,505.30926Zm0-27.76743a2.77527,2.77527,0,0,1-2.77675-2.77674v-11.107a2.77675,2.77675,0,0,1,5.55349,0v11.107A2.77491,2.77491,0,0,1,798.63936,477.54183Zm0-27.76742a2.77527,2.77527,0,0,1-2.77675-2.77674v-11.107a2.77675,2.77675,0,0,1,5.55349,0v11.107A2.77491,2.77491,0,0,1,798.63936,449.77441Zm0-27.76742a2.77527,2.77527,0,0,1-2.77675-2.77674v-11.107a2.77675,2.77675,0,1,1,5.55349,0v11.107A2.77491,2.77491,0,0,1,798.63936,422.007Zm0-27.76742a2.77527,2.77527,0,0,1-2.77675-2.77675v-11.107a2.77675,2.77675,0,0,1,5.55349,0v11.107A2.77491,2.77491,0,0,1,798.63936,394.23957Zm0-27.76743a2.77527,2.77527,0,0,1-2.77675-2.77674v-11.107a2.77675,2.77675,0,0,1,5.55349,0v11.107A2.77491,2.77491,0,0,1,798.63936,366.47214Zm0-27.76742a2.77527,2.77527,0,0,1-2.77675-2.77674V324.821a2.77675,2.77675,0,0,1,5.55349,0v11.107A2.77491,2.77491,0,0,1,798.63936,338.70472Zm0-27.76742a2.77527,2.77527,0,0,1-2.77675-2.77675v-11.107a2.77675,2.77675,0,0,1,5.55349,0v11.107A2.77491,2.77491,0,0,1,798.63936,310.9373Zm0-27.76743a2.77527,2.77527,0,0,1-2.77675-2.77674v-11.107a2.77674,2.77674,0,0,1,5.55349,0v11.107A2.77491,2.77491,0,0,1,798.63936,283.16987Zm0-27.76742a2.77527,2.77527,0,0,1-2.77675-2.77674v-11.107a2.77674,2.77674,0,0,1,5.55349,0v11.107A2.77491,2.77491,0,0,1,798.63936,255.40245Zm0-27.76742a2.77527,2.77527,0,0,1-2.77675-2.77674v-11.107a2.77675,2.77675,0,1,1,5.55349,0v11.107A2.77491,2.77491,0,0,1,798.63936,227.635Zm0-27.76743a2.77527,2.77527,0,0,1-2.77675-2.77674v-11.107a2.77674,2.77674,0,0,1,5.55349,0v11.107A2.77491,2.77491,0,0,1,798.63936,199.8676Z" transform="translate(-226.18573 -16.53947)"/></g><g class="cls-9"><path class="cls-10" d="M916.73531,659.00639a2.77491,2.77491,0,0,1-2.77674-2.77675v-11.107a2.77674,2.77674,0,0,1,5.55348,0v11.107A2.77527,2.77527,0,0,1,916.73531,659.00639Zm0-27.76743a2.77491,2.77491,0,0,1-2.77674-2.77674v-11.107a2.77674,2.77674,0,0,1,5.55348,0v11.107A2.77526,2.77526,0,0,1,916.73531,631.239Zm0-27.76742a2.77491,2.77491,0,0,1-2.77674-2.77674v-11.107a2.77674,2.77674,0,1,1,5.55348,0v11.107A2.77526,2.77526,0,0,1,916.73531,603.47154Zm0-27.76742a2.77491,2.77491,0,0,1-2.77674-2.77675v-11.107a2.77674,2.77674,0,1,1,5.55348,0v11.107A2.77527,2.77527,0,0,1,916.73531,575.70412Zm0-27.76743a2.77491,2.77491,0,0,1-2.77674-2.77674V534.053a2.77674,2.77674,0,1,1,5.55348,0V545.16A2.77526,2.77526,0,0,1,916.73531,547.93669Zm0-27.76742a2.77491,2.77491,0,0,1-2.77674-2.77674v-11.107a2.77674,2.77674,0,0,1,5.55348,0v11.107A2.77526,2.77526,0,0,1,916.73531,520.16927Zm0-27.76742a2.77491,2.77491,0,0,1-2.77674-2.77674v-11.107a2.77674,2.77674,0,1,1,5.55348,0v11.107A2.77526,2.77526,0,0,1,916.73531,492.40185Zm0-27.76743a2.77491,2.77491,0,0,1-2.77674-2.77674v-11.107a2.77674,2.77674,0,0,1,5.55348,0v11.107A2.77526,2.77526,0,0,1,916.73531,464.63442Zm0-27.76742a2.77491,2.77491,0,0,1-2.77674-2.77674v-11.107a2.77674,2.77674,0,0,1,5.55348,0v11.107A2.77526,2.77526,0,0,1,916.73531,436.867Zm0-27.76742a2.77491,2.77491,0,0,1-2.77674-2.77674v-11.107a2.77674,2.77674,0,0,1,5.55348,0v11.107A2.77526,2.77526,0,0,1,916.73531,409.09958Zm0-27.76742a2.77491,2.77491,0,0,1-2.77674-2.77675v-11.107a2.77674,2.77674,0,0,1,5.55348,0v11.107A2.77527,2.77527,0,0,1,916.73531,381.33216Zm0-27.76743a2.77491,2.77491,0,0,1-2.77674-2.77674V339.681a2.77674,2.77674,0,0,1,5.55348,0v11.107A2.77526,2.77526,0,0,1,916.73531,353.56473Zm0-27.76742a2.77491,2.77491,0,0,1-2.77674-2.77674v-11.107a2.77674,2.77674,0,0,1,5.55348,0v11.107A2.77526,2.77526,0,0,1,916.73531,325.79731Zm0-27.76742a2.77491,2.77491,0,0,1-2.77674-2.77674v-11.107a2.77674,2.77674,0,1,1,5.55348,0v11.107A2.77526,2.77526,0,0,1,916.73531,298.02989Z" transform="translate(-226.18573 -16.53947)"/></g><g class="cls-9"><path class="cls-10" d="M1034.83349,587.62467a2.77491,2.77491,0,0,1-2.77674-2.77674V573.741a2.77674,2.77674,0,0,1,5.55348,0v11.107A2.77526,2.77526,0,0,1,1034.83349,587.62467Zm0-27.76742a2.77491,2.77491,0,0,1-2.77674-2.77674v-11.107a2.77674,2.77674,0,1,1,5.55348,0v11.107A2.77526,2.77526,0,0,1,1034.83349,559.85725Zm0-27.76742a2.77491,2.77491,0,0,1-2.77674-2.77675v-11.107a2.77674,2.77674,0,0,1,5.55348,0v11.107A2.77527,2.77527,0,0,1,1034.83349,532.08983Zm0-27.76743a2.77491,2.77491,0,0,1-2.77674-2.77674v-11.107a2.77674,2.77674,0,0,1,5.55348,0v11.107A2.77526,2.77526,0,0,1,1034.83349,504.3224Zm0-27.76742a2.77491,2.77491,0,0,1-2.77674-2.77674v-11.107a2.77674,2.77674,0,0,1,5.55348,0v11.107A2.77526,2.77526,0,0,1,1034.83349,476.555Zm0-27.76742a2.77491,2.77491,0,0,1-2.77674-2.77675v-11.107a2.77674,2.77674,0,1,1,5.55348,0v11.107A2.77527,2.77527,0,0,1,1034.83349,448.78756Zm0-27.76743a2.77491,2.77491,0,0,1-2.77674-2.77674v-11.107a2.77674,2.77674,0,0,1,5.55348,0v11.107A2.77526,2.77526,0,0,1,1034.83349,421.02013Zm0-27.76742a2.77491,2.77491,0,0,1-2.77674-2.77674V379.369a2.77674,2.77674,0,0,1,5.55348,0v11.107A2.77526,2.77526,0,0,1,1034.83349,393.25271Zm0-27.76742a2.77491,2.77491,0,0,1-2.77674-2.77674v-11.107a2.77674,2.77674,0,1,1,5.55348,0v11.107A2.77526,2.77526,0,0,1,1034.83349,365.48529Zm0-27.76742a2.77491,2.77491,0,0,1-2.77674-2.77675v-11.107a2.77674,2.77674,0,0,1,5.55348,0v11.107A2.77527,2.77527,0,0,1,1034.83349,337.71787Zm0-27.76743a2.77491,2.77491,0,0,1-2.77674-2.77674v-11.107a2.77674,2.77674,0,0,1,5.55348,0v11.107A2.77526,2.77526,0,0,1,1034.83349,309.95044Zm0-27.76742a2.77491,2.77491,0,0,1-2.77674-2.77674v-11.107a2.77674,2.77674,0,0,1,5.55348,0v11.107A2.77526,2.77526,0,0,1,1034.83349,282.183Zm0-27.76742a2.77491,2.77491,0,0,1-2.77674-2.77675v-11.107a2.77674,2.77674,0,1,1,5.55348,0v11.107A2.77527,2.77527,0,0,1,1034.83349,254.4156Zm0-27.76743a2.77491,2.77491,0,0,1-2.77674-2.77674v-11.107a2.77674,2.77674,0,0,1,5.55348,0v11.107A2.77526,2.77526,0,0,1,1034.83349,226.64817Zm0-27.76742a2.77491,2.77491,0,0,1-2.77674-2.77674V184.997a2.77674,2.77674,0,0,1,5.55348,0v11.107A2.77526,2.77526,0,0,1,1034.83349,198.88075Zm0-27.76742a2.77491,2.77491,0,0,1-2.77674-2.77674v-11.107a2.77674,2.77674,0,1,1,5.55348,0v11.107A2.77526,2.77526,0,0,1,1034.83349,171.11333Zm0-27.76743a2.77491,2.77491,0,0,1-2.77674-2.77674v-11.107a2.77674,2.77674,0,0,1,5.55348,0v11.107A2.77526,2.77526,0,0,1,1034.83349,143.3459Zm0-27.76742a2.77491,2.77491,0,0,1-2.77674-2.77674v-11.107a2.77674,2.77674,0,0,1,5.55348,0v11.107A2.77526,2.77526,0,0,1,1034.83349,115.57848Zm0-27.76742a2.77491,2.77491,0,0,1-2.77674-2.77674v-.87579a2.77674,2.77674,0,0,1,5.55348,0v.87579A2.77526,2.77526,0,0,1,1034.83349,87.81106Z" transform="translate(-226.18573 -16.53947)"/></g><g class="cls-9"><path class="cls-10" d="M1152.92894,520.51636a2.77488,2.77488,0,0,1-2.77674-2.77674v-11.107a2.77674,2.77674,0,1,1,5.55348,0v11.107A2.77494,2.77494,0,0,1,1152.92894,520.51636Zm0-27.76742a2.77488,2.77488,0,0,1-2.77674-2.77674v-11.107a2.77674,2.77674,0,1,1,5.55348,0v11.107A2.77494,2.77494,0,0,1,1152.92894,492.74894Zm0-27.76742a2.77488,2.77488,0,0,1-2.77674-2.77674v-11.107a2.77674,2.77674,0,1,1,5.55348,0v11.107A2.77494,2.77494,0,0,1,1152.92894,464.98152Zm0-27.76743a2.77487,2.77487,0,0,1-2.77674-2.77674v-11.107a2.77674,2.77674,0,1,1,5.55348,0v11.107A2.77493,2.77493,0,0,1,1152.92894,437.21409Zm0-27.76742a2.77488,2.77488,0,0,1-2.77674-2.77674V395.563a2.77674,2.77674,0,0,1,5.55348,0v11.107A2.77494,2.77494,0,0,1,1152.92894,409.44667Zm0-27.76742a2.77488,2.77488,0,0,1-2.77674-2.77674v-11.107a2.77674,2.77674,0,1,1,5.55348,0v11.107A2.77494,2.77494,0,0,1,1152.92894,381.67925Zm0-27.76742a2.77488,2.77488,0,0,1-2.77674-2.77675v-11.107a2.77674,2.77674,0,1,1,5.55348,0v11.107A2.77494,2.77494,0,0,1,1152.92894,353.91183Zm0-27.76743a2.77488,2.77488,0,0,1-2.77674-2.77674v-11.107a2.77674,2.77674,0,1,1,5.55348,0v11.107A2.77494,2.77494,0,0,1,1152.92894,326.1444Zm0-27.76742a2.77488,2.77488,0,0,1-2.77674-2.77674v-11.107a2.77674,2.77674,0,1,1,5.55348,0v11.107A2.77494,2.77494,0,0,1,1152.92894,298.377Zm0-27.76742a2.77488,2.77488,0,0,1-2.77674-2.77674v-11.107a2.77674,2.77674,0,1,1,5.55348,0v11.107A2.77494,2.77494,0,0,1,1152.92894,270.60956Zm0-27.76743a2.77487,2.77487,0,0,1-2.77674-2.77674v-11.107a2.77674,2.77674,0,1,1,5.55348,0v11.107A2.77493,2.77493,0,0,1,1152.92894,242.84213Zm0-27.76742a2.77488,2.77488,0,0,1-2.77674-2.77674V201.191a2.77674,2.77674,0,1,1,5.55348,0v11.107A2.77494,2.77494,0,0,1,1152.92894,215.07471Zm0-27.76742a2.77488,2.77488,0,0,1-2.77674-2.77674v-11.107a2.77674,2.77674,0,1,1,5.55348,0v11.107A2.77494,2.77494,0,0,1,1152.92894,187.30729Zm0-27.76742a2.77488,2.77488,0,0,1-2.77674-2.77675v-11.107a2.77674,2.77674,0,1,1,5.55348,0v11.107A2.77494,2.77494,0,0,1,1152.92894,159.53987Zm0-27.76743a2.77488,2.77488,0,0,1-2.77674-2.77674v-11.107a2.77674,2.77674,0,1,1,5.55348,0v11.107A2.77494,2.77494,0,0,1,1152.92894,131.77244Zm0-27.76742a2.77488,2.77488,0,0,1-2.77674-2.77674v-11.107a2.77674,2.77674,0,0,1,5.55348,0v11.107A2.77494,2.77494,0,0,1,1152.92894,104.005Zm0-27.76742a2.77488,2.77488,0,0,1-2.77674-2.77675v-11.107a2.77674,2.77674,0,1,1,5.55348,0v11.107A2.77494,2.77494,0,0,1,1152.92894,76.2376Z" transform="translate(-226.18573 -16.53947)"/></g><path class="cls-10" d="M810.26113,142.66894c0,7.5755-5.35189,16.80595-11.95332,20.61731s-11.95328.76027-11.95328-6.81468c0-7.57551,5.35186-16.806,11.95328-20.61732C804.90924,132.04234,810.26113,135.094,810.26113,142.66894Z" transform="translate(-226.18573 -16.53947)"/><path class="cls-10" d="M1165.68321,24.99576c0,7.57551-5.35185,16.806-11.95332,20.61731-6.60143,3.81192-11.95272.76028-11.95272-6.81468,0-7.57551,5.35129-16.80595,11.95272-20.61731S1165.68321,17.42081,1165.68321,24.99576Z" transform="translate(-226.18573 -16.53947)"/><path class="cls-10" d="M1049.68321,65.99576c0,7.57551-5.35185,16.806-11.95332,20.61731-6.60143,3.81192-11.95272.76028-11.95272-6.81468,0-7.57551,5.35129-16.80595,11.95272-20.61731S1049.68321,58.42081,1049.68321,65.99576Z" transform="translate(-226.18573 -16.53947)"/><path class="cls-10" d="M928.68321,249.99576c0,7.57551-5.35185,16.806-11.95332,20.61731-6.60143,3.81192-11.95272.76028-11.95272-6.81468,0-7.57551,5.35129-16.80595,11.95272-20.61731S928.68321,242.42081,928.68321,249.99576Z" transform="translate(-226.18573 -16.53947)"/><ellipse class="cls-10" cx="680.14633" cy="358.77446" rx="16.85184" ry="9.72898" transform="translate(-199.04042 748.32342) rotate(-59.68813)"/><path class="cls-10" d="M574.90613,454.60094c0,7.575-5.35134,16.806-11.95332,20.61732C556.35141,479.02961,551,475.97853,551,468.403c0-7.575,5.35137-16.806,11.95277-20.61731C569.55479,443.97435,574.90613,447.02544,574.90613,454.60094Z" transform="translate(-226.18573 -16.53947)"/><ellipse class="cls-10" cx="442.85426" cy="634.15954" rx="16.85186" ry="9.729" transform="translate(-554.30721 679.86659) rotate(-59.68804)"/><path class="cls-11" d="M407.28363,813.87714l-34.8429-20.10755-12.52728,7.23212,34.8429,20.10687Zm-27.91754,16.12158-34.843-20.1211-14.83313,8.577,34.83582,20.11395Zm55.83514-32.2367-34.83581-20.11474L390.144,783.556l34.83649,20.10681Zm55.84156-32.23748-34.8429-20.10682-5.60126,3.23255,34.83582,20.10687Zm-27.91755,16.12231-34.843-20.12115L420.361,766.096l34.8501,20.12109ZM351.44849,846.121l-34.843-20.12109-17.14606,9.9068,34.843,20.11468ZM390.806,933.26617l-34.62671,19.99628,16.95844,9.78192,34.62677-19.982Zm-8.45135,35.1012L401.173,979.2359l34.62037-19.99554L416.975,948.37109ZM260.77112,858.24377l-34.58539,19.96131,34.843,20.114,34.58465-19.9613Zm77.69775,44.8061-34.6203,19.98846,13.23786,7.65021,34.6203-19.99561Zm-26.16894-15.11206-34.62671,19.99554,11.38434,6.56366,34.62671-19.982Zm52.33789,30.22344-34.6203,19.98914,15.09778,8.71607,34.6203-19.99628Zm-41.10694-55.9179L288.688,842.12146l-19.459,11.23169,34.8429,20.12115Zm53.22254,138.07538L489.322,1011.02032l-18.53943-64.99Z" transform="translate(-226.18573 -16.53947)"/><polygon class="cls-12" points="1286.819 511.638 1286.819 541.452 1270.725 517.252 1286.819 511.638 1286.819 511.638"/><polygon class="cls-13" points="1308.736 524.174 1308.736 553.988 1292.642 529.789 1308.736 524.174 1308.736 524.174"/><polygon class="cls-14" points="1330.653 536.711 1330.653 566.524 1314.559 542.325 1330.653 536.711 1330.653 536.711"/><polygon class="cls-15" points="1352.57 549.247 1352.57 579.061 1336.476 554.862 1352.57 549.247 1352.57 549.247"/><polygon class="cls-16" points="1374.487 561.783 1374.487 591.597 1358.393 567.398 1374.487 561.783 1374.487 561.783"/><polygon class="cls-12" points="206.195 699.761 206.195 667.754 223.473 693.733 206.195 699.761 206.195 699.761"/><polygon class="cls-13" points="182.666 686.302 182.666 654.295 199.944 680.274 182.666 686.302 182.666 686.302"/><polygon class="cls-14" points="159.136 672.844 159.136 640.836 176.415 666.816 159.136 672.844 159.136 672.844"/><polygon class="cls-15" points="135.607 650.297 135.607 627.378 152.885 645.981 135.607 650.297 135.607 650.297"/><polygon class="cls-16" points="112.078 645.926 112.078 613.919 129.356 639.898 112.078 645.926 112.078 645.926"/><g id="_3" data-name="3"><path class="cls-17" d="M457.37888,833.32528l566.829-327.57216S1021.01012,422.676,984.509,404.96763C948.00785,387.26,908.9533,515.52048,859.91688,495.19671c-49.03682-20.32377-50.01254-240.36708-115.124-206.439-65.11143,33.92733-93.07505,184.28848-145.89,214.0847-63.549,35.85171-102.30435-296.572-102.30435-296.572l-39.21965,22.205V833.32528Z" transform="translate(-226.18573 -16.53947)"/><path class="cls-18" d="M492.07682,854.14788,1058.9062,526.57534s-3.19775-83.0771-39.69888-100.7851c-36.50153-17.70761-75.55608,110.55285-124.59211,90.22869-49.03682-20.32338-50.01293-240.36669-115.12436-206.439S686.4158,493.86883,633.60121,523.665c-63.54941,35.85171-102.30435-296.572-102.30435-296.572l-39.22,22.205v604.8498Z" transform="translate(-226.18573 -16.53947)"/><path class="cls-19" d="M514.30047,854.27114V278.83559l48.76582-27.60909,1.1918,10.22149c11.57253,99.22348,40.93264,252.93493,74.396,269.72055,3.41226,1.71417,6.5159,1.58162,10.06345-.41648,21.105-11.90665,38.47531-48.449,56.86609-87.13762,21.82421-45.91005,44.39-93.38329,78.33027-111.06777,9.09636-4.73818,17.80839-5.34957,25.89492-1.815,23.80192,10.40581,35.54973,55.09112,47.987,102.39848,10.265,39.05062,21.90186,83.31043,38.48355,90.1832,19.1555,7.9375,38.62122-18.17783,57.43669-43.44057,19.16726-25.73453,37.27449-50.04744,58.21867-39.88438,37.03057,17.96291,40.44283,95.79239,40.56872,99.09642l.15767,4.06875Zm13.7118-567.56079V830.63l510.57-295.06134c-1.5373-22.73443-9.51794-72.15244-32.67986-83.38848-10.66308-5.16918-26.16395,15.62676-41.14989,35.74974-20.93361,28.10754-44.654,59.97246-73.7678,47.90659-22.84581-9.46853-34.31636-53.097-46.45909-99.287-10.55484-40.14321-22.51639-85.64345-40.25653-93.39938-2.62873-1.1467-6.93906-2.25222-13.96906,1.41063-29.87468,15.56559-51.44711,60.947-72.30972,104.83542-19.3402,40.68676-37.609,79.117-62.4839,93.15153-7.54926,4.25856-15.51853,4.51034-23.04935.73179C585.86425,519.90623,558.3987,324.999,551.87731,273.19973Z" transform="translate(-226.18573 -16.53947)"/><path class="cls-20" d="M492.07682,854.14788,1058.9062,526.57534s-3.19775-83.0771-39.69888-100.7851c-36.50153-17.70761-75.55608,110.55285-124.59211,90.22869-49.03682-20.32338-50.01293-240.36669-115.12436-206.439S686.4158,493.86883,633.60121,523.665c-63.54941,35.85171-102.30435-296.572-102.30435-296.572l-39.22,22.205v604.8498Z" transform="translate(-226.18573 -16.53947)"/><path class="cls-21" d="M562.97746,895.49858l566.829-327.57215s-3.19735-83.07749-39.69848-100.7851S1014.55227,577.69379,965.51545,557.37C916.479,537.04625,915.50333,317.00333,850.39187,350.93066c-65.11143,33.92811-93.07505,184.28926-145.89,214.08509-63.549,35.8521-102.30475-296.572-102.30475-296.572l-39.21964,22.20539V895.49858Z" transform="translate(-226.18573 -16.53947)"/><path class="cls-22" d="M562.97746,895.49858l566.829-327.57215s-3.19735-83.07749-39.69848-100.7851S1014.55227,577.69379,965.51545,557.37C916.479,537.04625,915.50333,317.00333,850.39187,350.93066c-65.11143,33.92811-93.07505,184.28926-145.89,214.08509-63.549,35.8521-102.30475-296.572-102.30475-296.572l-39.21964,22.20539V895.49858Z" transform="translate(-226.18573 -16.53947)"/></g><polyline class="cls-23" points="348.727 387.38 469.984 724.475 605.792 438.308 736.326 597.225 848.306 467.41 875.703 502.713"/><path class="cls-24" d="M1518.95264,758.86517l17.64221,10.188,6.343-3.66876-17.64222-10.18115Zm14.13574-8.16327,17.64209,10.188,7.51416-4.3388-17.64209-10.18842ZM1504.817,767.02808l17.64221,10.18481,5.17505-2.98816-17.64185-10.188Zm-28.27454,16.31939,17.64209,10.188,2.83984-1.63678-17.64233-10.188Zm14.13562-8.15973,17.64539,10.18482,4.00756-2.31445-17.64575-10.18085Zm56.54944-32.6419,17.63867,10.18115,8.68164-5.00964-17.64221-10.188Zm-19.93164-44.1319,17.529-10.11761-8.58264-4.95984-17.53308,10.12085Zm-22.77881-13.1477,9.52856,5.49951,17.52942-10.12445-9.52514-5.49628Zm88.48962,30.84265-17.50817,10.11071,17.63891,10.18439,17.51148-10.10675ZM1553.796,713.7171l17.52942-10.12445-6.70264-3.87359-17.52929,10.12481Zm13.25024,7.64813,17.53284-10.12445-5.7644-3.323L1561.28564,718.035Zm-26.50012-15.30316,17.52906-10.11761-7.64454-4.41651L1532.898,701.6524Zm20.81714,28.32044,17.63855,10.18121,9.85291-5.68664-17.646-10.18482Zm-26.95215-69.91931-56.99731-5.41858,9.38708,32.90637Z" transform="translate(-226.18573 -16.53947)"/><polygon class="cls-25" points="600.919 410.601 606.66 443.769 606.424 360.625 506.103 418.546 506.235 465.267 600.919 410.601"/><g class="cls-26"><g class="cls-27"><polygon class="cls-28" points="677.488 671.251 726.682 699.688 677.483 728.105 628.29 699.668 677.488 671.251"/><polygon class="cls-29" points="677.5 954.113 677.5 728.088 726.722 699.669 726.722 925.232 677.5 954.113"/><polygon class="cls-30" points="628.287 925.232 628.287 699.669 677.51 728.088 677.51 954.164 628.287 925.232"/></g><polygon class="cls-31" points="628.287 699.669 677.254 726.041 726.722 699.669 678.992 729.168 677.51 954.788 675.169 728.82 628.287 699.669"/></g><polygon class="cls-32" points="681.288 952.17 680.999 1017.845 673.736 1017.823 674.047 952.09 677.901 954.351 681.288 952.17"/><path class="cls-33" d="M899.87341,500.51309h7.233a0,0,0,0,1,0,0V716.53382a1.01605,1.01605,0,0,1-1.01605,1.01605h-5.20091a1.016,1.016,0,0,1-1.016-1.016V500.51309a0,0,0,0,1,0,0Z" transform="translate(-220.88019 -24.33714) rotate(0.49595)"/><path class="cls-34" d="M988.75762,713.37937h7.233a0,0,0,0,1,0,0v54.385a1.01605,1.01605,0,0,1-1.01605,1.01605h-5.20091a1.016,1.016,0,0,1-1.016-1.016v-54.385a0,0,0,0,1,0,0Z" transform="translate(-219.7332 -25.10243) rotate(0.496)"/><g class="cls-35"><g class="cls-27"><polygon class="cls-36" points="766.809 726.388 816.002 754.825 766.803 783.242 717.61 754.805 766.809 726.388"/><polygon class="cls-37" points="766.82 863.097 766.82 783.224 816.042 754.805 816.042 834.216 766.82 863.097"/><polygon class="cls-38" points="717.608 834.216 717.608 754.805 766.83 783.224 766.83 834.242 766.83 863.097 717.608 834.216"/></g><polygon class="cls-39" points="717.608 753.91 766.575 780.282 816.042 753.91 768.312 783.41 766.83 863.253 764.489 783.062 717.608 753.91"/></g><polygon class="cls-40" points="770.686 859.488 770.397 895.336 763.135 895.314 763.446 859.408 767.299 861.669 770.686 859.488"/><ellipse class="cls-41" cx="402.2308" cy="302.13393" rx="9.11246" ry="10.41424"/><ellipse class="cls-42" cx="471.19657" cy="719.62483" rx="8.488" ry="9.70057"/><ellipse class="cls-43" cx="607.0046" cy="438.3082" rx="8.488" ry="9.70057"/><ellipse class="cls-44" cx="735.5372" cy="595.94252" rx="8.488" ry="9.70057"/><ellipse class="cls-45" cx="848.30636" cy="471.04764" rx="7.27543" ry="8.488"/><g class="cls-46"><g class="cls-27"><polygon class="cls-47" points="1193.805 448.093 1242.998 476.529 1193.8 504.946 1144.606 476.51 1193.805 448.093"/><polygon class="cls-48" points="1193.817 716.054 1193.817 504.929 1243.039 476.51 1243.039 686.866 1193.817 716.054"/><polygon class="cls-49" points="1144.604 686.866 1144.604 476.51 1193.827 504.929 1193.827 715.798 1144.604 686.866"/></g><polygon class="cls-50" points="1144.604 476.51 1193.571 502.882 1243.039 476.51 1195.309 506.009 1193.827 715.666 1191.487 505.662 1144.604 476.51"/></g><g class="cls-51"><g class="cls-27"><polygon class="cls-52" points="1105.17 364.475 1154.364 392.912 1105.165 421.328 1055.972 392.892 1105.17 364.475"/><polygon class="cls-53" points="1105.182 672.4 1105.182 421.311 1154.404 392.892 1154.404 643.314 1105.182 672.4"/><polygon class="cls-54" points="1055.969 643.467 1055.969 392.892 1105.192 421.311 1105.192 672.4 1055.969 643.467"/></g><polygon class="cls-55" points="1055.969 392.892 1104.937 419.264 1154.404 392.892 1106.674 422.391 1105.192 675.055 1102.852 422.044 1055.969 392.892"/></g><g class="cls-56"><g class="cls-27"><polygon class="cls-57" points="1017.556 219.988 1066.749 248.425 1017.55 276.841 968.357 248.405 1017.556 219.988"/><polygon class="Graphic-Style-4" points="1017.567 756.785 1017.567 276.824 1066.79 248.405 1066.79 728.673 1017.567 756.785"/><polygon class="cls-58" points="1017.567 756.897 1017.567 276.526 1066.79 248.107 1066.79 727.554 1017.567 756.897"/><polygon class="cls-59" points="968.355 727.853 968.355 248.405 1017.578 276.824 1017.578 756.785 968.355 727.853"/></g><polygon class="cls-60" points="968.355 248.405 1017.322 274.777 1066.79 248.405 1019.06 277.904 1017.578 759.99 1015.237 277.557 968.355 248.405"/></g><g class="cls-61"><g class="cls-27"><polygon class="cls-62" points="931.245 351.883 980.439 380.32 931.24 408.737 882.047 380.3 931.245 351.883"/><polygon class="cls-63" points="931.257 886.725 931.257 408.72 980.48 380.301 980.48 857.431 931.257 886.725"/><polygon class="cls-64" points="882.045 858.047 882.045 380.301 931.267 408.72 931.267 886.725 882.045 858.047"/></g><polygon class="cls-65" points="882.045 380.301 931.011 406.673 980.48 380.301 932.749 409.8 931.267 887.877 928.927 409.452 882.045 380.301"/></g><g class="cls-66"><g class="cls-27"><polygon class="cls-67" points="842.611 554.207 891.804 582.644 842.606 611.061 793.412 582.624 842.611 554.207"/><polygon class="cls-68" points="842.622 848.403 842.622 611.043 891.845 582.625 891.845 819.471 842.622 848.403"/><polygon class="cls-69" points="793.409 819.471 793.409 582.625 842.632 611.043 842.632 848.403 793.409 819.471"/></g><polygon class="cls-70" points="793.409 582.625 842.377 608.996 891.845 582.625 844.114 612.124 842.632 849.676 840.292 611.776 793.409 582.625"/></g><polygon class="cls-71" points="846.438 846.336 846.149 920.958 838.886 920.937 839.197 846.256 843.051 848.516 846.438 846.336"/><polygon class="cls-72" points="935.023 884.514 934.733 947.206 927.471 947.184 927.782 884.433 931.636 886.694 935.023 884.514"/><polygon class="cls-73" points="1021.221 754.47 1020.932 829.093 1013.669 829.071 1013.98 754.39 1017.834 756.651 1021.221 754.47"/><polygon class="cls-74" points="1108.613 670.359 1108.324 789.722 1101.061 789.7 1101.372 670.279 1105.226 672.54 1108.613 670.359"/><polygon class="cls-75" points="1197.496 713.906 1197.207 773.615 1189.944 773.594 1190.255 713.826 1194.109 716.087 1197.496 713.906"/><path class="cls-76" d="M1416.91584,375.50819h7.233a0,0,0,0,1,0,0V490.22044a1.01605,1.01605,0,0,1-1.01605,1.01605h-5.20091a1.01605,1.01605,0,0,1-1.01605-1.01605V375.50819A0,0,0,0,1,1416.91584,375.50819Z" transform="translate(-222.37931 -28.8255) rotate(0.49621)"/><path class="cls-77" d="M1327.573,327.278h7.233a0,0,0,0,1,0,0v83.37861a1.01605,1.01605,0,0,1-1.01605,1.01605H1328.589a1.01605,1.01605,0,0,1-1.01605-1.01605V327.278A0,0,0,0,1,1327.573,327.278Z" transform="translate(-222.93601 -28.05422) rotate(0.49621)"/><path class="cls-78" d="M1240.66193,204.31523h7.233a0,0,0,0,1,0,0v56.85854a1.01605,1.01605,0,0,1-1.01605,1.01605H1241.678a1.01605,1.01605,0,0,1-1.01605-1.01605V204.31523A0,0,0,0,1,1240.66193,204.31523Z" transform="translate(-224.11902 -27.30659) rotate(0.49621)"/><path class="cls-79" d="M1154.11617,283.89h7.233a0,0,0,0,1,0,0V398.6022a1.01605,1.01605,0,0,1-1.01605,1.01605h-5.20091a1.01605,1.01605,0,0,1-1.01605-1.01605V283.89a0,0,0,0,1,0,0Z" transform="translate(-223.18229 -26.55406) rotate(0.49626)"/><path class="cls-80" d="M1064.90894,484.00347h7.233a0,0,0,0,1,0,0V598.71572a1.01605,1.01605,0,0,1-1.01605,1.01605H1065.925a1.01605,1.01605,0,0,1-1.01605-1.01605V484.00347A0,0,0,0,1,1064.90894,484.00347Z" transform="translate(-221.45539 -25.76813) rotate(0.49595)"/></g></g></svg>