<svg id="Layer_1" data-name="Layer 1" xmlns="http://www.w3.org/2000/svg" viewBox="0 0 339.42856 339.42856"><defs><style>.cls-1{fill:#71bdaa;}.cls-2{fill:#1b0b38;}</style></defs><circle class="cls-1" cx="169.71429" cy="169.71429" r="169.71429"/><path class="cls-2" d="M265.15048,296.43149q-5.26163-3.64518-10.52282-7.29093Q235.083,275.56825,215.54262,261.99q-18.64819-12.972-37.28026-25.96728-19.192-13.34253-38.40674-26.65227-15.31-10.63422-30.60421-21.29132c-6.36389-4.42621-12.747-8.82518-19.07514-13.30193a5.94333,5.94333,0,0,1-1.583-2.17247c-.125-.24237.2122-.9839.5215-1.14583a28.03146,28.03146,0,0,1,5.06358-2.34855,26.3505,26.3505,0,0,1,6.24558-.98479,4.75325,4.75325,0,0,0,4.70074-3.33077c1.95655-4.84541,3.987-9.66191,6.05276-14.462,2.25506-5.24,4.42226-10.52719,6.92414-15.649,2.74656-5.62271-2.456-12.19725-7.832-11.7654-4.14819.33321-8.37015-.24041-12.55822-.43458a1.96421,1.96421,0,0,1-1.12907-.33564c-1.86615-1.61113-3.59607-3.326-3.56115-6.0625A15.6181,15.6181,0,0,0,93.026,113.809a1.57382,1.57382,0,0,1,1.14019-1.7415c.32682-.13234,1.01309.26353,1.36267.60079,5.15276,4.97117,11.38554,7.05459,18.4385,6.95256a12.781,12.781,0,0,0,3.21021-.3108,3.42355,3.42355,0,0,0,1.99451-1.34129c1.03175-1.91817,1.856-3.9519,2.699-5.9666.99108-2.36853,1.917-4.76435,2.87117-7.1483l.36094.08209a4.13471,4.13471,0,0,1,.10318.71905c-.06958,2.39386-.32988,4.79982-.16314,7.17617a7.40087,7.40087,0,0,0,1.40551,3.98075c3.63166,4.42888,3.25825,9.29865,1.96629,14.326-.85317,3.32-1.78886,6.61869-2.691,9.926-.70436,2.5822-.38092,4.81839,2.02006,6.449,1.2541.85172,2.42761,1.82114,3.65426,2.71442a4.9235,4.9235,0,0,0,6.12825.091c3.408-2.30673,6.8219-4.60636,10.18385-6.97909,6.397-4.51473,12.69538-9.17337,19.55077-12.999,4.0473-2.25856,6.64412-6.70549,7.6173-11.36634-3.21546-1.7779-6.458-3.56758-9.69706-5.36361-1.01263-.5615-1.98292-1.21106-3.03019-1.69593a6.013,6.013,0,0,1-3.53038-4.88964c-.46952-2.82663-1.11327-5.62423-1.67434-8.43586a2.82606,2.82606,0,0,1-.00451-.54254l.38783-.15325c.728,1.50208,1.46651,2.99921,2.17632,4.50984a4.5014,4.5014,0,0,1,.34971,1.1445c.66648,3.89782,3.20036,5.95857,6.70705,7.40721,6.96942,2.87908,13.84447,5.98724,20.74835,9.02385a13.3128,13.3128,0,0,1,5.959,5.55831c1.744,2.865,3.41541,5.7741,5.12454,8.66036a2.17049,2.17049,0,0,0,.97751.94462c-.16659-.76867-.33507-1.537-.49947-2.3061-.83233-3.89409-1.46853-7.84328-2.54446-11.66883-1.35873-4.83109-4.78741-7.76715-9.52794-9.28092a41.28641,41.28641,0,0,1-3.96234-1.66375c-1.639-.71954-3.23881-1.53714-4.9063-2.181a15.06933,15.06933,0,0,1-8.3305-7.72225c-1.853-3.81568-3.60582-7.65261-6.85216-10.58287,2.57829-1.54164,3.812-1.06845,4.83666.91155,2.03648,3.935,4.16215,7.82378,6.25128,11.73151.2008.37561.4037.75015.71962,1.337.31408-.51451.53877-.82358.70326-1.16192a3.91218,3.91218,0,0,1,4.42067-2.24064,64.1642,64.1642,0,0,1,7.56886,1.6776,26.20213,26.20213,0,0,1,5.20491,2.854c1.62679,1.00833,3.15624,2.17237,4.75161,3.23318,1.01858.67731,2.07928,1.29131,3.21093,1.98909,0-.22525.04315-.36076-.00618-.42334-2.91569-3.6979-5.71429-7.49814-8.79931-11.04954-2.68352-3.08918-6.52872-4.34256-10.29354-5.60836-2.37875-.79979-4.79556-1.50932-7.11654-2.453-3.61843-1.47115-5.54312-4.50257-7.02872-7.945-1.07341-2.48735-2.36646-4.87952-3.54509-7.322-.41573-.86148-.81862-1.73251-1.16505-2.6234a9.16394,9.16394,0,0,0-4.98334-5.25879c-4.09206-1.79242-8.2275-3.48791-12.36572-5.17243-8.46334-3.44511-16.95-6.833-25.40915-10.28827-6.71987-2.74483-13.37144-5.66258-20.14026-8.27863a41.74877,41.74877,0,0,0-7.68151-1.7803c-5.143-.92374-10.30548-1.74-15.464-2.57557-.79009-.128-1.60187-.122-2.40362-.178l-.00063-.307c.60558-.03947,1.21116-.11373,1.81674-.11342,29.51762.01515,59.0363-.10346,88.55235.12274,12.8106.09817,24.6429,4.009,35.46514,10.93309a69.89723,69.89723,0,0,1,17.67062,16.21562A69.08559,69.08559,0,0,1,231.744,111.99724a89.38243,89.38243,0,0,1-1.84841,12.52974A63.37465,63.37465,0,0,1,218.3407,149.545a69.60884,69.60884,0,0,1-27.23624,22.33669,68.57071,68.57071,0,0,1-17.53253,5.08461c-2.15633.345-4.32144.6349-6.71207.98346.97605,1.15626,1.80361,2.15889,2.65461,3.14117q8.67553,10.014,17.35907,20.02137c6.02175,6.94636,12.0717,13.8686,18.05465,20.84826,7.6218,8.89156,15.24483,17.78317,22.76427,26.76108q12.35721,14.754,24.506,29.68207c3.95245,4.866,7.65673,9.93448,11.43814,14.93789a33.46656,33.46656,0,0,1,1.77765,2.90174Z"/><path class="cls-2" d="M86.134,182.29484a21.75074,21.75074,0,0,1,9.42644,4.971c2.61509,2.28174,4.58208,4.9365,4.47521,8.62628a11.26019,11.26019,0,0,1-2.03391,5.81064.98443.98443,0,0,1-1.54825.26739c-1.05772-.71777-2.10423-1.45225-3.149-2.1888a.92943.92943,0,0,1-.28468-1.43951,6.954,6.954,0,0,0,.51787-.94394c1.04021-2.25.85966-3.762-1.02566-5.36681a31.09313,31.09313,0,0,0-5.08687-3.553,3.83783,3.83783,0,0,0-5.61789,3.04647,4.14866,4.14866,0,0,0,1.02786,2.54493c1.56558,1.96885,3.29159,3.80962,4.93842,5.71465.91406,1.05737,1.86886,2.09036,2.6797,3.22414,2.87049,4.01368,2.6342,8.0922-.61534,11.82587-3.0486,3.50282-6.38106,4.49682-10.75443,2.93936a22.58012,22.58012,0,0,1-10.6538-7.67238c-3.19282-4.22218-2.352-8.78212.2597-12.72424a1.04162,1.04162,0,0,1,1.63689-.34558c1.04649.73426,2.13547,1.41758,3.113,2.23426.2744.22923.23507.84769.3078,1.29281.01457.08916-.11845.20022-.17842.30407-2.0685,3.58208-1.685,5.77291,1.61926,8.2879a32.35441,32.35441,0,0,0,4.80977,3.123,4.37748,4.37748,0,0,0,6.31167-3.24455,3.84279,3.84279,0,0,0-.764-2.52958c-1.16594-1.61415-2.52555-3.09006-3.82882-4.60294-1.22576-1.42292-2.51069-2.79564-3.7158-4.23545a9.33991,9.33991,0,0,1,4.96968-15.09055,8.02354,8.02354,0,0,0,.7632-.27549Z"/><path class="cls-2" d="M231.11842,322.69513a23.14383,23.14383,0,0,1-10.79717-5.63435c-2.91761-2.54817-4.96419-5.54493-4.57439-9.66791a12.76619,12.76619,0,0,1,2.18606-5.76847,1.10029,1.10029,0,0,1,1.80551-.35456c.96129.71464,1.9497,1.395,2.95065,2.05334a.94689.94689,0,0,1,.309,1.50832c-2.382,3.78137-1.76987,6.03638,1.88723,8.77258a29.112,29.112,0,0,0,4.64564,2.92782,4.41151,4.41151,0,0,0,6.10347-3.46555,3.9069,3.9069,0,0,0-.85778-2.50815c-1.83576-2.3132-3.81916-4.50933-5.74852-6.74815-.62631-.72676-1.28672-1.42593-1.88408-2.17552-3.17577-3.9851-3.00049-8.02179.46679-11.914,2.5651-2.87947,5.68772-3.93256,9.398-2.77784a19.96282,19.96282,0,0,1,10.63538,7.58921c2.69149,3.79585,2.00529,7.724-.3634,11.29512a1.45683,1.45683,0,0,1-1.38323.33268,23.13042,23.13042,0,0,1-3.3404-2.31675c-.26326-.21716-.21181-.86987-.21554-1.32318-.0017-.20809.2189-.41481.32825-.62752,1.27509-2.48027,1.10393-4.07051-1.01364-5.85356a29.68732,29.68732,0,0,0-5.12581-3.493,3.87678,3.87678,0,0,0-5.43824,3.23489,4.15654,4.15654,0,0,0,1.03188,2.43543c1.57469,1.96169,3.29319,3.80752,4.93991,5.71208.914,1.05713,1.86933,2.0892,2.68142,3.22189,2.87923,4.016,2.62171,8.06057-.57265,11.837a10.47227,10.47227,0,0,1-6.37405,3.70818Z"/><path class="cls-2" d="M152.62451,240.80785c-2.06087,2.9516-3.948,5.65447-5.83523,8.35723-2.218,3.17636-4.458,6.33772-6.64037,9.53832a1.24229,1.24229,0,0,1-2.07958.35642c-.73423-.5517-1.50314-1.05707-2.25286-1.58838-1.2406-.87918-1.30527-1.18577-.44742-2.41708q5.00054-7.17744,10.0132-14.34641,3.73814-5.35485,7.47721-10.709c.8025-1.14629,1.10291-1.19736,2.22729-.44157a7.50109,7.50109,0,0,0,1.09272.7338c2.41063,1.054,2.94041,2.866,2.69136,5.38543-.39276,3.97313-.42832,7.98168-.61032,11.97546-.182,3.99256-.35811,7.98539-.55036,12.28092.39554-.49292.66022-.78635.88462-1.10787q5.761-8.25405,11.51236-16.51476c.99967-1.4354,1.2124-1.47506,2.65829-.45512.68554.48357,1.34973,1.00192,2.06284,1.44078.97353.59913,1.03429,1.23969.38368,2.16735q-7.39658,10.54647-14.74115,21.12941c-.98223,1.40918-2.00872,2.78934-2.94293,4.2295-.61356.94585-1.26786.95923-2.08971.34744a7.346,7.346,0,0,0-1.3724-.95887c-2.20229-.94625-2.49922-2.6152-2.37255-4.83661.44377-7.78241.67716-15.57682.98572-23.36686C152.69067,241.71061,152.65358,241.41191,152.62451,240.80785Z"/><path class="cls-2" d="M131.1219,238.00324c-2.37154-1.65676-4.64643-3.27723-6.95714-4.84494-.927-.62891-1.104-1.26889-.39365-2.1722.54239-.68973,1.00194-1.44393,1.51732-2.15572a1.138,1.138,0,0,1,1.82855-.2849c3.6224,2.5579,7.27407,5.07433,10.913,7.60887.65256.45451,1.13531,1.04284.52209,1.7933a57.126,57.126,0,0,1-5.65535,6.62766c-3.83355,3.44081-8.37281,3.92214-13.10079,1.9489a22.95928,22.95928,0,0,1-9.22739-6.87484,13.27633,13.27633,0,0,1-2.40651-12.97411,24.76556,24.76556,0,0,1,9.12234-12.74987,13.005,13.005,0,0,1,11.945-2.09892,21.30489,21.30489,0,0,1,12.00929,8.84155,10.95857,10.95857,0,0,1,.71936,11.09452c-.54815,1.21011-1.04178,1.326-2.1318.56823-.88575-.61577-1.74971-1.26455-2.65425-1.851a1.06737,1.06737,0,0,1-.47377-1.51176,6.01043,6.01043,0,0,0-1.96319-7.6094,28.30828,28.30828,0,0,0-5.94355-3.73454c-3.64258-1.64174-6.91459-.43809-9.401,2.39672a34.59416,34.59416,0,0,0-4.86912,7.059c-2.26288,4.466-1.43634,7.83925,2.33785,11.123a18.324,18.324,0,0,0,3.56763,2.39518C124.65959,242.795,128.15955,241.93589,131.1219,238.00324Z"/><path class="cls-2" d="M185.75765,273.91572c1.01146-4.08518,1.9684-7.95012,2.98681-12.06337-.52789.28392-.83167.42587-1.11394.60224a174.24886,174.24886,0,0,0-20.50534,14.75685c-.98751.83756-1.76323,1.01412-2.773.10131-.67582-.611-1.51227-1.04037-2.24442-1.59389-1.10378-.83449-1.13681-1.33447-.028-2.11256q11.22691-7.87822,22.49231-15.7015c1.60628-1.11288,3.34329-2.03551,4.97623-3.11226a1.54594,1.54594,0,0,1,2.05163.095c.98084.7537,2.07736,1.36471,3.01011,2.1692a1.87481,1.87481,0,0,1,.55772,1.48358,294.30184,294.30184,0,0,1-8.129,32.39793c-.41653,1.33607-.91462,1.50224-2.08352.70677-.95764-.65171-1.88664-1.3472-2.86206-1.97053a1.34411,1.34411,0,0,1-.61211-1.81325c.76921-2.26769,1.37564-4.59389,2.21994-6.83152.47886-1.26911.1363-1.88929-.93747-2.57524-2.18619-1.3966-4.27774-2.94171-6.40229-4.43418-1.26707-.89009-1.33259-1.37305-.14177-2.26312,3.79636-2.83759,2.13538-2.84188,6.10661-.20577C183.41929,272.277,184.48806,273.03933,185.75765,273.91572Z"/><path class="cls-2" d="M198.62535,294.47025c3.00318,2.09612,5.94783,4.1519,8.89312,6.20679,1.048.73115,2.07911,1.48847,3.15182,2.18142a1.26484,1.26484,0,0,1,.37319,2.09822c-.52128.70683-1.04974,1.41223-1.51388,2.15639-.56463.90527-1.2112.88452-2.00418.32971q-6.42933-4.49832-12.86948-8.98114c-1.01541-.7082-2.02758-1.42112-3.04866-2.12108a1.17812,1.17812,0,0,1-.35781-1.90832q8.92666-12.76065,17.81772-25.54619c.56722-.81518,1.15634-1.00041,1.98791-.36252.79128.607,1.63946,1.13938,2.45668,1.71306,1.07754.75643,1.12765,1.13111.34744,2.24962q-7.5042,10.758-15.00266,21.5201A4.68752,4.68752,0,0,0,198.62535,294.47025Z"/><path class="cls-2" d="M96.02165,229.50367a8.4105,8.4105,0,0,1-1.01162-.48358c-.85937-.58138-1.68484-1.21375-2.55361-1.7801-.94277-.6146-1.01125-1.25071-.35564-2.17855,3.36243-4.75861,6.67974-9.5491,10.01068-14.32994q3.79863-5.45216,7.59305-10.90722c.77671-1.11463,1.07206-1.16624,2.21927-.381.85609.586,1.68952,1.20579,2.55573,1.77608a1.10783,1.10783,0,0,1,.3168,1.81025q-6.38,9.12549-12.74326,18.26262c-1.68981,2.42238-3.37373,4.849-5.08165,7.25853A7.88913,7.88913,0,0,1,96.02165,229.50367Z"/></svg>