<svg id="Layer_1" data-name="Layer 1" xmlns="http://www.w3.org/2000/svg" viewBox="0 0 339.42856 339.42856"><defs><style>.cls-1{fill:#ff7032;}.cls-2{fill:#270e41;}</style></defs><circle class="cls-1" cx="169.71428" cy="169.71428" r="169.71429"/><path class="cls-2" d="M265.15046,298.59373q-5.26162-3.64518-10.52283-7.29092-19.54466-13.57233-39.085-27.15058-18.64818-12.972-37.28025-25.96728-19.192-13.34253-38.40674-26.65227-15.31-10.63422-30.60421-21.29132c-6.36389-4.42621-12.747-8.82518-19.07514-13.30193a5.94333,5.94333,0,0,1-1.583-2.17247c-.125-.24237.21219-.9839.5215-1.14583a28.03114,28.03114,0,0,1,5.06358-2.34855,26.35042,26.35042,0,0,1,6.24558-.98479,4.75324,4.75324,0,0,0,4.70074-3.33076c1.95655-4.84542,3.987-9.66191,6.05276-14.462,2.25505-5.24,4.42225-10.52719,6.92414-15.649,2.74656-5.62271-2.456-12.19724-7.832-11.7654-4.1482.33321-8.37015-.24041-12.55822-.43458a1.96418,1.96418,0,0,1-1.12907-.33564c-1.86616-1.61113-3.59607-3.326-3.56116-6.0625a15.6181,15.6181,0,0,0,.00492-2.27665,1.57382,1.57382,0,0,1,1.14019-1.7415c.32682-.13234,1.01309.26353,1.36267.6008,5.15276,4.97116,11.38554,7.05458,18.4385,6.95255a12.781,12.781,0,0,0,3.21021-.3108,3.42355,3.42355,0,0,0,1.99451-1.34129c1.03175-1.91817,1.856-3.9519,2.699-5.96659.99108-2.36854,1.917-4.76436,2.87118-7.14831l.36093.08209a4.13377,4.13377,0,0,1,.10319.719c-.06958,2.39387-.32989,4.79982-.16315,7.17618a7.40086,7.40086,0,0,0,1.40551,3.98074c3.63167,4.42889,3.25826,9.29865,1.9663,14.326-.85318,3.31994-1.78886,6.61868-2.691,9.926-.70435,2.5822-.38092,4.81839,2.02006,6.449,1.25411.85171,2.42761,1.82113,3.65427,2.71441a4.9235,4.9235,0,0,0,6.12825.091c3.408-2.30674,6.8219-4.60637,10.18385-6.9791,6.397-4.51472,12.69538-9.17337,19.55077-12.999,4.0473-2.25856,6.64412-6.70549,7.61729-11.36634-3.21545-1.7779-6.458-3.56758-9.69705-5.36361-1.01263-.5615-1.98293-1.21105-3.0302-1.69593a6.013,6.013,0,0,1-3.53038-4.88964c-.46951-2.82663-1.11326-5.62423-1.67433-8.43586a2.82687,2.82687,0,0,1-.00452-.54254l.38784-.15325c.728,1.50208,1.4665,2.99921,2.17631,4.50984a4.50142,4.50142,0,0,1,.34972,1.1445c.66647,3.89782,3.20036,5.95858,6.70705,7.40721,6.96942,2.87908,13.84446,5.98724,20.74835,9.02385a13.31283,13.31283,0,0,1,5.959,5.55832c1.744,2.865,3.4154,5.77409,5.12454,8.66035a2.17051,2.17051,0,0,0,.97751.94463c-.1666-.76868-.33507-1.537-.49947-2.30611-.83233-3.89409-1.46853-7.84328-2.54446-11.66882-1.35874-4.8311-4.78742-7.76716-9.52794-9.28093a41.28641,41.28641,0,0,1-3.96234-1.66375c-1.639-.71954-3.23882-1.53714-4.9063-2.181a15.06933,15.06933,0,0,1-8.3305-7.72225c-1.853-3.81568-3.60582-7.65261-6.85216-10.58287,2.57829-1.54164,3.812-1.06845,4.83665.91155,2.03649,3.935,4.16216,7.82378,6.25129,11.73151.2008.37561.4037.75015.71962,1.337.31408-.51451.53877-.82358.70326-1.16192a3.91218,3.91218,0,0,1,4.42067-2.24064,64.1662,64.1662,0,0,1,7.56886,1.6776,26.20167,26.20167,0,0,1,5.20491,2.854c1.62679,1.00832,3.15623,2.17236,4.7516,3.23317,1.01859.67731,2.07929,1.29132,3.21094,1.98909,0-.22525.04315-.36076-.00618-.42334-2.9157-3.6979-5.71429-7.49814-8.79932-11.04954-2.68351-3.08918-6.52871-4.34256-10.29353-5.60836-2.37875-.79978-4.79556-1.50932-7.11655-2.453-3.61842-1.47115-5.54312-4.50257-7.02871-7.945-1.07341-2.48735-2.36646-4.87951-3.54509-7.322-.41573-.86148-.81862-1.73251-1.16506-2.62339a9.16388,9.16388,0,0,0-4.98333-5.2588c-4.09206-1.79242-8.2275-3.48791-12.36573-5.17243-8.46333-3.44511-16.95-6.833-25.40915-10.28827-6.71986-2.74483-13.37143-5.66258-20.14026-8.27863a41.7492,41.7492,0,0,0-7.68151-1.7803c-5.143-.92374-10.30548-1.74-15.464-2.57557-.7901-.128-1.60187-.122-2.40362-.178l-.00063-.307c.60558-.03947,1.21116-.11373,1.81674-.11342,29.51762.01515,59.0363-.10346,88.55235.12274,12.81059.09817,24.6429,4.009,35.46513,10.93309a69.8971,69.8971,0,0,1,17.67063,16.21562,69.08553,69.08553,0,0,1,14.22474,46.03542,89.38094,89.38094,0,0,1-1.8484,12.52974,63.37475,63.37475,0,0,1-11.55485,25.01807A69.60889,69.60889,0,0,1,191.10444,174.044a68.571,68.571,0,0,1-17.53253,5.08461c-2.15633.345-4.32144.6349-6.71207.98346.976,1.15627,1.8036,2.15889,2.6546,3.14117q8.67553,10.014,17.35907,20.02137c6.02176,6.94636,12.0717,13.8686,18.05466,20.84826C212.55,233.0144,220.173,241.906,227.69244,250.88392q12.35721,14.754,24.506,29.68207c3.95246,4.866,7.65674,9.93448,11.43814,14.9379a33.46241,33.46241,0,0,1,1.77765,2.90173Z"/><path class="cls-2" d="M220.50228,316.64969c-1.04171-.73575-2.06948-1.49238-3.12957-2.20062a1.20239,1.20239,0,0,1-.34231-1.99154c2.10819-2.96011,4.19651-5.9352,6.23266-8.945a3.75305,3.75305,0,0,0,.581-1.85789c.28736-6.70544.51053-13.4136.78749-20.11953.06743-1.63245.54523-1.74293,1.93821-1.02381,2.889,1.4914,4.132,3.36271,3.39,6.89671-.747,3.55776-.54833,7.31459-.75482,10.98471-.02847.5061-.00392,1.01518-.00392,1.78538,2.69149-1.09131,5.22178-2.0459,7.69069-3.13911,2.29918-1.018,4.55009-2.15053,6.786-3.30307a1.61745,1.61745,0,0,1,1.96635.09742c.9513.72639,1.96256,1.37383,2.94055,2.06578,1.14516.81022,1.10917,1.47284-.21671,2.02058-6.19706,2.56016-12.41826,5.062-18.61017,7.63436a4.41246,4.41246,0,0,0-1.823,1.36c-2.08916,2.87457-4.08336,5.81807-6.12054,8.73062-.24845.3552-.5532.671-.83184,1.00506Z"/><path class="cls-2" d="M84.902,182.00942c1.00487.71548,2.00048,1.44444,3.01753,2.14217.81555.5595.94049,1.10648.32764,1.97921q-7.329,10.43694-14.58552,20.9248c-.13349.19187-.25569.3916-.45089.69187,1.46,1.02862,2.87865,2.03716,4.30672,3.03215,2.42345,1.68853,4.85759,3.36174,7.27783,5.05484,1.28326.89771,1.30559,1.09968.41852,2.37-.38857.55645-.79924,1.10115-1.14167,1.68531-.56373.96172-1.17359,1.11668-2.13339.43794-4.72512-3.34143-9.48574-6.63262-14.229-9.94848-.68275-.47729-1.3392-.99223-2.00782-1.48975v-.48q4.59345-6.5826,9.18829-13.1642,4.637-6.62417,9.29175-13.23585Z"/><path class="cls-2" d="M128.17319,230.74286c1.82408,5.5726-1.61032,11.83482-7.08965,13.05322a8.686,8.686,0,0,1-6.47914-1.11587c-3.275-1.98381-6.41878-4.18534-9.60513-6.31418-1.22881-.821-2.39577-1.73665-3.64219-2.52845-.93944-.59677-.97546-1.177-.35967-2.05489q7.33021-10.44969,14.61164-20.93359c.86828-1.24555,1.75575-2.47861,2.59062-3.74624.57107-.86711,1.155-1.07949,2.06893-.42857,3.70966,2.642,7.48565,5.19229,11.16148,7.87993a9.62219,9.62219,0,0,1,4.13219,5.55522c.64233,2.7988-.57731,5.06961-2.022,7.27763A6.808,6.808,0,0,1,128.17319,230.74286Zm-20.37452,1.32241c3.09879,2.05842,6.034,4.13234,9.09731,5.99562,1.78594,1.08629,3.21681.64936,4.5418-.96307a13.89467,13.89467,0,0,0,.90642-1.26694c1.55462-2.39676,1.33214-3.93815-.94643-5.67224-1.87444-1.42651-3.81107-2.77372-5.75425-4.10635-.84536-.57975-.99292-1.15493-.357-1.97559.48849-.63035.91233-1.31137,1.35536-1.97623a1.20179,1.20179,0,0,1,1.99494-.34587c1.44665,1.06513,2.92581,2.09206,4.44127,3.05652,2.93348,1.8669,4.21446,1.54506,6.07031-1.42658.04234-.06778.07934-.13887.12-.20774,1.02849-1.743.96124-2.84528-.63571-4.09548-2.51054-1.96542-5.14433-3.77341-7.80182-5.70316Z"/><path class="cls-2" d="M147.51735,232.14013c-3.25815,4.67029-6.434,9.22221-9.60942,13.77446-1.82861,2.62147-3.69042,5.22077-5.46639,7.87744-.62932.94141-1.20642,1.00236-2.04849.35524a27.38039,27.38039,0,0,0-2.3606-1.64236c-.88692-.54372-.96058-1.09546-.35526-1.94826,2.49752-3.51861,4.94311-7.074,7.411-10.61373q4.90157-7.03041,9.80833-14.05724c.80236-1.1493,1.06905-1.19488,2.2051-.38586,4.2952,3.05878,8.62832,6.06631,12.86711,9.20137a9.878,9.878,0,0,1,4.101,5.8756c.55526,2.624-.4206,4.86775-1.88481,6.96069-1.59691,2.28262-3.44949,4.34081-6.39171,4.61693a26.52152,26.52152,0,0,1-4.96162-.46012l0,1.08083c0,4.39991.01534,8.8-.02126,13.19957-.00421.50514-.16112,1.24554-.4993,1.44122-.30485.1764-1.00123-.16585-1.44349-.4207-.72392-.41716-1.33173-1.05361-2.078-1.4105-1.532-.73272-1.8544-1.8977-1.8085-3.49943.12484-4.35669.067-8.71834.13041-13.0773a1.70127,1.70127,0,0,0-.87729-1.75689c-.8962-.5175-1.704-1.186-2.56527-1.76669a1.105,1.105,0,0,1-.28542-1.82064c.09734-.12688.20075-.24953.29185-.38074,2.26672-3.26427,1.51-2.98062,4.79224-.81093,1.66559,1.101,3.25985,2.315,4.96105,3.35587,2.43537,1.49,3.84006,1.17074,5.54723-1.09255a12.12356,12.12356,0,0,0,.81181-1.18553c1.069-1.83573.99287-3.11683-.65625-4.45387-2.22989-1.80789-4.61953-3.41929-6.94842-5.10424C149.34536,233.38576,148.48516,232.81093,147.51735,232.14013Z"/><path class="cls-2" d="M202.4822,270.291c-4.5518,6.52746-9.00675,12.9161-13.46179,19.30468-.5484.78641-1.14435,1.54448-1.63324,2.36627-.5331.89607-1.12059,1.02771-1.94987.405-.83032-.62347-1.674-1.23482-2.55258-1.78671-.80958-.50857-.82225-1.03461-.30217-1.77608,3.09742-4.41589,6.16847-8.85026,9.25306-13.27517q4.01-5.75238,8.03017-11.49764c.79453-1.13663,1.06077-1.179,2.20961-.361,4.29542,3.05847,8.62813,6.06654,12.86779,9.20049a9.92433,9.92433,0,0,1,4.0669,5.7655c.59186,2.6159-.34985,4.87269-1.80743,6.97636-1.61008,2.32377-3.47592,4.42339-6.46634,4.70514a26.03551,26.03551,0,0,1-4.94462-.46909l0,1.10389c-.00006,4.39995.01573,8.8-.02194,13.19965a5.4152,5.4152,0,0,1-.47288,1.50311,7.93146,7.93146,0,0,1-1.48372-.50951c-.68993-.3961-1.26724-1.00416-1.97715-1.34638-1.547-.74574-1.957-1.89246-1.90106-3.57182.14635-4.39556.07928-8.79792.13884-13.197a1.53174,1.53174,0,0,0-.79591-1.55939c-.89161-.52756-1.70328-1.18829-2.56829-1.76325a1.15327,1.15327,0,0,1-.36-1.90125c.52722-.7028,1.02239-1.43057,1.51132-2.161a1.03837,1.03837,0,0,1,1.70407-.29448c2.15919,1.51257,4.32606,3.01668,6.53548,4.45409,1.24375.80917,2.62592,1.67373,4.10938.6997a6.43821,6.43821,0,0,0,3.15346-4.72124,3.002,3.002,0,0,0-.8779-2.10338,29.4833,29.4833,0,0,0-3.53173-2.85255C206.85629,273.30858,204.71435,271.85073,202.4822,270.291Z"/><path class="cls-2" d="M177.05607,268.717l2.92743-11.85172-.238-.16619c-2.66532,1.74716-5.40457,3.39257-7.97963,5.26392-4.52184,3.28607-8.95852,6.69049-13.391,10.09726a1.29939,1.29939,0,0,1-1.8839.04725c-.78369-.61649-1.63158-1.15111-2.44829-1.726-1.18113-.83139-1.20565-1.26436-.02594-2.14506,3.009-2.24638,5.966-4.57254,9.07452-6.67342,5.68988-3.84555,11.48567-7.53409,17.20779-11.33253a1.92632,1.92632,0,0,1,2.74963.078,11.2083,11.2083,0,0,0,2.26075,1.56734,1.61426,1.61426,0,0,1,.82111,2.09434c-1.49544,6.37559-2.89209,12.77538-4.47166,19.12982-1.00109,4.0273-2.25215,7.99291-3.41286,11.97986-.44037,1.51263-.79943,1.62307-2.08879.739-.85649-.58731-1.692-1.20669-2.56568-1.767a1.41485,1.41485,0,0,1-.651-1.91152c.82414-2.418,1.524-4.87812,2.32682-7.30375a1.01753,1.01753,0,0,0-.49345-1.37364c-2.3459-1.59322-4.66413-3.22741-6.98336-4.85959-1.12379-.79088-1.12772-1.23467-.04457-2.10275.65463-.52464,1.36905-.98325,1.97539-1.55731a1.2842,1.2842,0,0,1,1.89979-.0268C173.3653,266.17279,175.14221,267.38352,177.05607,268.717Z"/><path class="cls-2" d="M111.67912,201.12622c-.20335.37509-.32659.66482-.50254.91791q-8.67836,12.48243-17.35951,24.96289a1.14351,1.14351,0,0,1-1.89631.30477c-.79715-.59872-1.62082-1.16448-2.45507-1.71079-.85817-.562-.90275-1.1462-.31259-1.987q6.94582-9.89612,13.8377-19.83008c1.11781-1.60384,2.27413-3.18248,3.34212-4.81879.60965-.93408,1.203-1.1617,2.12871-.428.81127.643,1.70852,1.17643,2.5408,1.79462A4.6782,4.6782,0,0,1,111.67912,201.12622Z"/></svg>