<?xml version="1.0" encoding="utf-8"?>
<!-- Generator: Adobe Illustrator 24.3.0, SVG Export Plug-In . SVG Version: 6.00 Build 0)  -->
<svg version="1.1" id="Layer_1" xmlns="http://www.w3.org/2000/svg" xmlns:xlink="http://www.w3.org/1999/xlink" x="0px" y="0px"
	 viewBox="0 0 254 75" style="enable-background:new 0 0 254 75;" xml:space="preserve">
<style type="text/css">
	.st0{fill:#FF6C00;}
</style>
<g>
	<path class="st0" d="M253.67,21.26c-1.98-0.14-3.95-0.27-5.93-0.4c-3.6-0.24-7.19-0.47-10.79-0.75c-2.12-0.17-4.23-0.37-6.34-0.66
		c-6.95-0.95-13.93-1.77-20.84-2.99c-7.83-1.38-15.62-3.02-23.39-4.74c-9.04-2.01-18-4.53-27.08-6.26
		c-7.99-1.53-16.08-2.49-24.16-3.31c-8.27-0.84-16.58-1.42-24.88-1.73c-9.34-0.35-18.68,0.15-27.99,1.08
		C75.76,2.15,69.2,2.56,62.72,3.55c-10.69,1.64-21.3,3.79-31.78,6.7c-9.68,2.7-19.25,5.8-28.55,9.88c-0.87,0.38-1.71,0.87-2.56,1.3
		c0.08,0.26,0.16,0.51,0.24,0.77c0.83-0.16,1.68-0.25,2.49-0.5c15.75-4.9,31.69-8.75,47.97-10.65c7.43-0.87,14.87-2.02,22.32-2.24
		C82.46,8.54,92.09,9,101.71,9.24c8.41,0.21,16.72,1.55,25.01,3.07c14.17,2.6,27.94,6.8,41.24,12.83
		c29.99,13.59,58.64,30.07,85.71,49.77V21.26z"/>
	<path class="st0" d="M544.96,181.49c4.28,1.47,8.58,2.88,12.86,4.34c0-1.45,0-2.9,0-4.34H544.96z"/>
</g>
</svg>
