<?xml version="1.0" encoding="utf-8"?>
<!-- Generator: Adobe Illustrator 24.3.0, SVG Export Plug-In . SVG Version: 6.00 Build 0)  -->
<svg version="1.1" id="Layer_1" xmlns="http://www.w3.org/2000/svg" xmlns:xlink="http://www.w3.org/1999/xlink" x="0px" y="0px"
	 viewBox="0 0 299 145" style="enable-background:new 0 0 299 145;" xml:space="preserve">
<style type="text/css">
	.st0{fill:#F77219;}
</style>
<path class="st0" d="M299-0.45c-23.94,10.24-49.12,16.46-75.52,18.62c-6.72,0.55-13.48,0.94-20.22,0.94c-9.35,0-18.7-0.39-28.04-0.7
	c-3.23-0.11-6.45-0.42-9.66-0.74c-4.96-0.49-9.91-1.04-14.85-1.62c-4.55-0.54-9.09-1.11-13.62-1.76c-4.96-0.71-9.9-1.56-14.86-2.31
	c-5.67-0.85-11.34-1.66-17.01-2.47c-6.07-0.87-12.13-1.76-18.21-2.57c-5.96-0.79-11.93-1.49-17.9-2.22
	c-5.85-0.71-11.7-1.46-17.56-2.1C45.76,2,39.96,1.51,34.17,0.88C27.3,0.13,20.73,0.19,13.85,0.91c-0.78,0.08-4.36,0.89-6.41,1.13
	c-1.68,0.2-2.17,0.45-2.06,0.84c0.24,0.88,0.27,0.73,1.1,0.69C7,3.55,8.3,3.4,8.81,3.33c2.21-0.33,3.57-0.45,5.78-0.51
	c5.07-0.15,10.16-0.38,15.2,0.01C35.93,3.3,42.08,4.1,48.13,5.26C61.1,7.76,73.63,11.8,85.92,16.6
	c26.41,10.31,51.24,23.71,75.13,38.9c18.02,11.46,35.25,24.04,52.5,36.61c15.08,10.99,30.15,21.99,45.93,31.98
	c12.7,8.04,25.78,15.31,39.52,21.28V-0.45z"/>
</svg>
