<?xml version="1.0" encoding="utf-8"?>
<!-- Generator: Adobe Illustrator 24.3.0, SVG Export Plug-In . SVG Version: 6.00 Build 0)  -->
<svg version="1.1" id="Layer_1" xmlns="http://www.w3.org/2000/svg" xmlns:xlink="http://www.w3.org/1999/xlink" x="0px" y="0px"
	 viewBox="0 0 395 248" style="enable-background:new 0 0 395 248;" xml:space="preserve">
<style type="text/css">
	.st0{fill:#F77219;}
</style>
<path class="st0" d="M395-0.47c-3.55,4.4-7.19,8.74-10.92,12.99c-11.04,12.59-22.79,24.46-35.65,35.21
	c-9.74,8.14-19.98,15.57-31.07,21.79c-30.96,17.36-64.12,27.55-99.5,30.44c-6.72,0.55-13.48,0.94-20.22,0.94
	c-9.35,0-18.7-0.39-28.04-0.7c-3.23-0.11-6.45-0.42-9.66-0.74c-4.96-0.49-9.91-1.04-14.85-1.62c-4.55-0.54-9.09-1.11-13.62-1.76
	c-4.96-0.71-9.9-1.56-14.86-2.31c-5.67-0.85-11.34-1.66-17.01-2.47c-6.07-0.87-12.13-1.76-18.21-2.57
	c-5.96-0.79-11.93-1.49-17.9-2.22c-5.85-0.71-11.7-1.46-17.56-2.1c-5.79-0.64-11.59-1.12-17.37-1.75
	c-6.87-0.75-13.44-0.69-20.32,0.03c-0.78,0.08-4.36,0.89-6.41,1.13c-1.68,0.2-2.17,0.45-2.06,0.84c0.24,0.88,0.27,0.73,1.1,0.69
	c0.52-0.03,1.81-0.17,2.32-0.25c2.21-0.33,3.57-0.45,5.78-0.51c5.07-0.15,10.16-0.38,15.2,0.01c6.14,0.48,12.29,1.28,18.33,2.44
	c12.97,2.49,25.5,6.53,37.79,11.33c26.41,10.31,51.24,23.71,75.13,38.9c18.02,11.46,35.25,24.04,52.5,36.61
	c15.08,10.99,30.15,21.99,45.93,31.98c16.97,10.74,34.63,20.12,53.6,26.85c11.31,4.01,22.86,7.08,34.71,9.01
	c5.18,0.85,10.35,1.76,15.53,2.56c4.13,0.64,8.27,1.21,12.41,1.71c4.03,0.49,8.07,0.91,12.12,1.26c4.24,0.37,8.49,0.75,12.75,0.89
	V-0.47z"/>
</svg>
