<?xml version="1.0" encoding="utf-8"?>
<!-- Generator: Adobe Illustrator 24.3.0, SVG Export Plug-In . SVG Version: 6.00 Build 0)  -->
<svg version="1.1" id="Layer_1" xmlns="http://www.w3.org/2000/svg" xmlns:xlink="http://www.w3.org/1999/xlink" x="0px" y="0px"
	 viewBox="0 0 142 154" style="enable-background:new 0 0 142 154;" xml:space="preserve">
<style type="text/css">
	.st0{fill:#FF6C00;}
</style>
<path class="st0" d="M0.37,153.48c0.07,0.1,0.14,0.21,0.21,0.31c0.44,0,0.87,0,1.31,0c13.6-0.06,27.2-0.12,40.79-0.19
	c16.04-0.08,32.08-0.16,48.11-0.24c16.48-0.09,32.95-0.19,49.43-0.24c1.25,0,1.52-0.4,1.52-1.58c0.05-32.2,0.14-64.39,0.2-96.59
	c0.04-17.84,0.04-35.68,0.06-53.52c0-0.41,0-0.82,0-1.23c-0.1-0.03-0.21-0.07-0.31-0.1C94.58,51.22,47.47,102.35,0.37,153.48z"/>
</svg>
