<svg xmlns="http://www.w3.org/2000/svg" xmlns:xlink="http://www.w3.org/1999/xlink" viewBox="0 0 2786.63736 2143.01702"><defs><style>.cls-1{fill:url(#linear-gradient);}.cls-2{fill:url(#linear-gradient-2);}.cls-3{fill:url(#linear-gradient-3);}.cls-4{fill:url(#linear-gradient-4);}.cls-5{fill:url(#linear-gradient-5);}.cls-6{fill:url(#linear-gradient-6);}.cls-7{fill:url(#linear-gradient-7);}.cls-8{isolation:isolate;}.cls-9{mix-blend-mode:screen;}.cls-10{fill:#c334f7;}.cls-11{fill:url(#linear-gradient-8);}.cls-12,.cls-13,.cls-14,.cls-15,.cls-16{fill:#7c1dc9;}.cls-12,.cls-13,.cls-14,.cls-15,.cls-16,.cls-17,.cls-18,.cls-19,.cls-20,.cls-35,.cls-43,.cls-54,.cls-59,.cls-64,.cls-69,.cls-74,.cls-85,.cls-86,.cls-87{mix-blend-mode:color-dodge;}.cls-12{opacity:0.8;}.cls-13{opacity:0.6;}.cls-14{opacity:0.4;}.cls-15{opacity:0.25;}.cls-16{opacity:0.15;}.cls-18{fill:url(#radial-gradient);}.cls-19{fill:url(#radial-gradient-2);}.cls-20{fill:url(#radial-gradient-3);}.cls-21{fill:url(#linear-gradient-9);}.cls-22{fill:url(#linear-gradient-10);}.cls-23{fill:url(#linear-gradient-11);}.cls-24{fill:url(#linear-gradient-12);}.cls-25{opacity:0.3;fill:url(#linear-gradient-13);}.cls-26{fill:url(#linear-gradient-14);}.cls-27{fill:none;stroke-linecap:round;stroke-linejoin:round;stroke-width:3px;stroke:url(#linear-gradient-15);}.cls-28{fill:url(#linear-gradient-16);}.cls-29{fill:url(#linear-gradient-17);}.cls-30{mask:url(#mask);}.cls-31{opacity:0.95;}.cls-32{fill:url(#linear-gradient-18);}.cls-33{fill:url(#linear-gradient-19);}.cls-34{fill:url(#linear-gradient-20);}.cls-35{fill:url(#Radial_Gradient_1);}.cls-36,.cls-44,.cls-78,.cls-79{opacity:0.5;}.cls-36{fill:url(#linear-gradient-21);}.cls-37{fill:url(#linear-gradient-22);}.cls-38{fill:url(#linear-gradient-23);}.cls-39{mask:url(#mask-2);}.cls-40{fill:url(#linear-gradient-24);}.cls-41{fill:url(#linear-gradient-25);}.cls-42{fill:url(#linear-gradient-26);}.cls-43{fill:url(#Radial_Gradient_1-2);}.cls-44{fill:url(#linear-gradient-27);}.cls-45,.cls-46,.cls-47,.cls-48,.cls-49{stroke:#ffb43c;stroke-miterlimit:10;}.cls-45{fill:url(#linear-gradient-28);}.cls-46{fill:url(#linear-gradient-29);}.cls-47{fill:url(#linear-gradient-30);}.cls-48{fill:url(#linear-gradient-31);}.cls-49{fill:url(#linear-gradient-32);}.cls-50{mask:url(#mask-3);}.cls-51{fill:url(#linear-gradient-33);}.cls-52{fill:url(#linear-gradient-34);}.cls-53{fill:url(#linear-gradient-35);}.cls-54{fill:url(#Radial_Gradient_1-3);}.cls-55{mask:url(#mask-4);}.cls-56{fill:url(#linear-gradient-36);}.cls-57{fill:url(#linear-gradient-37);}.cls-58{fill:url(#linear-gradient-38);}.cls-59{fill:url(#Radial_Gradient_1-4);}.cls-60{mask:url(#mask-5);}.cls-61{fill:url(#linear-gradient-39);}.Graphic-Style-4{fill:url(#linear-gradient-40);}.cls-62{fill:url(#linear-gradient-41);}.cls-63{fill:url(#linear-gradient-42);}.cls-64{fill:url(#Radial_Gradient_1-5);}.cls-65{mask:url(#mask-6);}.cls-66{fill:url(#linear-gradient-43);}.cls-67{fill:url(#linear-gradient-44);}.cls-68{fill:url(#linear-gradient-45);}.cls-69{fill:url(#Radial_Gradient_1-6);}.cls-70{mask:url(#mask-7);}.cls-71{fill:url(#linear-gradient-46);}.cls-72{fill:url(#linear-gradient-47);}.cls-73{fill:url(#linear-gradient-48);}.cls-74{fill:url(#Radial_Gradient_1-7);}.cls-75,.cls-76,.cls-77,.cls-82,.cls-83,.cls-84{fill-opacity:0.81;}.cls-75{fill:url(#linear-gradient-49);}.cls-76{fill:url(#linear-gradient-50);}.cls-77{fill:url(#linear-gradient-51);}.cls-78{fill:url(#linear-gradient-52);}.cls-79{fill:url(#linear-gradient-53);}.cls-80{fill:url(#linear-gradient-54);}.cls-81{fill:url(#linear-gradient-55);}.cls-82{fill:url(#linear-gradient-56);}.cls-83{fill:url(#linear-gradient-57);}.cls-84{fill:url(#linear-gradient-58);}.cls-85{fill:url(#radial-gradient-4);}.cls-86{fill:url(#radial-gradient-5);}.cls-87{fill:url(#radial-gradient-6);}</style><linearGradient id="linear-gradient" x1="14381.85104" y1="-859.19544" x2="14381.85104" y2="-1829.67839" gradientTransform="translate(-13041.75153 2847.84534)" gradientUnits="userSpaceOnUse"><stop offset="0.56061" stop-color="#fff"/><stop offset="0.6076" stop-color="#f5f4f5"/><stop offset="0.68899" stop-color="#d8d8d9"/><stop offset="0.79505" stop-color="#abaaab"/><stop offset="0.92024" stop-color="#6c6c6d"/><stop offset="1" stop-color="#414042"/></linearGradient><linearGradient id="linear-gradient-2" x1="14207.78886" y1="-706.05306" x2="14207.78886" y2="-1676.536" gradientTransform="translate(-12693.62717 2541.56057)" xlink:href="#linear-gradient"/><linearGradient id="linear-gradient-3" x1="13375.68339" y1="-374.41537" x2="13375.68339" y2="-1344.89832" gradientTransform="translate(-11029.41622 1878.2852)" xlink:href="#linear-gradient"/><linearGradient id="linear-gradient-4" x1="13548.40935" y1="-473.81381" x2="13548.40935" y2="-1444.29675" gradientTransform="translate(-11374.86815 2077.08208)" xlink:href="#linear-gradient"/><linearGradient id="linear-gradient-5" x1="13703.45548" y1="-342.60447" x2="13703.45548" y2="-1559.9299" gradientTransform="translate(-11684.96041 2066.12559)" xlink:href="#linear-gradient"/><linearGradient id="linear-gradient-6" x1="13887.34356" y1="-569.08267" x2="13887.34356" y2="-1632.70544" gradientTransform="translate(-12052.73657 2362.50275)" xlink:href="#linear-gradient"/><linearGradient id="linear-gradient-7" x1="14060.07007" y1="-767.12286" x2="14060.07007" y2="-1737.6058" gradientTransform="translate(-12398.18958 2663.70017)" xlink:href="#linear-gradient"/><linearGradient id="linear-gradient-8" x1="291.29946" y1="2052.1785" x2="291.29946" y2="1364.91699" gradientUnits="userSpaceOnUse"><stop offset="0.03535" stop-color="#43e8e1"/><stop offset="0.09666" stop-color="#47d9df"/><stop offset="0.21554" stop-color="#53b0da"/><stop offset="0.38006" stop-color="#656fd3"/><stop offset="0.56566" stop-color="#7c1dc9"/><stop offset="0.98485" stop-color="#ad00bd"/></linearGradient><radialGradient id="radial-gradient" cx="6206.02464" cy="-3411.10574" r="74.95792" gradientTransform="matrix(0.0456, 0.99894, 0.99894, -0.0456, 5788.66952, -5071.87009)" gradientUnits="userSpaceOnUse"><stop offset="0.08586" stop-color="#fff"/><stop offset="0.09787" stop-color="#fff" stop-opacity="0.84909"/><stop offset="0.11752" stop-color="#fff" stop-opacity="0.62691"/><stop offset="0.13725" stop-color="#fff" stop-opacity="0.43514"/><stop offset="0.15661" stop-color="#fff" stop-opacity="0.27856"/><stop offset="0.17553" stop-color="#fff" stop-opacity="0.15687"/><stop offset="0.19388" stop-color="#fff" stop-opacity="0.06999"/><stop offset="0.21142" stop-color="#fff" stop-opacity="0.01774"/><stop offset="0.22727" stop-color="#fff" stop-opacity="0"/></radialGradient><radialGradient id="radial-gradient-2" cx="6154.18942" cy="-3443.55321" r="56.76911" gradientTransform="matrix(0.4727, 0.8812, 0.8812, -0.4727, 2736.4257, -5798.07631)" xlink:href="#radial-gradient"/><radialGradient id="radial-gradient-3" cx="6112.14658" cy="-3469.03282" r="42.57686" gradientTransform="matrix(0.4727, 0.8812, 0.8812, -0.4727, 2736.4257, -5798.07631)" xlink:href="#radial-gradient"/><linearGradient id="linear-gradient-9" x1="2321.28819" y1="2389.94393" x2="539.17534" y2="800.72694" gradientUnits="userSpaceOnUse"><stop offset="0" stop-color="#f60"/><stop offset="1" stop-color="#f90"/></linearGradient><linearGradient id="linear-gradient-10" x1="96.08427" y1="-2355.76574" x2="648.77601" y2="-453.05362" gradientTransform="matrix(0.8638, -0.5038, 0.0051, 1.1547, 580.91595, 2319.92856)" gradientUnits="userSpaceOnUse"><stop offset="0" stop-color="#6318ff"/><stop offset="1" stop-color="#13ffe2"/></linearGradient><linearGradient id="linear-gradient-11" x1="594.69128" y1="1081.73361" x2="1643.81589" y2="1081.73361" gradientUnits="userSpaceOnUse"><stop offset="0.00378" stop-color="#eda221"/><stop offset="0.25538" stop-color="#ed9e1e"/><stop offset="0.52792" stop-color="#eb9117"/><stop offset="0.80927" stop-color="#e97b0b"/><stop offset="1" stop-color="#e76800"/></linearGradient><linearGradient id="linear-gradient-12" x1="154.5209" y1="-2154.59015" x2="707.21264" y2="-251.87802" gradientTransform="matrix(0.8638, -0.5038, 0.0051, 1.1547, 580.91595, 2319.92856)" gradientUnits="userSpaceOnUse"><stop offset="0.42574" stop-color="#3c0099"/><stop offset="0.66259" stop-color="#ac00ff" stop-opacity="0.9"/></linearGradient><linearGradient id="linear-gradient-13" x1="255.21474" y1="-2216.54969" x2="807.90623" y2="-313.83845" xlink:href="#linear-gradient-10"/><linearGradient id="linear-gradient-14" x1="689.55005" y1="1138.68037" x2="1794.15197" y2="1138.68037" gradientUnits="userSpaceOnUse"><stop offset="0" stop-color="#2d008b"/><stop offset="1" stop-color="#9d00ff"/></linearGradient><linearGradient id="linear-gradient-15" x1="-2885.1557" y1="1777.66209" x2="-1980.97596" y2="1777.66209" gradientTransform="matrix(0.8866, -0.46254, 0.47822, 0.87842, 2495.0716, -1741.64361)" xlink:href="#linear-gradient-11"/><linearGradient id="linear-gradient-16" x1="2600.51933" y1="1250.28294" x2="2600.51933" y2="1589.60785" xlink:href="#linear-gradient-8"/><linearGradient id="linear-gradient-17" x1="1019.49362" y1="841.52578" x2="1215.45259" y2="841.52578" xlink:href="#linear-gradient-11"/><mask id="mask" x="1168.58456" y="960.8502" width="343.0299" height="1066.9537" maskUnits="userSpaceOnUse"><rect class="cls-1" x="1168.58456" y="960.8502" width="343.0299" height="1066.9537" transform="translate(2680.19902 2988.6541) rotate(180)"/></mask><linearGradient id="linear-gradient-18" x1="1406.37197" y1="1308.66911" x2="1326.2516" y2="1447.44166" gradientUnits="userSpaceOnUse"><stop offset="0" stop-color="#5513ab"/><stop offset="1" stop-color="#be3bff"/></linearGradient><linearGradient id="linear-gradient-19" x1="1364.02081" y1="1651.06717" x2="1957.58418" y2="1605.54846" xlink:href="#linear-gradient-18"/><linearGradient id="linear-gradient-20" x1="1135.78924" y1="1619.80278" x2="1462.08392" y2="1674.46995" xlink:href="#linear-gradient-18"/><radialGradient id="Radial_Gradient_1" cx="1273.60093" cy="1522.50016" r="190.96815" gradientUnits="userSpaceOnUse"><stop offset="0" stop-color="#fff"/><stop offset="1"/></radialGradient><linearGradient id="linear-gradient-21" x1="7050.04779" y1="-6097.66462" x2="7050.88405" y2="-6298.45941" gradientTransform="matrix(-0.99996, -0.00866, 0.0044, -0.50765, 8431.20742, -1141.8811)" gradientUnits="userSpaceOnUse"><stop offset="0.04662" stop-color="#1f1357"/><stop offset="0.50116" stop-color="#be3bff"/></linearGradient><linearGradient id="linear-gradient-22" x1="1342.47352" y1="251.14694" x2="1401.72012" y2="238.55368" gradientTransform="matrix(1, 0, -0.00001, 1.8754, -18.94132, 732.0409)" xlink:href="#linear-gradient-18"/><linearGradient id="linear-gradient-23" x1="1518.14014" y1="3904.21004" x2="1577.15076" y2="3891.66694" gradientTransform="translate(-21.16071 -417.33268) scale(1 0.47872)" xlink:href="#linear-gradient-18"/><mask id="mask-2" x="1342.6462" y="807.70782" width="343.03099" height="1066.9537" maskUnits="userSpaceOnUse"><rect class="cls-2" x="1342.6462" y="807.70782" width="343.03099" height="1066.9537" transform="translate(3028.32338 2682.36933) rotate(180)"/></mask><linearGradient id="linear-gradient-24" x1="1580.43456" y1="1416.11455" x2="1500.31295" y2="1554.88923" xlink:href="#linear-gradient-18"/><linearGradient id="linear-gradient-25" x1="1544.1876" y1="1615.6392" x2="2040.96437" y2="1577.54278" xlink:href="#linear-gradient-18"/><linearGradient id="linear-gradient-26" x1="1355.12199" y1="1592.37763" x2="1594.40749" y2="1632.46734" xlink:href="#linear-gradient-18"/><radialGradient id="Radial_Gradient_1-2" cx="1447.66363" cy="1558.36192" r="109.84291" xlink:href="#Radial_Gradient_1"/><linearGradient id="linear-gradient-27" x1="6877.8929" y1="-5738.6839" x2="6878.34973" y2="-5848.37244" gradientTransform="matrix(-0.99996, -0.00866, 0.0044, -0.50765, 8431.20742, -1141.8811)" gradientUnits="userSpaceOnUse"><stop offset="0.02335" stop-color="#1f1357"/><stop offset="0.58855" stop-color="#be3bff"/></linearGradient><linearGradient id="linear-gradient-28" x1="799.31595" y1="625.58164" x2="834.83155" y2="625.58164" xlink:href="#linear-gradient-18"/><linearGradient id="linear-gradient-29" x1="934.92914" y1="1439.16257" x2="968.01094" y2="1439.16257" xlink:href="#linear-gradient-18"/><linearGradient id="linear-gradient-30" x1="1199.58358" y1="890.94979" x2="1232.66539" y2="890.94979" xlink:href="#linear-gradient-18"/><linearGradient id="linear-gradient-31" x1="1450.06011" y1="1198.13798" x2="1483.14192" y2="1198.13798" xlink:href="#linear-gradient-18"/><linearGradient id="linear-gradient-32" x1="1672.18081" y1="954.75041" x2="1700.53664" y2="954.75041" xlink:href="#linear-gradient-18"/><mask id="mask-3" x="2174.75221" y="476.07013" width="343.0299" height="1066.9537" maskUnits="userSpaceOnUse"><rect class="cls-3" x="2174.75221" y="476.07013" width="343.0299" height="1066.9537" transform="translate(4692.53433 2019.09396) rotate(180)"/></mask><linearGradient id="linear-gradient-33" x1="2412.53933" y1="873.78981" x2="2332.41818" y2="1012.56372" xlink:href="#linear-gradient-18"/><linearGradient id="linear-gradient-34" x1="2370.81063" y1="1201.62295" x2="2954.50204" y2="1156.86129" xlink:href="#linear-gradient-18"/><linearGradient id="linear-gradient-35" x1="2146.66569" y1="1170.89534" x2="2463.91015" y2="1224.04624" xlink:href="#linear-gradient-18"/><radialGradient id="Radial_Gradient_1-3" cx="2279.7685" cy="1079.9738" r="181.23108" xlink:href="#Radial_Gradient_1"/><mask id="mask-4" x="2002.02625" y="575.46857" width="343.0299" height="1066.9537" maskUnits="userSpaceOnUse"><rect class="cls-4" x="2002.02625" y="575.46857" width="343.0299" height="1066.9537" transform="translate(4347.08239 2217.89083) rotate(180)"/></mask><linearGradient id="linear-gradient-36" x1="2239.81324" y1="710.84091" x2="2159.69242" y2="849.61424" xlink:href="#linear-gradient-18"/><linearGradient id="linear-gradient-37" x1="2196.41532" y1="1077.74073" x2="2806.57204" y2="1030.94952" xlink:href="#linear-gradient-18"/><linearGradient id="linear-gradient-38" x1="1961.4864" y1="1045.04858" x2="2302.66593" y2="1102.20955" xlink:href="#linear-gradient-18"/><radialGradient id="Radial_Gradient_1-4" cx="2107.04254" cy="937.62903" r="207.70791" xlink:href="#Radial_Gradient_1"/><mask id="mask-5" x="1890.50468" y="434.30041" width="255.98079" height="1338.33353" maskUnits="userSpaceOnUse"><rect class="cls-5" x="1890.50468" y="434.30041" width="255.98079" height="1338.33353" transform="translate(4036.99014 2206.93434) rotate(180)"/></mask><linearGradient id="linear-gradient-39" x1="1992.69123" y1="548.99163" x2="2378.68481" y2="87.24204" xlink:href="#linear-gradient-11"/><linearGradient id="linear-gradient-40" x1="2064.16515" y1="351.63768" x2="2064.16515" y2="1955.01434" gradientUnits="userSpaceOnUse"><stop offset="0.00505" stop-color="#ffe4a7"/><stop offset="0.09979" stop-color="#fac098"/><stop offset="0.20202" stop-color="#f49587"/><stop offset="0.46383" stop-color="#a142b5"/><stop offset="0.59596" stop-color="#7c1dc9"/><stop offset="0.6916" stop-color="#741bc0"/><stop offset="0.84631" stop-color="#5f16a8"/><stop offset="1" stop-color="#45108a"/></linearGradient><linearGradient id="linear-gradient-41" x1="2014.50877" y1="1021.21932" x2="2131.40595" y2="1009.04253" xlink:href="#linear-gradient-11"/><linearGradient id="linear-gradient-42" x1="1968.2629" y1="454.07296" x2="1968.2629" y2="1903.0294" xlink:href="#linear-gradient-11"/><radialGradient id="Radial_Gradient_1-5" cx="1936.30462" cy="765.97753" r="356.06857" xlink:href="#Radial_Gradient_1"/><mask id="mask-6" x="1663.0915" y="666.97972" width="343.03099" height="1169.35207" maskUnits="userSpaceOnUse"><rect class="cls-6" x="1663.0915" y="666.97972" width="343.03099" height="1169.35207" transform="translate(3669.21398 2503.31151) rotate(180)"/></mask><linearGradient id="linear-gradient-43" x1="1752.11027" y1="777.92663" x2="1943.85101" y2="777.92663" xlink:href="#linear-gradient-11"/><linearGradient id="linear-gradient-44" x1="1848.0019" y1="1275.03071" x2="2608.43409" y2="1216.71529" xlink:href="#linear-gradient-11"/><linearGradient id="linear-gradient-45" x1="1552.29256" y1="1229.84038" x2="2028.50997" y2="1309.62549" xlink:href="#linear-gradient-11"/><radialGradient id="Radial_Gradient_1-6" cx="1768.10895" cy="1021.08685" r="353.42423" xlink:href="#Radial_Gradient_1"/><mask id="mask-7" x="1490.36553" y="868.77762" width="343.0299" height="1066.9537" maskUnits="userSpaceOnUse"><rect class="cls-7" x="1490.36553" y="868.77762" width="343.0299" height="1066.9537" transform="translate(3323.76097 2804.50893) rotate(180)"/></mask><linearGradient id="linear-gradient-46" x1="1728.15294" y1="1080.58086" x2="1648.03257" y2="1219.35341" xlink:href="#linear-gradient-11"/><linearGradient id="linear-gradient-47" x1="1685.32832" y1="1434.05885" x2="2286.39751" y2="1387.96453" xlink:href="#linear-gradient-11"/><linearGradient id="linear-gradient-48" x1="1454.07668" y1="1402.12287" x2="1787.08587" y2="1457.91498" xlink:href="#linear-gradient-11"/><radialGradient id="Radial_Gradient_1-7" cx="1595.38191" cy="1300.12878" r="198.31982" xlink:href="#Radial_Gradient_1"/><linearGradient id="linear-gradient-49" x1="6729.17813" y1="-5971.32643" x2="6731.25994" y2="-5743.20789" gradientTransform="matrix(-0.99996, -0.00866, 0.0044, -0.50765, 8431.20742, -1141.8811)" gradientUnits="userSpaceOnUse"><stop offset="0.05421" stop-color="#ffe4a7"/><stop offset="0.50914" stop-color="#fac098"/><stop offset="1" stop-color="#f49587"/></linearGradient><linearGradient id="linear-gradient-50" x1="6560.38915" y1="-6069.40097" x2="6555.44477" y2="-5877.61224" xlink:href="#linear-gradient-49"/><linearGradient id="linear-gradient-51" x1="6391.19747" y1="-5539.79293" x2="6391.97797" y2="-5311.66563" xlink:href="#linear-gradient-49"/><linearGradient id="linear-gradient-52" x1="6221.20915" y1="-5002.1894" x2="6222.72839" y2="-5366.97542" gradientTransform="matrix(-0.99996, -0.00866, 0.0044, -0.50765, 8431.20742, -1141.8811)" gradientUnits="userSpaceOnUse"><stop offset="0.05452" stop-color="#1f1357"/><stop offset="0.28494" stop-color="#be3bff"/></linearGradient><linearGradient id="linear-gradient-53" x1="6048.2491" y1="-5165.8861" x2="6049.00947" y2="-5348.45963" gradientTransform="matrix(-0.99996, -0.00866, 0.0044, -0.50765, 8431.20742, -1141.8811)" gradientUnits="userSpaceOnUse"><stop offset="0" stop-color="#1f1357"/><stop offset="0.35046" stop-color="#be3bff"/></linearGradient><linearGradient id="linear-gradient-54" x1="2347.13167" y1="872.42505" x2="2406.29742" y2="859.84898" gradientTransform="translate(-15.94233 -17.14493)" xlink:href="#linear-gradient-18"/><linearGradient id="linear-gradient-55" x1="2172.01137" y1="1393.66478" x2="2231.1192" y2="1381.10102" gradientTransform="translate(-14.87107 -287.24939) scale(1 0.72925)" xlink:href="#linear-gradient-18"/><linearGradient id="linear-gradient-56" x1="2005.7295" y1="1984.92698" x2="2053.64152" y2="1992.41714" gradientTransform="translate(-12.57883 -535.44063) scale(1 0.50009)" xlink:href="#linear-gradient-49"/><linearGradient id="linear-gradient-57" x1="1833.47691" y1="698.32597" x2="1892.64266" y2="685.7499" gradientTransform="translate(-14.41601 -21.58497)" xlink:href="#linear-gradient-49"/><linearGradient id="linear-gradient-58" x1="1663.01835" y1="1089.78563" x2="1722.1841" y2="1077.20956" gradientTransform="translate(-17.79442 -23.08498)" xlink:href="#linear-gradient-49"/><radialGradient id="radial-gradient-4" cx="19329.61713" cy="-1448.34948" r="74.95781" gradientTransform="matrix(0.88094, -0.47319, -0.47319, -0.88094, -16382.25627, 8339.07056)" xlink:href="#radial-gradient"/><radialGradient id="radial-gradient-5" cx="19277.78203" cy="-1480.79684" r="56.76911" gradientTransform="matrix(0.81233, -0.58316, -0.58316, -0.81233, -15215.4356, 10564.0871)" xlink:href="#radial-gradient"/><radialGradient id="radial-gradient-6" cx="19235.7396" cy="-1506.27656" r="42.5767" gradientTransform="matrix(0.81233, -0.58316, -0.58316, -0.81233, -15215.4356, 10564.0871)" xlink:href="#radial-gradient"/></defs><g class="cls-8"><g id="Layer_1" data-name="Layer 1"><g class="cls-9"><path class="cls-10" d="M1877.79316,1083.59065a5.33835,5.33835,0,0,1-2.75328-.7608l-9.30609-5.51721a5.407,5.407,0,1,1,5.51721-9.30068l9.305,5.51721a5.40831,5.40831,0,0,1-2.76284,10.06148Z"/><path class="cls-10" d="M1973.84525,1140.54514a5.3559,5.3559,0,0,1-2.75752-.76081l-19.2139-11.39371a5.40625,5.40625,0,0,1,5.51613-9.2996l19.2139,11.39263a5.41008,5.41008,0,0,1-2.75861,10.06149Zm-48.02392-28.47237a5.34573,5.34573,0,0,1-2.75752-.76081l-19.2139-11.39263a5.40672,5.40672,0,1,1,5.51612-9.30068l19.2139,11.39263a5.41007,5.41007,0,0,1-2.7586,10.06149Z"/><path class="cls-10" d="M2011.96678,1163.15183a5.35308,5.35308,0,0,1-2.75851-.76189l-9.31051-5.51613a5.40671,5.40671,0,0,1,5.51612-9.30067l9.31151,5.5172a5.41029,5.41029,0,0,1-2.75861,10.06149Z"/><path class="cls-10" d="M1645.63962,1216.96875a5.33823,5.33823,0,0,1-2.75327-.76081l-9.30609-5.5172a5.407,5.407,0,1,1,5.51721-9.30068l9.305,5.51721a5.40831,5.40831,0,0,1-2.76285,10.06148Z"/><path class="cls-10" d="M1741.6892,1273.92324a5.35615,5.35615,0,0,1-2.7568-.76081l-19.213-11.39191a5.40637,5.40637,0,1,1,5.51631-9.29977l19.213,11.391a5.40984,5.40984,0,0,1-2.7595,10.06149Zm-48.023-28.47238a5.34367,5.34367,0,0,1-2.7568-.7608l-19.213-11.39263a5.40672,5.40672,0,1,1,5.51612-9.30068l19.213,11.39263a5.40977,5.40977,0,0,1-2.75933,10.06148Z"/><path class="cls-10" d="M1779.81145,1296.52975a5.35218,5.35218,0,0,1-2.75762-.76171l-9.3105-5.51613a5.40676,5.40676,0,1,1,5.5163-9.30068l9.31132,5.51721a5.40985,5.40985,0,0,1-2.7595,10.06131Z"/><path class="cls-10" d="M1413.48608,1350.34685a5.33826,5.33826,0,0,1-2.75325-.76081l-9.30609-5.51721a5.407,5.407,0,1,1,5.51722-9.30068l9.305,5.51721a5.40832,5.40832,0,0,1-2.76287,10.06149Z"/><path class="cls-10" d="M1509.53315,1407.30133a5.3565,5.3565,0,0,1-2.75608-.76081l-19.21209-11.3901a5.4065,5.4065,0,1,1,5.5165-9.3l19.21208,11.38938a5.4096,5.4096,0,0,1-2.76041,10.06149ZM1461.511,1378.829a5.3416,5.3416,0,0,1-2.75608-.76081l-19.21209-11.39263a5.40672,5.40672,0,1,1,5.51612-9.30068l19.21209,11.39263a5.40949,5.40949,0,0,1-2.76,10.06149Z"/><path class="cls-10" d="M1547.65612,1429.90766a5.351,5.351,0,0,1-2.75671-.76153l-9.3105-5.51612a5.40681,5.40681,0,1,1,5.51648-9.30068l9.31114,5.5172a5.40943,5.40943,0,0,1-2.76041,10.06113Z"/><path class="cls-10" d="M1181.33254,1483.72494a5.33809,5.33809,0,0,1-2.75323-.76081l-9.30609-5.5172a5.407,5.407,0,1,1,5.51723-9.30068l9.305,5.5172a5.40832,5.40832,0,0,1-2.76289,10.06149Z"/><path class="cls-10" d="M1277.37711,1540.67942a5.35684,5.35684,0,0,1-2.75536-.7608l-19.21119-11.3883a5.40663,5.40663,0,1,1,5.51669-9.30014l19.21116,11.38776a5.40936,5.40936,0,0,1-2.7613,10.06148Zm-48.02123-28.47237a5.33947,5.33947,0,0,1-2.75535-.76081l-19.2112-11.39262a5.40672,5.40672,0,1,1,5.51613-9.30068l19.21119,11.39262a5.40919,5.40919,0,0,1-2.76077,10.06149Z"/><path class="cls-10" d="M1315.5008,1563.28557a5.35006,5.35006,0,0,1-2.75582-.76135l-9.3105-5.51612a5.40685,5.40685,0,1,1,5.51667-9.30068l9.311,5.51721a5.409,5.409,0,0,1-2.76131,10.06094Z"/><path class="cls-10" d="M949.179,1617.103a5.33814,5.33814,0,0,1-2.75322-.7608l-9.30609-5.51721a5.407,5.407,0,1,1,5.51724-9.30068l9.305,5.51721a5.40831,5.40831,0,0,1-2.7629,10.06148Z"/><path class="cls-10" d="M1045.22106,1674.05752a5.35706,5.35706,0,0,1-2.75463-.76081l-19.2103-11.3865a5.40675,5.40675,0,1,1,5.51689-9.30031l19.21025,11.38613a5.40914,5.40914,0,0,1-2.76221,10.06149Zm-48.02032-28.47238a5.33737,5.33737,0,0,1-2.75463-.7608l-19.2103-11.39263a5.40672,5.40672,0,1,1,5.51613-9.30068l19.21029,11.39263a5.40889,5.40889,0,0,1-2.76149,10.06148Z"/><path class="cls-10" d="M1083.34547,1696.66348a5.34914,5.34914,0,0,1-2.75492-.76116l-9.31049-5.51613a5.4069,5.4069,0,1,1,5.51684-9.30068l9.31078,5.51721a5.40857,5.40857,0,0,1-2.76221,10.06076Z"/><path class="cls-10" d="M717.02547,1750.48113a5.33809,5.33809,0,0,1-2.7532-.76081l-9.30609-5.51721a5.407,5.407,0,1,1,5.51725-9.30068l9.305,5.51721a5.40832,5.40832,0,0,1-2.76292,10.06149Z"/><path class="cls-10" d="M813.065,1807.43561a5.35742,5.35742,0,0,1-2.75391-.76081l-19.20939-11.38469a5.40688,5.40688,0,1,1,5.51707-9.3005l19.20935,11.38451a5.4089,5.4089,0,0,1-2.76312,10.06149Zm-48.01941-28.47237a5.33536,5.33536,0,0,1-2.75392-.76081l-19.20939-11.39263a5.40672,5.40672,0,1,1,5.51613-9.30068l19.20939,11.39263a5.40861,5.40861,0,0,1-2.76221,10.06149Z"/><path class="cls-10" d="M851.19015,1830.0414a5.34811,5.34811,0,0,1-2.754-.761l-9.31048-5.51612a5.40695,5.40695,0,1,1,5.517-9.30068l9.3106,5.5172a5.40815,5.40815,0,0,1-2.76311,10.06059Z"/><path class="cls-10" d="M484.87193,1883.85922a5.3381,5.3381,0,0,1-2.7532-.7608l-9.30609-5.51721a5.407,5.407,0,1,1,5.51726-9.30068l9.305,5.51721a5.40831,5.40831,0,0,1-2.76293,10.06148Z"/><path class="cls-10" d="M580.909,1940.81371a5.35767,5.35767,0,0,1-2.75319-.76081L558.94728,1928.67a5.407,5.407,0,1,1,5.51726-9.30068l19.20843,11.38289a5.40866,5.40866,0,0,1-2.764,10.06149Zm-48.01852-28.47237a5.33326,5.33326,0,0,1-2.75319-.76081l-19.20849-11.39263a5.40672,5.40672,0,1,1,5.51612-9.30068l19.20849,11.39263a5.40832,5.40832,0,0,1-2.76293,10.06149Z"/><path class="cls-10" d="M619.03481,1963.41932a5.34712,5.34712,0,0,1-2.75313-.76081l-9.31048-5.51612a5.407,5.407,0,1,1,5.51721-9.30068l9.31042,5.5172a5.40773,5.40773,0,0,1-2.764,10.06041Z"/></g><g class="cls-9"><path class="cls-10" d="M2047.742,1190.76707q31.41982-18.136,57.17634-3.25534a38.31983,38.31983,0,0,1,6.23472,4.31268l-7.17518,4.14278a26.53891,26.53891,0,0,0-5.686-4.20663,33.55184,33.55184,0,0,0-17.6187-4.84081c-5.98148.10606-12.48135,2.02918-19.50934,5.81373l.44371.25325a28.4298,28.4298,0,0,1,9.45868.14826,28.1221,28.1221,0,0,1,8.99441,3.31812c4.89286,2.83219,7.20765,5.8765,6.95441,9.17405-.25423,3.29648-2.93816,6.40464-8.03231,9.36345a36.26994,36.26994,0,0,1-18.02994,4.94579,34.26913,34.26913,0,0,1-17.80808-4.62869c-3.85815-2.24022-6.28884-4.69255-7.30279-7.41977q-1.49037-4.05836,1.49013-8.43381Q2040.31254,1195.07922,2047.742,1190.76707Zm2.356,20.35566a17.39894,17.39894,0,0,0,9.72383,2.30406,23.25583,23.25583,0,0,0,10.58962-3.3192c3.07569-1.77485,4.72393-3.593,4.97825-5.49556.24242-1.88091-1.14175-3.69906-4.16442-5.43171a20.43274,20.43274,0,0,0-6.34078-2.30406,22.88284,22.88284,0,0,0-6.98678-.25433,14.76244,14.76244,0,0,0-5.59089,1.64932q-5.1671,2.98047-5.88624,6.63731Q2045.7226,1208.58544,2050.09805,1211.12273Z"/><path class="cls-10" d="M2133.00981,1235.43068q-13.93479,8.05341-25.22785,9.36345a32.58305,32.58305,0,0,1-20.56659-4.05836q-9.00484-5.16873-6.64715-11.9002,2.362-6.72227,15.85249-14.52135,14.17342-8.18,25.4075-9.44894a32.67307,32.67307,0,0,1,20.48227,4.05836c6.02369,3.488,8.23252,7.462,6.63623,11.964Q2146.55391,1227.60994,2133.00981,1235.43068Zm-27.81655-16.044q-10.93971,6.30993-13.359,10.33637c-1.606,2.66337-.77163,4.96743,2.5573,6.87q4.96257,2.88469,12.02682,1.45885,7.07142-1.42692,17.86111-7.65244,10.78063-6.21417,13.27463-10.31473,2.521-4.12167-2.45234-6.99662c-3.32893-1.90256-7.30278-2.38848-11.963-1.4372Q2116.147,1213.04531,2105.19326,1219.38663Z"/><path class="cls-10" d="M1845.04589,1328.75132q8.133,4.69308,8.61356,9.91322.443,5.19957-6.93285,9.49115a34.69459,34.69459,0,0,1-18.79175,4.60813,42.89372,42.89372,0,0,1-20.14362-6.08754c-6.02369-3.46746-9.7866-6.76393-11.28765-9.85045l7.78989-4.50207a18.67166,18.67166,0,0,0,4.25866,5.45335,33.5323,33.5323,0,0,0,6.2671,4.6709,25.42788,25.42788,0,0,0,11.52033,3.65686,19.07778,19.07778,0,0,0,10.66321-2.64173q9.59072-5.51774-2.7164-12.64044a45.44773,45.44773,0,0,0-4.61787-2.26185c-1.934-.84523-3.6785-1.56383-5.24232-2.13416l-1.606-3.53023,28.20723-13.90882,27.99619,16.17068-7.65136,4.41766-20.3654-11.77358-14.47905,6.95441c1.00313.42207,2.22939.92963,3.6665,1.52161A46.03479,46.03479,0,0,1,1845.04589,1328.75132Z"/><path class="cls-10" d="M1901.55666,1369.06q-13.951,8.05341-25.22784,9.36453a32.59757,32.59757,0,0,1-20.56669-4.05836q-9.0047-5.16873-6.64705-11.90127,2.34573-6.72065,15.85249-14.52136,14.17179-8.18,25.4075-9.44786a32.66838,32.66838,0,0,1,20.48119,4.05836c6.014,3.488,8.2336,7.462,6.63731,11.96405Q1915.1009,1361.23877,1901.55666,1369.06Zm-27.81762-16.043q-10.93809,6.30995-13.358,10.33638c-1.60711,2.66336-.77163,4.96743,2.55731,6.86891q4.96257,2.8863,12.02682,1.45884,7.05506-1.42692,17.86111-7.65136,10.76439-6.21415,13.27462-10.31473,2.5212-4.12329-2.45233-6.99661c-3.32893-1.90256-7.30288-2.38848-11.964-1.4372Q1884.69459,1346.67574,1873.739,1353.01706Z"/><path class="cls-10" d="M1611.98564,1486.562l-7.24977-4.185-11.67842,6.74337-8.44463-4.883,11.67833-6.74228-24.6034-14.20426,6.62649-3.82677,59.96633-6.21416,8.44463,4.883-34.85536,20.123,7.24986,4.185Zm-8.56043-13.18913,13.44345-7.75742q7.16544-4.12167,12.122-6.57346l-.29545-.16991a86.47159,86.47159,0,0,1-9.10038,1.5227l-32.70938,3.42417Z"/><path class="cls-10" d="M1670.10252,1502.69047q-13.94952,8.05341-25.23758,9.36345a32.61244,32.61244,0,0,1-20.56677-4.05836q-9.0047-5.16711-6.64706-11.9002,2.362-6.72227,15.86332-14.52135,14.17179-8.18,25.39668-9.44786a32.67352,32.67352,0,0,1,20.492,4.05836c6.014,3.48694,8.22278,7.46089,6.63731,11.963Q1683.63139,1494.86973,1670.10252,1502.69047Zm-27.81662-16.043q-10.95432,6.30831-13.358,10.33529c-1.61793,2.66337-.78245,4.96743,2.55731,6.87q4.94633,2.88468,12.0269,1.45885,7.05492-1.42692,17.861-7.65245,10.76439-6.21416,13.27471-10.31472,2.50469-4.12169-2.45242-6.99662c-3.33976-1.90256-7.3137-2.38848-11.964-1.4372Q1653.24131,1480.3051,1642.2859,1486.6475Z"/><path class="cls-10" d="M1406.12939,1600.85192a24.15083,24.15083,0,0,1-11.45648,3.17093,32.865,32.865,0,0,1-12.95645-2.21965l-.29653.16882q5.67521,4.21746,5.72824,7.9479c.02164,2.47289-1.74347,4.73475-5.2737,6.78449a29.51367,29.51367,0,0,1-17.40658,3.69906c-6.4674-.48592-13.07333-2.70557-19.82644-6.594q-8.94128-5.16873-12.20647-10.40022l7.65136-4.41766a25.98369,25.98369,0,0,0,4.66117,5.70767,35.24547,35.24547,0,0,0,6.45658,4.777,28.58729,28.58729,0,0,0,11.66859,4.07893,17.21618,17.21618,0,0,0,10.23032-2.34628c2.85384-1.64823,3.81485-3.50859,2.86358-5.62218-.94046-2.07139-3.85707-4.54428-8.74009-7.35591l-4.6709-2.70558,6.98579-4.03671,4.74558,2.74778q12.90407,7.41869,21.7712,2.32463c2.28242-1.33114,3.3073-2.79,3.05413-4.37546-.26414-1.56382-1.84961-3.21313-4.76621-4.90358a34.2271,34.2271,0,0,0-6.7542-2.896,61.03666,61.03666,0,0,0-10.0604-1.94477l1.764-5.91871a54.71969,54.71969,0,0,1,22.62834,6.80614c5.4317,3.15037,8.5074,6.25745,9.23682,9.36453Q1412.23857,1597.32115,1406.12939,1600.85192Z"/><path class="cls-10" d="M1438.6493,1636.31982q-13.951,8.05341-25.23759,9.36453a32.61215,32.61215,0,0,1-20.56669-4.05836q-9.00468-5.16873-6.64813-11.90019,2.362-6.72226,15.8644-14.52136,14.17179-8.18,25.39559-9.44894a32.68975,32.68975,0,0,1,20.4931,4.05836c6.01395,3.488,8.22278,7.462,6.63739,11.964Q1452.17659,1628.49855,1438.6493,1636.31982Zm-27.81646-16.043q-10.95446,6.30995-13.35912,10.33637c-1.61685,2.66337-.78137,4.96744,2.54764,6.87q4.96083,2.88468,12.03756,1.45776c4.70337-.95128,10.65347-3.48694,17.86112-7.65136q10.76439-6.21417,13.27354-10.31473,2.50482-4.12167-2.46207-6.99661c-3.32894-1.90256-7.30289-2.38848-11.95323-1.4372Q1421.77193,1613.93553,1410.83284,1620.27685Z"/><path class="cls-10" d="M1135.47682,1759.46562l-36.51442-21.07317,6.52151-3.76291h27.77434c8.2639-.04221,13.94993-.19048,17.02563-.42207a49.14977,49.14977,0,0,0,7.86348-1.14176,22.26729,22.26729,0,0,0,5.85486-2.32571q3.62991-2.09248,3.51941-4.56484c-.06385-1.64932-1.395-3.21314-3.974-4.69255a27.20458,27.20458,0,0,0-7.12323-2.81163,64.44384,64.44384,0,0,0-10.78009-1.47941l.99349-5.98148a70.0442,70.0442,0,0,1,14.07764,1.94369,43.77532,43.77532,0,0,1,10.61018,4.31268q7.51457,4.34407,8.13836,9.19462.63472,4.883-5.96092,8.68706a31.51461,31.51461,0,0,1-8.19031,3.21314,65.88578,65.88578,0,0,1-10.73788,1.56382q-6.15086.41232-18.35779.19047l-18.35792-.19047-.37013.21211,25.56551,14.753Z"/><path class="cls-10" d="M1207.19616,1769.97082q-13.951,8.05341-25.23759,9.34288a32.5881,32.5881,0,0,1-20.56669-4.03671q-9.00468-5.19957-6.659-11.92184c1.58546-4.48043,6.85916-9.32124,15.87414-14.52135q14.15718-8.18,25.39667-9.44787a32.54933,32.54933,0,0,1,20.49317,4.07893q9.00458,5.19957,6.62642,11.9424Q1220.7289,1762.12953,1207.19616,1769.97082Zm-27.81654-16.06353q-10.95433,6.30831-13.36987,10.33529-2.42527,3.995,2.5584,6.89163,4.96094,2.85222,12.02681,1.43721,7.05506-1.42692,17.872-7.65245,10.74806-6.21415,13.27347-10.31473,2.50482-4.12167-2.462-6.975c-3.329-1.92312-7.303-2.41012-11.96412-1.45884C1192.65424,1747.12171,1186.67168,1749.679,1179.37962,1753.90729Z"/><path class="cls-10" d="M892.93732,1886.69142l-8.65567-4.988,34.55991-19.95414q6.18169-3.58272,10.10369-5.49556c-1.15257,0-2.49453-.02165-4.027-.08442-1.52155-.06385-6.54208-.38094-14.99645-.88742l1.10928-5.66547,28.20723,2.00861,7.22929,4.16334Z"/><path class="cls-10" d="M975.73219,1903.60125q-13.93477,8.05341-25.22676,9.34289a32.57433,32.57433,0,0,1-20.56669-4.0378q-9.0047-5.19957-6.659-11.92076,2.3782-6.72227,15.86339-14.52135,14.17332-8.18,25.39661-9.44894a32.55651,32.55651,0,0,1,20.49309,4.08q9.01931,5.19957,6.63731,11.9424Q989.27576,1895.76,975.73219,1903.60125Zm-27.81654-16.06461q-10.93809,6.30994-13.359,10.33637-2.42527,3.99506,2.55731,6.89056,4.96257,2.85384,12.0279,1.4372c4.70228-.95128,10.6632-3.48695,17.86111-7.65136q10.76439-6.21417,13.27354-10.31473,2.52106-4.12167-2.45125-6.976c-3.33-1.92312-7.30288-2.409-11.964-1.45777S955.21854,1883.30945,947.91565,1887.53664Z"/><path class="cls-10" d="M744.28987,2037.23169q-13.951,8.05179-25.23867,9.36345a32.59792,32.59792,0,0,1-20.56668-4.05836q-9.00307-5.19957-6.64706-11.92184,2.34584-6.72064,15.86332-14.49971,14.17342-8.18,25.39674-9.46951a32.55993,32.55993,0,0,1,20.49195,4.07892c6.014,3.46639,8.22278,7.462,6.63731,11.94349Q757.81774,2029.42124,744.28987,2037.23169Zm-27.81654-16.06461q-10.95585,6.30993-13.359,10.33637c-1.62767,2.68393-.78245,4.96635,2.54649,6.89055q4.96255,2.85384,12.03764,1.45777,7.05505-1.4253,17.85029-7.67193,10.76439-6.21577,13.28544-10.31581,2.50482-4.12167-2.45233-6.975c-3.33976-1.92312-7.3137-2.41012-11.963-1.45884Q727.42712,2014.85714,716.47333,2021.16708Z"/></g><g class="cls-9"><path class="cls-10" d="M918.65657,1553.04985a5.40754,5.40754,0,0,1-5.41115-5.41115v-21.64459a5.41115,5.41115,0,0,1,10.82229,0v21.64459A5.40832,5.40832,0,0,1,918.65657,1553.04985Zm0-54.11147a5.40754,5.40754,0,0,1-5.41115-5.41115v-21.64459a5.41114,5.41114,0,0,1,10.82229,0v21.64459A5.40832,5.40832,0,0,1,918.65657,1498.93838Zm0-54.11147a5.40754,5.40754,0,0,1-5.41115-5.41115v-21.64458a5.41114,5.41114,0,1,1,10.82229,0v21.64458A5.40831,5.40831,0,0,1,918.65657,1444.82691Zm0-54.11147a5.40754,5.40754,0,0,1-5.41115-5.41114v-21.64459a5.41114,5.41114,0,1,1,10.82229,0v21.64459A5.40831,5.40831,0,0,1,918.65657,1390.71544Zm0-54.11147a5.40754,5.40754,0,0,1-5.41115-5.41114v-21.64459a5.41114,5.41114,0,1,1,10.82229,0v21.64459A5.40831,5.40831,0,0,1,918.65657,1336.604Zm0-54.11146a5.40754,5.40754,0,0,1-5.41115-5.41115v-21.64459a5.41114,5.41114,0,1,1,10.82229,0v21.64459A5.40832,5.40832,0,0,1,918.65657,1282.49251Zm0-54.11147a5.40754,5.40754,0,0,1-5.41115-5.41115V1201.3253a5.41115,5.41115,0,0,1,10.82229,0v21.64459A5.40832,5.40832,0,0,1,918.65657,1228.381Zm0-54.11147a5.40754,5.40754,0,0,1-5.41115-5.41115v-21.64459a5.41115,5.41115,0,0,1,10.82229,0v21.64459A5.40832,5.40832,0,0,1,918.65657,1174.26957Zm0-54.11147a5.40754,5.40754,0,0,1-5.41115-5.41115v-21.64458a5.41114,5.41114,0,1,1,10.82229,0V1114.747A5.40831,5.40831,0,0,1,918.65657,1120.1581Zm0-54.11147a5.40754,5.40754,0,0,1-5.41115-5.41114V1038.9909a5.41114,5.41114,0,1,1,10.82229,0v21.64459A5.40831,5.40831,0,0,1,918.65657,1066.04663Zm0-54.11147a5.40754,5.40754,0,0,1-5.41115-5.41114V984.87943a5.41114,5.41114,0,1,1,10.82229,0V1006.524A5.40831,5.40831,0,0,1,918.65657,1011.93516Zm0-54.11146a5.40754,5.40754,0,0,1-5.41115-5.41115V930.768a5.41115,5.41115,0,0,1,10.82229,0v21.64459A5.40832,5.40832,0,0,1,918.65657,957.8237Zm0-54.11147a5.40754,5.40754,0,0,1-5.41115-5.41115V876.65649a5.41115,5.41115,0,0,1,10.82229,0v21.64459A5.40832,5.40832,0,0,1,918.65657,903.71223Zm0-54.11147a5.40754,5.40754,0,0,1-5.41115-5.41115V822.545a5.41114,5.41114,0,1,1,10.82229,0v21.64458A5.40831,5.40831,0,0,1,918.65657,849.60076Zm0-54.11147a5.40754,5.40754,0,0,1-5.41115-5.41115V768.43356a5.41114,5.41114,0,1,1,10.82229,0v21.64458A5.40831,5.40831,0,0,1,918.65657,795.48929Z"/></g><g class="cls-9"><path class="cls-10" d="M456.997,1820.06613a5.40757,5.40757,0,0,1-5.41115-5.41114V1793.0104a5.41114,5.41114,0,1,1,10.82229,0V1814.655A5.40827,5.40827,0,0,1,456.997,1820.06613Zm0-54.11147a5.40757,5.40757,0,0,1-5.41115-5.41114v-21.64459a5.41114,5.41114,0,1,1,10.82229,0v21.64459A5.40827,5.40827,0,0,1,456.997,1765.95466Zm0-54.11146a5.40758,5.40758,0,0,1-5.41115-5.41115v-21.64459a5.41115,5.41115,0,0,1,10.82229,0v21.64459A5.40828,5.40828,0,0,1,456.997,1711.8432Zm0-54.11147a5.40758,5.40758,0,0,1-5.41115-5.41115V1630.676a5.41115,5.41115,0,0,1,10.82229,0v21.64459A5.40828,5.40828,0,0,1,456.997,1657.73173Zm0-54.11147a5.40758,5.40758,0,0,1-5.41115-5.41115v-21.64458a5.41114,5.41114,0,1,1,10.82229,0v21.64458A5.40827,5.40827,0,0,1,456.997,1603.62026Zm0-54.11147a5.40757,5.40757,0,0,1-5.41115-5.41114v-21.64459a5.41114,5.41114,0,1,1,10.82229,0v21.64459A5.40827,5.40827,0,0,1,456.997,1549.50879Zm0-54.11147a5.40757,5.40757,0,0,1-5.41115-5.41114v-21.64459a5.41114,5.41114,0,1,1,10.82229,0v21.64459A5.40827,5.40827,0,0,1,456.997,1495.39732Zm0-54.11146a5.40758,5.40758,0,0,1-5.41115-5.41115v-21.64459a5.41114,5.41114,0,1,1,10.82229,0v21.64459A5.40828,5.40828,0,0,1,456.997,1441.28586Zm0-54.11147a5.40758,5.40758,0,0,1-5.41115-5.41115v-21.64459a5.41114,5.41114,0,0,1,10.82229,0v21.64459A5.40828,5.40828,0,0,1,456.997,1387.17439Zm0-54.11147a5.40758,5.40758,0,0,1-5.41115-5.41115v-21.64458a5.41114,5.41114,0,1,1,10.82229,0v21.64458A5.40828,5.40828,0,0,1,456.997,1333.06292Z"/></g><g class="cls-9"><path class="cls-10" d="M687.1341,1681.74423a5.40757,5.40757,0,0,1-5.41115-5.41114V1654.6885a5.41114,5.41114,0,1,1,10.82229,0v21.64459A5.40757,5.40757,0,0,1,687.1341,1681.74423Zm0-54.11146a5.40758,5.40758,0,0,1-5.41115-5.41115V1600.577a5.41114,5.41114,0,1,1,10.82229,0v21.64459A5.40758,5.40758,0,0,1,687.1341,1627.63277Zm0-54.11147a5.40758,5.40758,0,0,1-5.41115-5.41115v-21.64459a5.41115,5.41115,0,0,1,10.82229,0v21.64459A5.40758,5.40758,0,0,1,687.1341,1573.5213Zm0-54.11147a5.40758,5.40758,0,0,1-5.41115-5.41115v-21.64459a5.41114,5.41114,0,0,1,10.82229,0v21.64459A5.40758,5.40758,0,0,1,687.1341,1519.40983Zm0-54.11147a5.40758,5.40758,0,0,1-5.41115-5.41115v-21.64458a5.41114,5.41114,0,1,1,10.82229,0v21.64458A5.40757,5.40757,0,0,1,687.1341,1465.29836Zm0-54.11147a5.40757,5.40757,0,0,1-5.41115-5.41114v-21.64459a5.41114,5.41114,0,1,1,10.82229,0v21.64459A5.40757,5.40757,0,0,1,687.1341,1411.18689Zm0-54.11147a5.40757,5.40757,0,0,1-5.41115-5.41114v-21.64459a5.41114,5.41114,0,1,1,10.82229,0v21.64459A5.40757,5.40757,0,0,1,687.1341,1357.07542Zm0-54.11146a5.40758,5.40758,0,0,1-5.41115-5.41115v-21.64459a5.41114,5.41114,0,0,1,10.82229,0v21.64459A5.40758,5.40758,0,0,1,687.1341,1302.964Zm0-54.11147a5.40758,5.40758,0,0,1-5.41115-5.41115v-21.64459a5.41114,5.41114,0,0,1,10.82229,0v21.64459A5.40758,5.40758,0,0,1,687.1341,1248.85249Zm0-54.11147a5.40758,5.40758,0,0,1-5.41115-5.41115v-21.64458a5.41114,5.41114,0,1,1,10.82229,0v21.64458A5.40758,5.40758,0,0,1,687.1341,1194.741Zm0-54.11147a5.40758,5.40758,0,0,1-5.41115-5.41115v-21.64458a5.41114,5.41114,0,1,1,10.82229,0v21.64458A5.40757,5.40757,0,0,1,687.1341,1140.62955Zm0-54.11147a5.40757,5.40757,0,0,1-5.41115-5.41114v-21.64459a5.41114,5.41114,0,1,1,10.82229,0v21.64459A5.40757,5.40757,0,0,1,687.1341,1086.51808Zm0-54.11146a5.40758,5.40758,0,0,1-5.41115-5.41115v-21.64459a5.41114,5.41114,0,1,1,10.82229,0v21.64459A5.40758,5.40758,0,0,1,687.1341,1032.40662Zm0-54.11147A5.40758,5.40758,0,0,1,681.723,972.884V951.23941a5.41115,5.41115,0,0,1,10.82229,0V972.884A5.40758,5.40758,0,0,1,687.1341,978.29515Z"/></g><g class="cls-9"><path class="cls-10" d="M1148.79365,1422.178a5.40827,5.40827,0,0,1-5.41115-5.41114v-21.64459a5.41115,5.41115,0,1,1,10.8223,0v21.64459A5.40758,5.40758,0,0,1,1148.79365,1422.178Zm0-54.11146a5.40828,5.40828,0,0,1-5.41115-5.41115v-21.64459a5.41115,5.41115,0,1,1,10.8223,0v21.64459A5.40759,5.40759,0,0,1,1148.79365,1368.06655Zm0-54.11147a5.40828,5.40828,0,0,1-5.41115-5.41115v-21.64459a5.41115,5.41115,0,0,1,10.8223,0v21.64459A5.40759,5.40759,0,0,1,1148.79365,1313.95508Zm0-54.11147a5.40828,5.40828,0,0,1-5.41115-5.41115v-21.64458a5.41115,5.41115,0,1,1,10.8223,0v21.64458A5.40759,5.40759,0,0,1,1148.79365,1259.84361Zm0-54.11147a5.40827,5.40827,0,0,1-5.41115-5.41115v-21.64458a5.41115,5.41115,0,1,1,10.8223,0V1200.321A5.40758,5.40758,0,0,1,1148.79365,1205.73214Zm0-54.11147a5.40827,5.40827,0,0,1-5.41115-5.41114v-21.64459a5.41115,5.41115,0,0,1,10.8223,0v21.64459A5.40758,5.40758,0,0,1,1148.79365,1151.62067Zm0-54.11147a5.40827,5.40827,0,0,1-5.41115-5.41114v-21.64459a5.41115,5.41115,0,0,1,10.8223,0v21.64459A5.40758,5.40758,0,0,1,1148.79365,1097.5092Zm0-54.11146a5.40828,5.40828,0,0,1-5.41115-5.41115V1016.342a5.41115,5.41115,0,0,1,10.8223,0v21.64459A5.40759,5.40759,0,0,1,1148.79365,1043.39774Zm0-54.11147a5.40828,5.40828,0,0,1-5.41115-5.41115V962.23053a5.41115,5.41115,0,0,1,10.8223,0v21.64459A5.40759,5.40759,0,0,1,1148.79365,989.28627Zm0-54.11147a5.40827,5.40827,0,0,1-5.41115-5.41115V908.11907a5.41115,5.41115,0,1,1,10.8223,0v21.64458A5.40758,5.40758,0,0,1,1148.79365,935.1748Zm0-54.11147a5.40827,5.40827,0,0,1-5.41115-5.41114V854.0076a5.41115,5.41115,0,1,1,10.8223,0v21.64459A5.40758,5.40758,0,0,1,1148.79365,881.06333Zm0-54.11147a5.40827,5.40827,0,0,1-5.41115-5.41114V799.89613a5.41115,5.41115,0,1,1,10.8223,0v21.64459A5.40758,5.40758,0,0,1,1148.79365,826.95186Zm0-54.11146a5.40828,5.40828,0,0,1-5.41115-5.41115V745.78466a5.41115,5.41115,0,1,1,10.8223,0v21.64459A5.40759,5.40759,0,0,1,1148.79365,772.8404Zm0-54.11147a5.40828,5.40828,0,0,1-5.41115-5.41115V691.67319a5.41115,5.41115,0,0,1,10.8223,0v21.64459A5.40759,5.40759,0,0,1,1148.79365,718.72893Zm0-54.11147a5.40828,5.40828,0,0,1-5.41115-5.41115V637.56173a5.41115,5.41115,0,1,1,10.8223,0v21.64458A5.40759,5.40759,0,0,1,1148.79365,664.61746Zm0-54.11147a5.40827,5.40827,0,0,1-5.41115-5.41115V583.45026a5.41115,5.41115,0,1,1,10.8223,0v21.64458A5.40758,5.40758,0,0,1,1148.79365,610.506Zm0-54.11147a5.40827,5.40827,0,0,1-5.41115-5.41114V529.33879a5.41115,5.41115,0,1,1,10.8223,0v21.64459A5.40758,5.40758,0,0,1,1148.79365,556.39452Zm0-54.11147a5.40827,5.40827,0,0,1-5.41115-5.41114V475.22732a5.41115,5.41115,0,1,1,10.8223,0v21.64459A5.40758,5.40758,0,0,1,1148.79365,502.28305Zm0-54.11146a5.40828,5.40828,0,0,1-5.41115-5.41115V421.11585a5.41115,5.41115,0,0,1,10.8223,0v21.64459A5.40759,5.40759,0,0,1,1148.79365,448.17159Zm0-54.11147a5.40828,5.40828,0,0,1-5.41115-5.41115V367.00438a5.41115,5.41115,0,0,1,10.8223,0V388.649A5.40759,5.40759,0,0,1,1148.79365,394.06012Z"/></g><g class="cls-9"><path class="cls-10" d="M1378.93188,1288.8019a5.40757,5.40757,0,0,1-5.41114-5.41114v-21.64459a5.41115,5.41115,0,1,1,10.82229,0v21.64459A5.40827,5.40827,0,0,1,1378.93188,1288.8019Zm0-54.11147a5.40757,5.40757,0,0,1-5.41114-5.41114V1207.6347a5.41114,5.41114,0,1,1,10.82229,0v21.64459A5.40827,5.40827,0,0,1,1378.93188,1234.69043Zm0-54.11146a5.40758,5.40758,0,0,1-5.41114-5.41115v-21.64459a5.41114,5.41114,0,0,1,10.82229,0v21.64459A5.40828,5.40828,0,0,1,1378.93188,1180.579Zm0-54.11147a5.40758,5.40758,0,0,1-5.41114-5.41115v-21.64459a5.41114,5.41114,0,0,1,10.82229,0v21.64459A5.40828,5.40828,0,0,1,1378.93188,1126.4675Zm0-54.11147a5.40757,5.40757,0,0,1-5.41114-5.41115V1045.3003a5.41114,5.41114,0,1,1,10.82229,0v21.64458A5.40827,5.40827,0,0,1,1378.93188,1072.356Zm0-54.11147a5.40757,5.40757,0,0,1-5.41114-5.41115V991.18883a5.41115,5.41115,0,1,1,10.82229,0v21.64458A5.40827,5.40827,0,0,1,1378.93188,1018.24456Zm0-54.11147a5.40757,5.40757,0,0,1-5.41114-5.41114V937.07736a5.41115,5.41115,0,1,1,10.82229,0V958.722A5.40827,5.40827,0,0,1,1378.93188,964.13309Zm0-54.11146a5.40758,5.40758,0,0,1-5.41114-5.41115V882.96589a5.41114,5.41114,0,1,1,10.82229,0v21.64459A5.40828,5.40828,0,0,1,1378.93188,910.02163Zm0-54.11147a5.40758,5.40758,0,0,1-5.41114-5.41115V828.85442a5.41114,5.41114,0,0,1,10.82229,0V850.499A5.40828,5.40828,0,0,1,1378.93188,855.91016Zm0-54.11147a5.40758,5.40758,0,0,1-5.41114-5.41115V774.74295a5.41114,5.41114,0,0,1,10.82229,0v21.64459A5.40828,5.40828,0,0,1,1378.93188,801.79869Zm0-54.11147a5.40757,5.40757,0,0,1-5.41114-5.41115V720.63149a5.41114,5.41114,0,1,1,10.82229,0v21.64458A5.40827,5.40827,0,0,1,1378.93188,747.68722Zm0-54.11147a5.40757,5.40757,0,0,1-5.41114-5.41114V666.52a5.41114,5.41114,0,1,1,10.82229,0v21.64459A5.40827,5.40827,0,0,1,1378.93188,693.57575Zm0-54.11147a5.40757,5.40757,0,0,1-5.41114-5.41114V612.40855a5.41114,5.41114,0,1,1,10.82229,0v21.64459A5.40827,5.40827,0,0,1,1378.93188,639.46428Zm0-54.11146a5.40758,5.40758,0,0,1-5.41114-5.41115V558.29708a5.41115,5.41115,0,0,1,10.82229,0v21.64459A5.40828,5.40828,0,0,1,1378.93188,585.35282Z"/></g><g class="cls-9"><path class="cls-10" d="M1609.07445,1149.69755a5.40758,5.40758,0,0,1-5.41115-5.41115v-21.64458a5.41114,5.41114,0,1,1,10.82229,0v21.64458A5.40827,5.40827,0,0,1,1609.07445,1149.69755Zm0-54.11147a5.40757,5.40757,0,0,1-5.41115-5.41114v-21.64459a5.41114,5.41114,0,1,1,10.82229,0v21.64459A5.40827,5.40827,0,0,1,1609.07445,1095.58608Zm0-54.11147a5.40757,5.40757,0,0,1-5.41115-5.41114v-21.64459a5.41114,5.41114,0,1,1,10.82229,0v21.64459A5.40827,5.40827,0,0,1,1609.07445,1041.47461Zm0-54.11146a5.40758,5.40758,0,0,1-5.41115-5.41115V960.30741a5.41114,5.41114,0,0,1,10.82229,0V981.952A5.40828,5.40828,0,0,1,1609.07445,987.36315Zm0-54.11147a5.40758,5.40758,0,0,1-5.41115-5.41115V906.19594a5.41114,5.41114,0,0,1,10.82229,0v21.64459A5.40828,5.40828,0,0,1,1609.07445,933.25168Zm0-54.11147a5.40758,5.40758,0,0,1-5.41115-5.41115V852.08448a5.41114,5.41114,0,1,1,10.82229,0v21.64458A5.40827,5.40827,0,0,1,1609.07445,879.14021Zm0-54.11147a5.40757,5.40757,0,0,1-5.41115-5.41114V797.973a5.41114,5.41114,0,1,1,10.82229,0V819.6176A5.40827,5.40827,0,0,1,1609.07445,825.02874Zm0-54.11147a5.40757,5.40757,0,0,1-5.41115-5.41114V743.86154a5.41114,5.41114,0,1,1,10.82229,0v21.64459A5.40827,5.40827,0,0,1,1609.07445,770.91727Zm0-54.11146a5.40758,5.40758,0,0,1-5.41115-5.41115V689.75007a5.41114,5.41114,0,1,1,10.82229,0v21.64459A5.40828,5.40828,0,0,1,1609.07445,716.80581Zm0-54.11147a5.40758,5.40758,0,0,1-5.41115-5.41115V635.6386a5.41114,5.41114,0,0,1,10.82229,0v21.64459A5.40828,5.40828,0,0,1,1609.07445,662.69434Zm0-54.11147a5.40758,5.40758,0,0,1-5.41115-5.41115V581.52714a5.41114,5.41114,0,1,1,10.82229,0v21.64458A5.40828,5.40828,0,0,1,1609.07445,608.58287Zm0-54.11147a5.40758,5.40758,0,0,1-5.41115-5.41115V527.41567a5.41114,5.41114,0,1,1,10.82229,0v21.64458A5.40827,5.40827,0,0,1,1609.07445,554.4714Zm0-54.11147a5.40757,5.40757,0,0,1-5.41115-5.41114V473.3042a5.41114,5.41114,0,1,1,10.82229,0v21.64459A5.40827,5.40827,0,0,1,1609.07445,500.35993Zm0-54.11147a5.40757,5.40757,0,0,1-5.41115-5.41114V419.19273a5.41114,5.41114,0,1,1,10.82229,0v21.64459A5.40827,5.40827,0,0,1,1609.07445,446.24846Zm0-54.11146a5.40758,5.40758,0,0,1-5.41115-5.41115V365.08126a5.41115,5.41115,0,0,1,10.82229,0v21.64459A5.40828,5.40828,0,0,1,1609.07445,392.137Zm0-54.11147a5.40758,5.40758,0,0,1-5.41115-5.41115V310.96979a5.41115,5.41115,0,0,1,10.82229,0v21.64459A5.40828,5.40828,0,0,1,1609.07445,338.02553Zm0-54.11147a5.40758,5.40758,0,0,1-5.41115-5.41115V256.85833a5.41114,5.41114,0,1,1,10.82229,0v21.64458A5.40827,5.40827,0,0,1,1609.07445,283.91406Zm0-54.11147a5.40757,5.40757,0,0,1-5.41115-5.41114V202.74686a5.41114,5.41114,0,1,1,10.82229,0v21.64459A5.40827,5.40827,0,0,1,1609.07445,229.80259Zm0-54.11147a5.40757,5.40757,0,0,1-5.41115-5.41114V168.5733a5.41114,5.41114,0,1,1,10.82229,0V170.28A5.40827,5.40827,0,0,1,1609.07445,175.69112Z"/></g><g class="cls-9"><path class="cls-10" d="M1839.21168,1018.921a5.40752,5.40752,0,0,1-5.41114-5.41115V991.86522a5.41115,5.41115,0,1,1,10.82229,0v21.64459A5.40764,5.40764,0,0,1,1839.21168,1018.921Zm0-54.11147a5.40752,5.40752,0,0,1-5.41114-5.41115V937.75375a5.41114,5.41114,0,0,1,10.82229,0v21.64459A5.40764,5.40764,0,0,1,1839.21168,964.80949Zm0-54.11147a5.40752,5.40752,0,0,1-5.41114-5.41115V883.64228a5.41114,5.41114,0,0,1,10.82229,0v21.64459A5.40764,5.40764,0,0,1,1839.21168,910.698Zm0-54.11147a5.40752,5.40752,0,0,1-5.41114-5.41115V829.53082a5.41115,5.41115,0,1,1,10.82229,0V851.1754A5.40763,5.40763,0,0,1,1839.21168,856.58655Zm0-54.11147a5.40751,5.40751,0,0,1-5.41114-5.41114V775.41935a5.41114,5.41114,0,1,1,10.82229,0v21.64459A5.40763,5.40763,0,0,1,1839.21168,802.47508Zm0-54.11147a5.40751,5.40751,0,0,1-5.41114-5.41114V721.30788a5.41114,5.41114,0,1,1,10.82229,0v21.64459A5.40763,5.40763,0,0,1,1839.21168,748.36361Zm0-54.11146a5.40752,5.40752,0,0,1-5.41114-5.41115V667.19641a5.41114,5.41114,0,1,1,10.82229,0V688.841A5.40764,5.40764,0,0,1,1839.21168,694.25215Zm0-54.11147a5.40752,5.40752,0,0,1-5.41114-5.41115V613.08494a5.41114,5.41114,0,0,1,10.82229,0v21.64459A5.40764,5.40764,0,0,1,1839.21168,640.14068Zm0-54.11147a5.40752,5.40752,0,0,1-5.41114-5.41115V558.97348a5.41114,5.41114,0,1,1,10.82229,0v21.64458A5.40764,5.40764,0,0,1,1839.21168,586.02921Zm0-54.11147a5.40752,5.40752,0,0,1-5.41114-5.41115V504.862a5.41114,5.41114,0,1,1,10.82229,0v21.64458A5.40763,5.40763,0,0,1,1839.21168,531.91774Zm0-54.11147a5.40751,5.40751,0,0,1-5.41114-5.41114V450.75054a5.41114,5.41114,0,1,1,10.82229,0v21.64459A5.40763,5.40763,0,0,1,1839.21168,477.80627Zm0-54.11147a5.40751,5.40751,0,0,1-5.41114-5.41114V396.63907a5.41114,5.41114,0,1,1,10.82229,0v21.64459A5.40763,5.40763,0,0,1,1839.21168,423.6948Zm0-54.11146a5.40752,5.40752,0,0,1-5.41114-5.41115V342.5276a5.41114,5.41114,0,0,1,10.82229,0v21.64459A5.40764,5.40764,0,0,1,1839.21168,369.58334Zm0-54.11147a5.40752,5.40752,0,0,1-5.41114-5.41115V288.41613a5.41114,5.41114,0,0,1,10.82229,0v21.64459A5.40764,5.40764,0,0,1,1839.21168,315.47187Zm0-54.11147a5.40752,5.40752,0,0,1-5.41114-5.41115V234.30467a5.41114,5.41114,0,1,1,10.82229,0v21.64458A5.40763,5.40763,0,0,1,1839.21168,261.3604Zm0-54.11147a5.40751,5.40751,0,0,1-5.41114-5.41114V180.1932a5.41114,5.41114,0,1,1,10.82229,0v21.64459A5.40763,5.40763,0,0,1,1839.21168,207.24893Zm0-54.11147a5.40751,5.40751,0,0,1-5.41114-5.41114V126.08173a5.41114,5.41114,0,1,1,10.82229,0v21.64459A5.40763,5.40763,0,0,1,1839.21168,153.13746Z"/></g><path class="cls-10" d="M1171.44146,282.59482c0,14.76269-10.42944,32.75043-23.2939,40.17777s-23.29383,1.48157-23.29383-13.28c0-14.76269,10.42937-32.75042,23.29383-40.17776C1161.012,261.88636,1171.44146,267.83321,1171.44146,282.59482Z"/><path class="cls-10" d="M1866.01517,66.92166c0,14.76269-10.42935,32.75043-23.2939,40.17777-12.86446,7.42842-23.29274,1.48157-23.29274-13.28,0-14.76269,10.42828-32.75042,23.29274-40.17776C1855.58582,46.21429,1866.01517,52.16005,1866.01517,66.92166Z"/><ellipse class="cls-10" cx="917.88164" cy="703.72815" rx="32.83985" ry="18.95925" transform="translate(-152.90135 1140.95097) rotate(-59.68813)"/><path class="cls-10" d="M712.79592,890.469c0,14.76161-10.42836,32.75042-23.29391,40.17776-12.8644,7.42734-23.29282,1.48157-23.29282-13.28112,0-14.7616,10.42842-32.75042,23.29282-40.17776C702.36756,869.76053,712.79592,875.7063,712.79592,890.469Z"/><ellipse class="cls-10" cx="455.46126" cy="1240.38188" rx="32.83988" ry="18.95928" transform="translate(-845.22316 1007.54677) rotate(-59.68804)"/><path class="cls-11" d="M386.14349,1590.60457l-67.8999-39.18432-24.41236,14.0935,67.8999,39.18311Zm-54.40406,31.417-67.8999-39.21094L234.93377,1599.525l67.88574,39.19678Zm108.80811-62.82105-67.886-39.19848-19.91894,11.51464,67.88745,39.18311ZM549.3681,1496.378l-67.89966-39.1831-10.91528,6.29956,67.88574,39.1831ZM494.964,1527.79622l-67.8999-39.21093-15.43652,8.90649,67.91382,39.21069Zm-217.6289,125.64332-67.89966-39.2107-33.41333,19.30567,67.8999,39.19848Zm76.69775,169.82324-67.47851,38.96753,33.0476,19.0625,67.47852-38.9397Zm-16.46972,68.40307,36.67236,21.17994,67.46582-38.96631-36.67188-21.18116ZM100.6286,1677.06356l-67.398,38.89941,67.8999,39.197,67.39648-38.89941ZM252.04144,1764.379l-67.46607,38.95239,25.79712,14.9082,67.46607-38.96606Zm-50.99634-29.44946-67.47876,38.96606,22.1853,12.791,67.47852-38.9397Zm101.99267,58.8977L235.572,1832.78084l29.42139,16.98536,67.46631-38.96753Zm-80.10668-108.96948-67.89966-39.21216L117.11077,1667.533l67.89966,39.21094Zm103.717,269.073,219.3667,20.85449L509.88616,1848.1368Z"/><polygon class="cls-12" points="2540.906 1033.851 2540.906 1091.949 2509.543 1044.792 2540.906 1033.851 2540.906 1033.851"/><polygon class="cls-13" points="2583.617 1058.281 2583.617 1116.379 2552.253 1069.222 2583.617 1058.281 2583.617 1058.281"/><polygon class="cls-14" points="2626.327 1082.71 2626.327 1140.81 2594.964 1093.652 2626.327 1082.71 2626.327 1082.71"/><polygon class="cls-15" points="2669.038 1107.141 2669.038 1165.24 2637.674 1118.082 2669.038 1107.141 2669.038 1107.141"/><polygon class="cls-16" points="2711.748 1131.571 2711.748 1189.67 2680.385 1142.512 2711.748 1131.571 2711.748 1131.571"/><polygon class="cls-12" points="435.051 1400.453 435.051 1338.08 468.722 1388.707 435.051 1400.453 435.051 1400.453"/><polygon class="cls-13" points="389.198 1374.225 389.198 1311.852 422.87 1362.479 389.198 1374.225 389.198 1374.225"/><polygon class="cls-14" points="343.346 1347.998 343.346 1285.625 377.017 1336.251 343.346 1347.998 343.346 1347.998"/><polygon class="cls-15" points="297.494 1321.77 297.494 1259.397 331.164 1310.024 297.494 1321.77 297.494 1321.77"/><polygon class="cls-16" points="251.641 1295.543 251.641 1233.17 285.312 1283.796 251.641 1295.543 251.641 1295.543"/><g class="cls-17"><circle class="cls-18" cx="2664.14707" cy="1283.10221" r="74.95652" transform="translate(-292.87727 1276.94203) rotate(-25.59696)"/><path class="cls-19" d="M2637.88814,1302.78719a56.76794,56.76794,0,1,0-76.86037-23.188A56.76805,56.76805,0,0,0,2637.88814,1302.78719Z"/><path class="cls-20" d="M2588.85287,1265.27714a42.57594,42.57594,0,1,0-57.64552-17.3911A42.57574,42.57574,0,0,0,2588.85287,1265.27714Z"/></g><g id="_3" data-name="3"><path class="cls-21" d="M483.766,1628.504,1588.36787,990.15125s-6.23157-161.8956-77.36277-196.40465c-71.13119-34.50751-147.23832,215.43869-242.79754,175.833-95.56-39.60573-97.46139-468.41279-224.3466-402.29574C916.97574,633.39934,862.482,926.414,759.55933,984.47909c-123.84048,69.86563-199.36451-577.94146-199.36451-577.94146L483.766,449.8094V1628.504Z"/><path class="cls-22" d="M551.38319,1669.08181l1104.60269-638.35349s-6.23157-161.8956-77.36277-196.40388c-71.132-34.50752-147.23909,215.43868-242.79754,175.83219-95.56-39.605-97.46216-468.412-224.34737-402.29574s-181.379,359.131-284.30086,417.196c-123.84125,69.86562-199.36451-577.94146-199.36451-577.94146l-76.42964,43.27176V1669.08181Z"/><path class="cls-23" d="M594.69128,1669.322V547.94814l95.03187-53.80293,2.32252,19.919c22.55184,193.36069,79.76705,492.90424,144.97848,525.615,6.64961,3.34048,12.69779,3.08216,19.611-.81161,41.12808-23.20295,74.97836-94.41439,110.8172-169.8085,42.52969-89.46673,86.50452-181.9797,152.64526-216.44212,17.72644-9.23349,34.70392-10.42494,50.46245-3.53688,46.38373,20.27821,69.27717,107.35824,93.51412,199.54794,20.00386,76.09949,42.681,162.35032,74.99441,175.74354,37.32907,15.46812,75.26269-35.42383,111.92913-84.65434,37.352-50.14988,72.63827-97.52941,113.453-77.72426,72.16292,35.005,78.81253,186.6744,79.05785,193.11309l.30727,7.92894ZM621.412,563.294V1623.25162L1616.37984,1048.254c-2.9958-44.30348-18.548-140.60629-63.68453-162.5024-20.77956-10.07338-50.98672,30.45248-80.1904,69.66692-40.79416,54.77427-87.01893,116.87068-143.75422,93.35746-44.52053-18.4517-66.87364-103.47211-90.53666-193.4845-20.56863-78.22866-43.87857-166.89676-78.44948-182.011-5.1227-2.23462-13.52241-4.389-27.22206,2.74895-58.21795,30.33327-100.257,118.76981-140.91278,204.2969-37.689,79.28789-73.29017,154.17836-121.76484,181.528-14.71153,8.29883-30.24156,8.78947-44.91717,1.42607C734.15044,1017.732,680.62725,637.90856,667.91876,536.96531Z"/><path class="cls-24" d="M551.38319,1669.08181l1104.60269-638.35349s-6.23157-161.8956-77.36277-196.40388c-71.132-34.50752-147.23909,215.43868-242.79754,175.83219-95.56-39.605-97.46216-468.412-224.34737-402.29574s-181.379,359.131-284.30086,417.196c-123.84125,69.86562-199.36451-577.94146-199.36451-577.94146l-76.42964,43.27176V1669.08181Z"/><path class="cls-25" d="M689.55005,1749.66354,1794.152,1111.31081s-6.23081-161.89636-77.362-196.40388-147.23833,215.43793-242.79831,175.8322c-95.55921-39.60573-97.46059-468.412-224.34584-402.29651-126.88522,66.117-181.379,359.13173-284.30163,417.196C841.50369,1175.50505,765.97891,527.6972,765.97891,527.6972l-76.42886,43.27253V1749.66354Z"/><path class="cls-26" d="M689.55005,1749.66354,1794.152,1111.31081s-6.23081-161.89636-77.362-196.40388-147.23833,215.43793-242.79831,175.8322c-95.55921-39.60573-97.46059-468.412-224.34584-402.29651-126.88522,66.117-181.379,359.13173-284.30163,417.196C841.50369,1175.50505,765.97891,527.6972,765.97891,527.6972l-76.42886,43.27253V1749.66354Z"/></g><polyline class="cls-27" points="712.808 791.704 949.107 1448.615 1213.762 890.95 1468.139 1200.638 1686.359 947.661 1739.749 1016.458"/><path class="cls-28" d="M2552.49651,1483.40072l34.38013,19.85376,12.36084-7.14942-34.38013-19.84033Zm27.54664-15.90821,34.38012,19.85376,14.64307-8.45507-34.38-19.85474Zm-55.09339,31.81568,34.38,19.84741,10.085-5.82324-34.37927-19.85376Zm-55.09973,31.802,34.38013,19.85376,5.53369-3.18945-34.38-19.854Zm27.54663-15.90112,34.38648,19.84765,7.80981-4.51025-34.38721-19.83984Zm110.20032-63.6106,34.37305,19.84058,16.91833-9.7627-34.38013-19.85376Zm-38.8418-86.00146,34.15979-19.71656-16.72546-9.66552-34.16748,19.7229Zm-44.38977-25.62134,18.56848,10.717,34.1604-19.73-18.562-10.71069Zm172.44312,60.104-34.1189,19.70313,34.37378,19.84692,34.12524-19.69556Zm-76.41138-4.66089,34.1604-19.72973-13.062-7.54883-34.15967,19.73071Zm25.82129,14.9043,34.16675-19.73-11.23316-6.47559-34.15967,19.71582Zm-51.642-29.822,34.15979-19.71631-14.89722-8.60669-34.16674,19.72974Zm40.56726,55.18945,34.37305,19.84033,19.20044-11.08178-34.38709-19.84742Zm-52.52258-136.25464L2471.548,1288.8763l18.29309,64.126Z"/><polygon class="cls-29" points="1204.266 836.957 1215.453 901.591 1214.994 739.565 1019.494 852.437 1019.751 943.486 1204.266 836.957"/><g class="cls-30"><g class="cls-31"><polygon class="cls-32" points="1353.478 1344.896 1449.344 1400.311 1353.468 1455.688 1257.603 1400.272 1353.478 1344.896"/><polygon class="cls-33" points="1353.501 1896.119 1353.501 1455.654 1449.423 1400.273 1449.423 1839.837 1353.501 1896.119"/><polygon class="cls-34" points="1257.598 1839.837 1257.598 1400.273 1353.52 1455.654 1353.52 1896.219 1257.598 1839.837"/></g><polygon class="cls-35" points="1257.598 1400.273 1353.022 1451.665 1449.423 1400.273 1356.409 1457.759 1353.52 1897.434 1348.96 1457.082 1257.598 1400.273"/></g><polygon class="cls-36" points="1360.883 1892.332 1360.32 2020.315 1346.167 2020.273 1346.773 1892.176 1354.283 1896.582 1360.883 1892.332"/><path class="cls-37" d="M1346.07243,979.93979h14.09527a0,0,0,0,1,0,0v421.93206a1.01605,1.01605,0,0,1-1.01605,1.01605h-12.06316a1.016,1.016,0,0,1-1.016-1.016V979.93979a0,0,0,0,1,0,0Z" transform="translate(10.3634 -11.66778) rotate(0.49595)"/><path class="cls-38" d="M1519.28458,1394.76068h14.09527a0,0,0,0,1,0,0v106.94614a1.01605,1.01605,0,0,1-1.01605,1.01605h-12.06316a1.016,1.016,0,0,1-1.016-1.016V1394.76068A0,0,0,0,1,1519.28458,1394.76068Z" transform="translate(12.59852 -13.15872) rotate(0.496)"/><g class="cls-39"><g class="cls-31"><polygon class="cls-40" points="1527.541 1452.342 1623.406 1507.758 1527.53 1563.135 1431.665 1507.72 1527.541 1452.342"/><polygon class="cls-41" points="1527.562 1718.753 1527.562 1563.101 1623.485 1507.72 1623.485 1662.471 1527.562 1718.753"/><polygon class="cls-42" points="1431.661 1662.471 1431.661 1507.72 1527.582 1563.101 1527.582 1662.521 1527.582 1718.753 1431.661 1662.471"/></g><polygon class="cls-43" points="1431.661 1505.976 1527.085 1557.368 1623.485 1505.976 1530.47 1563.463 1527.582 1719.057 1523.021 1562.785 1431.661 1505.976"/></g><polygon class="cls-44" points="1535.098 1711.719 1534.534 1781.578 1520.381 1781.536 1520.987 1711.563 1528.497 1715.969 1535.098 1711.719"/><ellipse class="cls-45" cx="817.07375" cy="625.58164" rx="17.7578" ry="20.29463"/><ellipse class="cls-46" cx="951.47004" cy="1439.16257" rx="16.5409" ry="18.90389"/><ellipse class="cls-47" cx="1216.12449" cy="890.94979" rx="16.5409" ry="18.90389"/><ellipse class="cls-48" cx="1466.60102" cy="1198.13798" rx="16.5409" ry="18.90389"/><ellipse class="cls-49" cx="1686.35872" cy="954.75041" rx="14.17792" ry="16.5409"/><g class="cls-50"><g class="cls-31"><polygon class="cls-51" points="2359.646 910.017 2455.511 965.433 2359.636 1020.81 2263.77 965.395 2359.646 910.017"/><polygon class="cls-52" points="2359.668 1432.204 2359.668 1020.776 2455.59 965.395 2455.59 1375.323 2359.668 1432.204"/><polygon class="cls-53" points="2263.766 1375.323 2263.766 965.395 2359.688 1020.776 2359.688 1431.704 2263.766 1375.323"/></g><polygon class="cls-54" points="2263.766 965.395 2359.19 1016.787 2455.59 965.395 2362.576 1022.881 2359.688 1431.448 2355.127 1022.204 2263.766 965.395"/></g><g class="cls-55"><g class="cls-31"><polygon class="cls-56" points="2186.92 747.068 2282.785 802.483 2186.909 857.86 2091.044 802.446 2186.92 747.068"/><polygon class="cls-57" points="2186.942 1347.133 2186.942 857.827 2282.864 802.446 2282.864 1290.452 2186.942 1347.133"/><polygon class="cls-58" points="2091.04 1290.752 2091.04 802.446 2186.962 857.827 2186.962 1347.133 2091.04 1290.752"/></g><polygon class="cls-59" points="2091.04 802.446 2186.464 853.837 2282.864 802.446 2189.85 859.931 2186.962 1352.307 2182.401 859.255 2091.04 802.446"/></g><g class="cls-60"><g class="cls-31"><polygon class="cls-61" points="2016.182 465.501 2112.047 520.917 2016.171 576.293 1920.306 520.878 2016.182 465.501"/><polygon class="Graphic-Style-4" points="2016.205 1511.578 2016.205 576.26 2112.126 520.879 2112.126 1456.796 2016.205 1511.578"/><polygon class="cls-62" points="2016.205 1511.796 2016.205 575.678 2112.126 520.298 2112.126 1454.615 2016.205 1511.796"/><polygon class="cls-63" points="1920.302 1455.196 1920.302 520.879 2016.224 576.26 2016.224 1511.578 1920.302 1455.196"/></g><polygon class="cls-64" points="1920.302 520.879 2015.726 572.271 2112.126 520.879 2019.112 578.365 2016.224 1517.823 2011.663 577.687 1920.302 520.879"/></g><g class="cls-65"><g class="cls-31"><polygon class="cls-66" points="1847.985 722.531 1943.851 777.946 1847.975 833.323 1752.11 777.907 1847.985 722.531"/><polygon class="cls-67" points="1848.008 1764.796 1848.008 833.289 1943.93 777.908 1943.93 1707.712 1848.008 1764.796"/><polygon class="cls-68" points="1752.106 1708.911 1752.106 777.908 1848.027 833.289 1848.027 1764.796 1752.106 1708.911"/></g><polygon class="cls-69" points="1752.106 777.908 1847.529 829.3 1943.93 777.908 1850.916 835.394 1848.027 1767.042 1843.467 834.717 1752.106 777.908"/></g><g class="cls-70"><g class="cls-31"><polygon class="cls-71" points="1675.259 1116.807 1771.125 1172.223 1675.249 1227.599 1579.384 1172.184 1675.259 1116.807"/><polygon class="cls-72" points="1675.282 1690.118 1675.282 1227.565 1771.204 1172.185 1771.204 1633.737 1675.282 1690.118"/><polygon class="cls-73" points="1579.379 1633.737 1579.379 1172.185 1675.301 1227.565 1675.301 1690.118 1579.379 1633.737"/></g><polygon class="cls-74" points="1579.379 1172.185 1674.803 1223.576 1771.204 1172.185 1678.19 1229.671 1675.301 1692.599 1670.741 1228.993 1579.379 1172.185"/></g><polygon class="cls-75" points="1682.717 1686.089 1682.154 1831.509 1668.001 1831.467 1668.607 1685.933 1676.117 1690.339 1682.717 1686.089"/><polygon class="cls-76" points="1855.346 1760.488 1854.783 1882.658 1840.63 1882.616 1841.235 1760.332 1848.746 1764.738 1855.346 1760.488"/><polygon class="cls-77" points="2023.324 1507.067 2022.761 1652.487 2008.608 1652.445 2009.214 1506.911 2016.724 1511.317 2023.324 1507.067"/><polygon class="cls-78" points="2193.628 1343.157 2193.065 1575.763 2178.912 1575.721 2179.518 1343.001 2187.028 1347.407 2193.628 1343.157"/><polygon class="cls-79" points="2366.838 1428.018 2366.274 1544.376 2352.121 1544.334 2352.727 1427.862 2360.237 1432.268 2366.838 1428.018"/><path class="cls-80" d="M2353.65334,736.33783h14.09527a0,0,0,0,1,0,0V960.84606a1.01605,1.01605,0,0,1-1.01605,1.01605h-12.06316a1.01605,1.01605,0,0,1-1.01605-1.01605V736.33783A0,0,0,0,1,2353.65334,736.33783Z" transform="translate(7.44195 -20.41244) rotate(0.4962)"/><path class="cls-81" d="M2179.54736,642.34983h14.09527a0,0,0,0,1,0,0V805.797a1.01605,1.01605,0,0,1-1.01605,1.01605h-12.06316a1.01605,1.01605,0,0,1-1.01605-1.01605V642.34983a0,0,0,0,1,0,0Z" transform="translate(6.35714 -18.90954) rotate(0.49621)"/><path class="cls-82" d="M2010.1804,402.72738h14.09527a0,0,0,0,1,0,0V514.49381a1.01605,1.01605,0,0,1-1.01605,1.01605h-12.06316a1.01605,1.01605,0,0,1-1.01605-1.01605V402.72738a0,0,0,0,1,0,0Z" transform="translate(4.05177 -17.45265) rotate(0.49621)"/><path class="cls-83" d="M1841.52528,557.79778h14.09527a0,0,0,0,1,0,0V782.306a1.016,1.016,0,0,1-1.016,1.016h-12.06316a1.01605,1.01605,0,0,1-1.01605-1.01605V557.79778a0,0,0,0,1,0,0Z" transform="matrix(0.99996, 0.00866, -0.00866, 0.99996, 5.87722, -15.98578)"/><path class="cls-84" d="M1667.68365,947.76685h14.09527a0,0,0,0,1,0,0v224.50823a1.01605,1.01605,0,0,1-1.01605,1.01605H1668.6997a1.016,1.016,0,0,1-1.016-1.016V947.76685A0,0,0,0,1,1667.68365,947.76685Z" transform="matrix(0.99996, 0.00866, -0.00866, 0.99996, 9.24263, -14.45666)"/><circle class="cls-85" cx="1331.25808" cy="468.38291" r="74.95647" transform="translate(-49.39958 176.12436) rotate(-7.43167)"/><path class="cls-86" d="M1354.187,491.8625a56.76784,56.76784,0,1,0-13.00768,79.22121A56.76765,56.76765,0,0,0,1354.187,491.8625Z"/><path class="cls-87" d="M1323.36468,545.35474a42.57581,42.57581,0,1,0-9.75592,59.41561A42.57589,42.57589,0,0,0,1323.36468,545.35474Z"/></g></g></svg>