<?xml version="1.0" encoding="utf-8"?>
<!-- Generator: Adobe Illustrator 25.3.1, SVG Export Plug-In . SVG Version: 6.00 Build 0)  -->
<svg version="1.1" id="Layer_1" xmlns="http://www.w3.org/2000/svg" xmlns:xlink="http://www.w3.org/1999/xlink" x="0px" y="0px"
	 viewBox="0 0 208.5 184" style="enable-background:new 0 0 208.5 184;" xml:space="preserve">
<style type="text/css">
	.st0{fill:url(#SVGID_1_);}
	.st1{fill:#904BB0;}
	.st2{fill:url(#SVGID_2_);}
	.st3{fill:#FFFFFF;}
	.st4{clip-path:url(#SVGID_4_);}
	.st5{fill:#FF9000;}
	.st6{fill:#FFD500;}
	.st7{fill:url(#SVGID_5_);}
	.st8{fill:url(#SVGID_6_);}
	.st9{fill:url(#SVGID_7_);}
	.st10{fill:url(#SVGID_8_);}
	.st11{fill:url(#SVGID_9_);}
	.st12{fill:url(#SVGID_10_);}
	.st13{fill:url(#SVGID_11_);}
	.st14{fill:url(#SVGID_12_);}
	.st15{fill:url(#SVGID_13_);}
	.st16{fill:url(#SVGID_14_);}
	.st17{fill:url(#SVGID_15_);}
	.st18{fill:#49484B;}
	.st19{fill:#242025;}
	.st20{fill:url(#SVGID_16_);}
	.st21{fill:#FF0054;}
	.st22{fill:url(#SVGID_17_);}
	.st23{fill:url(#SVGID_18_);}
	.st24{opacity:0.8;fill:#AFAFAF;enable-background:new    ;}
	.st25{fill:#B5B8BA;}
	.st26{clip-path:url(#SVGID_20_);}
	.st27{opacity:0.8;fill:#363538;enable-background:new    ;}
	.st28{fill:url(#SVGID_21_);}
	.st29{opacity:0.55;fill:url(#SVGID_22_);enable-background:new    ;}
	.st30{fill:#F9FBF9;}
	.st31{fill:none;}
	.st32{opacity:0.85;fill:#E1EDDD;enable-background:new    ;}
	.st33{fill:#E1EDDD;}
	.st34{opacity:0.7;}
	.st35{fill:url(#SVGID_23_);}
	.st36{fill:url(#SVGID_24_);}
	.st37{fill:url(#SVGID_25_);}
	.st38{opacity:0.25;fill:#E1EDDD;enable-background:new    ;}
	.st39{fill:url(#SVGID_26_);}
	.st40{clip-path:url(#SVGID_28_);}
	.st41{fill:url(#SVGID_29_);}
	.st42{fill:url(#SVGID_30_);}
	.st43{fill:url(#SVGID_31_);}
	.st44{fill:url(#SVGID_32_);}
	.st45{fill:url(#SVGID_33_);}
	.st46{fill:url(#SVGID_34_);}
	.st47{fill:url(#SVGID_35_);}
	.st48{fill:url(#SVGID_36_);}
	.st49{fill:url(#SVGID_37_);}
	.st50{fill:url(#SVGID_38_);}
	.st51{fill:url(#SVGID_39_);}
	.st52{opacity:0.55;fill:url(#SVGID_40_);enable-background:new    ;}
	.st53{fill:url(#SVGID_41_);}
	.st54{opacity:0.2;fill:url(#SVGID_42_);enable-background:new    ;}
	.st55{opacity:0.55;fill:#B07AEB;enable-background:new    ;}
	.st56{fill:url(#SVGID_43_);}
</style>
<g>
	<g id="BACKGROUND">
		
			<linearGradient id="SVGID_1_" gradientUnits="userSpaceOnUse" x1="224.0782" y1="52.7079" x2="22.6726" y2="193.633" gradientTransform="matrix(1 0 0 -1 0 226)">
			<stop  offset="0.2278" style="stop-color:#6E1796"/>
			<stop  offset="1" style="stop-color:#2D0053"/>
		</linearGradient>
		<rect x="6.1" y="3.9" class="st0" width="201" height="174.3"/>
		<path class="st1" d="M53.5,94.3c-0.4-0.5-1.1-0.6-1.6-0.2c-0.5,0.4-0.6,1.1-0.2,1.6c0.4,0.5,1.1,0.6,1.6,0.2
			C53.8,95.5,53.9,94.8,53.5,94.3C53.5,94.3,53.5,94.3,53.5,94.3z"/>
		<path class="st1" d="M126.4,150.3c-0.4-0.5-1.1-0.6-1.6-0.2s-0.6,1.1-0.2,1.6c0.4,0.5,1.1,0.6,1.6,0.2
			C126.7,151.5,126.8,150.8,126.4,150.3z"/>
		<path class="st1" d="M151.6,68.5c0.5-0.4,0.6-1.1,0.2-1.6c-0.4-0.5-1.1-0.6-1.6-0.2c-0.5,0.4-0.6,1.1-0.2,1.6c0,0,0,0,0,0
			C150.4,68.8,151.1,68.9,151.6,68.5C151.6,68.5,151.6,68.5,151.6,68.5z"/>
		<path class="st1" d="M70.1,66.9c-0.4-0.5-1.1-0.6-1.6-0.2s-0.6,1.1-0.2,1.6c0.4,0.5,1.1,0.6,1.6,0.2c0,0,0,0,0,0
			C70.4,68.2,70.5,67.4,70.1,66.9C70.1,66.9,70.1,66.9,70.1,66.9z"/>
		<path class="st1" d="M14.4,147.2c-0.2-0.3-0.7-0.4-1-0.1c-0.3,0.2-0.4,0.7-0.1,1c0.2,0.3,0.7,0.4,1,0.1
			C14.6,148,14.6,147.5,14.4,147.2z"/>
		<path class="st1" d="M57.5,105.8c0.2,0.3,0.7,0.4,1,0.1c0.3-0.2,0.4-0.7,0.1-1c-0.2-0.3-0.7-0.4-1-0.1
			C57.3,105,57.2,105.5,57.5,105.8z"/>
		<path class="st1" d="M108.2,110.5c-0.2-0.3-0.7-0.4-1-0.1c-0.3,0.2-0.4,0.7-0.1,1c0.2,0.3,0.7,0.4,1,0.1l0,0
			C108.4,111.3,108.5,110.8,108.2,110.5C108.2,110.5,108.2,110.5,108.2,110.5z"/>
		<path class="st1" d="M140.2,79.9c-0.2-0.3-0.7-0.4-1-0.1c-0.3,0.2-0.4,0.7-0.1,1c0.2,0.3,0.7,0.4,1,0.1
			C140.4,80.7,140.4,80.2,140.2,79.9C140.2,79.9,140.2,79.9,140.2,79.9z"/>
		<path class="st1" d="M180.1,105.5c0.2,0.3,0.7,0.4,1,0.1c0.3-0.2,0.4-0.7,0.1-1c-0.2-0.3-0.7-0.4-1-0.1c0,0,0,0,0,0
			C179.9,104.7,179.9,105.2,180.1,105.5C180.1,105.5,180.1,105.5,180.1,105.5z"/>
		<path class="st1" d="M208.4,96.6c-0.2-0.3-0.7-0.4-1-0.1c-0.3,0.2-0.4,0.7-0.1,1c0.2,0.3,0.7,0.4,1,0.1
			C208.6,97.3,208.6,96.9,208.4,96.6C208.4,96.6,208.4,96.6,208.4,96.6z"/>
		<path class="st1" d="M108.3,119.7c-0.6-0.8-1.9-1-2.7-0.4c-0.8,0.6-1,1.9-0.4,2.7c0.6,0.8,1.9,1,2.7,0.4c0,0,0,0,0,0
			C108.7,121.7,108.9,120.5,108.3,119.7z"/>
		<path class="st1" d="M67.2,15.1c-0.4-0.5-1.1-0.6-1.6-0.2s-0.6,1.1-0.2,1.6c0.4,0.5,1.1,0.6,1.6,0.2
			C67.5,16.3,67.6,15.6,67.2,15.1z"/>
		<path class="st1" d="M133.8,161.8c-0.6-0.8-1.7-0.9-2.5-0.3s-0.9,1.7-0.3,2.5c0.6,0.8,1.7,0.9,2.5,0.3c0,0,0,0,0,0
			C134.2,163.7,134.4,162.6,133.8,161.8C133.8,161.8,133.8,161.8,133.8,161.8z"/>
		<path class="st1" d="M76.7,156.6c-0.4-0.5-1.1-0.6-1.6-0.2c-0.5,0.4-0.6,1.1-0.2,1.6c0.4,0.5,1.1,0.6,1.6,0.2c0,0,0,0,0,0
			C77,157.8,77.1,157.1,76.7,156.6z"/>
	</g>
	<g id="OBJECTS">
		
			<radialGradient id="SVGID_2_" cx="-195.0971" cy="493.719" r="18.177" gradientTransform="matrix(0.8241 0.5665 0.5665 -0.8241 34.7988 671.6498)" gradientUnits="userSpaceOnUse">
			<stop  offset="0" style="stop-color:#ABF4FF"/>
			<stop  offset="0.3728" style="stop-color:#78EAFF"/>
			<stop  offset="0.7934" style="stop-color:#45E1FF"/>
			<stop  offset="1" style="stop-color:#31DDFF"/>
		</radialGradient>
		<path class="st2" d="M146.2,172.4l21.1-20c-3.9-7.3-13.1-10.1-20.4-6.1c-7.3,3.9-10.1,13.1-6.1,20.4c1.1,2.1,2.8,3.9,4.7,5.3
			C145.8,172.1,146,172.2,146.2,172.4z"/>
		<path class="st3" d="M0,0v184h208.5V0H0z M107,178.2c-37.7,0-68.2-30.5-68.2-68.2S69.4,41.9,107,41.9c37.7,0,68.2,30.5,68.2,68.2
			C175.2,147.7,144.7,178.2,107,178.2C107,178.2,107,178.2,107,178.2z"/>
		<g>
			<defs>
				<path id="SVGID_3_" d="M175.2,110.1c0-37.7-30.5-88.5-68.2-88.5s-68.2,50.8-68.2,88.5c0,37.7,30.5,68.2,68.2,68.2
					C144.7,178.2,175.2,147.7,175.2,110.1z"/>
			</defs>
			<clipPath id="SVGID_4_">
				<use xlink:href="#SVGID_3_"  style="overflow:visible;"/>
			</clipPath>
			<g class="st4">
				<path class="st5" d="M106.8,149.3l-5,0c-0.2,2.7,0.5,5.4,1.8,7.8l3.2,5.8l3.2-5.8c1.3-2.4,1.9-5.1,1.8-7.8L106.8,149.3z
					 M108.5,156.3l-1.7,3l-1.7-3c-1.2-2.1-1.7-4.5-1.6-7h6.5C110.2,151.7,109.7,154.1,108.5,156.3z"/>
				<path class="st6" d="M106.8,149.3h-3.3c-0.2,2.4,0.4,4.8,1.6,7l1.7,3l1.7-3c1.2-2.1,1.7-4.5,1.6-7H106.8z"/>
				
					<linearGradient id="SVGID_5_" gradientUnits="userSpaceOnUse" x1="106.803" y1="87.2723" x2="106.803" y2="36.4198" gradientTransform="matrix(1 0 0 -1 0 226)">
					<stop  offset="2.020000e-03" style="stop-color:#FF69D6"/>
					<stop  offset="0.1353" style="stop-color:#FF69D6;stop-opacity:0.8432"/>
					<stop  offset="0.4555" style="stop-color:#FF69D6;stop-opacity:0.4865"/>
					<stop  offset="0.7161" style="stop-color:#FF69D6;stop-opacity:0.2243"/>
					<stop  offset="0.9037" style="stop-color:#FF69D6;stop-opacity:6.197000e-02"/>
					<stop  offset="1" style="stop-color:#FF69D6;stop-opacity:0"/>
				</linearGradient>
				<polygon class="st7" points="106.8,149.3 97.4,149.3 106.8,263 116.2,149.3 				"/>
				
					<linearGradient id="SVGID_6_" gradientUnits="userSpaceOnUse" x1="145.0789" y1="66.0866" x2="145.0789" y2="134.0899" gradientTransform="matrix(1 0 0 -1 0 226)">
					<stop  offset="4.487000e-02" style="stop-color:#A10038"/>
					<stop  offset="1" style="stop-color:#FF5800"/>
				</linearGradient>
				<path class="st8" d="M157.1,127.4c0-13.7-6.6-26.5-17.8-34.4c-2,2.9-3.5,6.1-4.5,9.5c-0.1,0.3-0.2,0.7-0.3,1
					c-0.2,3.9-0.6,7.7-1.4,11.5c0.1,2.2,0.4,4.5,0.9,6.7c1.2,4.8,3.4,9.2,6.5,13c8.3,1.9,13.4,4.6,16.5,6.8l0,0L157.1,127.4z"/>
				
					<linearGradient id="SVGID_7_" gradientUnits="userSpaceOnUse" x1="136.7314" y1="114.92" x2="136.7314" y2="144.6681" gradientTransform="matrix(1 0 0 -1 0 226)">
					<stop  offset="4.487000e-02" style="stop-color:#A10038"/>
					<stop  offset="1" style="stop-color:#FF5800"/>
				</linearGradient>
				<path class="st9" d="M134.5,103.5c0.1-0.3,0.2-0.7,0.3-1c1-3.4,2.5-6.6,4.5-9.5c-1.6-1.1-3.3-2.1-5-3c0.2,3.1,0.4,6.3,0.3,9.6
					C134.6,100.9,134.5,102.2,134.5,103.5z"/>
				
					<linearGradient id="SVGID_8_" gradientUnits="userSpaceOnUse" x1="133.5051" y1="90.42" x2="133.5051" y2="122.6436" gradientTransform="matrix(1 0 0 -1 0 226)">
					<stop  offset="4.487000e-02" style="stop-color:#A10038"/>
					<stop  offset="1" style="stop-color:#FF5800"/>
				</linearGradient>
				<path class="st10" d="M133.1,115c-1.2,6.2-3.4,12.2-6.6,17.6c0.4,0,0.9,0.1,1.3,0.1c0.1,0,0.2,0,0.3,0c0.5,0,0.9,0.1,1.4,0.1
					c0.1,0,0.2,0,0.2,0c0.4,0,0.8,0.1,1.2,0.1c0.1,0,0.2,0,0.3,0c0.4,0,0.8,0.1,1.3,0.2c0.1,0,0.2,0,0.3,0c0.4,0.1,0.8,0.1,1.1,0.2
					c0.1,0,0.1,0,0.2,0c0.4,0.1,0.8,0.1,1.2,0.2c0.1,0,0.2,0,0.4,0.1c0.4,0.1,0.7,0.1,1.1,0.2c0.1,0,0.2,0,0.3,0.1
					c0.3,0.1,0.6,0.1,0.9,0.2c0.1,0,0.2,0,0.3,0.1c0.3,0.1,0.7,0.1,1,0.2c0.1,0,0.2,0,0.4,0.1c0.3,0.1,0.5,0.1,0.8,0.2
					c0.1,0,0.2,0,0.3,0.1l0,0h0c-3.1-3.8-5.3-8.2-6.5-13C133.5,119.5,133.2,117.3,133.1,115z"/>
				
					<linearGradient id="SVGID_9_" gradientUnits="userSpaceOnUse" x1="147.6418" y1="96.0866" x2="147.6418" y2="148.9683" gradientTransform="matrix(1 0 0 -1 0 226)">
					<stop  offset="1.496000e-02" style="stop-color:#FF520D"/>
					<stop  offset="0.8098" style="stop-color:#FF5278"/>
					<stop  offset="1" style="stop-color:#FF6D96"/>
				</linearGradient>
				<path class="st11" d="M161.2,137.5l0-10.1c0-15.5-8.5-29.8-22.2-37.1c-0.1,0-0.1-0.1-0.2-0.1c-0.2-0.1-0.4-0.2-0.6-0.3
					c-0.1,0-0.2-0.1-0.2-0.1c-0.2-0.1-0.4-0.2-0.5-0.3c-0.1,0-0.2-0.1-0.3-0.1c-0.2-0.1-0.3-0.2-0.5-0.2c-0.1,0-0.2-0.1-0.3-0.1
					c-0.2-0.1-0.3-0.2-0.5-0.2c-0.1,0-0.2-0.1-0.3-0.1c-0.2-0.1-0.4-0.2-0.6-0.2c-0.1,0-0.2-0.1-0.3-0.1c-0.2-0.1-0.4-0.2-0.7-0.3
					c0.1,0.6,0.1,1.3,0.2,1.9c14,7.2,22.9,21.6,22.8,37.4l0,14.1l0,0c2.2,2.2,3.8,0.9,4-0.5C161.1,139.8,161.2,138.7,161.2,137.5z"
					/>
				
					<linearGradient id="SVGID_10_" gradientUnits="userSpaceOnUse" x1="68.8539" y1="66.0867" x2="68.8539" y2="134.0901" gradientTransform="matrix(1 0 0 -1 0 226)">
					<stop  offset="4.487000e-02" style="stop-color:#A10038"/>
					<stop  offset="1" style="stop-color:#FF5800"/>
				</linearGradient>
				<path class="st12" d="M79.9,121.6c0.5-2.1,0.9-4.2,0.9-6.4c-0.8-4-1.3-8.1-1.4-12.1c-0.1-0.2-0.1-0.5-0.2-0.7
					c-1-3.4-2.5-6.6-4.4-9.5c-11.2,7.8-17.9,20.6-17.9,34.3l0,14.1l0,0c3.1-2.2,8.2-4.9,16.5-6.7l0,0
					C76.5,130.8,78.7,126.4,79.9,121.6z"/>
				
					<linearGradient id="SVGID_11_" gradientUnits="userSpaceOnUse" x1="77.2838" y1="114.92" x2="77.2838" y2="144.6681" gradientTransform="matrix(1 0 0 -1 0 226)">
					<stop  offset="4.487000e-02" style="stop-color:#A10038"/>
					<stop  offset="1" style="stop-color:#FF5800"/>
				</linearGradient>
				<path class="st13" d="M79.3,102.4c0.1,0.2,0.1,0.5,0.2,0.7c0-1.2-0.1-2.4-0.1-3.7c0-3.3,0.1-6.4,0.4-9.5c-1.7,0.9-3.4,1.9-4.9,3
					C76.8,95.8,78.3,99,79.3,102.4z"/>
				
					<linearGradient id="SVGID_12_" gradientUnits="userSpaceOnUse" x1="80.3771" y1="90.42" x2="80.3771" y2="122.6436" gradientTransform="matrix(1 0 0 -1 0 226)">
					<stop  offset="4.487000e-02" style="stop-color:#A10038"/>
					<stop  offset="1" style="stop-color:#FF5800"/>
				</linearGradient>
				<path class="st14" d="M80.9,115.3c-0.1,2.1-0.4,4.3-0.9,6.4c-1.2,4.8-3.4,9.2-6.6,13l0,0c0.1,0,0.2,0,0.3-0.1
					c0.3-0.1,0.5-0.1,0.8-0.2c0.1,0,0.2,0,0.4-0.1c0.3-0.1,0.7-0.1,1-0.2c0.1,0,0.2,0,0.3-0.1c0.3-0.1,0.6-0.1,0.9-0.2
					c0.1,0,0.2,0,0.3,0c0.4-0.1,0.7-0.1,1.1-0.2c0.1,0,0.2,0,0.4-0.1c0.4-0.1,0.8-0.1,1.2-0.2c0.1,0,0.1,0,0.2,0
					c0.4-0.1,0.7-0.1,1.1-0.2c0.1,0,0.2,0,0.3,0c0.4-0.1,0.8-0.1,1.3-0.2c0.1,0,0.2,0,0.3,0c0.4,0,0.8-0.1,1.2-0.1
					c0.1,0,0.2,0,0.2,0c0.4,0,0.9-0.1,1.4-0.1c0.1,0,0.2,0,0.3,0c0.4,0,0.8-0.1,1.2-0.1l0,0C84.2,127.2,82,121.4,80.9,115.3z"/>
				
					<linearGradient id="SVGID_13_" gradientUnits="userSpaceOnUse" x1="66.3072" y1="96.0866" x2="66.3072" y2="148.9683" gradientTransform="matrix(1 0 0 -1 0 226)">
					<stop  offset="1.496000e-02" style="stop-color:#FF520D"/>
					<stop  offset="0.8098" style="stop-color:#FF5278"/>
					<stop  offset="1" style="stop-color:#FF6D96"/>
				</linearGradient>
				<path class="st15" d="M56.9,127.2c0-15.7,8.9-30.1,22.9-37.3c0-0.6,0.1-1.3,0.2-1.9c-0.2,0.1-0.4,0.1-0.6,0.2
					c-0.1,0-0.2,0.1-0.3,0.1c-0.2,0.1-0.4,0.1-0.6,0.2c-0.1,0-0.2,0.1-0.3,0.1c-0.2,0.1-0.3,0.1-0.5,0.2c-0.1,0-0.2,0.1-0.3,0.1
					c-0.2,0.1-0.3,0.2-0.5,0.2c-0.1,0-0.2,0.1-0.3,0.1c-0.2,0.1-0.4,0.2-0.5,0.3c-0.1,0-0.2,0.1-0.2,0.1c-0.2,0.1-0.4,0.2-0.6,0.3
					c-0.1,0-0.1,0.1-0.2,0.1c-13.7,7.3-22.3,21.5-22.3,37l0,10.1c0,1.1,0,2.3,0.1,3.4c0.2,1.4,1.8,2.8,4,0.6l0,0L56.9,127.2z"/>
				
					<linearGradient id="SVGID_14_" gradientUnits="userSpaceOnUse" x1="106.9762" y1="105.7533" x2="106.9762" y2="198.4222" gradientTransform="matrix(1 0 0 -1 0 226)">
					<stop  offset="1.496000e-02" style="stop-color:#FF7F02"/>
					<stop  offset="0.8098" style="stop-color:#FF5278"/>
					<stop  offset="1" style="stop-color:#FF6D96"/>
				</linearGradient>
				<path class="st16" d="M134.1,88.1L134.1,88.1c-1-11.4-3.7-22.6-8-33.2H88c-4.3,10.6-7.1,21.7-8.1,33.1l0,0.1
					c-0.1,0.6-0.1,1.3-0.2,1.9c-0.2,3.1-0.4,6.2-0.4,9.5c0,1.3,0,2.5,0.1,3.7c0.1,4.1,0.6,8.1,1.4,12.1c1.2,6.1,3.4,12,6.5,17.3l0,0
					c1.4,2.5,3.2,4.8,5.3,6.8l28.4,0c2.1-2,3.9-4.3,5.4-6.8l0,0c3.2-5.4,5.5-11.4,6.6-17.6c0.8-3.8,1.2-7.6,1.4-11.5
					c0.1-1.3,0.1-2.6,0.1-4c0-3.3-0.1-6.5-0.3-9.6C134.2,89.3,134.1,88.7,134.1,88.1z"/>
				
					<linearGradient id="SVGID_15_" gradientUnits="userSpaceOnUse" x1="107.0533" y1="168.5733" x2="107.0533" y2="196.686" gradientTransform="matrix(1 0 0 -1 0 226)">
					<stop  offset="0" style="stop-color:#908F91"/>
					<stop  offset="1" style="stop-color:#CDCFD1"/>
				</linearGradient>
				<path class="st17" d="M126.1,55c-8.1-19.7-19-29.9-19-29.9S96.1,35.2,88,54.9L126.1,55z"/>
				<polygon class="st18" points="119.5,149.7 121,139.5 92.9,139.4 94.4,149.7 				"/>
				<polygon class="st19" points="97.7,148.3 97,141.1 95,141.1 95.9,148.3 				"/>
				<polygon class="st19" points="101.8,148.3 101.4,141.1 99.4,141.1 100,148.3 				"/>
				<polygon class="st19" points="105.8,148.3 105.8,141.1 103.8,141.1 104,148.3 				"/>
				<polygon class="st19" points="109.9,148.3 110.1,141.1 108.2,141.1 108.1,148.3 				"/>
				<polygon class="st19" points="113.9,148.3 114.5,141.1 112.5,141.1 112.1,148.3 				"/>
				<polygon class="st19" points="118,148.3 118.9,141.1 116.9,141.1 116.1,148.3 				"/>
				
					<linearGradient id="SVGID_16_" gradientUnits="userSpaceOnUse" x1="106.906" y1="84.2533" x2="106.906" y2="138.1797" gradientTransform="matrix(1 0 0 -1 0 226)">
					<stop  offset="1.496000e-02" style="stop-color:#FF1857"/>
					<stop  offset="0.8098" style="stop-color:#FF5278"/>
					<stop  offset="1" style="stop-color:#FF6D96"/>
				</linearGradient>
				<path class="st20" d="M106.9,88.2c-0.5,0-0.9,0.4-0.9,0.9l-1.6,50.8c0,1.4,1.1,2.6,2.5,2.6c1.4,0,2.6-1.1,2.6-2.5
					c0,0,0-0.1,0-0.1l-1.7-50.8C107.8,88.6,107.4,88.2,106.9,88.2L106.9,88.2z"/>
				<path class="st21" d="M105.8,94.6l-1.4,45.3c0,1,0.5,1.8,1.3,2.3L105.8,94.6z"/>
				<path class="st21" d="M108,94.5l-0.1,47.8c1-0.4,1.6-1.4,1.6-2.4L108,94.5L108,94.5z"/>
				
					<linearGradient id="SVGID_17_" gradientUnits="userSpaceOnUse" x1="107.0247" y1="167.2533" x2="107.0247" y2="132.8796" gradientTransform="matrix(1 0 0 -1 0 226)">
					<stop  offset="1.496000e-02" style="stop-color:#FF1857"/>
					<stop  offset="0.8098" style="stop-color:#FF5278"/>
					<stop  offset="1" style="stop-color:#FF6D96"/>
				</linearGradient>
				<path class="st22" d="M121.5,71.4c0-8-6.4-14.5-14.4-14.5c-8,0-14.5,6.4-14.5,14.4c0,8,6.4,14.5,14.4,14.5l0,0
					C115,85.8,121.5,79.4,121.5,71.4C121.5,71.4,121.5,71.4,121.5,71.4z"/>
				
					<linearGradient id="SVGID_18_" gradientUnits="userSpaceOnUse" x1="107.0248" y1="141.8443" x2="107.0248" y2="167.5111" gradientTransform="matrix(1 0 0 -1 0 226)">
					<stop  offset="0" style="stop-color:#908F91"/>
					<stop  offset="1" style="stop-color:#CDCFD1"/>
				</linearGradient>
				<path class="st23" d="M119.1,71.4c0-6.7-5.4-12.1-12-12.1c-6.7,0-12.1,5.4-12.1,12c0,6.7,5.4,12.1,12,12.1l0,0
					C113.7,83.4,119.1,78,119.1,71.4z"/>
				<path class="st18" d="M115.1,71.4c0-4.4-3.6-8-8-8c-4.4,0-8,3.6-8,8s3.6,8,8,8l0,0C111.4,79.4,115,75.8,115.1,71.4
					C115.1,71.4,115.1,71.4,115.1,71.4z"/>
				<path class="st24" d="M111.8,64.5c0.3,0.2,0.5,0.4,0.7,0.6C112.3,64.9,112,64.7,111.8,64.5z"/>
				<path class="st24" d="M113.2,65.7c-0.2-0.2-0.4-0.4-0.5-0.5C112.8,65.4,113,65.5,113.2,65.7z"/>
				<path class="st24" d="M113.3,65.9c0.2,0.2,0.4,0.5,0.5,0.7C113.7,66.3,113.5,66.1,113.3,65.9z"/>
				<path class="st24" d="M98.7,71.3c0,0.4,0,0.7,0.1,1.1C98.7,72.1,98.7,71.7,98.7,71.3z"/>
				<path class="st24" d="M115.3,70.1c0-0.3-0.1-0.6-0.2-0.9C115.2,69.5,115.2,69.8,115.3,70.1z"/>
				<path class="st24" d="M98.8,69.8c0-0.2,0.1-0.4,0.1-0.6C98.9,69.4,98.9,69.6,98.8,69.8z"/>
				<path class="st24" d="M99,69.1c0.1-0.2,0.1-0.4,0.2-0.7C99.1,68.7,99.1,68.9,99,69.1z"/>
				<path class="st24" d="M98.7,70.6c0-0.2,0-0.3,0.1-0.5C98.8,70.2,98.7,70.4,98.7,70.6z"/>
				<path class="st25" d="M95.8,51.5c0-0.8-0.6-1.4-1.4-1.4c-0.8,0-1.4,0.6-1.4,1.4c0,0.8,0.6,1.4,1.4,1.4l0,0
					C95.2,52.8,95.8,52.2,95.8,51.5C95.8,51.5,95.8,51.5,95.8,51.5z"/>
				<path class="st25" d="M108.6,51.5c0-0.8-0.6-1.4-1.4-1.4c-0.8,0-1.4,0.6-1.4,1.4c0,0.8,0.6,1.4,1.4,1.4l0,0
					C108,52.9,108.6,52.2,108.6,51.5C108.6,51.5,108.6,51.5,108.6,51.5z"/>
				<path class="st25" d="M121.5,51.5c0-0.8-0.6-1.4-1.4-1.4c-0.8,0-1.4,0.6-1.4,1.4c0,0.8,0.6,1.4,1.4,1.4l0,0
					C120.8,52.9,121.5,52.3,121.5,51.5C121.5,51.5,121.5,51.5,121.5,51.5z"/>
				<g>
					<defs>
						<path id="SVGID_19_" d="M115.1,71.4c0-4.4-3.6-8-8-8c-4.4,0-8,3.6-8,8s3.6,8,8,8l0,0C111.4,79.4,115,75.8,115.1,71.4
							C115.1,71.4,115.1,71.4,115.1,71.4z"/>
					</defs>
					<clipPath id="SVGID_20_">
						<use xlink:href="#SVGID_19_"  style="overflow:visible;"/>
					</clipPath>
					<g class="st26">
						<path class="st27" d="M111.8,64.5c-3.8-2.6-9-1.7-11.6,2.1c-0.4,0.6-0.7,1.2-1,1.9L111.8,64.5z"/>
						<path class="st27" d="M98.8,72.4c0.1,0.9,0.4,1.8,0.8,2.6c-0.1-0.3-0.3-0.6-0.4-0.8l15.9-5c-0.2-0.9-0.6-1.8-1.2-2.6
							c0.2,0.3,0.4,0.6,0.5,0.9L98.8,72.4z"/>
						<path class="st27" d="M115.3,70.1c0,0.3,0.1,0.6,0.1,0.9L100,75.9c-0.2-0.3-0.3-0.5-0.4-0.8c2,4.1,7,5.8,11.1,3.8
							C114,77.3,115.8,73.7,115.3,70.1z"/>
					</g>
				</g>
			</g>
		</g>
		
			<radialGradient id="SVGID_21_" cx="170.6569" cy="154.5898" r="15.8406" gradientTransform="matrix(1 0 0 -1 -6.820543e-04 226.001)" gradientUnits="userSpaceOnUse">
			<stop  offset="0" style="stop-color:#FEDF06"/>
			<stop  offset="0.1311" style="stop-color:#FCD309"/>
			<stop  offset="0.7141" style="stop-color:#F59F17"/>
			<stop  offset="1" style="stop-color:#F28B1C"/>
		</radialGradient>
		<circle class="st28" cx="169.7" cy="72.9" r="15.8"/>
		
			<radialGradient id="SVGID_22_" cx="170.038" cy="150.3262" r="12.0448" gradientTransform="matrix(1 0 0 -1 0 226)" gradientUnits="userSpaceOnUse">
			<stop  offset="5.847000e-02" style="stop-color:#F28B1C"/>
			<stop  offset="1" style="stop-color:#F28B1C"/>
		</radialGradient>
		<path class="st29" d="M170,76.6c-1.3-0.8-14.5-7.9-15.4-8.5c-0.9,2.9-1,6-0.2,8.9c5.1,0.7,10.1,2.3,14.6,4.8
			c2.8,1.4,5.4,3.2,7.7,5.3c2.1-1,3.9-2.6,5.4-4.4C177.9,81.1,173.8,79.1,170,76.6z"/>
		<path class="st30" d="M168.2,75.8c-15.4-8-28-15.8-31.9-19.7c0.4,2.5,14,11.4,31.5,20.5c17.5,9,32.7,15,35,13.8
			C197.3,89.4,183.6,83.7,168.2,75.8z"/>
		<path class="st31" d="M193.7,85.1c0,0,0-0.1,0-0.1c0,0,0-0.1,0-0.1c0,0,0-0.1-0.1-0.1c0,0,0-0.1-0.1-0.1c0,0,0-0.1-0.1-0.1
			c0,0-0.1-0.1-0.1-0.1c0,0-0.1-0.1-0.1-0.1c0,0-0.1-0.1-0.1-0.1c0,0-0.1-0.1-0.1-0.1c0,0-0.1-0.1-0.1-0.1c-0.1,0-0.1-0.1-0.2-0.1
			c-0.1,0-0.1-0.1-0.2-0.1c-0.1-0.1-0.1-0.1-0.2-0.2c-0.1-0.1-0.1-0.1-0.2-0.2c-0.1-0.1-0.1-0.1-0.2-0.2c-0.1-0.1-0.1-0.1-0.2-0.2
			c-0.1-0.1-0.2-0.1-0.2-0.2c-0.1-0.1-0.2-0.1-0.2-0.2c-0.1-0.1-0.2-0.1-0.3-0.2c-0.1-0.1-0.2-0.1-0.3-0.2c-0.1-0.1-0.2-0.1-0.3-0.2
			c-0.1-0.1-0.2-0.1-0.3-0.2c-0.1-0.1-0.2-0.1-0.3-0.2c-0.1-0.1-0.2-0.1-0.3-0.2c-0.1-0.1-0.2-0.2-0.3-0.2c-0.1-0.1-0.2-0.1-0.3-0.2
			c-0.1-0.1-0.3-0.2-0.4-0.2c-0.1-0.1-0.2-0.1-0.3-0.2c-0.1-0.1-0.3-0.2-0.5-0.3c-0.1-0.1-0.2-0.1-0.3-0.2c-0.2-0.2-0.5-0.3-0.8-0.5
			c-0.1,0-0.1-0.1-0.2-0.1c-0.2-0.1-0.4-0.2-0.6-0.4c-0.1-0.1-0.2-0.1-0.3-0.2c-0.2-0.1-0.3-0.2-0.5-0.3c-0.1-0.1-0.2-0.1-0.4-0.2
			l-0.1,0c-0.2,0.6-0.5,1.2-0.8,1.8l0,0l-28.2-14.5l0,0c0.3-0.6,0.6-1.1,1-1.7c-0.1,0-0.1-0.1-0.2-0.1c-0.1-0.1-0.3-0.1-0.4-0.2
			c-0.2-0.1-0.3-0.1-0.5-0.2c-0.1-0.1-0.3-0.1-0.4-0.2c-0.2-0.1-0.3-0.1-0.5-0.2c-0.1-0.1-0.2-0.1-0.4-0.2c-0.2-0.1-0.3-0.1-0.5-0.2
			c-0.1,0-0.2-0.1-0.3-0.1c-0.2-0.1-0.4-0.2-0.6-0.2c-0.1,0-0.1,0-0.2-0.1c-0.3-0.1-0.5-0.2-0.7-0.3c-0.1,0-0.2-0.1-0.3-0.1
			c-0.2-0.1-0.3-0.1-0.5-0.2c-0.1,0-0.2-0.1-0.3-0.1c-0.1,0-0.3-0.1-0.4-0.1c-0.1,0-0.2-0.1-0.3-0.1c-0.1,0-0.2-0.1-0.3-0.1
			c-0.1,0-0.2-0.1-0.3-0.1c-0.1,0-0.2-0.1-0.3-0.1c-0.1,0-0.2-0.1-0.3-0.1c-0.1,0-0.2-0.1-0.3-0.1c-0.1,0-0.2-0.1-0.2-0.1
			c-0.1,0-0.2-0.1-0.3-0.1c-0.1,0-0.1,0-0.2-0.1c-0.1,0-0.2,0-0.3-0.1c-0.1,0-0.1,0-0.2,0c-0.1,0-0.3-0.1-0.4-0.1c0,0-0.1,0-0.1,0
			c-0.1,0-0.2,0-0.3,0c0,0-0.1,0-0.1,0c-0.1,0-0.1,0-0.2,0c0,0-0.1,0-0.1,0c-0.1,0-0.1,0-0.2,0l0,0c-0.1,0-0.1,0-0.2,0c0,0,0,0,0,0
			c0,0-0.1,0-0.1,0c0,0,0,0,0,0c0,0-0.1,0-0.1,0.1c-0.6,1.2,9.6,7.7,22.9,14.5c13.2,6.8,24.5,11.4,25.1,10.2
			C193.7,85.2,193.7,85.2,193.7,85.1C193.7,85.1,193.7,85.1,193.7,85.1z"/>
		<path class="st32" d="M153.5,62.6c-0.2-0.1-0.4-0.2-0.6-0.2C153,62.5,153.3,62.5,153.5,62.6z"/>
		<path class="st32" d="M152.7,62.3c-0.3-0.1-0.5-0.2-0.7-0.3C152.2,62.1,152.4,62.2,152.7,62.3z"/>
		<path class="st32" d="M193.7,85.3C193.7,85.2,193.7,85.2,193.7,85.3c0-0.1,0-0.1,0-0.1C193.7,85.2,193.7,85.2,193.7,85.3z"/>
		<path class="st32" d="M146.2,60.4c0.1,0,0.1,0,0.2,0C146.3,60.4,146.3,60.4,146.2,60.4C146.2,60.4,146.2,60.4,146.2,60.4z"/>
		<path class="st32" d="M156.6,64L156.6,64c-0.1,0-0.1-0.1-0.2-0.1C156.5,63.9,156.6,63.9,156.6,64z"/>
		<path class="st32" d="M156,63.7c-0.2-0.1-0.3-0.1-0.5-0.2C155.7,63.6,155.9,63.6,156,63.7z"/>
		<path class="st32" d="M185.1,76.7c-0.1,0.4-0.2,0.9-0.4,1.3c5.9,3.5,9.3,6.2,9,7.2c0,0,0,0.1,0,0.1c-0.6,1.2-11.8-3.4-25.1-10.2
			c-13.2-6.8-23.5-13.3-22.9-14.5c0,0,0-0.1,0.1-0.1l0,0c0.4-0.9,4.6,0.4,11.1,3.2c0.3-0.4,0.6-0.8,0.9-1.1
			c-11.9-5.4-20.6-8.3-21.4-6.8c-1,2,13.1,11.3,31.5,20.8C186.2,86,202,92.1,203,90.1C203.8,88.6,196.4,83.2,185.1,76.7z"/>
		<path class="st32" d="M154.3,63c-0.2-0.1-0.3-0.1-0.5-0.2C154,62.8,154.1,62.9,154.3,63z"/>
		<path class="st32" d="M155.1,63.3c-0.2-0.1-0.3-0.1-0.5-0.2C154.8,63.2,155,63.3,155.1,63.3z"/>
		<path class="st32" d="M150.9,61.6c-0.1,0-0.3-0.1-0.4-0.1C150.7,61.5,150.8,61.6,150.9,61.6z"/>
		<path class="st32" d="M146.6,60.4c-0.1,0-0.1,0-0.2,0C146.5,60.4,146.6,60.4,146.6,60.4z"/>
		<path class="st32" d="M148.5,60.8c-0.1,0-0.2-0.1-0.3-0.1C148.3,60.8,148.4,60.8,148.5,60.8z"/>
		<path class="st32" d="M149,61c-0.1,0-0.2-0.1-0.3-0.1C148.8,60.9,148.9,61,149,61z"/>
		<path class="st32" d="M147.5,60.6c-0.1,0-0.3-0.1-0.4-0.1C147.3,60.5,147.4,60.5,147.5,60.6z"/>
		<path class="st32" d="M151.7,61.9c-0.2-0.1-0.3-0.1-0.5-0.2C151.4,61.8,151.5,61.9,151.7,61.9z"/>
		<path class="st32" d="M148,60.7c-0.1,0-0.2,0-0.3-0.1C147.8,60.6,147.9,60.6,148,60.7z"/>
		<path class="st32" d="M145.9,60.4c0,0-0.1,0-0.1,0C145.9,60.4,145.9,60.4,145.9,60.4z"/>
		<path class="st32" d="M147,60.4c-0.1,0-0.2,0-0.3,0C146.9,60.4,146.9,60.4,147,60.4z"/>
		<path class="st32" d="M146.2,60.4c-0.1,0-0.1,0-0.2,0C146,60.4,146.1,60.4,146.2,60.4z"/>
		<path class="st32" d="M150.2,61.4c-0.1,0-0.2-0.1-0.3-0.1C150,61.3,150.1,61.4,150.2,61.4z"/>
		<path class="st32" d="M149.6,61.2c-0.1,0-0.2-0.1-0.3-0.1C149.4,61.1,149.5,61.1,149.6,61.2z"/>
		<path class="st32" d="M190.9,82.5c0.1,0.1,0.2,0.1,0.3,0.2C191.1,82.6,191,82.5,190.9,82.5z"/>
		<path class="st32" d="M185.8,79.1c0.2,0.1,0.4,0.2,0.6,0.4C186.2,79.4,186,79.3,185.8,79.1z"/>
		<path class="st32" d="M191.9,83.2c0.1,0.1,0.1,0.1,0.2,0.2C192,83.3,192,83.3,191.9,83.2z"/>
		<path class="st32" d="M193.2,84.4c0,0,0.1,0.1,0.1,0.1C193.3,84.5,193.3,84.4,193.2,84.4z"/>
		<path class="st32" d="M192.3,83.5c0.1,0.1,0.1,0.1,0.2,0.2C192.4,83.6,192.4,83.6,192.3,83.5z"/>
		<path class="st32" d="M188.5,80.8c0.1,0.1,0.3,0.2,0.4,0.2C188.7,81,188.6,80.9,188.5,80.8z"/>
		<path class="st32" d="M186.6,79.6c0.3,0.2,0.5,0.3,0.8,0.5C187.2,80,186.9,79.8,186.6,79.6z"/>
		<path class="st32" d="M192.7,83.8c0.1,0,0.1,0.1,0.2,0.1C192.8,83.9,192.7,83.9,192.7,83.8z"/>
		<path class="st32" d="M193,84.1c0,0,0.1,0.1,0.1,0.1C193.1,84.2,193,84.2,193,84.1z"/>
		<path class="st32" d="M187.7,80.3c0.2,0.1,0.3,0.2,0.5,0.3C188,80.5,187.8,80.4,187.7,80.3z"/>
		<path class="st32" d="M191.4,82.9c0.1,0.1,0.2,0.1,0.2,0.2C191.6,83,191.5,82.9,191.4,82.9z"/>
		<path class="st32" d="M190.4,82.1c0.1,0.1,0.2,0.1,0.3,0.2C190.6,82.2,190.5,82.2,190.4,82.1z"/>
		<path class="st32" d="M185,78.6c0.2,0.1,0.3,0.2,0.5,0.3C185.3,78.8,185.2,78.7,185,78.6z"/>
		<path class="st32" d="M189.8,81.7c0.1,0.1,0.2,0.1,0.3,0.2C190,81.8,189.9,81.8,189.8,81.7z"/>
		<path class="st32" d="M193.7,85L193.7,85c0,0,0,0.1,0,0.1C193.7,85.1,193.7,85,193.7,85z"/>
		<path class="st32" d="M184.6,78.4L184.6,78.4L184.6,78.4L184.6,78.4z"/>
		<path class="st32" d="M193.4,84.6c0,0,0.1,0.1,0.1,0.1C193.5,84.7,193.5,84.6,193.4,84.6z"/>
		<path class="st32" d="M189.1,81.2c0.1,0.1,0.2,0.2,0.3,0.2C189.4,81.4,189.3,81.3,189.1,81.2z"/>
		<path class="st32" d="M193.6,84.8c0,0,0,0.1,0.1,0.1C193.6,84.9,193.6,84.8,193.6,84.8z"/>
		<path class="st33" d="M154.6,63.1c-0.1-0.1-0.2-0.1-0.4-0.2C154.4,63,154.5,63.1,154.6,63.1z"/>
		<path class="st33" d="M155.5,63.5c-0.1-0.1-0.3-0.1-0.4-0.2C155.3,63.4,155.4,63.4,155.5,63.5z"/>
		<path class="st33" d="M151.2,61.8c-0.1,0-0.2-0.1-0.3-0.1C151,61.7,151.1,61.7,151.2,61.8z"/>
		<path class="st33" d="M151.9,62c-0.1,0-0.2-0.1-0.3-0.1C151.8,62,151.8,62,151.9,62z"/>
		<path class="st33" d="M152.8,62.4c-0.1,0-0.1,0-0.2-0.1C152.7,62.3,152.8,62.4,152.8,62.4z"/>
		<path class="st33" d="M193.3,84.5c0,0,0.1,0.1,0.1,0.1C193.4,84.6,193.4,84.5,193.3,84.5z"/>
		<path class="st33" d="M156.4,63.9c-0.1-0.1-0.3-0.1-0.4-0.2C156.2,63.8,156.3,63.8,156.4,63.9z"/>
		<path class="st33" d="M150.5,61.5c-0.1,0-0.2-0.1-0.3-0.1C150.3,61.4,150.4,61.5,150.5,61.5z"/>
		<path class="st33" d="M193.5,84.7C193.5,84.7,193.6,84.8,193.5,84.7C193.6,84.8,193.5,84.7,193.5,84.7z"/>
		<path class="st33" d="M193.7,85.1C193.7,85.1,193.7,85.1,193.7,85.1C193.7,85.1,193.7,85.1,193.7,85.1z"/>
		<path class="st33" d="M193.6,84.9C193.6,84.9,193.7,85,193.6,84.9C193.7,85,193.6,84.9,193.6,84.9z"/>
		<path class="st33" d="M153.8,62.8c-0.1,0-0.2-0.1-0.3-0.1C153.6,62.7,153.7,62.7,153.8,62.8z"/>
		<path class="st33" d="M146.5,60.4c0,0-0.1,0-0.1,0C146.4,60.4,146.4,60.4,146.5,60.4z"/>
		<path class="st33" d="M193.1,84.2c0,0,0.1,0.1,0.1,0.1C193.2,84.3,193.1,84.3,193.1,84.2z"/>
		<path class="st33" d="M149.9,61.3c-0.1,0-0.2-0.1-0.3-0.1C149.7,61.2,149.8,61.2,149.9,61.3z"/>
		<path class="st33" d="M146.8,60.4c0,0-0.1,0-0.1,0C146.7,60.4,146.7,60.4,146.8,60.4z"/>
		<path class="st33" d="M146,60.4C146,60.4,145.9,60.4,146,60.4C145.9,60.4,146,60.4,146,60.4z"/>
		<path class="st33" d="M145.8,60.5C145.8,60.5,145.8,60.4,145.8,60.5C145.8,60.4,145.8,60.5,145.8,60.5z"/>
		<path class="st33" d="M149.3,61.1c-0.1,0-0.2-0.1-0.3-0.1C149.1,61,149.2,61,149.3,61.1z"/>
		<path class="st33" d="M147.1,60.5c0,0-0.1,0-0.1,0C147.1,60.5,147.1,60.5,147.1,60.5z"/>
		<path class="st33" d="M148.7,60.9c-0.1,0-0.2-0.1-0.2-0.1C148.6,60.8,148.6,60.9,148.7,60.9z"/>
		<path class="st33" d="M148.2,60.7c-0.1,0-0.1,0-0.2-0.1C148,60.7,148.1,60.7,148.2,60.7z"/>
		<path class="st33" d="M147.7,60.6c-0.1,0-0.1,0-0.2,0C147.6,60.6,147.6,60.6,147.7,60.6z"/>
		<path class="st33" d="M146.2,60.4L146.2,60.4L146.2,60.4z"/>
		<path class="st33" d="M190.1,81.9c0.1,0.1,0.2,0.1,0.3,0.2C190.3,82,190.2,82,190.1,81.9z"/>
		<path class="st33" d="M189.5,81.5c0.1,0.1,0.2,0.1,0.3,0.2C189.7,81.6,189.6,81.5,189.5,81.5z"/>
		<path class="st33" d="M187.4,80.1c0.1,0.1,0.2,0.1,0.3,0.2C187.6,80.2,187.5,80.2,187.4,80.1z"/>
		<path class="st33" d="M188.1,80.6c0.1,0.1,0.2,0.1,0.3,0.2C188.4,80.7,188.3,80.7,188.1,80.6z"/>
		<path class="st33" d="M186.4,79.5c0.1,0,0.1,0.1,0.2,0.1C186.6,79.6,186.5,79.6,186.4,79.5z"/>
		<path class="st33" d="M184.6,78.4c0.1,0.1,0.3,0.2,0.4,0.2C184.9,78.6,184.7,78.5,184.6,78.4z"/>
		<path class="st33" d="M185.5,78.9c0.1,0.1,0.2,0.1,0.3,0.2C185.7,79.1,185.6,79,185.5,78.9z"/>
		<path class="st33" d="M188.8,81c0.1,0.1,0.2,0.1,0.3,0.2C189,81.2,188.9,81.1,188.8,81z"/>
		<path class="st33" d="M192.5,83.7c0.1,0,0.1,0.1,0.2,0.1C192.6,83.8,192.5,83.7,192.5,83.7z"/>
		<path class="st33" d="M190.7,82.3c0.1,0.1,0.2,0.1,0.3,0.2C190.8,82.4,190.8,82.4,190.7,82.3z"/>
		<path class="st33" d="M192.8,84c0.1,0,0.1,0.1,0.1,0.1C192.9,84.1,192.9,84,192.8,84z"/>
		<path class="st33" d="M192.1,83.4c0.1,0.1,0.1,0.1,0.2,0.2C192.2,83.5,192.2,83.4,192.1,83.4z"/>
		<path class="st33" d="M191.7,83c0.1,0.1,0.1,0.1,0.2,0.2C191.8,83.1,191.7,83.1,191.7,83z"/>
		<path class="st33" d="M191.2,82.7c0.1,0.1,0.2,0.1,0.2,0.2C191.4,82.8,191.3,82.7,191.2,82.7z"/>
		<path class="st32" d="M184.6,78.4c0.1,0.1,0.3,0.2,0.4,0.2c0.2,0.1,0.3,0.2,0.5,0.3c0.1,0.1,0.2,0.1,0.3,0.2
			c0.2,0.1,0.4,0.2,0.6,0.4c0.1,0,0.1,0.1,0.2,0.1c0.3,0.2,0.5,0.3,0.8,0.5c0.1,0.1,0.2,0.1,0.3,0.2c0.2,0.1,0.3,0.2,0.5,0.3
			c0.1,0.1,0.2,0.1,0.3,0.2c0.1,0.1,0.3,0.2,0.4,0.2c0.1,0.1,0.2,0.1,0.3,0.2c0.1,0.1,0.2,0.2,0.3,0.2c0.1,0.1,0.2,0.1,0.3,0.2
			c0.1,0.1,0.2,0.1,0.3,0.2c0.1,0.1,0.2,0.1,0.3,0.2c0.1,0.1,0.2,0.1,0.3,0.2c0.1,0.1,0.2,0.1,0.3,0.2c0.1,0.1,0.2,0.1,0.3,0.2
			c0.1,0.1,0.2,0.1,0.2,0.2c0.1,0.1,0.2,0.1,0.2,0.2c0.1,0.1,0.1,0.1,0.2,0.2c0.1,0.1,0.1,0.1,0.2,0.2c0.1,0.1,0.1,0.1,0.2,0.2
			c0.1,0.1,0.1,0.1,0.2,0.2c0.1,0,0.1,0.1,0.2,0.1c0.1,0,0.1,0.1,0.2,0.1c0.1,0,0.1,0.1,0.1,0.1c0,0,0.1,0.1,0.1,0.1
			c0,0,0.1,0.1,0.1,0.1c0,0,0.1,0.1,0.1,0.1c0,0,0.1,0.1,0.1,0.1c0,0,0.1,0.1,0.1,0.1c0,0,0,0.1,0.1,0.1c0,0,0,0.1,0.1,0.1
			c0,0,0,0.1,0,0.1l0,0c0,0,0,0.1,0,0.1c0,0,0,0,0,0c0,0,0,0,0,0c0.3-1-3.1-3.7-9-7.2C184.7,78.1,184.6,78.2,184.6,78.4L184.6,78.4z
			"/>
		<path class="st33" d="M184.6,78.4c0.1,0.1,0.3,0.2,0.4,0.2c0.2,0.1,0.3,0.2,0.5,0.3c0.1,0.1,0.2,0.1,0.3,0.2
			c0.2,0.1,0.4,0.2,0.6,0.4c0.1,0,0.1,0.1,0.2,0.1c0.3,0.2,0.5,0.3,0.8,0.5c0.1,0.1,0.2,0.1,0.3,0.2c0.2,0.1,0.3,0.2,0.5,0.3
			c0.1,0.1,0.2,0.1,0.3,0.2c0.1,0.1,0.3,0.2,0.4,0.2c0.1,0.1,0.2,0.1,0.3,0.2c0.1,0.1,0.2,0.2,0.3,0.2c0.1,0.1,0.2,0.1,0.3,0.2
			c0.1,0.1,0.2,0.1,0.3,0.2c0.1,0.1,0.2,0.1,0.3,0.2c0.1,0.1,0.2,0.1,0.3,0.2c0.1,0.1,0.2,0.1,0.3,0.2c0.1,0.1,0.2,0.1,0.3,0.2
			c0.1,0.1,0.2,0.1,0.2,0.2c0.1,0.1,0.2,0.1,0.2,0.2c0.1,0.1,0.1,0.1,0.2,0.2c0.1,0.1,0.1,0.1,0.2,0.2c0.1,0.1,0.1,0.1,0.2,0.2
			c0.1,0.1,0.1,0.1,0.2,0.2c0.1,0,0.1,0.1,0.2,0.1c0.1,0,0.1,0.1,0.2,0.1c0.1,0,0.1,0.1,0.1,0.1c0,0,0.1,0.1,0.1,0.1
			c0,0,0.1,0.1,0.1,0.1c0,0,0.1,0.1,0.1,0.1c0,0,0.1,0.1,0.1,0.1c0,0,0.1,0.1,0.1,0.1c0,0,0,0.1,0.1,0.1c0,0,0,0.1,0.1,0.1
			c0,0,0,0.1,0,0.1l0,0c0,0,0,0.1,0,0.1c0,0,0,0,0,0c0,0,0,0,0,0c0.3-1-3.1-3.7-9-7.2C184.7,78.1,184.6,78.2,184.6,78.4L184.6,78.4z
			"/>
		<path class="st32" d="M193.7,85.2C193.7,85.2,193.7,85.2,193.7,85.2C193.7,85.2,193.7,85.2,193.7,85.2z"/>
		<path class="st33" d="M193.7,85.2C193.7,85.2,193.7,85.2,193.7,85.2C193.7,85.2,193.7,85.2,193.7,85.2z"/>
		<path class="st32" d="M145.8,60.4c0,0,0.1,0,0.1,0c0,0,0,0,0,0c0.1,0,0.1,0,0.2,0l0,0c0,0,0.1,0,0.1,0c0,0,0.1,0,0.1,0
			c0,0,0.1,0,0.1,0c0.1,0,0.1,0,0.2,0c0,0,0.1,0,0.1,0c0.1,0,0.2,0,0.3,0c0,0,0.1,0,0.1,0c0.1,0,0.3,0.1,0.4,0.1c0.1,0,0.1,0,0.2,0
			c0.1,0,0.2,0,0.3,0.1c0.1,0,0.1,0,0.2,0.1c0.1,0,0.2,0.1,0.3,0.1c0.1,0,0.2,0,0.2,0.1c0.1,0,0.2,0.1,0.3,0.1
			c0.1,0,0.2,0.1,0.3,0.1c0.1,0,0.2,0.1,0.3,0.1c0.1,0,0.2,0.1,0.3,0.1c0.1,0,0.2,0.1,0.3,0.1c0.1,0,0.2,0.1,0.3,0.1
			c0.1,0,0.3,0.1,0.4,0.1c0.1,0,0.2,0.1,0.3,0.1c0.1,0.1,0.3,0.1,0.5,0.2c0.1,0,0.2,0.1,0.3,0.1c0.2,0.1,0.5,0.2,0.7,0.3
			c0.1,0,0.1,0,0.2,0.1c0.2,0.1,0.4,0.2,0.6,0.2c0.1,0,0.2,0.1,0.3,0.1c0.2,0.1,0.3,0.1,0.5,0.2c0.1,0.1,0.2,0.1,0.4,0.2
			c0.2,0.1,0.3,0.1,0.5,0.2c0.1,0.1,0.3,0.1,0.4,0.2c0.2,0.1,0.3,0.1,0.5,0.2c0.1,0.1,0.3,0.1,0.4,0.2c0.1,0,0.1,0.1,0.2,0.1
			c0.1-0.1,0.1-0.2,0.2-0.3C150.4,60.9,146.2,59.6,145.8,60.4L145.8,60.4C145.8,60.5,145.8,60.4,145.8,60.4z"/>
		<path class="st33" d="M145.8,60.4c0,0,0.1,0,0.1,0c0,0,0,0,0,0c0.1,0,0.1,0,0.2,0l0,0c0,0,0.1,0,0.1,0c0,0,0.1,0,0.1,0
			c0,0,0.1,0,0.1,0c0.1,0,0.1,0,0.2,0c0,0,0.1,0,0.1,0c0.1,0,0.2,0,0.3,0c0,0,0.1,0,0.1,0c0.1,0,0.3,0.1,0.4,0.1c0.1,0,0.1,0,0.2,0
			c0.1,0,0.2,0,0.3,0.1c0.1,0,0.1,0,0.2,0.1c0.1,0,0.2,0.1,0.3,0.1c0.1,0,0.2,0,0.2,0.1c0.1,0,0.2,0.1,0.3,0.1
			c0.1,0,0.2,0.1,0.3,0.1c0.1,0,0.2,0.1,0.3,0.1c0.1,0,0.2,0.1,0.3,0.1c0.1,0,0.2,0.1,0.3,0.1c0.1,0,0.2,0.1,0.3,0.1
			c0.1,0,0.3,0.1,0.4,0.1c0.1,0,0.2,0.1,0.3,0.1c0.1,0.1,0.3,0.1,0.5,0.2c0.1,0,0.2,0.1,0.3,0.1c0.2,0.1,0.5,0.2,0.7,0.3
			c0.1,0,0.1,0,0.2,0.1c0.2,0.1,0.4,0.2,0.6,0.2c0.1,0,0.2,0.1,0.3,0.1c0.2,0.1,0.3,0.1,0.5,0.2c0.1,0.1,0.2,0.1,0.4,0.2
			c0.2,0.1,0.3,0.1,0.5,0.2c0.1,0.1,0.3,0.1,0.4,0.2c0.2,0.1,0.3,0.1,0.5,0.2c0.1,0.1,0.3,0.1,0.4,0.2c0.1,0,0.1,0.1,0.2,0.1
			c0.1-0.1,0.1-0.2,0.2-0.3C150.4,60.9,146.2,59.6,145.8,60.4L145.8,60.4C145.8,60.5,145.8,60.4,145.8,60.4z"/>
		<g class="st34">
			
				<radialGradient id="SVGID_23_" cx="176.9783" cy="161.5231" r="7.9865" gradientTransform="matrix(1 0 0 -1 0 226)" gradientUnits="userSpaceOnUse">
				<stop  offset="0" style="stop-color:#E9541C"/>
				<stop  offset="1" style="stop-color:#EA5F0C"/>
			</radialGradient>
			<path class="st35" d="M185.5,71.9L185.5,71.9c-0.1-1.3-0.3-2.5-0.7-3.7c-5-2.6-4.6-8.3-12.5-10.9c-1.3-0.2-2.6-0.3-3.9-0.2
				c4.8,2.2,9.2,5.4,12.8,9.4C183,68.3,183.9,71.2,185.5,71.9z"/>
			
				<radialGradient id="SVGID_24_" cx="170.8787" cy="155.4386" r="12.852" gradientTransform="matrix(1 0 0 -1 0 226)" gradientUnits="userSpaceOnUse">
				<stop  offset="0" style="stop-color:#E9541C"/>
				<stop  offset="1" style="stop-color:#EA5F0C"/>
			</radialGradient>
			<path class="st36" d="M183.8,80.2c0.8-1.5,1.3-3.1,1.6-4.8c-9.8-3.5-12.8-13.2-24.2-15.8c-1.9,1.2-3.5,2.8-4.8,4.7
				c6.7,1.5,13.1,4.5,18.6,8.6c3,2.4,4.2,6.6,7.9,8.7C183.3,81.1,183.5,80.6,183.8,80.2z"/>
			
				<radialGradient id="SVGID_25_" cx="163.2953" cy="141.4184" r="6.0873" gradientTransform="matrix(1 0 0 -1 0 226)" gradientUnits="userSpaceOnUse">
				<stop  offset="0" style="stop-color:#E9541C"/>
				<stop  offset="1" style="stop-color:#EA5F0C"/>
			</radialGradient>
			<path class="st37" d="M155.8,80.4c0.3,0.6,0.7,1.2,1.1,1.7c0.7,0.2,7,0.4,10.5,2.8c1.2,0.8,2,2.2,2.2,3.7c0,0,0,0.1,0,0.1
				c0.5,0,0.9,0,1.3,0C168.7,82.2,156.2,80.5,155.8,80.4z"/>
		</g>
		<path class="st38" d="M177.2,65c-0.7-0.6-2-1.4-3.1-0.9c-1.6,0.8-1.9,5.4,0.6,7s4.1,0.3,4.4-1.5C179.3,67.8,178.6,66.1,177.2,65z"
			/>
		
			<radialGradient id="SVGID_26_" cx="-221.0223" cy="-198.9123" r="23.761" gradientTransform="matrix(0.9054 -0.4245 -0.4245 -0.9054 135.3219 -235.1092)" gradientUnits="userSpaceOnUse">
			<stop  offset="0" style="stop-color:#5920A1"/>
			<stop  offset="0.205" style="stop-color:#4C1A8C"/>
			<stop  offset="0.7383" style="stop-color:#2C0A58"/>
			<stop  offset="1" style="stop-color:#200444"/>
		</radialGradient>
		<circle class="st39" cx="25.8" cy="41.9" r="19.7"/>
		<g>
			<defs>
				<circle id="SVGID_27_" cx="25.8" cy="41.9" r="19.7"/>
			</defs>
			<clipPath id="SVGID_28_">
				<use xlink:href="#SVGID_27_"  style="overflow:visible;"/>
			</clipPath>
			<g class="st40">
				
					<radialGradient id="SVGID_29_" cx="-216.3814" cy="-204.3297" r="24.0356" gradientTransform="matrix(0.9054 -0.4245 -0.4245 -0.9054 135.2954 -235.1149)" gradientUnits="userSpaceOnUse">
					<stop  offset="0" style="stop-color:#D2F1E7"/>
					<stop  offset="9.879000e-02" style="stop-color:#B3EDE2"/>
					<stop  offset="0.2508" style="stop-color:#89E8DB"/>
					<stop  offset="0.3991" style="stop-color:#68E3D5"/>
					<stop  offset="0.5404" style="stop-color:#50E0D1"/>
					<stop  offset="0.6721" style="stop-color:#42DFCF"/>
					<stop  offset="0.7843" style="stop-color:#3DDECE"/>
				</radialGradient>
				<path class="st41" d="M10.9,27.6c1.6-0.6,3.1-1.2,4.6-2c1.5-1,2.9-2,4.4-3c0.4-0.3,0.9-0.6,1.3-1c-4.3,0.8-8.2,3.1-11.1,6.4
					C10.4,27.9,10.6,27.8,10.9,27.6z"/>
				
					<radialGradient id="SVGID_30_" cx="26.9016" cy="99.7305" r="24.0362" gradientTransform="matrix(1 0 0 -1 0 226)" gradientUnits="userSpaceOnUse">
					<stop  offset="0" style="stop-color:#D2F1E7"/>
					<stop  offset="9.879000e-02" style="stop-color:#B3EDE2"/>
					<stop  offset="0.2508" style="stop-color:#89E8DB"/>
					<stop  offset="0.3991" style="stop-color:#68E3D5"/>
					<stop  offset="0.5404" style="stop-color:#50E0D1"/>
					<stop  offset="0.6721" style="stop-color:#42DFCF"/>
					<stop  offset="0.7843" style="stop-color:#3DDECE"/>
				</radialGradient>
				<path class="st42" d="M12.3,29.8c1.8-0.9,3.8-1.6,5.6-2.4c2.1-0.9,4-2.2,5.8-3.6c0.9-0.8,1.7-1.6,2.4-2.5c-1-0.1-1.9,0-2.9,0.1
					c-1.4,1.8-4,3.1-5.7,4.3c-1.7,1.2-3.6,2.1-5.5,2.8c-1.1,0.4-2,1.1-3.1,1.6c-0.2,0.1-0.3,0.1-0.5,0.2C8,31,7.5,31.7,7.1,32.6
					C8.8,31.5,10.5,30.6,12.3,29.8z"/>
				
					<radialGradient id="SVGID_31_" cx="26.9017" cy="99.7313" r="24.0351" gradientTransform="matrix(1 0 0 -1 0 226)" gradientUnits="userSpaceOnUse">
					<stop  offset="0" style="stop-color:#D2F1E7"/>
					<stop  offset="9.879000e-02" style="stop-color:#B3EDE2"/>
					<stop  offset="0.2508" style="stop-color:#89E8DB"/>
					<stop  offset="0.3991" style="stop-color:#68E3D5"/>
					<stop  offset="0.5404" style="stop-color:#50E0D1"/>
					<stop  offset="0.6721" style="stop-color:#42DFCF"/>
					<stop  offset="0.7843" style="stop-color:#3DDECE"/>
				</radialGradient>
				<path class="st43" d="M28.8,23.3c-1.3,1-2.6,1.9-4,2.8c-1.8,1.3-2.4,2.9-3.6,4.7c-0.8,1.1-1.8,2-3,2.8c-1,0.9-2.2,1.6-3.5,2.1
					c-1.4,0.4-3,0.1-4.4,0.5C9,36.5,8,37.6,6.6,38c-0.4,0.1-0.8,0.2-1.2,0.2c-0.2,1-0.2,2-0.2,3c0.5-0.4,1-0.7,1.5-1
					c1.3-0.4,2.6-0.8,4-1c1.8-0.5,3.3-1.9,5-2.8c1.5-0.7,3-1.3,4.5-2c3.3-1.7,6.1-4.3,8.8-6.7c1.2-1.1,2.6-1.8,3.5-3.3
					c0.3-0.5,0.5-1.1,0.8-1.6c-1-0.4-2-0.8-3.1-1.1C29.8,22.4,29.3,22.9,28.8,23.3z"/>
				
					<radialGradient id="SVGID_32_" cx="26.9017" cy="99.7314" r="24.0351" gradientTransform="matrix(1 0 0 -1 0 226)" gradientUnits="userSpaceOnUse">
					<stop  offset="0" style="stop-color:#D2F1E7"/>
					<stop  offset="9.879000e-02" style="stop-color:#B3EDE2"/>
					<stop  offset="0.2508" style="stop-color:#89E8DB"/>
					<stop  offset="0.3991" style="stop-color:#68E3D5"/>
					<stop  offset="0.5404" style="stop-color:#50E0D1"/>
					<stop  offset="0.6721" style="stop-color:#42DFCF"/>
					<stop  offset="0.7843" style="stop-color:#3DDECE"/>
				</radialGradient>
				<path class="st44" d="M33.9,24.3c-0.2,0.5-0.5,1-0.8,1.4c-0.9,1.1-2,2-3.1,2.8c-1.2,1-2.3,2.2-3.6,3.1c-1.4,1-2.7,2.1-4.1,3
					c-1.5,0.9-3.1,1.7-4.7,2.3c-1.5,0.7-3,1.5-4.5,2.4c-1.2,0.7-2.5,1.2-3.8,1.4c-1.5,0.2-3,0.9-4.1,2.1c0.1,0.9,0.2,1.8,0.4,2.7
					c1.3-0.4,2.5-0.9,3.7-1.5c1.5-0.7,3.1-1.3,4.7-1.8c2-0.7,3.9-1.7,5.8-2.8c1.6-1.1,3.1-2.2,4.7-3.2c1.7-1.1,3.4-2.4,4.8-3.9
					c0.9-1.2,1.9-2.4,3-3.4c1.4-1.2,2.5-2.8,2.9-4.6c0-0.1,0.1-0.2,0.1-0.4c-0.3-0.2-0.6-0.3-0.9-0.5C34.2,23.7,34.1,24,33.9,24.3z"
					/>
				
					<radialGradient id="SVGID_33_" cx="26.9017" cy="99.7315" r="24.035" gradientTransform="matrix(1 0 0 -1 0 226)" gradientUnits="userSpaceOnUse">
					<stop  offset="0" style="stop-color:#D2F1E7"/>
					<stop  offset="9.879000e-02" style="stop-color:#B3EDE2"/>
					<stop  offset="0.2508" style="stop-color:#89E8DB"/>
					<stop  offset="0.3991" style="stop-color:#68E3D5"/>
					<stop  offset="0.5404" style="stop-color:#50E0D1"/>
					<stop  offset="0.6721" style="stop-color:#42DFCF"/>
					<stop  offset="0.7843" style="stop-color:#3DDECE"/>
				</radialGradient>
				<path class="st45" d="M35.4,27.1c-0.8,1.6-2.1,2.2-3.3,3.4c-1.2,1.2-2,2.7-3.3,3.8c-1.3,1.1-2.7,2.1-4.1,3.1
					c-1.7,1.1-3.3,2.3-5,3.4c-1.6,0.9-3.2,1.7-4.9,2.3c-1.7,0.6-3.4,1.2-5,2c-1.3,0.7-2.7,1-4,1.6c0.1,0.3,0.2,0.7,0.3,1
					c2.5-1.5,5.8-1.8,8.4-3.1c3.1-1.6,6-3.4,8.8-5.5c1.7-1.1,3.3-2.3,4.9-3.6c1.4-1.2,2.6-2.5,3.9-3.7c1.3-1.1,2.5-2.4,3.5-3.8
					c0.6-0.9,1.2-1.8,1.8-2.7c-0.4-0.3-0.8-0.5-1.1-0.8C35.9,25.4,35.7,26.5,35.4,27.1z"/>
				
					<radialGradient id="SVGID_34_" cx="26.9018" cy="99.7317" r="24.035" gradientTransform="matrix(1 0 0 -1 0 226)" gradientUnits="userSpaceOnUse">
					<stop  offset="0" style="stop-color:#D2F1E7"/>
					<stop  offset="9.879000e-02" style="stop-color:#B3EDE2"/>
					<stop  offset="0.2508" style="stop-color:#89E8DB"/>
					<stop  offset="0.3991" style="stop-color:#68E3D5"/>
					<stop  offset="0.5404" style="stop-color:#50E0D1"/>
					<stop  offset="0.6721" style="stop-color:#42DFCF"/>
					<stop  offset="0.7843" style="stop-color:#3DDECE"/>
				</radialGradient>
				<path class="st46" d="M40.6,31.2c-0.9,1.6-1.4,3.3-2.9,4.5c-0.7,0.6-1.3,1.4-1.7,2.2c-0.5,0.8-1.5,1-2.1,1.6
					c-0.5,0.7-1.1,1.3-1.7,2c-0.8,0.5-1.6,1-2.4,1.3c-1.9,1-3.8,2.1-5.8,2.9c-2,0.7-4,1.7-5.7,2.9c-1.5,1.3-3.1,2.5-4.8,3.6
					c-1.3,0.7-2.8,1.2-4.2,1.5l0,0c0.5,0.6,1,1.3,1.5,1.9c1-0.3,1.9-0.9,2.6-1.6c1.4-1.3,2.7-2.7,4.2-3.8c0.7-0.6,1.5-1,2.3-1.4
					c0.8-0.3,1.7-0.4,2.5-0.8c1.6-0.8,3.2-1.6,4.7-2.5c3.4-2,7-4.7,9.3-8c1-1.6,2.5-2.7,3.6-4.2c0.7-1,1.6-2,2.5-2.8
					c0-0.1-0.1-0.1-0.1-0.2c-0.2-0.3-0.4-0.6-0.6-0.8C41.3,30.1,40.8,30.7,40.6,31.2z"/>
				
					<radialGradient id="SVGID_35_" cx="26.9018" cy="99.7318" r="24.0351" gradientTransform="matrix(1 0 0 -1 0 226)" gradientUnits="userSpaceOnUse">
					<stop  offset="0" style="stop-color:#D2F1E7"/>
					<stop  offset="9.879000e-02" style="stop-color:#B3EDE2"/>
					<stop  offset="0.2508" style="stop-color:#89E8DB"/>
					<stop  offset="0.3991" style="stop-color:#68E3D5"/>
					<stop  offset="0.5404" style="stop-color:#50E0D1"/>
					<stop  offset="0.6721" style="stop-color:#42DFCF"/>
					<stop  offset="0.7843" style="stop-color:#3DDECE"/>
				</radialGradient>
				<path class="st47" d="M39.7,35.4c-0.8,0.7-1.5,1.5-2.2,2.3c-0.4,0.7-0.8,1.3-1.3,1.9c-2.5,2.7-5.5,5.1-8.7,7
					c-1.6,1-3.3,1.9-5,2.6c-0.8,0.3-1.7,0.4-2.6,0.8c-1.1,0.6-2,1.3-2.9,2.1c-1.4,1.2-2.7,2.7-4.1,3.8c-0.4,0.3-0.8,0.5-1.3,0.7
					c0.5,0.5,1,0.9,1.5,1.3c2.5-1.8,5.1-3.4,7.7-4.8c3.3-1.8,6.1-4.3,9.2-6.6c1.5-1.1,2.8-2.4,4.4-3.4c1.6-1,3.2-1.7,4.5-3.2
					c0.5-0.6,1-1.3,1.4-2c0.2-1.5,0.7-2.9,1.4-4.1c0.3-0.5,1-1.4,1.4-2.3c0,0,0-0.1,0.1-0.1l0,0C41.8,32.6,40.9,34.1,39.7,35.4z"/>
				
					<radialGradient id="SVGID_36_" cx="26.9019" cy="99.7319" r="24.0352" gradientTransform="matrix(1 0 0 -1 0 226)" gradientUnits="userSpaceOnUse">
					<stop  offset="0" style="stop-color:#D2F1E7"/>
					<stop  offset="9.879000e-02" style="stop-color:#B3EDE2"/>
					<stop  offset="0.2508" style="stop-color:#89E8DB"/>
					<stop  offset="0.3991" style="stop-color:#68E3D5"/>
					<stop  offset="0.5404" style="stop-color:#50E0D1"/>
					<stop  offset="0.6721" style="stop-color:#42DFCF"/>
					<stop  offset="0.7843" style="stop-color:#3DDECE"/>
				</radialGradient>
				<path class="st48" d="M41.2,38.4c0,1.3-0.6,2.6-1.5,3.6c-0.9,0.8-2,1-2.9,1.9c-0.7,0.7-1.4,1.5-1.9,2.3c-0.8,1.6-2.1,3-3.8,3.7
					c-2.2,1-4.3,2.1-6.3,3.4c-1.9,1.2-3.3,3-5.4,4.1c-1,0.5-2,0.9-3,1.5c-0.4,0.3-0.8,0.5-1.3,0.7c0.3,0.2,0.6,0.4,0.9,0.5
					c1-0.4,1.9-0.9,2.9-1.3c0.9-0.3,1.8-0.7,2.7-1.2c0.6-0.5,1.3-0.9,2-1.2c3.1-1.4,6.4-2.5,9.2-4.5c3-2.2,5.9-4.3,7.5-7.8
					c0.7-1.4,1.5-2.8,2.4-4.1c0.8-1.2,1.8-2.2,2.7-3.3c-0.4-1.4-1-2.7-1.7-4C43,34.6,42.2,36.5,41.2,38.4z"/>
				
					<radialGradient id="SVGID_37_" cx="26.9019" cy="99.732" r="24.0352" gradientTransform="matrix(1 0 0 -1 0 226)" gradientUnits="userSpaceOnUse">
					<stop  offset="0" style="stop-color:#D2F1E7"/>
					<stop  offset="9.879000e-02" style="stop-color:#B3EDE2"/>
					<stop  offset="0.2508" style="stop-color:#89E8DB"/>
					<stop  offset="0.3991" style="stop-color:#68E3D5"/>
					<stop  offset="0.5404" style="stop-color:#50E0D1"/>
					<stop  offset="0.6721" style="stop-color:#42DFCF"/>
					<stop  offset="0.7843" style="stop-color:#3DDECE"/>
				</radialGradient>
				<path class="st49" d="M44.6,40.1c-1.2,1.6-1.2,3.2-1.5,5.1c-0.2,1.3-0.8,2.4-1.8,3.2c-1.7,1.5-2.5,3.2-3.8,5
					c-1.1,1.6-2.9,2.4-4.6,3.2c-1.6,0.8-3.4,1.4-5.2,1.8c-0.9,0.2-1.8,0.2-2.7,0.3c-0.9,0.2-1.8,0.5-2.7,1c-1.3,0.6-2.8,0.9-4.1,1.4
					c1.6,0.7,3.3,1.2,5,1.5c0.7-0.7,1.5-1.2,2.4-1.6c1.4-0.5,2.9-1.1,4.2-1.8c1.1-0.6,2.1-1.4,3.3-1.9c1.4-0.5,2.7-1.2,3.9-1.9
					c2.6-1.7,4.9-3.8,6.7-6.3c0.7-1.2,1.6-2.4,2.5-3.5c0.3-2.3,0.2-4.6-0.2-6.9C45.4,39.1,45,39.6,44.6,40.1z"/>
				
					<radialGradient id="SVGID_38_" cx="26.902" cy="99.7323" r="24.0356" gradientTransform="matrix(1 0 0 -1 0 226)" gradientUnits="userSpaceOnUse">
					<stop  offset="0" style="stop-color:#D2F1E7"/>
					<stop  offset="9.879000e-02" style="stop-color:#B3EDE2"/>
					<stop  offset="0.2508" style="stop-color:#89E8DB"/>
					<stop  offset="0.3991" style="stop-color:#68E3D5"/>
					<stop  offset="0.5404" style="stop-color:#50E0D1"/>
					<stop  offset="0.6721" style="stop-color:#42DFCF"/>
					<stop  offset="0.7843" style="stop-color:#3DDECE"/>
				</radialGradient>
				<path class="st50" d="M42.9,52.8c-1.3,0.7-2.6,1.5-3.8,2.3c-1.1,1.1-2.2,2.1-3.5,2.9c-1.4,0.8-2.9,1.3-4.3,2.1
					C30,61,28.8,62,27.5,62.8c1.5-0.1,2.9-0.3,4.3-0.7c1-0.8,1.9-1.9,2.9-2.6c1-0.8,2.1-1.4,3.2-2.2c1.4-0.9,2.9-1.8,4.5-2.4
					c0.7-0.9,1.3-1.9,1.8-3C43.8,52.2,43.4,52.5,42.9,52.8z"/>
			</g>
		</g>
		
			<linearGradient id="SVGID_39_" gradientUnits="userSpaceOnUse" x1="-231.8612" y1="-191.4033" x2="-212.2192" y2="-208.2928" gradientTransform="matrix(0.9054 -0.4245 -0.4245 -0.9054 135.2954 -235.1149)">
			<stop  offset="5.847000e-02" style="stop-color:#3DDECE;stop-opacity:0"/>
			<stop  offset="1" style="stop-color:#3DDECE"/>
		</linearGradient>
		<path class="st51" d="M28.8,22.4C18.1,20.7,8,28.1,6.3,38.8c-1.5,9.7,4.4,19.1,13.8,21.9c0.3,0.1-10.5-15.5,2.2-25
			c5.9-4.4,0.2-7.1,1.3-11C24.4,22.3,27.5,22.2,28.8,22.4z"/>
		
			<radialGradient id="SVGID_40_" cx="-212.1973" cy="-209.3166" r="20.5111" gradientTransform="matrix(0.9054 -0.4245 -0.4245 -0.9054 135.2954 -235.1149)" gradientUnits="userSpaceOnUse">
			<stop  offset="0.3415" style="stop-color:#4D1497"/>
			<stop  offset="0.5091" style="stop-color:#431183"/>
			<stop  offset="0.8506" style="stop-color:#280850"/>
			<stop  offset="0.9759" style="stop-color:#1E053B"/>
		</radialGradient>
		<path class="st52" d="M29.4,22.5c3.5,2.2,6.3,5.4,8,9.1c4.8,10,0.8,21.9-9,27C26.2,60,23.7,60.8,21,61
			c10.6,2.6,21.2-3.8,23.8-14.4c2.6-10.6-3.8-21.2-14.4-23.8C30.2,22.7,29.8,22.6,29.4,22.5L29.4,22.5z"/>
		
			<radialGradient id="SVGID_41_" cx="126.8968" cy="488.605" r="15.8975" gradientTransform="matrix(0.9135 0.4069 0.4069 -0.9135 -291.238 501.163)" gradientUnits="userSpaceOnUse">
			<stop  offset="0" style="stop-color:#D2A6FF"/>
			<stop  offset="1" style="stop-color:#CC96FF"/>
		</radialGradient>
		<path class="st53" d="M36.7,116.3c3-6.6,0-14.4-6.7-17.4c-6.6-3-14.4,0-17.4,6.7c-3,6.6,0,14.4,6.7,17.4
			C25.9,125.9,33.7,122.9,36.7,116.3C36.7,116.3,36.7,116.3,36.7,116.3z"/>
		
			<linearGradient id="SVGID_42_" gradientUnits="userSpaceOnUse" x1="119.6375" y1="493.6432" x2="132.7785" y2="482.3437" gradientTransform="matrix(0.9135 0.4069 0.4069 -0.9135 -291.238 501.163)">
			<stop  offset="5.847000e-02" style="stop-color:#E6F1FF;stop-opacity:0"/>
			<stop  offset="1" style="stop-color:#E6F1FF"/>
		</linearGradient>
		<path class="st54" d="M35.8,103.9c-3.9-6.2-12-8.1-18.1-4.2c-5.6,3.5-7.7,10.5-5,16.6c0.1,0.2,3.3-12.1,13.7-9.8
			c4.9,1.1,3.7-3,6.2-4.1C33.9,101.6,35.3,103.2,35.8,103.9z"/>
		<path class="st55" d="M36,104.3c0.4,2.7,0,5.5-1.1,8.1c-3,6.8-10.7,10-17.6,7.3c-1.7-0.6-3.2-1.6-4.4-2.8
			c3.3,6.5,11.2,9.1,17.7,5.8c6.5-3.3,9.1-11.2,5.8-17.7C36.3,104.7,36.2,104.5,36,104.3z"/>
		
			<radialGradient id="SVGID_43_" cx="-1214.6771" cy="1253.2291" r="14.3789" gradientTransform="matrix(-0.4417 0.8971 0.8971 0.4417 -1487.1854 551.1097)" gradientUnits="userSpaceOnUse">
			<stop  offset="0" style="stop-color:#FF61C6"/>
			<stop  offset="0.573" style="stop-color:#FF40C8"/>
			<stop  offset="1" style="stop-color:#FF2CCA"/>
		</radialGradient>
		<path class="st56" d="M164.3,26.5c5.9,2.9,13,0.5,16-5.4s0.5-13-5.4-16s-13-0.5-16,5.4c0,0,0,0,0,0
			C156,16.5,158.4,23.6,164.3,26.5z"/>
	</g>
</g>
</svg>
